<?xml version="1.0" encoding="utf-8"?>
<!-- Generator: Adobe Illustrator 16.0.0, SVG Export Plug-In . SVG Version: 6.00 Build 0)  -->
<!DOCTYPE svg PUBLIC "-//W3C//DTD SVG 1.1//EN" "http://www.w3.org/Graphics/SVG/1.1/DTD/svg11.dtd">
<svg version="1.1" id="Calque_2" xmlns="http://www.w3.org/2000/svg" xmlns:xlink="http://www.w3.org/1999/xlink" x="0px" y="0px"
	 width="561.002px" height="120.835px" viewBox="0 0 561.002 120.835" enable-background="new 0 0 561.002 120.835"
	 xml:space="preserve">
<path fill="#FFFFFF" d="M72.782,24.167H0V0h386.269c0,13.348-12.819,24.167-26.167,24.167l-19.686,0
	c-13.346,0-24.166,10.819-24.166,24.166c0,13.348,10.82,24.168,24.166,24.168h196.419c13.348,0,24.167,10.819,24.167,24.166
	c0,13.348-10.819,24.168-24.167,24.168l-484.333-0.001c-13.347,0-24.167-10.819-24.167-24.167c0-13.347,10.82-24.166,24.167-24.166
	h20.28c13.347,0,24.167-10.82,24.167-24.167C96.948,34.987,86.128,24.167,72.782,24.167"/>
</svg>
