<?xml version="1.0" encoding="UTF-8"?>
<svg width="177px" height="69px" viewBox="0 0 177 69" version="1.1" xmlns="http://www.w3.org/2000/svg" xmlns:xlink="http://www.w3.org/1999/xlink">
    <!-- Generator: Sketch 50.2 (55047) - http://www.bohemiancoding.com/sketch -->
    <title>Group 47</title>
    <desc>Created with Sketch.</desc>
    <defs></defs>
    <g id="Desktop" stroke="none" stroke-width="1" fill="none" fill-rule="evenodd">
        <g id="02-Desktop-Health-Units" transform="translate(-209.000000, -834.000000)">
            <g id="Group-47" transform="translate(209.000000, 834.000000)">
                <path d="M45.8786005,3.81865187 C45.8786005,4.98129181 45.5269937,5.90455085 44.8237695,6.58845669 C44.1205452,7.27236254 43.1987652,7.61431033 42.0584016,7.61431033 C40.918038,7.61431033 40.0057608,7.27236254 39.3215426,6.58845669 C38.6373245,5.90455085 38.2952205,4.98129181 38.2952205,3.81865187 C38.2952205,2.69020723 38.6373245,1.77549689 39.3215426,1.0744934 C40.0057608,0.373489906 40.918038,0.022993419 42.0584016,0.022993419 C43.1987652,0.022993419 44.1205452,0.364941212 44.8237695,1.04884706 C45.5269937,1.7327529 45.8786005,2.65601194 45.8786005,3.81865187 Z" id="Path-Copy-4" fill="#DBA1D7" transform="translate(42.086911, 3.818652) scale(-1, 1) translate(-42.086911, -3.818652) "></path>
                <path d="M36.4305216,3.72343076 C36.4305216,4.78091821 36.0548902,5.65235313 35.303616,6.33776166 C34.5523418,7.02317019 33.4739161,7.36586932 32.0683064,7.36586932 L5.18251983,7.36586932 C3.77691012,7.36586932 2.71060151,7.02317019 1.983562,6.33776166 C1.25652249,5.65235313 0.893008192,4.78091821 0.893008192,3.72343076 C0.893008192,2.66594331 1.25652249,1.78471698 1.983562,1.07972535 C2.71060151,0.374733715 3.77691012,0.0222431858 5.18251983,0.0222431858 L32.0683064,0.0222431858 C33.4739161,0.0222431858 34.5523418,0.374733715 35.303616,1.07972535 C36.0548902,1.78471698 36.4305216,2.66594331 36.4305216,3.72343076 Z" id="Path-Copy-3" fill="#E5D4F9" transform="translate(18.661765, 3.694056) scale(-1, 1) translate(-18.661765, -3.694056) "></path>
                <path d="M47.3701809,17.9716024 C47.3701809,19.0411004 46.9920879,19.9224327 46.2358907,20.6156259 C45.4796934,21.308819 44.3942007,21.6554104 42.97938,21.6554104 L28.9511741,21.6554104 C27.5363534,21.6554104 26.4630572,21.308819 25.7312534,20.6156259 C24.9994496,19.9224327 24.6335532,19.0411004 24.6335532,17.9716024 C24.6335532,16.9021044 24.9994496,16.0108695 25.7312534,15.2978708 C26.4630572,14.5848721 27.5363534,14.2283782 28.9511741,14.2283782 L42.97938,14.2283782 C44.3942007,14.2283782 45.4796934,14.5848721 46.2358907,15.2978708 C46.9920879,16.0108695 47.3701809,16.9021044 47.3701809,17.9716024 Z" id="Path-Copy-2" fill="#D4C0F2"></path>
                <path d="M51.3874262,17.948096 C51.3874262,19.010918 51.7416231,19.8867489 52.4500276,20.575615 C53.158432,21.264481 54.1753198,21.6089089 55.5007217,21.6089089 L61.4170116,21.6089089 C62.7424134,21.6089089 63.7478755,21.264481 64.4334282,20.575615 C65.1189809,19.8867489 65.461752,19.010918 65.461752,17.948096 C65.461752,16.8852741 65.1189809,15.9996024 64.4334282,15.2910544 C63.7478755,14.5825064 62.7424134,14.2282377 61.4170116,14.2282377 L55.5007217,14.2282377 C54.1753198,14.2282377 53.158432,14.5825064 52.4500276,15.2910544 C51.7416231,15.9996024 51.3874262,16.8852741 51.3874262,17.948096 Z" id="Path-Copy-26" fill="#9676CC"></path>
                <path d="M69.542154,17.948096 C69.542154,19.010918 69.8963509,19.8867489 70.6047554,20.575615 C71.3131598,21.264481 72.3300476,21.6089089 73.6554494,21.6089089 L79.5717393,21.6089089 C80.8971412,21.6089089 81.9026033,21.264481 82.588156,20.575615 C83.2737086,19.8867489 83.6164798,19.010918 83.6164798,17.948096 C83.6164798,16.8852741 83.2737086,15.9996024 82.588156,15.2910544 C81.9026033,14.5825064 80.8971412,14.2282377 79.5717393,14.2282377 L73.6554494,14.2282377 C72.3300476,14.2282377 71.3131598,14.5825064 70.6047554,15.2910544 C69.8963509,15.9996024 69.542154,16.8852741 69.542154,17.948096 Z" id="Path-Copy-27" fill="#9676CC"></path>
                <g id="Group-38" transform="translate(130.000000, 60.000000)">
                    <path d="M46.625364,4.6057837 C46.625364,5.66327115 46.2497326,6.53470607 45.4984584,7.2201146 C44.7471842,7.90552313 43.6687585,8.24822226 42.2631488,8.24822226 L15.3773622,8.24822226 C13.9717525,8.24822226 12.9054439,7.90552313 12.1784044,7.2201146 C11.4513649,6.53470607 11.0878506,5.66327115 11.0878506,4.6057837 C11.0878506,3.54829625 11.4513649,2.66706992 12.1784044,1.96207829 C12.9054439,1.25708666 13.9717525,0.904596127 15.3773622,0.904596127 L42.2631488,0.904596127 C43.6687585,0.904596127 44.7471842,1.25708666 45.4984584,1.96207829 C46.2497326,2.66706992 46.625364,3.54829625 46.625364,4.6057837 Z" id="Path-Copy-18" fill="#D587D0" transform="translate(28.856607, 4.576409) scale(-1, -1) translate(-28.856607, -4.576409) "></path>
                    <path d="M7.66083547,4.70100482 C7.66083547,5.86364475 7.30922863,6.78690379 6.60600441,7.47080963 C5.9027802,8.15471548 4.98100011,8.49666327 3.84063652,8.49666327 C2.70027292,8.49666327 1.78799573,8.15471548 1.10377757,7.47080963 C0.419559408,6.78690379 0.0774554607,5.86364475 0.0774554607,4.70100482 C0.0774554607,3.57256017 0.419559408,2.65784983 1.10377757,1.95684634 C1.78799573,1.25584285 2.70027292,0.90534636 3.84063652,0.90534636 C4.98100011,0.90534636 5.9027802,1.24729415 6.60600441,1.9312 C7.30922863,2.61510584 7.66083547,3.53836488 7.66083547,4.70100482 Z" id="Path-Copy-19" fill="#DBA1D7" transform="translate(3.869145, 4.701005) scale(-1, -1) translate(-3.869145, -4.701005) "></path>
                </g>
                <path d="M138.630979,52.955449 C138.630979,54.0182709 138.985176,54.8941018 139.693581,55.5829679 C140.401985,56.271834 141.418873,56.6162619 142.744275,56.6162619 L148.660565,56.6162619 C149.985966,56.6162619 150.991429,56.271834 151.676981,55.5829679 C152.362534,54.8941018 152.705305,54.0182709 152.705305,52.955449 C152.705305,51.892627 152.362534,51.0069553 151.676981,50.2984073 C150.991429,49.5898594 149.985966,49.2355907 148.660565,49.2355907 L142.744275,49.2355907 C141.418873,49.2355907 140.401985,49.5898594 139.693581,50.2984073 C138.985176,51.0069553 138.630979,51.892627 138.630979,52.955449 Z" id="Combined-Shape-Copy-4" fill="#A26AB5" transform="translate(145.668142, 52.925926) scale(-1, -1) translate(-145.668142, -52.925926) "></path>
            </g>
        </g>
    </g>
</svg>