<?xml version="1.0" encoding="UTF-8"?>
<svg width="60px" height="8px" viewBox="0 0 60 8" version="1.1" xmlns="http://www.w3.org/2000/svg" xmlns:xlink="http://www.w3.org/1999/xlink">
    <!-- Generator: Sketch 50.2 (55047) - http://www.bohemiancoding.com/sketch -->
    <title>Group 39</title>
    <desc>Created with Sketch.</desc>
    <defs></defs>
    <g id="Desktop" stroke="none" stroke-width="1" fill="none" fill-rule="evenodd">
        <g id="02-Desktop-Health-Units" transform="translate(-1274.000000, -1022.000000)">
            <g id="Group-39" transform="translate(1304.000000, 1026.000000) scale(-1, 1) translate(-1304.000000, -1026.000000) translate(1274.000000, 1022.000000)">
                <path d="M23.4209067,3.84743381 C23.4209067,4.91976473 23.0443039,5.80343159 22.291087,6.49846089 C21.5378701,7.1934902 20.4566557,7.54099963 19.0474112,7.54099963 L5.07449436,7.54099963 C3.66524988,7.54099963 2.59618389,7.1934902 1.86726434,6.49846089 C1.13834478,5.80343159 0.773890465,4.91976473 0.773890465,3.84743381 C0.773890465,2.77510288 1.13834478,1.88150718 1.86726434,1.1666199 C2.59618389,0.451732615 3.66524988,0.0942943353 5.07449436,0.0942943353 L19.0474112,0.0942943353 C20.4566557,0.0942943353 21.5378701,0.451732615 22.291087,1.1666199 C23.0443039,1.88150718 23.4209067,2.77510288 23.4209067,3.84743381 Z" id="Path-Copy" fill="#E5D4F9"></path>
                <path d="M27.5700876,3.82401884 C27.5700876,4.88965605 27.9228885,5.76780688 28.6285009,6.45849767 C29.3341133,7.14918846 30.3469933,7.49452867 31.6671713,7.49452867 L37.5601435,7.49452867 C38.8803215,7.49452867 39.8818208,7.14918846 40.5646715,6.45849767 C41.2475222,5.76780688 41.5889425,4.88965605 41.5889425,3.82401884 C41.5889425,2.75838162 41.2475222,1.87036393 40.5646715,1.15993912 C39.8818208,0.449514305 38.8803215,0.094307228 37.5601435,0.094307228 L31.6671713,0.094307228 C30.3469933,0.094307228 29.3341133,0.449514305 28.6285009,1.15993912 C27.9228885,1.87036393 27.5700876,2.75838162 27.5700876,3.82401884 Z" id="Path-Copy-15" fill="#9676CC"></path>
                <path d="M45.7729045,3.82401884 C45.7729045,4.88965605 46.1257054,5.76780688 46.8313178,6.45849767 C47.5369302,7.14918846 48.5498102,7.49452867 49.8699882,7.49452867 L55.7629604,7.49452867 C57.0831384,7.49452867 58.0846377,7.14918846 58.7674884,6.45849767 C59.4503391,5.76780688 59.7917594,4.88965605 59.7917594,3.82401884 C59.7917594,2.75838162 59.4503391,1.87036393 58.7674884,1.15993912 C58.0846377,0.449514305 57.0831384,0.094307228 55.7629604,0.094307228 L49.8699882,0.094307228 C48.5498102,0.094307228 47.5369302,0.449514305 46.8313178,1.15993912 C46.1257054,1.87036393 45.7729045,2.75838162 45.7729045,3.82401884 Z" id="Path-Copy-14" fill="#D4C0F2"></path>
            </g>
        </g>
    </g>
</svg>