<?xml version="1.0" encoding="UTF-8"?>
<svg width="50px" height="9px" viewBox="0 0 50 9" version="1.1" xmlns="http://www.w3.org/2000/svg" xmlns:xlink="http://www.w3.org/1999/xlink">
    <!-- Generator: Sketch 50.2 (55047) - http://www.bohemiancoding.com/sketch -->
    <title>Group 28</title>
    <desc>Created with Sketch.</desc>
    <defs></defs>
    <g id="Desktop" stroke="none" stroke-width="1" fill="none" fill-rule="evenodd">
        <g id="02-Desktop-Health-Units" transform="translate(-1388.000000, -1095.000000)">
            <g id="Group-28" transform="translate(1388.346479, 1094.372591)">
                <path d="M7.47570918,4.84424337 C7.47570918,6.0224188 7.12919072,6.95801467 6.43614339,7.65105904 C5.74309606,8.34410341 4.83465576,8.6906204 3.71079523,8.6906204 C2.5869347,8.6906204 1.68785976,8.34410341 1.01354345,7.65105904 C0.339227129,6.95801467 0.00207402742,6.0224188 0.00207402742,4.84424337 C0.00207402742,3.70072016 0.339227129,2.77378722 1.01354345,2.06341674 C1.68785976,1.35304626 2.5869347,0.997866349 3.71079523,0.997866349 C4.83465576,0.997866349 5.74309606,1.34438334 6.43614339,2.03742771 C7.12919072,2.73047208 7.47570918,3.66606794 7.47570918,4.84424337 Z" id="Path-Copy-4" fill="#DBA1D7"></path>
                <path d="M49.2225943,4.69879086 C49.2225943,5.75617543 48.8253464,6.62752557 48.0308388,7.31286742 C47.2363311,7.99820927 46.0958453,8.34087505 44.6093471,8.34087505 L16.1763668,8.34087505 C14.6898687,8.34087505 13.5621973,7.99820927 12.7933189,7.31286742 C12.0244405,6.62752557 11.6400071,5.75617543 11.6400071,4.69879086 C11.6400071,3.6414063 12.0244405,2.76026571 12.7933189,2.05534266 C13.5621973,1.35041962 14.6898687,0.99796338 16.1763668,0.99796338 L44.6093471,0.99796338 C46.0958453,0.99796338 47.2363311,1.35041962 48.0308388,2.05534266 C48.8253464,2.76026571 49.2225943,3.6414063 49.2225943,4.69879086 Z" id="Path-Copy-3" fill="#D4C0F2"></path>
            </g>
        </g>
    </g>
</svg>