<?xml version="1.0" encoding="UTF-8"?>
<svg width="45px" height="9px" viewBox="0 0 45 9" version="1.1" xmlns="http://www.w3.org/2000/svg" xmlns:xlink="http://www.w3.org/1999/xlink">
    <!-- Generator: Sketch 50.2 (55047) - http://www.bohemiancoding.com/sketch -->
    <title>Group 28 Copy</title>
    <desc>Created with Sketch.</desc>
    <defs></defs>
    <g id="Desktop" stroke="none" stroke-width="1" fill="none" fill-rule="evenodd">
        <g id="02-Desktop-Health-Units" transform="translate(-77.000000, -1352.000000)">
            <g id="Group-28-Copy" transform="translate(99.000000, 1356.063169) scale(-1, 1) translate(-99.000000, -1356.063169) translate(76.000000, 1351.563169)">
                <path d="M7.55558794,4.80360148 C7.55558794,5.96932107 7.20536689,6.89502569 6.50491428,7.58074309 C5.80446166,8.2664605 4.88631458,8.60931406 3.75044548,8.60931406 C2.61457638,8.60931406 1.70589473,8.2664605 1.02437327,7.58074309 C0.342851807,6.89502569 0.00209618863,5.96932107 0.00209618863,4.80360148 C0.00209618863,3.67216776 0.342851807,2.75503449 1.02437327,2.05217415 C1.70589473,1.34931381 2.61457638,0.997888906 3.75044548,0.997888906 C4.88631458,0.997888906 5.80446166,1.34074247 6.50491428,2.02645987 C7.20536689,2.71217728 7.55558794,3.63788189 7.55558794,4.80360148 Z" id="Path-Copy-4" fill="#D4C0F2"></path>
                <path d="M45.0143155,4.70894924 C45.0143155,5.76923781 44.6401645,6.64298103 43.8918513,7.33020511 C43.1435381,8.01742918 42.0693628,8.36103606 40.669293,8.36103606 L13.8894709,8.36103606 C12.4894011,8.36103606 11.4272952,8.01742918 10.7031211,7.33020511 C9.97894708,6.64298103 9.61686549,5.76923781 9.61686549,4.70894924 C9.61686549,3.64866067 9.97894708,2.76510011 10.7031211,2.05824106 C11.4272952,1.35138201 12.4894011,0.997957787 13.8894709,0.997957787 L40.669293,0.997957787 C42.0693628,0.997957787 43.1435381,1.35138201 43.8918513,2.05824106 C44.6401645,2.76510011 45.0143155,3.64866067 45.0143155,4.70894924 Z" id="Path-Copy-3" fill="#A26AB5"></path>
            </g>
        </g>
    </g>
</svg>