<?xml version="1.0" encoding="UTF-8"?>
<svg width="60px" height="8px" viewBox="0 0 60 8" version="1.1" xmlns="http://www.w3.org/2000/svg" xmlns:xlink="http://www.w3.org/1999/xlink">
    <!-- Generator: Sketch 50.2 (55047) - http://www.bohemiancoding.com/sketch -->
    <title>Group 41</title>
    <desc>Created with Sketch.</desc>
    <defs></defs>
    <g id="Desktop" stroke="none" stroke-width="1" fill="none" fill-rule="evenodd">
        <g id="02-Desktop-Health-Units" transform="translate(-1274.000000, -2109.000000)">
            <g id="Group-41" transform="translate(1274.000000, 2109.000000)">
                <path d="M59.2261095,3.84743381 C59.2261095,4.91976473 58.8495067,5.80343159 58.0962899,6.49846089 C57.343073,7.1934902 56.2618585,7.54099963 54.8526141,7.54099963 L40.8796972,7.54099963 C39.4704528,7.54099963 38.4013868,7.1934902 37.6724672,6.49846089 C36.9435477,5.80343159 36.5790933,4.91976473 36.5790933,3.84743381 C36.5790933,2.77510288 36.9435477,1.88150718 37.6724672,1.1666199 C38.4013868,0.451732615 39.4704528,0.0942943353 40.8796972,0.0942943353 L54.8526141,0.0942943353 C56.2618585,0.0942943353 57.343073,0.451732615 58.0962899,1.1666199 C58.8495067,1.88150718 59.2261095,2.77510288 59.2261095,3.84743381 Z" id="Path-Copy" fill="#E5D4F9" transform="translate(47.902601, 3.817647) scale(-1, 1) translate(-47.902601, -3.817647) "></path>
                <path d="M18.4110575,3.82401884 C18.4110575,4.88965605 18.7638584,5.76780688 19.4694708,6.45849767 C20.1750832,7.14918846 21.1879632,7.49452867 22.5081413,7.49452867 L28.4011134,7.49452867 C29.7212914,7.49452867 30.7227908,7.14918846 31.4056415,6.45849767 C32.0884922,5.76780688 32.4299124,4.88965605 32.4299124,3.82401884 C32.4299124,2.75838162 32.0884922,1.87036393 31.4056415,1.15993912 C30.7227908,0.449514305 29.7212914,0.094307228 28.4011134,0.094307228 L22.5081413,0.094307228 C21.1879632,0.094307228 20.1750832,0.449514305 19.4694708,1.15993912 C18.7638584,1.87036393 18.4110575,2.75838162 18.4110575,3.82401884 Z" id="Path-Copy-15" fill="#9676CC" transform="translate(25.420485, 3.794418) scale(-1, 1) translate(-25.420485, -3.794418) "></path>
                <path d="M0.208240629,3.82401884 C0.208240629,4.88965605 0.561041534,5.76780688 1.26665393,6.45849767 C1.97226632,7.14918846 2.98514634,7.49452867 4.30532437,7.49452867 L10.1982965,7.49452867 C11.5184745,7.49452867 12.5199739,7.14918846 13.2028246,6.45849767 C13.8856753,5.76780688 14.2270955,4.88965605 14.2270955,3.82401884 C14.2270955,2.75838162 13.8856753,1.87036393 13.2028246,1.15993912 C12.5199739,0.449514305 11.5184745,0.094307228 10.1982965,0.094307228 L4.30532437,0.094307228 C2.98514634,0.094307228 1.97226632,0.449514305 1.26665393,1.15993912 C0.561041534,1.87036393 0.208240629,2.75838162 0.208240629,3.82401884 Z" id="Path-Copy-14" fill="#D4C0F2" transform="translate(7.217668, 3.794418) scale(-1, 1) translate(-7.217668, -3.794418) "></path>
            </g>
        </g>
    </g>
</svg>