<?xml version="1.0" encoding="UTF-8"?>
<svg width="84px" height="22px" viewBox="0 0 84 22" version="1.1" xmlns="http://www.w3.org/2000/svg" xmlns:xlink="http://www.w3.org/1999/xlink">
    <!-- Generator: Sketch 50.2 (55047) - http://www.bohemiancoding.com/sketch -->
    <title>Group 42</title>
    <desc>Created with Sketch.</desc>
    <defs></defs>
    <g id="Desktop" stroke="none" stroke-width="1" fill="none" fill-rule="evenodd">
        <g id="02-Desktop-Health-Units" transform="translate(-85.000000, -2318.000000)">
            <g id="Group-42" transform="translate(85.000000, 2318.000000)">
                <path d="M45.8786005,3.81865187 C45.8786005,4.98129181 45.5269937,5.90455085 44.8237695,6.58845669 C44.1205452,7.27236254 43.1987652,7.61431033 42.0584016,7.61431033 C40.918038,7.61431033 40.0057608,7.27236254 39.3215426,6.58845669 C38.6373245,5.90455085 38.2952205,4.98129181 38.2952205,3.81865187 C38.2952205,2.69020723 38.6373245,1.77549689 39.3215426,1.0744934 C40.0057608,0.373489906 40.918038,0.022993419 42.0584016,0.022993419 C43.1987652,0.022993419 44.1205452,0.364941212 44.8237695,1.04884706 C45.5269937,1.7327529 45.8786005,2.65601194 45.8786005,3.81865187 Z" id="Path-Copy-4" fill="#DBA1D7" transform="translate(42.086911, 3.818652) scale(-1, 1) translate(-42.086911, -3.818652) "></path>
                <path d="M36.4305216,3.72343076 C36.4305216,4.78091821 36.0548902,5.65235313 35.303616,6.33776166 C34.5523418,7.02317019 33.4739161,7.36586932 32.0683064,7.36586932 L5.18251983,7.36586932 C3.77691012,7.36586932 2.71060151,7.02317019 1.983562,6.33776166 C1.25652249,5.65235313 0.893008192,4.78091821 0.893008192,3.72343076 C0.893008192,2.66594331 1.25652249,1.78471698 1.983562,1.07972535 C2.71060151,0.374733715 3.77691012,0.0222431858 5.18251983,0.0222431858 L32.0683064,0.0222431858 C33.4739161,0.0222431858 34.5523418,0.374733715 35.303616,1.07972535 C36.0548902,1.78471698 36.4305216,2.66594331 36.4305216,3.72343076 Z" id="Path-Copy-3" fill="#E5D4F9" transform="translate(18.661765, 3.694056) scale(-1, 1) translate(-18.661765, -3.694056) "></path>
                <path d="M47.3701809,17.9716024 C47.3701809,19.0411004 46.9920879,19.9224327 46.2358907,20.6156259 C45.4796934,21.308819 44.3942007,21.6554104 42.97938,21.6554104 L28.9511741,21.6554104 C27.5363534,21.6554104 26.4630572,21.308819 25.7312534,20.6156259 C24.9994496,19.9224327 24.6335532,19.0411004 24.6335532,17.9716024 C24.6335532,16.9021044 24.9994496,16.0108695 25.7312534,15.2978708 C26.4630572,14.5848721 27.5363534,14.2283782 28.9511741,14.2283782 L42.97938,14.2283782 C44.3942007,14.2283782 45.4796934,14.5848721 46.2358907,15.2978708 C46.9920879,16.0108695 47.3701809,16.9021044 47.3701809,17.9716024 Z" id="Path-Copy-2" fill="#D4C0F2"></path>
                <path d="M51.3874262,17.948096 C51.3874262,19.010918 51.7416231,19.8867489 52.4500276,20.575615 C53.158432,21.264481 54.1753198,21.6089089 55.5007217,21.6089089 L61.4170116,21.6089089 C62.7424134,21.6089089 63.7478755,21.264481 64.4334282,20.575615 C65.1189809,19.8867489 65.461752,19.010918 65.461752,17.948096 C65.461752,16.8852741 65.1189809,15.9996024 64.4334282,15.2910544 C63.7478755,14.5825064 62.7424134,14.2282377 61.4170116,14.2282377 L55.5007217,14.2282377 C54.1753198,14.2282377 53.158432,14.5825064 52.4500276,15.2910544 C51.7416231,15.9996024 51.3874262,16.8852741 51.3874262,17.948096 Z" id="Path-Copy-26" fill="#9676CC"></path>
                <path d="M69.542154,17.948096 C69.542154,19.010918 69.8963509,19.8867489 70.6047554,20.575615 C71.3131598,21.264481 72.3300476,21.6089089 73.6554494,21.6089089 L79.5717393,21.6089089 C80.8971412,21.6089089 81.9026033,21.264481 82.588156,20.575615 C83.2737086,19.8867489 83.6164798,19.010918 83.6164798,17.948096 C83.6164798,16.8852741 83.2737086,15.9996024 82.588156,15.2910544 C81.9026033,14.5825064 80.8971412,14.2282377 79.5717393,14.2282377 L73.6554494,14.2282377 C72.3300476,14.2282377 71.3131598,14.5825064 70.6047554,15.2910544 C69.8963509,15.9996024 69.542154,16.8852741 69.542154,17.948096 Z" id="Path-Copy-27" fill="#9676CC"></path>
            </g>
        </g>
    </g>
</svg>