<?xml version="1.0" encoding="UTF-8"?>
<svg width="47px" height="20px" viewBox="0 0 47 20" version="1.1" xmlns="http://www.w3.org/2000/svg" xmlns:xlink="http://www.w3.org/1999/xlink">
    <!-- Generator: Sketch 50.2 (55047) - http://www.bohemiancoding.com/sketch -->
    <title>Group 44</title>
    <desc>Created with Sketch.</desc>
    <defs></defs>
    <g id="Desktop" stroke="none" stroke-width="1" fill="none" fill-rule="evenodd">
        <g id="02-Desktop-Health-Units" transform="translate(-215.000000, -2367.000000)">
            <g id="Group-44" transform="translate(215.000000, 2367.000000)">
                <path d="M46.625364,15.6057837 C46.625364,16.6632711 46.2497326,17.5347061 45.4984584,18.2201146 C44.7471842,18.9055231 43.6687585,19.2482223 42.2631488,19.2482223 L15.3773622,19.2482223 C13.9717525,19.2482223 12.9054439,18.9055231 12.1784044,18.2201146 C11.4513649,17.5347061 11.0878506,16.6632711 11.0878506,15.6057837 C11.0878506,14.5482962 11.4513649,13.6670699 12.1784044,12.9620783 C12.9054439,12.2570867 13.9717525,11.9045961 15.3773622,11.9045961 L42.2631488,11.9045961 C43.6687585,11.9045961 44.7471842,12.2570867 45.4984584,12.9620783 C46.2497326,13.6670699 46.625364,14.5482962 46.625364,15.6057837 Z" id="Path-Copy-18" fill="#D587D0" transform="translate(28.856607, 15.576409) scale(-1, -1) translate(-28.856607, -15.576409) "></path>
                <path d="M7.66083547,15.7010048 C7.66083547,16.8636448 7.30922863,17.7869038 6.60600441,18.4708096 C5.9027802,19.1547155 4.98100011,19.4966633 3.84063652,19.4966633 C2.70027292,19.4966633 1.78799573,19.1547155 1.10377757,18.4708096 C0.419559408,17.7869038 0.0774554607,16.8636448 0.0774554607,15.7010048 C0.0774554607,14.5725602 0.419559408,13.6578498 1.10377757,12.9568463 C1.78799573,12.2558428 2.70027292,11.9053464 3.84063652,11.9053464 C4.98100011,11.9053464 5.9027802,12.2472942 6.60600441,12.9312 C7.30922863,13.6151058 7.66083547,14.5383649 7.66083547,15.7010048 Z" id="Path-Copy-19" fill="#DBA1D7" transform="translate(3.869145, 15.701005) scale(-1, -1) translate(-3.869145, -15.701005) "></path>
                <path d="M8.63097925,3.95544896 C8.63097925,5.01827092 8.98517615,5.89410181 9.69358057,6.58296789 C10.401985,7.27183398 11.4188728,7.61626186 12.7442747,7.61626186 L18.6605646,7.61626186 C19.9859664,7.61626186 20.9914285,7.27183398 21.6769812,6.58296789 C22.3625339,5.89410181 22.705305,5.01827092 22.705305,3.95544896 C22.705305,2.89262699 22.3625339,2.00695531 21.6769812,1.29840733 C20.9914285,0.58985936 19.9859664,0.235590686 18.6605646,0.235590686 L12.7442747,0.235590686 C11.4188728,0.235590686 10.401985,0.58985936 9.69358057,1.29840733 C8.98517615,2.00695531 8.63097925,2.89262699 8.63097925,3.95544896 Z" id="Combined-Shape-Copy-4" fill="#A26AB5" transform="translate(15.668142, 3.925926) scale(-1, -1) translate(-15.668142, -3.925926) "></path>
            </g>
        </g>
    </g>
</svg>