<?xml version="1.0" encoding="UTF-8"?>
<svg width="47px" height="20px" viewBox="0 0 47 20" version="1.1" xmlns="http://www.w3.org/2000/svg" xmlns:xlink="http://www.w3.org/1999/xlink">
    <!-- Generator: Sketch 50.2 (55047) - http://www.bohemiancoding.com/sketch -->
    <title>Group 45</title>
    <desc>Created with Sketch.</desc>
    <defs></defs>
    <g id="Desktop" stroke="none" stroke-width="1" fill="none" fill-rule="evenodd">
        <g id="02-Desktop-Health-Units" transform="translate(-1400.000000, -2330.000000)">
            <g id="Group-45" transform="translate(1400.000000, 2330.000000)">
                <path d="M46.9901768,4.15006273 C46.9901768,5.2103513 46.6160258,6.08409452 45.8677126,6.7713186 C45.1193994,7.45854267 44.0452241,7.80214955 42.6451543,7.80214955 L15.8653323,7.80214955 C14.4652625,7.80214955 13.4031565,7.45854267 12.6789824,6.7713186 C11.9548084,6.08409452 11.5927268,5.2103513 11.5927268,4.15006273 C11.5927268,3.08977416 11.9548084,2.2062136 12.6789824,1.49935455 C13.4031565,0.7924955 14.4652625,0.439071277 15.8653323,0.439071277 L42.6451543,0.439071277 C44.0452241,0.439071277 45.1193994,0.7924955 45.8677126,1.49935455 C46.6160258,2.2062136 46.9901768,3.08977416 46.9901768,4.15006273 Z" id="Path-Copy-6" fill="#D4C0F2" transform="translate(29.291452, 4.120610) scale(-1, 1) translate(-29.291452, -4.120610) "></path>
                <path d="M8.06410099,4.24471497 C8.06410099,5.41043456 7.71387994,6.33613918 7.01342733,7.02185658 C6.31297472,7.70757399 5.39482763,8.05042755 4.25895853,8.05042755 C3.12308943,8.05042755 2.21440778,7.70757399 1.53288632,7.02185658 C0.851364862,6.33613918 0.510609243,5.41043456 0.510609243,4.24471497 C0.510609243,3.11328125 0.851364862,2.19614798 1.53288632,1.49328764 C2.21440778,0.790427296 3.12308943,0.439002396 4.25895853,0.439002396 C5.39482763,0.439002396 6.31297472,0.781855956 7.01342733,1.46757336 C7.71387994,2.15329077 8.06410099,3.07899538 8.06410099,4.24471497 Z" id="Path-Copy-7" fill="#D587D0" transform="translate(4.287355, 4.244715) scale(-1, 1) translate(-4.287355, -4.244715) "></path>
                <path d="M9.21246598,15.7918989 C9.21246598,16.8575361 9.56526689,17.735687 10.2708793,18.4263778 C10.9764917,19.1170685 11.9893717,19.4624088 13.3095497,19.4624088 L19.2025218,19.4624088 C20.5226999,19.4624088 21.5241992,19.1170685 22.2070499,18.4263778 C22.8899006,17.735687 23.2313209,16.8575361 23.2313209,15.7918989 C23.2313209,14.7262617 22.8899006,13.838244 22.2070499,13.1278192 C21.5241992,12.4173944 20.5226999,12.0621873 19.2025218,12.0621873 L13.3095497,12.0621873 C11.9893717,12.0621873 10.9764917,12.4173944 10.2708793,13.1278192 C9.56526689,13.838244 9.21246598,14.7262617 9.21246598,15.7918989 Z" id="Combined-Shape" fill="#8064BC" transform="translate(16.221893, 15.762298) scale(-1, 1) translate(-16.221893, -15.762298) "></path>
            </g>
        </g>
    </g>
</svg>