<?xml version="1.0" encoding="UTF-8"?>
<svg width="47px" height="20px" viewBox="0 0 47 20" version="1.1" xmlns="http://www.w3.org/2000/svg" xmlns:xlink="http://www.w3.org/1999/xlink">
    <!-- Generator: Sketch 50.2 (55047) - http://www.bohemiancoding.com/sketch -->
    <title>Group 40</title>
    <desc>Created with Sketch.</desc>
    <defs></defs>
    <g id="Desktop" stroke="none" stroke-width="1" fill="none" fill-rule="evenodd">
        <g id="02-Desktop-Health-Units" transform="translate(-1400.000000, -1243.000000)">
            <g id="Group-40" transform="translate(1423.500000, 1253.000000) scale(-1, 1) translate(-1423.500000, -1253.000000) translate(1400.000000, 1243.000000)">
                <path d="M35.4072732,4.15006273 C35.4072732,5.2103513 35.0331222,6.08409452 34.2848091,6.7713186 C33.5364959,7.45854267 32.4623205,7.80214955 31.0622507,7.80214955 L4.28242869,7.80214955 C2.88235889,7.80214955 1.8202529,7.45854267 1.09607886,6.7713186 C0.371904823,6.08409452 0.00982323599,5.2103513 0.00982323599,4.15006273 C0.00982323599,3.08977416 0.371904823,2.2062136 1.09607886,1.49935455 C1.8202529,0.7924955 2.88235889,0.439071277 4.28242869,0.439071277 L31.0622507,0.439071277 C32.4623205,0.439071277 33.5364959,0.7924955 34.2848091,1.49935455 C35.0331222,2.2062136 35.4072732,3.08977416 35.4072732,4.15006273 Z" id="Path-Copy-6" fill="#D4C0F2"></path>
                <path d="M46.4893908,4.24471497 C46.4893908,5.41043456 46.1391697,6.33613918 45.4387171,7.02185658 C44.7382645,7.70757399 43.8201174,8.05042755 42.6842483,8.05042755 C41.5483792,8.05042755 40.6396975,7.70757399 39.9581761,7.02185658 C39.2766546,6.33613918 38.935899,5.41043456 38.935899,4.24471497 C38.935899,3.11328125 39.2766546,2.19614798 39.9581761,1.49328764 C40.6396975,0.790427296 41.5483792,0.439002396 42.6842483,0.439002396 C43.8201174,0.439002396 44.7382645,0.781855956 45.4387171,1.46757336 C46.1391697,2.15329077 46.4893908,3.07899538 46.4893908,4.24471497 Z" id="Path-Copy-7" fill="#D587D0"></path>
                <path d="M23.7686791,15.7918989 C23.7686791,16.8575361 24.12148,17.735687 24.8270924,18.4263778 C25.5327048,19.1170685 26.5455849,19.4624088 27.8657629,19.4624088 L33.758735,19.4624088 C35.078913,19.4624088 36.0804124,19.1170685 36.7632631,18.4263778 C37.4461138,17.735687 37.787534,16.8575361 37.787534,15.7918989 C37.787534,14.7262617 37.4461138,13.838244 36.7632631,13.1278192 C36.0804124,12.4173944 35.078913,12.0621873 33.758735,12.0621873 L27.8657629,12.0621873 C26.5455849,12.0621873 25.5327048,12.4173944 24.8270924,13.1278192 C24.12148,13.838244 23.7686791,14.7262617 23.7686791,15.7918989 Z" id="Combined-Shape" fill="#8064BC"></path>
            </g>
        </g>
    </g>
</svg>