<?xml version="1.0" encoding="UTF-8"?>
<svg width="48px" height="20px" viewBox="0 0 48 20" version="1.1" xmlns="http://www.w3.org/2000/svg" xmlns:xlink="http://www.w3.org/1999/xlink">
    <!-- Generator: Sketch 50.2 (55047) - http://www.bohemiancoding.com/sketch -->
    <title>Group 55 Copy</title>
    <desc>Created with Sketch.</desc>
    <defs></defs>
    <g id="Desktop" stroke="none" stroke-width="1" fill="none" fill-rule="evenodd">
        <g id="02-Desktop-Health-Units" transform="translate(-745.000000, -1508.000000)">
            <g id="Group-55-Copy" transform="translate(745.000000, 1507.000000)">
                <g id="Group-31" transform="translate(0.809859, 0.291221)">
                    <path d="M46.5312169,16.3320756 C46.5312169,17.3923642 46.1570659,18.2661074 45.4087527,18.9533314 C44.6604395,19.6405555 43.5862642,19.9841624 42.1861944,19.9841624 L15.4063724,19.9841624 C14.0063026,19.9841624 12.9441966,19.6405555 12.2200225,18.9533314 C11.4958485,18.2661074 11.1337669,17.3923642 11.1337669,16.3320756 C11.1337669,15.271787 11.4958485,14.3882264 12.2200225,13.6813674 C12.9441966,12.9745083 14.0063026,12.6210841 15.4063724,12.6210841 L42.1861944,12.6210841 C43.5862642,12.6210841 44.6604395,12.9745083 45.4087527,13.6813674 C46.1570659,14.3882264 46.5312169,15.271787 46.5312169,16.3320756 Z" id="Path-Copy-20" fill="#D4C0F2" transform="translate(28.832492, 16.302623) scale(-1, -1) translate(-28.832492, -16.302623) "></path>
                    <path d="M7.55558794,16.4267278 C7.55558794,17.5924474 7.20536689,18.518152 6.50491428,19.2038694 C5.80446166,19.8895868 4.88631458,20.2324404 3.75044548,20.2324404 C2.61457638,20.2324404 1.70589473,19.8895868 1.02437327,19.2038694 C0.342851807,18.518152 0.00209618863,17.5924474 0.00209618863,16.4267278 C0.00209618863,15.2952941 0.342851807,14.3781608 1.02437327,13.6753005 C1.70589473,12.9724401 2.61457638,12.6210152 3.75044548,12.6210152 C4.88631458,12.6210152 5.80446166,12.9638688 6.50491428,13.6495862 C7.20536689,14.3353036 7.55558794,15.2610082 7.55558794,16.4267278 Z" id="Path-Copy-25" fill="#D587D0" transform="translate(3.778842, 16.426728) scale(-1, -1) translate(-3.778842, -16.426728) "></path>
                    <path d="M8.59966506,4.72765909 C8.59966506,5.79329631 8.95246596,6.67144714 9.65807836,7.36213793 C10.3636908,8.05282872 11.3765708,8.39816893 12.6967488,8.39816893 L18.5897209,8.39816893 C19.9098989,8.39816893 20.9113983,8.05282872 21.594249,7.36213793 C22.2770997,6.67144714 22.6185199,5.79329631 22.6185199,4.72765909 C22.6185199,3.66202188 22.2770997,2.77400418 21.594249,2.06357937 C20.9113983,1.35315456 19.9098989,0.997947485 18.5897209,0.997947485 L12.6967488,0.997947485 C11.3765708,0.997947485 10.3636908,1.35315456 9.65807836,2.06357937 C8.95246596,2.77400418 8.59966506,3.66202188 8.59966506,4.72765909 Z" id="Combined-Shape-Copy-10" fill="#A26AB5" transform="translate(15.609092, 4.698058) scale(-1, -1) translate(-15.609092, -4.698058) "></path>
                </g>
            </g>
        </g>
    </g>
</svg>