<?xml version="1.0" encoding="UTF-8"?>
<svg width="480px" height="417px" viewBox="0 0 480 417" version="1.1" xmlns="http://www.w3.org/2000/svg" xmlns:xlink="http://www.w3.org/1999/xlink">
    <!-- Generator: Sketch 49.3 (51167) - http://www.bohemiancoding.com/sketch -->
    <title>Group 33</title>
    <desc>Created with Sketch.</desc>
    <defs>
        <linearGradient x1="43.6892989%" y1="8.40166749%" x2="58.8668333%" y2="100%" id="linearGradient-1">
            <stop stop-color="#FFFCFF" offset="0%"></stop>
            <stop stop-color="#F3E9FF" offset="100%"></stop>
        </linearGradient>
        <rect id="path-2" x="1.2625" y="0" width="98.5900217" height="98.8495016" rx="12"></rect>
        <filter x="-35.5%" y="-25.3%" width="171.0%" height="170.8%" filterUnits="objectBoundingBox" id="filter-3">
            <feOffset dx="0" dy="10" in="SourceAlpha" result="shadowOffsetOuter1"></feOffset>
            <feGaussianBlur stdDeviation="10" in="shadowOffsetOuter1" result="shadowBlurOuter1"></feGaussianBlur>
            <feColorMatrix values="0 0 0 0 0.321568627   0 0 0 0 0.231372549   0 0 0 0 0.521568627  0 0 0 0.251019022 0" type="matrix" in="shadowBlurOuter1"></feColorMatrix>
        </filter>
        <path d="M84.2680816,0.413009206 L88.6248987,0.458239422 C95.2455828,0.526971931 100.559563,5.94506367 100.499839,12.5658351 L99.8328425,86.5077143 C99.7734428,93.092631 94.4185152,98.399472 87.8333306,98.399472 L13.1355505,98.399472 C6.50813347,98.399472 1.13555047,93.026889 1.13555047,86.399472 L1.13555047,80.8633351 C5.13903302,81.5609253 9.25681442,81.9245551 13.4593032,81.9245551 C52.9353831,81.9245551 84.9370689,49.8386438 84.9370689,10.2586664 C84.9370689,6.91848276 84.7091594,3.63167036 84.2680816,0.413009206 Z" id="path-4"></path>
        <filter x="-35.2%" y="-25.5%" width="170.5%" height="171.4%" filterUnits="objectBoundingBox" id="filter-5">
            <feOffset dx="0" dy="10" in="SourceAlpha" result="shadowOffsetOuter1"></feOffset>
            <feGaussianBlur stdDeviation="10" in="shadowOffsetOuter1" result="shadowBlurOuter1"></feGaussianBlur>
            <feColorMatrix values="0 0 0 0 0   0 0 0 0 0   0 0 0 0 0  0 0 0 0.0416666667 0" type="matrix" in="shadowBlurOuter1"></feColorMatrix>
        </filter>
        <linearGradient x1="47.605684%" y1="32.037545%" x2="58.8668333%" y2="100%" id="linearGradient-6">
            <stop stop-color="#FFFCFF" offset="0%"></stop>
            <stop stop-color="#F3E9FF" offset="100%"></stop>
        </linearGradient>
        <rect id="path-7" x="0" y="0" width="145.671041" height="145.671041" rx="12"></rect>
        <filter x="-24.0%" y="-17.2%" width="148.1%" height="148.1%" filterUnits="objectBoundingBox" id="filter-8">
            <feOffset dx="0" dy="10" in="SourceAlpha" result="shadowOffsetOuter1"></feOffset>
            <feGaussianBlur stdDeviation="10" in="shadowOffsetOuter1" result="shadowBlurOuter1"></feGaussianBlur>
            <feColorMatrix values="0 0 0 0 0.321568627   0 0 0 0 0.231372549   0 0 0 0 0.521568627  0 0 0 0.2674649 0" type="matrix" in="shadowBlurOuter1"></feColorMatrix>
        </filter>
        <linearGradient x1="50%" y1="0%" x2="50%" y2="100%" id="linearGradient-9">
            <stop stop-color="#F4ECFD" offset="0%"></stop>
            <stop stop-color="#E5D4F9" offset="100%"></stop>
        </linearGradient>
    </defs>
    <g id="Desktop" stroke="none" stroke-width="1" fill="none" fill-rule="evenodd">
        <g id="02-Desktop-Health-Units" transform="translate(-855.000000, -129.000000)">
            <g id="Group-33" transform="translate(874.000000, 130.000000)">
                <path d="M249.764331,375.528662 C353.463708,375.528662 437.528662,291.463708 437.528662,187.764331 C437.528662,119.030242 400.596303,58.922168 345.493615,26.2021384 C317.462671,9.55733708 284.729619,0 249.764331,0 C146.064955,0 62,84.0649545 62,187.764331 C62,291.463708 146.064955,375.528662 249.764331,375.528662 Z" id="Oval-3" stroke="#FFFFFF" stroke-linecap="round" stroke-linejoin="round" stroke-dasharray="6,6"></path>
                <g id="Group-36-Copy" transform="translate(174.000000, 319.000000)">
                    <g id="Group-4" fill="#A083D0" opacity="0.825577446">
                        <path d="M-1.42108547e-13,48.75149 C-1.42108547e-13,62.6805567 4.79376239,74.1589674 14.381431,83.1870662 C23.9690996,92.215165 37.7318368,96.7291467 55.6700555,96.7291467 L102.095432,96.7291467 C120.03365,96.7291467 133.64175,92.215165 142.920139,83.1870662 C152.198528,74.1589674 156.837653,62.6805567 156.837653,48.75149 C156.837653,34.8224232 152.198528,23.2150416 142.920139,13.9289971 C133.64175,4.64295261 120.03365,1.27897692e-13 102.095432,1.27897692e-13 L55.6700555,1.56319402e-13 C37.7318368,1.42108547e-13 23.9690996,4.64295261 14.381431,13.9289971 C4.79376239,23.2150416 -1.42108547e-13,34.8224232 -1.42108547e-13,48.75149 Z" id="Path-Copy-11"></path>
                    </g>
                    <g id="004-education" transform="translate(47.011145, 21.073961)" fill-rule="nonzero">
                        <polygon id="Shape" fill="#D4C0F2" points="60.5676292 0.0639564336 57.7173252 53.4433891 64.8429585 53.506079 64.8429585 0.0639564336"></polygon>
                        <polygon id="Shape" fill="#E5D4F9" points="0 0.0639564336 0 53.506079 60.5676292 53.506079 60.5676292 0.0639564336"></polygon>
                        <polygon id="Shape" fill="#8064BC" points="4.27532928 4.33941236 4.27532928 8.61474164 56.2922999 49.2306231 60.5676292 49.2306231 60.5676292 4.33941236"></polygon>
                        <rect id="Rectangle-path" fill="#8064BC" x="4.27532928" y="8.61474164" width="52.016844" height="40.6158815"></rect>
                        <path d="M53.0857396,33.5543313 C51.8131966,33.5543313 50.7078267,33.2985056 49.7199848,32.8546099 L49.7199848,20.7154255 C50.7077001,20.2715299 51.8133232,20.0157042 53.0857396,20.0157042 C53.6761651,20.0157042 54.1546353,19.537234 54.1546353,18.9468085 C54.1546353,18.356383 53.6761651,17.8779129 53.0857396,17.8779129 C47.7967325,17.8779129 44.9357903,21.2606383 42.3972898,24.8983029 C39.8589159,21.2605117 36.9979737,17.8779129 31.7088399,17.8779129 C31.1184144,17.8779129 30.6399443,18.356383 30.6399443,18.9468085 C30.6399443,19.537234 31.1184144,20.0157042 31.7088399,20.0157042 C32.981383,20.0157042 34.0867528,20.2715299 35.0745947,20.7154255 L35.0745947,32.8546099 C34.0868794,33.2985056 32.9812563,33.5543313 31.7088399,33.5543313 C31.1184144,33.5543313 30.6399443,34.0328014 30.6399443,34.623227 C30.6399443,35.2136525 31.1184144,35.6921226 31.7088399,35.6921226 C36.997847,35.6921226 39.8587893,32.3093972 42.3972898,28.6717325 C44.9356636,32.3095238 47.7966059,35.6921226 53.0857396,35.6921226 C53.6761651,35.6921226 54.1546353,35.2136525 54.1546353,34.623227 C54.1545086,34.0328014 53.6761651,33.5543313 53.0857396,33.5543313 Z M37.2122594,31.4823961 L37.2122594,22.087766 C38.6789514,23.3332067 39.8899443,25.0155775 41.1028369,26.7850811 C39.8899443,28.5545846 38.679078,30.2369554 37.2122594,31.4823961 Z M43.6917427,26.7850811 C44.9046353,25.0154509 46.1156282,23.3332067 47.5823202,22.087766 L47.5823202,31.4823961 C46.1156282,30.2369554 44.9046353,28.5545846 43.6917427,26.7850811 Z" id="Shape" fill="#FFFFFF"></path>
                        <path d="M26.0084853,22.1533688 L11.7572188,22.1533688 C11.1667933,22.1533688 10.6883232,21.6748987 10.6883232,21.0844732 C10.6883232,20.4940476 11.1667933,20.0155775 11.7572188,20.0155775 L26.0083587,20.0155775 C26.5987842,20.0155775 27.0772543,20.4940476 27.0772543,21.0844732 C27.0772543,21.6748987 26.5989108,22.1533688 26.0084853,22.1533688 Z" id="Shape" fill="#FFFFFF"></path>
                        <path d="M26.0084853,27.8538501 L11.7572188,27.8538501 C11.1667933,27.8538501 10.6883232,27.3753799 10.6883232,26.7849544 C10.6883232,26.1945289 11.1667933,25.7160588 11.7572188,25.7160588 L26.0083587,25.7160588 C26.5987842,25.7160588 27.0772543,26.1945289 27.0772543,26.7849544 C27.0772543,27.3753799 26.5989108,27.8538501 26.0084853,27.8538501 Z" id="Shape" fill="#FFFFFF"></path>
                        <path d="M26.0084853,33.5543313 L11.7572188,33.5543313 C11.1667933,33.5543313 10.6883232,33.0758612 10.6883232,32.4854357 C10.6883232,31.8950101 11.1667933,31.41654 11.7572188,31.41654 L26.0083587,31.41654 C26.5987842,31.41654 27.0772543,31.8950101 27.0772543,32.4854357 C27.0772543,33.0759878 26.5989108,33.5543313 26.0084853,33.5543313 Z" id="Shape" fill="#FFFFFF"></path>
                    </g>
                </g>
                <path d="M91.8807232,94.1125478 C121.710532,150.842123 181.219569,189.528662 249.764331,189.528662 C321.295095,189.528662 382.985744,147.398119 411.375674,86.5976348" id="Oval-3-Copy-2" stroke="#FFFFFF" stroke-linecap="round" stroke-linejoin="round" stroke-dasharray="6,6"></path>
                <g id="Group-37-Copy" transform="translate(363.000000, 33.000000)">
                    <path d="M97.3347714,48.6322188 C97.3347714,63.5286486 92.8218008,75.357989 83.7957242,84.1205948 C74.7696477,92.8832005 62.9383464,97.2644377 48.3014655,97.2644377 C33.6645846,97.2644377 21.9552555,92.8832005 13.173127,84.1205948 C4.39099841,75.357989 -5.03970605e-15,63.5286486 -4.1275628e-15,48.6322188 C-3.24224729e-15,34.1739193 4.39099841,22.4541099 13.173127,13.472439 C21.9552555,4.49076809 33.6645846,1.42108547e-14 48.3014655,1.42108547e-14 C62.9383464,1.42108547e-14 74.7696477,4.38123716 83.7957242,13.1438429 C92.8218008,21.9064487 97.3347714,33.735789 97.3347714,48.6322188 Z" id="Path-Copy-17" fill="#A083D0" opacity="0.825577446"></path>
                    <g id="Group-8" transform="translate(24.316109, 19.452888)" fill-rule="nonzero">
                        <path d="M45.8763931,50.2532928 L35.6636272,50.2532928 L35.6636272,17.8318136 L48.7943262,17.8318136 C49.6000648,17.8318136 50.2532928,18.4896464 50.2532928,19.3010649 L50.2532928,45.8455388 C50.2532928,48.2798924 48.2937062,50.2532928 45.8763931,50.2532928 Z" id="Shape" fill="#8064BC"></path>
                        <path d="M45.3900709,50.2532928 L7.28962595,50.2532928 C3.26575243,50.2532928 0,46.9554205 0,42.8919706 L0,1.47226444 C0,0.647698202 0.641389889,0 1.45792519,0 L39.5583702,0 C40.3749055,0 41.0162954,0.647698202 41.0162954,1.47226444 L41.0162954,45.8364995 C41.0162954,48.2803603 42.9698179,50.2532928 45.3900709,50.2532928 Z" id="Shape" fill="#FFFFFF"></path>
                        <path d="M45.3900709,50.2532928 L21.0739615,50.2532928 L21.0739615,0 L39.6909828,0 C40.4889501,0 41.1157548,0.647698202 41.1157548,1.47226444 L41.1157548,45.8364995 C41.1157548,48.2803603 43.0248544,50.2532928 45.3900709,50.2532928 Z" id="Shape" fill="#D3C0F0"></path>
                        <path d="M11.7953282,25.9371834 C7.58358551,25.9371834 4.0526849,29.7668761 4.0526849,34.4478217 L4.0526849,35.8662614 C4.0526849,36.6606822 4.61415417,37.2847011 5.32894479,37.2847011 L18.1766277,37.2847011 C18.8914183,37.2847011 19.4528875,36.6606822 19.4528875,35.8662614 L19.4528875,34.4478217 C19.4528875,29.7668761 16.0070709,25.9371834 11.7953282,25.9371834 Z" id="Shape" fill="#AE93DD"></path>
                        <path d="M20.2634245,34.4478217 L20.2634245,35.8662614 C20.2634245,36.6606822 19.6691208,37.2847011 18.9125296,37.2847011 L12.1580547,37.2847011 L12.1580547,25.9371834 C16.6160982,25.9371834 20.2634245,29.7668761 20.2634245,34.4478217 Z" id="Shape" fill="#8064BC"></path>
                        <path d="M11.3944083,17.8318136 C8.29972452,17.8318136 5.67375887,20.3850996 5.67375887,23.5055724 C5.67375887,26.6260453 8.29972452,29.1793313 11.3944083,29.1793313 C14.4890921,29.1793313 17.0212766,26.6260453 17.0212766,23.5055724 C17.0212766,20.3850996 14.4890921,17.8318136 11.3944083,17.8318136 Z" id="Shape" fill="#AE93DD"></path>
                        <path d="M18.6423506,23.5055724 C18.6423506,26.6260453 15.7243094,29.1793313 12.1580547,29.1793313 L12.1580547,17.8318136 C15.7243094,17.8318136 18.6423506,20.3850996 18.6423506,23.5055724 Z" id="Shape" fill="#8064BC"></path>
                        <path d="M34.2143226,6.48429585 L7.93360038,6.48429585 C7.12189322,6.48429585 6.48429585,7.18962335 6.48429585,8.08755581 L6.48429585,14.6074797 C6.48429585,15.5051983 7.12189322,16.2107396 7.93360038,16.2107396 L34.2143226,16.2107396 C35.0260298,16.2107396 35.6636272,15.5051983 35.6636272,14.6074797 L35.6636272,8.08755581 C35.6636272,7.18962335 35.0260298,6.48429585 34.2143226,6.48429585 Z" id="Shape" fill="#AE93DD"></path>
                        <path d="M35.6636272,8.08755581 L35.6636272,14.6074797 C35.6636272,15.5051983 35.0260298,16.2107396 34.2143226,16.2107396 L21.0739615,16.2107396 L21.0739615,6.48429585 L34.2143226,6.48429585 C35.0260298,6.48429585 35.6636272,7.18962335 35.6636272,8.08755581 Z" id="Shape" fill="#8064BC"></path>
                        <path d="M36.142134,26.3796045 L28.3727949,26.3796045 C27.9229656,26.3796045 27.5582573,25.9176408 27.5582573,25.347857 C27.5582573,24.7780732 27.9229656,24.3161094 28.3727949,24.3161094 L36.142134,24.3161094 C36.5919633,24.3161094 36.9566715,24.7780732 36.9566715,25.347857 C36.9566715,25.9176408 36.5919633,26.3796045 36.142134,26.3796045 Z" id="Shape" fill="#FFFFFF" transform="translate(32.257464, 25.347857) scale(-1, 1) translate(-32.257464, -25.347857) "></path>
                        <path d="M35.8061998,21.5163827 L25.130647,21.5163827 C24.6808176,21.5163827 24.3161094,21.0544189 24.3161094,20.4846351 C24.3161094,19.9148513 24.6808176,19.4528875 25.130647,19.4528875 L35.8061998,19.4528875 C36.2560291,19.4528875 36.6207374,19.9148513 36.6207374,20.4846351 C36.6207374,21.0544189 36.2560291,21.5163827 35.8061998,21.5163827 Z" id="Shape" fill="#FFFFFF" transform="translate(30.468423, 20.484635) scale(-1, 1) translate(-30.468423, -20.484635) "></path>
                        <path d="M36.142134,36.1060483 L28.3727949,36.1060483 C27.9229656,36.1060483 27.5582573,35.6440846 27.5582573,35.0743007 C27.5582573,34.5045169 27.9229656,34.0425532 28.3727949,34.0425532 L36.142134,34.0425532 C36.5919633,34.0425532 36.9566715,34.5045169 36.9566715,35.0743007 C36.9566715,35.6440846 36.5919633,36.1060483 36.142134,36.1060483 Z" id="Shape-Copy" fill="#FFFFFF" transform="translate(32.257464, 35.074301) scale(-1, 1) translate(-32.257464, -35.074301) "></path>
                        <path d="M35.8061998,31.2428264 L25.130647,31.2428264 C24.6808176,31.2428264 24.3161094,30.7808627 24.3161094,30.2110789 C24.3161094,29.6412951 24.6808176,29.1793313 25.130647,29.1793313 L35.8061998,29.1793313 C36.2560291,29.1793313 36.6207374,29.6412951 36.6207374,30.2110789 C36.6207374,30.7808627 36.2560291,31.2428264 35.8061998,31.2428264 Z" id="Shape-Copy-2" fill="#FFFFFF" transform="translate(30.468423, 30.211079) scale(-1, 1) translate(-30.468423, -30.211079) "></path>
                    </g>
                </g>
                <path d="M91.8807232,184.112548 C121.710532,240.842123 181.219569,279.528662 249.764331,279.528662 C321.295095,279.528662 382.985744,237.398119 411.375674,176.597635" id="Oval-3-Copy-2" stroke="#FFFFFF" stroke-linecap="round" stroke-linejoin="round" stroke-dasharray="6,6" transform="translate(251.628199, 228.063149) scale(1, -1) translate(-251.628199, -228.063149) "></path>
                <g id="Group-33-Copy-3" transform="translate(363.000000, 227.000000)">
                    <path d="M97.3347714,48.6322188 C97.3347714,63.5286486 92.8218008,75.357989 83.7957242,84.1205948 C74.7696477,92.8832005 62.9383464,97.2644377 48.3014655,97.2644377 C33.6645846,97.2644377 21.9552555,92.8832005 13.173127,84.1205948 C4.39099841,75.357989 -5.03970605e-15,63.5286486 -4.1275628e-15,48.6322188 C-3.24224729e-15,34.1739193 4.39099841,22.4541099 13.173127,13.472439 C21.9552555,4.49076809 33.6645846,0 48.3014655,0 C62.9383464,0 74.7696477,4.38123716 83.7957242,13.1438429 C92.8218008,21.9064487 97.3347714,33.735789 97.3347714,48.6322188 Z" id="Path-Copy-14" fill="#A083D0" opacity="0.825577446"></path>
                    <g id="Group-9" transform="translate(14.589666, 25.937183)" fill-rule="nonzero">
                        <rect id="Rectangle-path" fill="#FFFFFF" x="0" y="25.9371834" width="67.2511784" height="19.5639765" rx="2"></rect>
                        <path d="M40.452675,39.730325 L19.0546255,39.730325 C18.3793262,39.730325 17.8318136,39.1828124 17.8318136,38.507513 C17.8318136,37.8322137 18.3793262,37.2847011 19.0546255,37.2847011 L40.452675,37.2847011 C41.1279743,37.2847011 41.6754869,37.8322137 41.6754869,38.507513 C41.6754869,39.1828124 41.1279743,39.730325 40.452675,39.730325 Z" id="Shape" fill="#D4C0F2"></path>
                        <path d="M61.8508694,33.2460291 L19.0546255,33.2460291 C18.3793262,33.2460291 17.8318136,32.6985165 17.8318136,32.0232172 C17.8318136,31.3479179 18.3793262,30.8004053 19.0546255,30.8004053 L61.8508694,30.8004053 C62.5261687,30.8004053 63.0736813,31.3479179 63.0736813,32.0232172 C63.0735365,32.6985165 62.5261687,33.2460291 61.8508694,33.2460291 Z" id="Shape" fill="#D4C0F2"></path>
                        <path d="M66.5937087,2 L66.5937087,17.5639765 C66.5937087,18.668546 65.6982782,19.5639765 64.5937087,19.5639765 L47.0297322,19.5639765 L43.768997,9.78191582 L47.0297322,0 L64.5937087,0 C65.6982782,-2.02906125e-16 66.5937087,0.8954305 66.5937087,2 Z" id="Shape" fill="#8064BC"></path>
                        <polygon id="Shape" fill="#D4C0F2" points="47.0574682 0 47.0574682 19.5639765 42.1665103 19.5639765 38.9057751 9.78191582 42.1665103 0"></polygon>
                        <path d="M63.4305793,13.0693276 L60.0878404,9.72644377 L58.3586626,11.4559113 L61.7014015,14.7986502 C61.9400237,15.0372724 62.2531157,15.1568008 62.565918,15.1568008 C62.8787202,15.1568008 63.1918122,15.0374173 63.4304344,14.7986502 C63.9081134,14.3211161 63.9081134,13.5467168 63.4305793,13.0693276 Z" id="Shape" fill="#FFFFFF"></path>
                        <path d="M56.8668514,13.2318259 C55.5326245,13.2318259 54.278373,12.7122757 53.3348954,11.768798 C51.3875239,9.8214266 51.3875239,6.65269207 53.3348954,4.70503086 C54.278373,3.76155322 55.5326245,3.24214792 56.8668514,3.24214792 C58.2009334,3.24214792 59.4553298,3.76169811 60.3986625,4.70503086 C61.3421402,5.64850849 61.8616904,6.90276 61.8616904,8.23698689 C61.8616904,9.57121378 61.3421402,10.8254653 60.3986625,11.768798 C59.4553298,12.7121308 58.2009334,13.2318259 56.8668514,13.2318259 Z M56.8668514,5.68777176 C56.1859016,5.68777176 55.545664,5.95290752 55.064218,6.43449838 C54.0703211,7.42854015 54.0701762,9.04586828 55.064218,10.0397652 C55.5458088,10.521356 56.1859016,10.7864918 56.8668514,10.7864918 C57.5478012,10.7864918 58.1878939,10.521356 58.6694848,10.0397652 C59.1510756,9.55817432 59.4162114,8.91808154 59.4162114,8.23713178 C59.4162114,7.55618201 59.1510756,6.91594435 58.6694848,6.43449838 C58.1878939,5.95290752 57.5476563,5.68777176 56.8668514,5.68777176 Z" id="Shape" fill="#FFFFFF"></path>
                        <polygon id="Shape" fill="#9676CC" points="14.6266953 30.8004053 14.6266953 40.5823211 11.3659601 40.5823211 8.10536981 35.6913632 11.3659601 30.8004053"></polygon>
                        <rect id="Rectangle-path" fill="#8064BC" x="4.86322188" y="30.8004053" width="6.52132551" height="9.78191582"></rect>
                        <path d="M2,0 L42.7962439,0 L42.7962439,19.5639765 L2,19.5639765 C0.8954305,19.5639765 1.3527075e-16,18.668546 0,17.5639765 L0,2 C-1.3527075e-16,0.8954305 0.8954305,2.02906125e-16 2,0 Z" id="Rectangle-path" fill="#FFFFFF"></path>
                    </g>
                </g>
                <g id="Group-26" transform="translate(199.000000, 134.000000)">
                    <g id="Rectangle-15">
                        <use fill="black" fill-opacity="1" filter="url(#filter-3)" xlink:href="#path-2"></use>
                        <use fill="url(#linearGradient-1)" fill-rule="evenodd" xlink:href="#path-2"></use>
                    </g>
                    <g id="Combined-Shape">
                        <use fill="black" fill-opacity="1" filter="url(#filter-5)" xlink:href="#path-4"></use>
                        <use fill="#F6EFF8" fill-rule="evenodd" xlink:href="#path-4"></use>
                    </g>
                    <g id="Group-16" transform="translate(17.675000, 17.721519)">
                        <g id="Group">
                            <path d="M23.2450155,5.52375067 C23.2450155,6.77233682 23.6671201,7.80124886 24.5113418,8.61051766 C25.3555636,9.41978647 26.5674121,9.8244148 28.1469238,9.8244148 L35.1975019,9.8244148 C36.7770136,9.8244148 37.9752459,9.41978647 38.7922347,8.61051766 C39.6092235,7.80124886 40.0177117,6.77233682 40.0177117,5.52375067 C40.0177117,4.27516452 39.6092235,3.23469167 38.7922347,2.4023009 C37.9752459,1.56991013 36.7770136,1.15372099 35.1975019,1.15372099 L28.1469238,1.15372099 C26.5674121,1.15372099 25.3555636,1.56991013 24.5113418,2.4023009 C23.6671201,3.23469167 23.2450155,4.27516452 23.2450155,5.52375067 Z" id="Path-Copy-8" fill="#D587D0"></path>
                            <path d="M15.8193327,17.6869965 C15.8193327,18.9935887 15.4241397,20.031161 14.6337417,20.7997445 C13.8433437,21.5683281 12.8072971,21.9526142 11.5255706,21.9526142 C10.2438442,21.9526142 9.21847842,21.5683281 8.44944256,20.7997445 C7.68040669,20.031161 7.29589453,18.9935887 7.29589453,17.6869965 C7.29589453,16.4188336 7.68040669,15.3908685 8.44944256,14.6030703 C9.21847842,13.8152721 10.2438442,13.4213789 11.5255706,13.4213789 C12.8072971,13.4213789 13.8433437,13.805665 14.6337417,14.5742486 C15.4241397,15.3428321 15.8193327,16.3804044 15.8193327,17.6869965 Z" id="Path-Copy-4" fill="#DBA1D7"></path>
                            <path d="M59.506311,18.941126 C59.506311,20.1772504 59.0842065,21.1958932 58.2399847,21.9970849 C57.3957629,22.7982766 56.1839144,23.1988665 54.6044027,23.1988665 L24.3923079,23.1988665 C22.8127962,23.1988665 21.614564,22.7982766 20.7975752,21.9970849 C19.9805864,21.1958932 19.5720981,20.1772504 19.5720981,18.941126 C19.5720981,17.7050017 19.9805864,16.6749135 20.7975752,15.8508305 C21.614564,15.0267476 22.8127962,14.6147124 24.3923079,14.6147124 L54.6044027,14.6147124 C56.1839144,14.6147124 57.3957629,15.0267476 58.2399847,15.8508305 C59.0842065,16.6749135 59.506311,17.7050017 59.506311,18.941126 Z" id="Path-Copy-3" fill="#A26AB5"></path>
                            <path d="M25.5555645,31.1388531 C25.5555645,32.3677222 25.1304757,33.3803861 24.2802855,34.1768752 C23.4300953,34.9733644 22.2096792,35.371603 20.6190007,35.371603 L4.84713233,35.371603 C3.25645382,35.371603 2.0497503,34.9733644 1.22698556,34.1768752 C0.404220812,33.3803861 -0.00715538941,32.3677222 -0.00715538941,31.1388531 C-0.00715538941,29.9099841 0.404220812,28.885942 1.22698556,28.066696 C2.0497503,27.24745 3.25645382,26.8378331 4.84713233,26.8378331 L20.6190007,26.8378331 C22.2096792,26.8378331 23.4300953,27.24745 24.2802855,28.066696 C25.1304757,28.885942 25.5555645,29.9099841 25.5555645,31.1388531 Z" id="Path-Copy" fill="#E5D4F9"></path>
                            <path d="M29.3279701,31.1394008 C29.3279701,32.387987 29.7500746,33.416899 30.5942964,34.2261678 C31.4385181,35.0354366 32.6503667,35.440065 34.2298784,35.440065 L41.2804565,35.440065 C42.8599681,35.440065 44.0582004,35.0354366 44.8751892,34.2261678 C45.692178,33.416899 46.1006663,32.387987 46.1006663,31.1394008 C46.1006663,29.8908147 45.692178,28.8503418 44.8751892,28.0179511 C44.0582004,27.1855603 42.8599681,26.7693712 41.2804565,26.7693712 L34.2298784,26.7693712 C32.6503667,26.7693712 31.4385181,27.1855603 30.5942964,28.0179511 C29.7500746,28.8503418 29.3279701,29.8908147 29.3279701,31.1394008 Z" id="Path-Copy-15" fill="#9676CC"></path>
                            <path d="M50.0100155,31.1394008 C50.0100155,32.387987 50.4321201,33.416899 51.2763418,34.2261678 C52.1205636,35.0354366 53.3324121,35.440065 54.9119238,35.440065 L61.9625019,35.440065 C63.5420136,35.440065 64.7402459,35.0354366 65.5572347,34.2261678 C66.3742235,33.416899 66.7827117,32.387987 66.7827117,31.1394008 C66.7827117,29.8908147 66.3742235,28.8503418 65.5572347,28.0179511 C64.7402459,27.1855603 63.5420136,26.7693712 61.9625019,26.7693712 L54.9119238,26.7693712 C53.3324121,26.7693712 52.1205636,27.1855603 51.2763418,28.0179511 C50.4321201,28.8503418 50.0100155,29.8908147 50.0100155,31.1394008 Z" id="Path-Copy-14" fill="#7F6AAE"></path>
                            <path d="M47.3404019,43.3369833 C47.3404019,44.5731077 46.9182974,45.5917505 46.0740756,46.3929422 C45.2298538,47.1941339 44.0180053,47.5947238 42.4384936,47.5947238 L12.2263988,47.5947238 C10.6468871,47.5947238 9.44865487,47.1941339 8.63166607,46.3929422 C7.81467727,45.5917505 7.40618899,44.5731077 7.40618899,43.3369833 C7.40618899,42.100859 7.81467727,41.0707708 8.63166607,40.2466879 C9.44865487,39.4226049 10.6468871,39.0105697 12.2263988,39.0105697 L42.4384936,39.0105697 C44.0180053,39.0105697 45.2298538,39.4226049 46.0740756,40.2466879 C46.9182974,41.0707708 47.3404019,42.100859 47.3404019,43.3369833 Z" id="Path-Copy-6" fill="#D4C0F2"></path>
                            <path d="M59.6166055,44.5224396 C59.6166055,45.8290317 59.2214124,46.866604 58.4310144,47.6351876 C57.6406165,48.4037712 56.6045698,48.7880572 55.3228434,48.7880572 C54.0411169,48.7880572 53.0157511,48.4037712 52.2467153,47.6351876 C51.4776794,46.866604 51.0931673,45.8290317 51.0931673,44.5224396 C51.0931673,43.2542767 51.4776794,42.2263115 52.2467153,41.4385133 C53.0157511,40.6507151 54.0411169,40.256822 55.3228434,40.256822 C56.6045698,40.256822 57.6406165,40.641108 58.4310144,41.4096916 C59.2214124,42.1782752 59.6166055,43.2158475 59.6166055,44.5224396 Z" id="Path-Copy-7" fill="#D587D0"></path>
                            <path d="M35.4109246,56.755051 C35.4109246,58.0036372 35.8330292,59.0325492 36.6772509,59.841818 C37.5214727,60.6510868 38.7333212,61.0557151 40.3128329,61.0557151 L47.363411,61.0557151 C48.9429227,61.0557151 50.141155,60.6510868 50.9581438,59.841818 C51.7751326,59.0325492 52.1836208,58.0036372 52.1836208,56.755051 C52.1836208,55.5064649 51.7751326,54.465992 50.9581438,53.6336012 C50.141155,52.8012105 48.9429227,52.3850213 47.363411,52.3850213 L40.3128329,52.3850213 C38.7333212,52.3850213 37.5214727,52.8012105 36.6772509,53.6336012 C35.8330292,54.465992 35.4109246,55.5064649 35.4109246,56.755051 Z" id="Combined-Shape" fill="#8064BC"></path>
                        </g>
                    </g>
                </g>
                <g id="Group-35-Copy" transform="translate(38.000000, 232.000000)">
                    <g id="Group-34" fill="#A083D0">
                        <path d="M97.3347714,48.6322188 C97.3347714,63.5286486 92.8218008,75.357989 83.7957242,84.1205948 C74.7696477,92.8832005 62.9383464,97.2644377 48.3014655,97.2644377 C33.6645846,97.2644377 21.9552555,92.8832005 13.173127,84.1205948 C4.39099841,75.357989 -3.34614155e-14,63.5286486 -3.25492722e-14,48.6322188 C-3.16639567e-14,34.1739193 4.39099841,22.4541099 13.173127,13.472439 C21.9552555,4.49076809 33.6645846,2.84217094e-14 48.3014655,2.84217094e-14 C62.9383464,2.84217094e-14 74.7696477,4.38123716 83.7957242,13.1438429 C92.8218008,21.9064487 97.3347714,33.735789 97.3347714,48.6322188 Z" id="Path-Copy-19"></path>
                    </g>
                    <g id="002-lock" transform="translate(30.800405, 23.100304)" fill-rule="nonzero">
                        <path d="M29.3199232,24.0366139 L24.1521578,24.0366139 C23.3653015,24.0366139 22.7273845,23.3971728 22.7273845,22.6084365 L22.7273845,12.0470212 C22.7273845,9.83554514 20.9324994,8.03637169 18.7262944,8.03637169 C16.5200894,8.03637169 14.7252043,9.83554514 14.7252043,12.0470212 L14.7252043,22.6084365 C14.7252043,23.3971728 14.0872873,24.0366139 13.300431,24.0366139 L8.13266557,24.0366139 C7.34580926,24.0366139 6.70789225,23.3971728 6.70789225,22.6084365 L6.70789225,12.0470212 C6.70798742,5.4041981 12.0993045,0 18.7261992,0 C25.3530939,0 30.7445062,5.4041981 30.7445062,12.0470212 L30.7445062,22.6084365 C30.7446013,23.3971728 30.1066843,24.0366139 29.3199232,24.0366139 Z" id="Shape" fill="#8064BC"></path>
                        <path d="M19.0056947,0 L19.0056947,8.03637169 C21.2631889,8.03637169 23.099801,9.83554514 23.099801,12.0470212 L23.099801,22.6084365 C23.099801,23.3971728 23.7525481,24.0366139 24.557697,24.0366139 L29.8456012,24.0366139 C30.6507501,24.0366139 31.3034972,23.3971728 31.3034972,22.6084365 L31.3034972,12.0470212 C31.3033998,5.4041981 25.7866495,0 19.0056947,0 Z" id="Shape" fill="#E5D4F9"></path>
                        <path d="M32.8538703,48.6322188 L4.59862415,48.6322188 C2.06297816,48.6322188 0,46.6022144 0,44.1070971 L0,25.7667805 C0,23.2716632 2.06297816,21.2416588 4.59862415,21.2416588 L32.8537743,21.2416588 C35.3894203,21.2416588 37.4523984,23.2716632 37.4523984,25.7667805 L37.4523984,44.1070971 C37.4524944,46.6022144 35.3895163,48.6322188 32.8538703,48.6322188 Z" id="Shape" fill="#E5D4F9"></path>
                        <path d="M32.9223292,21.2416588 L19.0056947,21.2416588 L19.0056947,48.6322188 L32.9223292,48.6322188 C35.4201745,48.6322188 37.4523984,46.6022214 37.4523984,44.1071127 L37.4523984,25.7668594 C37.4523984,23.2715617 35.4201745,21.2416588 32.9223292,21.2416588 Z" id="Shape" fill="#8064BC"></path>
                        <path d="M22.5726195,42.4833176 L14.8813436,42.4833176 C14.4045259,42.4833176 13.9575338,42.2548363 13.6834321,41.8707298 C13.4092327,41.4867196 13.342443,40.9953982 13.5041855,40.5539308 L15.0355563,36.3720688 C14.0161093,35.397703 13.4157845,34.0418292 13.4157845,32.6171416 C13.4157845,29.7352361 15.7980147,27.39056 18.7261992,27.39056 C21.6543837,27.39056 24.0366139,29.7351399 24.0366139,32.6171416 C24.0366139,34.0410593 23.4365825,35.3966443 22.4180155,36.3710102 L23.9497776,40.5539308 C24.11152,40.9953982 24.0445348,41.4867196 23.7705309,41.8707298 C23.4964292,42.2548363 23.0495349,42.4833176 22.5726195,42.4833176 Z" id="Shape" fill="#FFFFFF"></path>
                        <path d="M19.0056947,27.39056 L19.0056947,42.4833176 L22.6495696,42.4833176 C23.1013249,42.4833176 23.5248223,42.2548349 23.7845167,41.8707259 C24.0442111,41.4867132 24.1075828,40.9953887 23.9543418,40.5539185 L22.503092,36.3709712 C23.4681212,35.3965991 24.0366139,34.0411017 24.0366139,32.6170787 C24.0366139,29.7353473 21.7797833,27.3907525 19.0056947,27.39056 Z" id="Shape" fill="#FFFFFF"></path>
                    </g>
                </g>
                <g id="Group-46" transform="translate(0.000000, 9.000000)">
                    <rect id="Rectangle-15" fill="#A083D0" opacity="0.825577446" x="6.80243161" y="6.95440729" width="145.671041" height="145.671041" rx="12"></rect>
                    <g id="Group-22" transform="translate(0.723404, 0.875380)">
                        <g id="Rectangle-15">
                            <use fill="black" fill-opacity="1" filter="url(#filter-8)" xlink:href="#path-7"></use>
                            <use fill="url(#linearGradient-6)" fill-rule="evenodd" xlink:href="#path-7"></use>
                        </g>
                        <path d="M127.359965,145.614028 C127.444405,143.882266 127.487117,142.139544 127.487117,140.386846 C127.487117,82.0820507 80.2217417,34.8166754 21.9169466,34.8166754 C14.4020486,34.8166754 7.07054414,35.6018763 -5.86197757e-14,37.094711 L0,12 C-8.11624501e-16,5.372583 5.372583,1.21743675e-15 12,0 L133.614028,0 C140.241445,-1.21743675e-15 145.614028,5.372583 145.614028,12 L145.614028,133.614028 C145.614028,140.241445 140.241445,145.614028 133.614028,145.614028 L127.359965,145.614028 Z" id="Combined-Shape" fill="url(#linearGradient-9)" opacity="0.364164402"></path>
                        <g id="Group-15" transform="translate(24.065428, 24.065428)" fill-rule="nonzero">
                            <polygon id="Shape" fill="#E5D4F9" points="97.7658008 30.6224885 97.7658008 99.26989 66.1799267 99.26989 66.1799267 15.0408924 69.5476063 16.673982"></polygon>
                            <rect id="Rectangle-path" fill="#FFFFFF" x="73.7003729" y="37.6022311" width="7.52044621" height="7.52044621"></rect>
                            <rect id="Rectangle-path" fill="#FFFFFF" x="87.2371761" y="37.6022311" width="7.52044621" height="7.52044621"></rect>
                            <rect id="Rectangle-path" fill="#FFFFFF" x="73.7003729" y="52.6431235" width="7.52044621" height="7.52044621"></rect>
                            <rect id="Rectangle-path" fill="#FFFFFF" x="87.2371761" y="52.6431235" width="7.52044621" height="7.52044621"></rect>
                            <rect id="Rectangle-path" fill="#FFFFFF" x="73.7003729" y="69.1881052" width="7.52044621" height="7.52044621"></rect>
                            <rect id="Rectangle-path" fill="#FFFFFF" x="87.2371761" y="69.1881052" width="7.52044621" height="7.52044621"></rect>
                            <rect id="Rectangle-path" fill="#FFFFFF" x="73.7003729" y="84.2289976" width="7.52044621" height="7.52044621"></rect>
                            <rect id="Rectangle-path" fill="#FFFFFF" x="87.2371761" y="84.2289976" width="7.52044621" height="7.52044621"></rect>
                            <polygon id="Shape" fill="#D4C0F2" points="69.1881052 16.673982 69.1881052 99.26989 66.1799267 99.26989 66.1799267 15.0408924"></polygon>
                            <path d="M0,99.26989 L66.1799267,99.26989 L66.1799267,4.12978253 C66.1799267,1.86131044 64.3184345,0 62.0497408,0 L4.13018587,0 C1.86149222,0 0,1.86131044 0,4.12978253 L0,99.26989 Z" id="Shape" fill="#E5D4F9"></path>
                            <rect id="Rectangle-path" fill="#D4C0F2" x="24.0654279" y="74.9161784" width="12.0327139" height="24.0654279"></rect>
                            <rect id="Rectangle-path" fill="#7F6AAE" x="33.0899633" y="74.9161784" width="12.0327139" height="24.0654279"></rect>
                            <rect id="Rectangle-path" fill="#7F6AAE" x="16.5449817" y="31.5858741" width="15.0408924" height="15.0408924"></rect>
                            <rect id="Rectangle-path" fill="#7F6AAE" x="16.5449817" y="54.1472127" width="15.0408924" height="15.0408924"></rect>
                            <rect id="Rectangle-path" fill="#7F6AAE" x="39.1063203" y="31.5858741" width="15.0408924" height="15.0408924"></rect>
                            <rect id="Rectangle-path" fill="#7F6AAE" x="39.1063203" y="54.1472127" width="15.0408924" height="15.0408924"></rect>
                            <path d="M32.4122016,25.5695171 C31.9473021,25.5695171 31.5687412,25.1914613 31.5687412,24.7264497 L31.5687412,19.5701482 L26.4121113,19.5701482 C25.9469231,19.5701482 25.5695171,19.1920924 25.5695171,18.7270808 L25.5695171,14.3631705 C25.5695171,13.8984468 25.9469231,13.5206789 26.4121113,13.5206789 L31.5687412,13.5206789 L31.5687412,8.36322567 C31.5687412,7.89878998 31.9473021,7.52044621 32.4122016,7.52044621 L36.7761924,7.52044621 C37.240803,7.52044621 37.6187865,7.89878998 37.6187865,8.36322567 L37.6187865,13.5206789 L42.7757051,13.5206789 C43.2408933,13.5206789 43.618588,13.8984468 43.618588,14.3631705 L43.618588,18.7270808 C43.618588,19.1918044 43.2408933,19.5701482 42.7757051,19.5701482 L37.6187865,19.5701482 L37.6187865,24.7264497 C37.6187865,25.1914613 37.240803,25.5695171 36.7761924,25.5695171 L32.4122016,25.5695171 Z" id="Shape" fill="#2CD4D9"></path>
                        </g>
                    </g>
                </g>
            </g>
        </g>
    </g>
</svg>