<?xml version="1.0" encoding="UTF-8"?>
<svg width="45px" height="50px" viewBox="0 0 45 50" version="1.1" xmlns="http://www.w3.org/2000/svg" xmlns:xlink="http://www.w3.org/1999/xlink">
    <!-- Generator: Sketch 49.1 (51147) - http://www.bohemiancoding.com/sketch -->
    <title>Group 2 Copy</title>
    <desc>Created with Sketch.</desc>
    <defs></defs>
    <g id="Desktop-Final" stroke="none" stroke-width="1" fill="none" fill-rule="evenodd">
        <g id="01-Wireframes-Homepage-Navigation" transform="translate(-802.000000, -300.000000)" fill-rule="nonzero">
            <g id="Group-34" transform="translate(773.000000, 67.000000)">
                <g id="Group-2-Copy" transform="translate(29.000000, 233.000000)">
                    <path d="M7.63830388,38.28125 C2.79135776,43.2587254 1.55172414,44.9420317 1.55172414,48.2112704 C1.55172414,49.1990963 2.31513362,50 3.25862069,50 C4.20210776,50 4.96551724,49.1990963 4.96551724,48.2112704 C4.96551724,46.3306449 5.7639181,45.2152602 10.0862069,40.7770867 C9.23499892,39.9029569 8.46540194,39.1220647 7.63830388,38.28125 Z" id="Shape" fill="#E5D4F9"></path>
                    <path d="M12.6776842,38.28125 L13.9655172,36.9868893 C13.1844374,36.1929789 12.3238492,35.3283946 11.3743787,34.375 L10.0862069,35.6699457 C10.976272,36.5649525 11.7454933,37.334876 12.6776842,38.28125 Z" id="Shape" fill="#264C78"></path>
                    <path d="M8.27676405,37.5 C7.82735169,37.9540342 7.37658636,38.4089972 6.98275862,38.8148534 L7.10903605,38.9409289 C8.04439103,39.8743053 8.85098812,40.6823028 9.56806354,41.40625 C9.95986182,41.0029478 10.3975484,40.5588974 10.862069,40.0898874 C9.92930719,39.148965 9.17107886,38.393557 8.27676405,37.5 Z" id="Shape" fill="#523B85"></path>
                    <path d="M11.9143143,42.1875 L5.60622367,42.1875 C4.65167233,42.1875 3.87931034,43.0620117 3.87931034,44.140625 C3.87931034,45.2192383 4.65167233,46.09375 5.60622367,46.09375 L14.7413793,46.09375 C14.3142921,45.1265869 13.4708028,43.9858398 11.9143143,42.1875 Z" id="Shape" fill="#8064BC"></path>
                    <path d="M3.52998532,25.0247845 C3.52998532,20.7205528 7.61353376,17.0953914 10.5683341,14.2035501 C9.64389033,13.3025789 8.79997684,12.4774684 8.03560082,11.71875 C4.8959117,14.7904959 0,19.1389518 0,25.0237819 C0,35.2095019 15.8664561,42.4990361 15.8664561,48.2176633 C15.8664561,49.2019588 16.6558737,50 17.6315039,50 C18.6071341,50 19.3965517,49.2019588 19.3965517,48.2176633 C19.3964414,40.1348779 3.52998532,33.3745862 3.52998532,25.0247845 Z" id="Shape" fill="#9676CC"></path>
                    <path d="M16.2931034,21.7918701 C15.8676912,20.5715332 15.1957161,19.3071289 14.2466533,17.96875 C11.0967969,17.96875 7.926089,17.96875 4.04729218,17.96875 C3.0967247,17.96875 2.32758621,18.8432617 2.32758621,19.921875 C2.32758621,21.0004883 3.0967247,21.875 4.04729218,21.875 C8.5998913,21.875 12.0898196,21.875 15.9306754,21.875 C16.0593309,21.875 16.1725091,21.8222656 16.2931034,21.7918701 Z" id="Shape" fill="#8064BC"></path>
                    <path d="M14.923947,13.6483341 C7.2216093,6.11362147 5.08181977,4.19622315 5.08181977,1.78207221 C5.08181977,0.797922831 4.29240214,0 3.31677196,0 C2.34114177,0 1.55172414,0.797922831 1.55172414,1.78207221 C1.55172414,5.90567592 4.5763542,8.48633923 12.4625879,16.2031574 C15.8427647,19.5228238 17.4181802,22.3133261 17.4181802,24.9847637 C17.4181802,29.2678629 13.3495244,32.883576 10.3769632,35.7955934 C11.2464699,36.6474239 11.9978287,37.3803011 12.9082624,38.28125 C16.0595347,35.1950351 20.9482759,30.8522365 20.9482759,24.9838727 C20.9481655,21.2866298 19.033199,17.6841708 14.923947,13.6483341 Z" id="Shape" fill="#E5D4F9"></path>
                    <path d="M6.00227526,32.03125 C7.27216396,32.03125 15.6303102,32.03125 16.8422897,32.03125 C17.8253003,32.03125 18.6206897,31.1567383 18.6206897,30.078125 C18.6206897,28.9995117 17.8253003,28.125 16.8422897,28.125 L3.87931034,28.125 C4.30790473,29.3702393 5.00470405,30.6617432 6.00227526,32.03125 Z" id="Shape" fill="#8064BC"></path>
                    <path d="M10.0862069,36.4337598 C10.0862069,36.4337598 11.8174414,38.1571262 12.7168853,39.0625 L16.2931034,35.4380606 C15.5009874,34.6398525 14.6282608,33.7707501 13.6655211,32.8125 C13.2168311,33.2583566 10.5061155,36.0152246 10.0862069,36.4337598 Z" id="Shape" fill="#523B85"></path>
                    <path d="M14.2471425,21.875 L16.2931034,21.875 C15.8667393,20.6286321 15.1827961,19.337169 14.2069298,17.96875 C13.6426467,18.010169 13.1896552,18.8579099 13.1896552,19.9143387 C13.1896552,20.9971139 13.6631878,21.875 14.2471425,21.875 Z" id="Shape" fill="#5B986C"></path>
                    <path d="M12.5342149,11.71875 C16.7936699,7.33724033 18.6206897,5.0258822 18.6206897,1.78837129 C18.6206897,0.800743247 17.8574137,0 16.9140918,0 C15.9707698,0 15.2074939,0.800743247 15.2074939,1.78837129 C15.2074939,3.63419402 13.9836498,5.21388474 10.0862069,9.2233014 C10.8057512,9.96402244 11.622145,10.7939385 12.5342149,11.71875 Z" id="Shape" fill="#9676CC"></path>
                    <path d="M8.21363181,7.03125 L14.5493483,7.03125 C15.5132089,7.03125 16.2931034,6.15673828 16.2931034,5.078125 C16.2931034,3.99951172 15.5132089,3.125 14.5493483,3.125 L5.43103448,3.125 C5.8931296,4.15893555 6.76500719,5.34887695 8.21363181,7.03125 Z" id="Shape" fill="#9676CC"></path>
                    <path d="M12.6794237,11.71875 C13.1235358,11.2694243 13.5683263,10.8199823 13.9655172,10.4072863 L13.7346423,10.1772744 C12.8412171,9.28908855 12.0793975,8.52509526 11.3744486,7.8125 C10.9868681,8.21368369 10.5391379,8.66626541 10.0862069,9.12407995 C10.8484788,9.89423635 11.7132989,10.757072 12.6794237,11.71875 Z" id="Shape" fill="#523B85"></path>
                    <path d="M7.4980461,11.71875 L6.20689655,13.0157302 C6.97815945,13.8018886 7.8001485,14.6296513 8.70825927,15.5400383 L8.79291557,15.625 L10.0862069,14.3255656 C9.14146057,13.3802356 8.27922878,12.5146083 7.4980461,11.71875 Z" id="Shape" fill="#523B85"></path>
                    <path d="M35.117676,30.46875 L44.3329371,40.2687155 C45.2238891,41.212714 45.2221732,42.7416379 44.328862,43.6834822 L42.7116792,45.3888247 C41.8187969,46.3303289 40.3730912,46.3285148 39.4823538,45.3846297 L30.2586207,35.5754804 L35.117676,30.46875 Z" id="Shape" fill="#735BA7"></path>
                    <path d="M23.2758621,10.9375 C15.5628596,10.9375 9.31034483,17.2334351 9.31034483,25 C9.31034483,32.7665649 15.5628596,39.0625 23.2758621,39.0625 C30.9888645,39.0625 37.2413793,32.7665649 37.2413793,25 C37.2413793,17.2334351 30.9888645,10.9375 23.2758621,10.9375 Z" id="Shape" fill="#9676CC"></path>
                    <path d="M33.4816531,29.0487852 C32.5112664,31.6895691 30.5779123,33.7917807 28.0371663,34.9682457 C26.64825,35.6111925 25.1813229,35.9375 23.6767545,35.9375 C19.5948896,35.9375 15.8563806,33.5262301 14.152585,29.7946781 C12.9843895,27.236405 12.8753929,24.3732486 13.8458886,21.7324648 C14.8162753,19.0914612 16.7496295,16.9894693 19.2903754,15.8130043 C20.6788554,15.1700575 22.1466552,14.8440796 23.6530785,14.84375 C27.7334159,14.8439697 31.4710521,17.2550199 33.1749568,20.986462 C34.3431522,23.544845 34.452258,26.4080014 33.4816531,29.0487852 Z" id="Shape" fill="#FFFFFF"></path>
                    <polygon id="Shape" fill="#E5D4F9" points="19.3965517 17.1875 23.2758621 19.5309082 23.2758621 24.2182943 19.3965517 26.5625 15.5172414 24.2182943 15.5172414 19.5309082"></polygon>
                    <polygon id="Shape" fill="#9676CC" points="23.2758621 25 27.1551724 27.3434937 27.1551724 32.0308228 23.2758621 34.375 19.3965517 32.0308228 19.3965517 27.3434937"></polygon>
                    <polygon id="Shape" fill="#2CD4D9" points="27.1552268 17.1875 31.0344828 19.5309082 31.0344828 24.2182943 27.1552268 26.5625 23.2758621 24.2182943 23.2758621 19.5309082"></polygon>
                    <path d="M24.0517241,25 L27.1551724,26.5625 L24.0517241,25 Z" id="Shape" fill="#D5E2F2" opacity="0.5"></path>
                </g>
            </g>
        </g>
    </g>
</svg>