<?xml version="1.0" encoding="UTF-8"?>
<svg width="20px" height="30px" viewBox="0 0 20 30" version="1.1" xmlns="http://www.w3.org/2000/svg" xmlns:xlink="http://www.w3.org/1999/xlink">
    <!-- Generator: Sketch 49.1 (51147) - http://www.bohemiancoding.com/sketch -->
    <title>Group 15</title>
    <desc>Created with Sketch.</desc>
    <defs></defs>
    <g id="Desktop-Final" stroke="none" stroke-width="1" fill="none" fill-rule="evenodd">
        <g id="03-Wireframes-Labs" transform="translate(-245.000000, -653.000000)" fill="#D587D0" fill-rule="nonzero">
            <g id="Group-6" transform="translate(200.000000, 614.000000)">
                <g id="Group-13" transform="translate(40.000000, 39.000000)">
                    <g id="Group-15" transform="translate(5.000000, 0.000000)">
                        <path d="M15.0429153,21.3564407 C12.6642712,21.3564407 10.7292203,23.2915932 10.7292203,25.6701356 C10.7292203,28.048678 12.6642712,29.9839322 15.0429153,29.9839322 C17.4215593,29.9839322 19.3567119,28.0487797 19.3567119,25.6701356 C19.3567119,23.2914915 17.4215593,21.3564407 15.0429153,21.3564407 Z M15.0429153,28.7636949 C13.3372881,28.7636949 11.9495593,27.3759661 11.9495593,25.6702373 C11.9495593,23.9645085 13.3372881,22.5768814 15.0429153,22.5768814 C16.7486441,22.5768814 18.1363729,23.9646102 18.1363729,25.6702373 C18.1363729,27.3758644 16.7487458,28.7636949 15.0429153,28.7636949 Z" id="Shape"></path>
                        <path d="M7.88816949,11.1424068 C8.04427119,11.1424068 8.20047458,11.0828136 8.31955932,10.9637288 L11.9583051,7.32508475 C12.7421695,8.12786441 13.8349831,8.62759322 15.0430169,8.62759322 C17.421661,8.62759322 19.3568136,6.69244068 19.3568136,4.31389831 C19.3568136,1.93535593 17.4215593,0 15.0429153,0 C12.6642712,0 10.7292203,1.93515254 10.7292203,4.31379661 C10.7292203,5.04091525 10.9107458,5.72613559 11.2298644,6.32776271 L7.45677966,10.1007458 C7.21840678,10.3390169 7.21840678,10.7253559 7.45667797,10.9636271 C7.57586441,11.0828136 7.7319661,11.1424068 7.88816949,11.1424068 Z M15.0429153,1.22033898 C16.7486441,1.22033898 18.1363729,2.6080678 18.1363729,4.31379661 C18.1363729,6.01952542 16.7486441,7.40715254 15.0429153,7.40715254 C13.3372881,7.40715254 11.9495593,6.01942373 11.9495593,4.31379661 C11.9495593,2.60816949 13.3372881,1.22033898 15.0429153,1.22033898 Z" id="Shape"></path>
                        <path d="M10.7703051,21.8577966 L7.1739661,18.2615593 C8.09410169,17.4698644 8.67844068,16.2982373 8.67844068,14.9919661 C8.67844068,12.613322 6.74338983,10.6781695 4.36474576,10.6781695 C1.98610169,10.6781695 0.0509491525,12.613322 0.0509491525,14.9919661 C0.0509491525,17.3706102 1.98620339,19.3057627 4.36474576,19.3057627 C4.98905085,19.3057627 5.58223729,19.1714237 6.11837288,18.9317288 L9.90742373,22.720678 C10.0265085,22.8397627 10.1827119,22.8993559 10.3388136,22.8993559 C10.4949153,22.8993559 10.6511186,22.8397627 10.7702034,22.720678 C11.0085763,22.4824068 11.0085763,22.0960678 10.7703051,21.8577966 Z M1.27128814,14.9919661 C1.27128814,13.2862373 2.65901695,11.8985085 4.36474576,11.8985085 C6.07037288,11.8985085 7.45810169,13.2862373 7.45810169,14.9919661 C7.45810169,16.6976949 6.07047458,18.0854237 4.36474576,18.0854237 C2.65901695,18.0854237 1.27128814,16.6976949 1.27128814,14.9919661 Z" id="Shape"></path>
                    </g>
                </g>
            </g>
        </g>
    </g>
</svg>