<?xml version="1.0" encoding="UTF-8"?>
<svg width="31px" height="40px" viewBox="0 0 31 40" version="1.1" xmlns="http://www.w3.org/2000/svg" xmlns:xlink="http://www.w3.org/1999/xlink">
    <!-- Generator: Sketch 49.1 (51147) - http://www.bohemiancoding.com/sketch -->
    <title>Group 32</title>
    <desc>Created with Sketch.</desc>
    <defs></defs>
    <g id="Desktop-Final" stroke="none" stroke-width="1" fill="none" fill-rule="evenodd">
        <g id="04-Wireframes-Physicians" transform="translate(-981.000000, -2550.000000)" fill="#8181D3" fill-rule="nonzero">
            <g id="Group-32" transform="translate(981.000000, 2550.000000)">
                <path d="M15.390625,2.02820312 C14.3861719,2.02820312 13.5689844,2.84539062 13.5689844,3.84984375 C13.5689844,4.85429687 14.3861719,5.67148437 15.390625,5.67148437 C16.3950781,5.67148437 17.2122656,4.85429687 17.2122656,3.84984375 C17.2122656,2.84539062 16.3950781,2.02820312 15.390625,2.02820312 Z M15.390625,4.49953125 C15.0323438,4.49953125 14.7408594,4.20804687 14.7408594,3.84976562 C14.7408594,3.49148437 15.0323438,3.2 15.390625,3.2 C15.7489063,3.2 16.0403906,3.49148437 16.0403906,3.84976562 C16.0403906,4.20804687 15.7489063,4.49953125 15.390625,4.49953125 Z" id="Shape"></path>
                <path d="M9.98882813,6.40046875 C9.66523438,6.40046875 9.40289063,6.6628125 9.40289063,6.98640625 L9.40289063,7.9640625 C9.40289063,8.28765625 9.66523438,8.55 9.98882813,8.55 C10.3124219,8.55 10.5747656,8.28765625 10.5747656,7.9640625 L10.5747656,6.98640625 C10.5747656,6.6628125 10.3124219,6.40046875 9.98882813,6.40046875 Z" id="Shape"></path>
                <path d="M20.7924219,6.40046875 C20.4688281,6.40046875 20.2064844,6.6628125 20.2064844,6.98640625 L20.2064844,7.9640625 C20.2064844,8.28765625 20.4688281,8.55 20.7924219,8.55 C21.1160156,8.55 21.3783594,8.28765625 21.3783594,7.9640625 L21.3783594,6.98640625 C21.3783594,6.6628125 21.1160156,6.40046875 20.7924219,6.40046875 Z" id="Shape"></path>
                <path d="M17.1094531,7.45492188 C16.8658594,7.241875 16.4957031,7.26679688 16.2826562,7.51039063 C16.06625,7.75789063 15.7411719,7.89992188 15.390625,7.89992188 C15.0400781,7.89992188 14.7149219,7.75796875 14.4985937,7.51039063 C14.285625,7.26679688 13.9154687,7.241875 13.6717969,7.45492188 C13.428125,7.66796875 13.4032812,8.03804688 13.61625,8.28171875 C14.0552344,8.78390625 14.7019531,9.071875 15.390625,9.071875 C16.0792969,9.071875 16.7260156,8.78382813 17.165,8.28171875 C17.3779687,8.03804688 17.353125,7.6678125 17.1094531,7.45492188 Z" id="Shape"></path>
                <path d="M21.8492969,23.5528125 L8.93195312,23.5528125 C8.60835937,23.5528125 8.34601562,23.8151563 8.34601562,24.13875 C8.34601562,24.4624219 8.60835937,24.7246875 8.93195312,24.7246875 L21.8492969,24.7246875 C22.1728906,24.7246875 22.4352344,24.4624219 22.4352344,24.13875 C22.4352344,23.8151563 22.1728906,23.5528125 21.8492969,23.5528125 Z" id="Shape"></path>
                <path d="M21.8492969,27.0896875 L8.93195312,27.0896875 C8.60835937,27.0896875 8.34601562,27.3520312 8.34601562,27.675625 C8.34601562,27.9992969 8.60835937,28.2615625 8.93195312,28.2615625 L21.8492969,28.2615625 C22.1728906,28.2615625 22.4352344,27.9992969 22.4352344,27.675625 C22.4352344,27.3520312 22.1728906,27.0896875 21.8492969,27.0896875 Z" id="Shape"></path>
                <path d="M21.8492969,30.6266406 L8.93195312,30.6266406 C8.60835937,30.6266406 8.34601562,30.8889844 8.34601562,31.2125781 C8.34601562,31.5361719 8.60835937,31.7985156 8.93195312,31.7985156 L21.8492969,31.7985156 C22.1728906,31.7985156 22.4352344,31.5361719 22.4352344,31.2125781 C22.4352344,30.8889844 22.1728906,30.6266406 21.8492969,30.6266406 Z" id="Shape"></path>
                <path d="M18.7047656,15.76375 L17.2122656,15.76375 L17.2122656,14.27125 C17.2122656,13.9475781 16.9499219,13.6853125 16.6263281,13.6853125 L14.1549219,13.6853125 C13.8313281,13.6853125 13.5689844,13.9475781 13.5689844,14.27125 L13.5689844,15.76375 L12.0764844,15.76375 C11.7528906,15.76375 11.4905469,16.0260937 11.4905469,16.3496875 L11.4905469,18.8211719 C11.4905469,19.1447656 11.7528906,19.4071094 12.0764844,19.4071094 L13.5689844,19.4071094 L13.5689844,20.8996094 C13.5689844,21.2232031 13.8313281,21.4855469 14.1549219,21.4855469 L16.6263281,21.4855469 C16.9499219,21.4855469 17.2122656,21.2232031 17.2122656,20.8996094 L17.2122656,19.4071094 L18.7047656,19.4071094 C19.0283594,19.4071094 19.2907031,19.1447656 19.2907031,18.8211719 L19.2907031,16.3496875 C19.2907031,16.0260937 19.0283594,15.76375 18.7047656,15.76375 Z M18.1188281,18.2352344 L16.6263281,18.2352344 C16.3027344,18.2352344 16.0403906,18.4975 16.0403906,18.8211719 L16.0403906,20.3136719 L14.7408594,20.3136719 L14.7408594,18.8211719 C14.7408594,18.4975 14.4785156,18.2352344 14.1549219,18.2352344 L12.6624219,18.2352344 L12.6624219,16.935625 L14.1549219,16.935625 C14.4785156,16.935625 14.7408594,16.6732812 14.7408594,16.3496875 L14.7408594,14.8571875 L16.0403906,14.8571875 L16.0403906,16.3496875 C16.0403906,16.6732812 16.3027344,16.935625 16.6263281,16.935625 L18.1188281,16.935625 L18.1188281,18.2352344 Z" id="Shape"></path>
                <path d="M27.3221094,6.15023438 L24.8188281,6.15023438 L24.8188281,5.229375 C24.8188281,4.2575 24.028125,3.46679688 23.05625,3.46679688 L19.4010938,3.46679688 C19.1163281,1.50882812 17.4263281,0 15.390625,0 C13.3549219,0 11.665,1.50882812 11.3801563,3.46679688 L7.725,3.46679688 C6.753125,3.46679688 5.96242188,4.2575 5.96242188,5.229375 L5.96242188,6.15023438 L3.45914063,6.15023438 C1.58171875,6.15023438 0.05421875,7.67765625 0.05421875,9.55507813 L0.05421875,36.5951563 C0.05421875,38.4725781 1.58164063,40 3.45914063,40 L6.27242188,40 C6.59601563,40 6.85835938,39.7376563 6.85835938,39.4140625 C6.85835938,39.0904687 6.59601563,38.828125 6.27242188,38.828125 L3.45914063,38.828125 C2.22789063,38.828125 1.22609375,37.8264062 1.22609375,36.5951563 L1.22609375,9.55507813 C1.22609375,8.32382813 2.2278125,7.32210938 3.45914063,7.32210938 L5.96242188,7.32210938 L5.96242188,8.84132813 L3.45914063,8.84132813 C3.06554688,8.84132813 2.74539063,9.16148438 2.74539063,9.55507813 L2.74539063,36.5951563 C2.74539063,36.98875 3.06554688,37.3089062 3.45914063,37.3089062 L27.3221094,37.3089062 C27.7157031,37.3089062 28.0358594,36.98875 28.0358594,36.5951563 L28.0358594,9.55507813 C28.0358594,9.16148438 27.715625,8.84132813 27.3221094,8.84132813 L24.8188281,8.84132813 L24.8188281,7.32210938 L27.3221094,7.32210938 C28.5533594,7.32210938 29.5551563,8.32382813 29.5551563,9.55507813 L29.5551563,36.5951563 C29.5551563,37.8264062 28.5534375,38.828125 27.3221094,38.828125 L8.61617188,38.828125 C8.29257813,38.828125 8.03023438,39.0904687 8.03023438,39.4140625 C8.03023438,39.7376563 8.29257813,40 8.61617188,40 L27.3221094,40 C29.1995313,40 30.7270313,38.4725781 30.7270313,36.5951563 L30.7270313,9.55507813 C30.7270313,7.67765625 29.1996094,6.15023438 27.3221094,6.15023438 Z M26.8639844,10.0132812 L26.8639844,36.1370312 L3.91726563,36.1370312 L3.91726563,10.0132031 L5.96242188,10.0132031 L5.96242188,10.1385156 C5.96242188,11.1103906 6.753125,11.9010938 7.725,11.9010938 L19.0849219,11.9010938 C19.4085156,11.9010938 19.6708594,11.63875 19.6708594,11.3151563 C19.6708594,10.9915625 19.4085156,10.7292188 19.0849219,10.7292188 L7.725,10.7292188 C7.39929688,10.7292188 7.13429688,10.4642188 7.13429688,10.1385156 L7.13429688,5.229375 C7.13429688,4.90367188 7.39929688,4.63867188 7.725,4.63867188 L11.9239063,4.63867188 C12.2475,4.63867188 12.5098438,4.37632813 12.5098438,4.05273438 C12.5097656,2.46421875 13.8021094,1.171875 15.390625,1.171875 C16.9791406,1.171875 18.2714844,2.46421875 18.2714844,4.05273438 C18.2714844,4.37632812 18.5338281,4.63867188 18.8574219,4.63867188 L23.05625,4.63867188 C23.3819531,4.63867188 23.6469531,4.90367187 23.6469531,5.229375 L23.6469531,10.1385938 C23.6469531,10.4642969 23.3819531,10.7292969 23.05625,10.7292969 L21.4286719,10.7292969 C21.1050781,10.7292969 20.8427344,10.9916406 20.8427344,11.3152344 C20.8427344,11.6388281 21.1050781,11.9011719 21.4286719,11.9011719 L23.05625,11.9011719 C24.028125,11.9011719 24.8188281,11.1104687 24.8188281,10.1385938 L24.8188281,10.0132812 L26.8639844,10.0132812 Z" id="Shape"></path>
            </g>
        </g>
    </g>
</svg>