<?xml version="1.0" encoding="UTF-8"?>
<svg width="40px" height="40px" viewBox="0 0 40 40" version="1.1" xmlns="http://www.w3.org/2000/svg" xmlns:xlink="http://www.w3.org/1999/xlink">
    <!-- Generator: Sketch 49.1 (51147) - http://www.bohemiancoding.com/sketch -->
    <title>Group 33 Copy</title>
    <desc>Created with Sketch.</desc>
    <defs></defs>
    <g id="Desktop-Final" stroke="none" stroke-width="1" fill="none" fill-rule="evenodd">
        <g id="01-Wireframes-Homepage-Navigation" transform="translate(-804.000000, -112.000000)" fill-rule="nonzero">
            <g id="Group-34" transform="translate(773.000000, 67.000000)">
                <g id="Group-33-Copy" transform="translate(31.000000, 45.000000)">
                    <g id="Group-19">
                        <polygon id="Shape" fill="#E5D4F9" points="39.9394262 12.2159602 39.9394262 39.4351901 27.1698113 39.4351901 27.1698113 6.03773585 28.5313051 6.68526861"></polygon>
                        <rect id="Rectangle-path" fill="#9676CC" x="28.6792453" y="15.0943396" width="2.9468342" height="2.9468342"></rect>
                        <rect id="Rectangle-path" fill="#9676CC" x="34.7169811" y="15.0943396" width="2.9468342" height="2.9468342"></rect>
                        <rect id="Rectangle-path" fill="#9676CC" x="28.6792453" y="21.1320755" width="2.9468342" height="2.9468342"></rect>
                        <rect id="Rectangle-path" fill="#9676CC" x="34.7169811" y="21.1320755" width="2.9468342" height="2.9468342"></rect>
                        <rect id="Rectangle-path" fill="#9676CC" x="28.6792453" y="27.9245283" width="2.9468342" height="2.9468342"></rect>
                        <rect id="Rectangle-path" fill="#9676CC" x="34.7169811" y="27.9245283" width="2.9468342" height="2.9468342"></rect>
                        <rect id="Rectangle-path" fill="#9676CC" x="28.6792453" y="33.9622642" width="2.9468342" height="2.9468342"></rect>
                        <rect id="Rectangle-path" fill="#9676CC" x="34.7169811" y="33.9622642" width="2.9468342" height="2.9468342"></rect>
                        <polygon id="Shape" fill="#D4C0F2" points="27.1520894 6.68526861 27.1520894 39.4351901 26.1698113 39.4351901 26.1698113 6.03773585"></polygon>
                        <path d="M0,39.2911227 L26.5215078,39.2911227 L26.5215078,1.6345721 C26.5215078,0.73670855 25.7755175,0 24.8663419,0 L1.65516588,0 C0.745990257,0 0,0.73670855 0,1.6345721 L0,39.2911227 Z" id="Shape" fill="#E5D4F9"></path>
                        <rect id="Rectangle-path" fill="#7F6AAE" x="9.05660377" y="29.4339623" width="4.91139033" height="9.82278067"></rect>
                        <rect id="Rectangle-path" fill="#523B85" x="12.8301887" y="29.4339623" width="4.91139033" height="9.82278067"></rect>
                        <rect id="Rectangle-path" fill="#9676CC" x="6.03773585" y="12.8301887" width="5.8936684" height="5.8936684"></rect>
                        <rect id="Rectangle-path" fill="#9676CC" x="6.03773585" y="21.8867925" width="5.8936684" height="5.8936684"></rect>
                        <rect id="Rectangle-path" fill="#9676CC" x="15.0943396" y="12.8301887" width="5.8936684" height="5.8936684"></rect>
                        <rect id="Rectangle-path" fill="#9676CC" x="15.0943396" y="21.8867925" width="5.8936684" height="5.8936684"></rect>
                        <path d="M12.4180994,9.89481439 C12.240992,9.89481439 12.096776,9.75079082 12.096776,9.57364072 L12.096776,7.60930397 L10.1323141,7.60930397 C9.95509674,7.60930397 9.81132075,7.4652804 9.81132075,7.28813031 L9.81132075,5.6256617 C9.81132075,5.4486213 9.95509674,5.30470741 10.1323141,5.30470741 L12.096776,5.30470741 L12.096776,3.3399319 C12.096776,3.16300119 12.240992,3.01886792 12.4180994,3.01886792 L14.0805986,3.01886792 C14.257596,3.01886792 14.401592,3.16300119 14.401592,3.3399319 L14.401592,5.30470741 L16.3661638,5.30470741 C16.5433812,5.30470741 16.6872672,5.4486213 16.6872672,5.6256617 L16.6872672,7.28813031 C16.6872672,7.46517071 16.5433812,7.60930397 16.3661638,7.60930397 L14.401592,7.60930397 L14.401592,9.57364072 C14.401592,9.75079082 14.257596,9.89481439 14.0805986,9.89481439 L12.4180994,9.89481439 Z" id="Shape" fill="#2CD4D9"></path>
                    </g>
                </g>
            </g>
        </g>
    </g>
</svg>