<?xml version="1.0" encoding="UTF-8"?>
<svg width="28px" height="30px" viewBox="0 0 28 30" version="1.1" xmlns="http://www.w3.org/2000/svg" xmlns:xlink="http://www.w3.org/1999/xlink">
    <!-- Generator: Sketch 49.1 (51147) - http://www.bohemiancoding.com/sketch -->
    <title>Group 34</title>
    <desc>Created with Sketch.</desc>
    <defs></defs>
    <g id="Desktop-Final" stroke="none" stroke-width="1" fill="none" fill-rule="evenodd">
        <g id="05-Wireframes-Patients-&amp;-Family" transform="translate(-628.000000, -704.000000)" fill="#8181D3" fill-rule="nonzero">
            <g id="Group-31" transform="translate(207.000000, 614.000000)">
                <g id="Group-34" transform="translate(421.000000, 90.000000)">
                    <rect id="Rectangle-path" x="24.4042969" y="5.15625" width="1" height="3.75"></rect>
                    <path d="M19.2333984,9.86630859 L22.9760742,11.7413086 L27.1582031,9.64658203 L27.1582031,4.41591797 L23.4082031,2.54091797 L23.4082031,0 L22.5292969,0 L22.5292969,2.54091797 L19.3201758,4.15277344 L17.6765039,2.50177734 L17.0439844,3.12322266 L18.7792969,4.86955078 L18.7792969,9.10341797 L17.7832031,9.60146484 L17.7832031,7.03125 L18.3105469,7.03125 L18.3105469,6.15234375 L0.029296875,6.15234375 L0.029296875,10.78125 L1.90429688,10.78125 L1.90429688,30 L17.7832031,30 L17.7832031,26.25 L16.9042969,26.25 L16.9042969,29.1210938 L2.78320312,29.1210938 L2.78320312,25.078125 L14.5605469,25.078125 L14.5605469,24.1992188 L2.78320312,24.1992188 L2.78320312,15.703125 L15.0292969,15.703125 L15.0292969,16.209082 L16.9042969,17.146582 L16.9042969,24.1929492 L15.1726172,25.9392773 L15.8014453,26.5607227 L19.3164844,23.0347266 L22.5292383,24.6466406 L22.5292383,27.1875 L23.4081445,27.1875 L23.4081445,24.646582 L27.1581445,22.771582 L27.1581445,17.5408594 L23.4081445,15.6658594 L23.4081445,13.125 L22.5292383,13.125 L22.5292383,15.665918 L19.2186914,17.3211914 L15.9081445,15.665918 L15.9081445,11.5216406 L19.2333984,9.86630859 Z M19.6582031,4.95908203 L22.96875,3.30380859 L26.2792969,4.95908203 L26.2792969,9.10335938 L22.96875,10.7586328 L19.6582031,9.10335938 L19.6582031,4.95908203 Z M15.9082031,7.03125 L16.9042969,7.03125 L16.9042969,9.90234375 L15.9082031,9.90234375 L15.9082031,7.03125 Z M1.90429687,9.90234375 L0.908203125,9.90234375 L0.908203125,7.03125 L1.90429687,7.03125 L1.90429687,9.90234375 Z M17.7832031,17.5860352 L19.2260742,18.3038086 L22.9833984,16.4288086 L26.2792969,18.084082 L26.2792969,22.2283594 L22.96875,23.8836328 L19.6582031,22.2283594 L19.6582031,19.6875 L18.7792969,19.6875 L18.7792969,22.3179492 L17.7832031,23.314043 L17.7832031,17.5860352 Z M14.0332031,7.03125 L15.0292969,7.03125 L15.0292969,9.90234375 L14.0332031,9.90234375 L14.0332031,7.03125 Z M12.1582031,7.03125 L13.1542969,7.03125 L13.1542969,9.90234375 L12.1582031,9.90234375 L12.1582031,7.03125 Z M10.2832031,7.03125 L11.2792969,7.03125 L11.2792969,9.90234375 L10.2832031,9.90234375 L10.2832031,7.03125 Z M8.40820312,7.03125 L9.40429688,7.03125 L9.40429688,9.90234375 L8.40820312,9.90234375 L8.40820312,7.03125 Z M6.53320312,7.03125 L7.52929688,7.03125 L7.52929688,9.90234375 L6.53320312,9.90234375 L6.53320312,7.03125 Z M4.65820312,7.03125 L5.65429687,7.03125 L5.65429687,9.90234375 L4.65820312,9.90234375 L4.65820312,7.03125 Z M2.78320312,7.03125 L3.77929687,7.03125 L3.77929687,9.90234375 L2.78320312,9.90234375 L2.78320312,7.03125 Z M15.0292969,10.978418 L15.0292969,14.8242188 L2.78320312,14.8242188 L2.78320312,10.78125 L15.5114648,10.78125 L15.0292969,10.978418 Z" id="Shape"></path>
                    <rect id="Rectangle-path" x="21.1230469" y="8.02734375" width="1" height="1"></rect>
                    <rect id="Rectangle-path" x="23.9355469" y="18.3398438" width="1" height="1"></rect>
                    <rect id="Rectangle-path" x="4.24804688" y="18.1054688" width="10.3125" height="1"></rect>
                    <rect id="Rectangle-path" x="4.24804688" y="20.9179688" width="7.5" height="1"></rect>
                    <rect id="Rectangle-path" x="20.6542969" y="18.28125" width="1" height="3.75"></rect>
                </g>
            </g>
        </g>
    </g>
</svg>