<?xml version="1.0" encoding="UTF-8"?>
<svg width="26px" height="30px" viewBox="0 0 26 30" version="1.1" xmlns="http://www.w3.org/2000/svg" xmlns:xlink="http://www.w3.org/1999/xlink">
    <!-- Generator: Sketch 49.1 (51147) - http://www.bohemiancoding.com/sketch -->
    <title>Group 26</title>
    <desc>Created with Sketch.</desc>
    <defs></defs>
    <g id="Desktop-Final" stroke="none" stroke-width="1" fill="none" fill-rule="evenodd">
        <g id="02-Wireframes-Health-Units" transform="translate(-611.000000, -654.000000)" fill="#8064BC" fill-rule="nonzero">
            <g id="Group-49" transform="translate(200.000000, 614.000000)">
                <g id="Group-26" transform="translate(411.000000, 40.000000)">
                    <path d="M23.6533913,9.66007509 L24.4068138,8.90659478 C24.9921416,8.32126697 24.9921416,7.36901897 24.4068138,6.78369115 L23.6841797,6.06105709 C23.0989097,5.47572928 22.1466039,5.47572928 21.5612761,6.06105709 L20.8887239,6.73360932 C19.1117142,5.364186 16.9650116,4.45277751 14.6261264,4.17706749 L14.6261264,3.00225282 L15.6800977,3.00225282 C15.9446592,3.00225282 16.1591966,2.78777318 16.1591966,2.52315394 L16.1591966,0.479098874 C16.1591966,0.214537403 15.944717,0 15.6800977,0 L10.5698445,0 C10.305283,0 10.0907456,0.214479638 10.0907456,0.479098874 L10.0907456,2.52315394 C10.0907456,2.78771541 10.3052253,3.00225282 10.5698445,3.00225282 L11.6238158,3.00225282 L11.6238158,4.17700972 C5.30189419,4.92228747 0.38139742,10.3128141 0.38139742,16.8318282 C0.38139742,23.858708 6.09812025,29.5754308 13.125,29.5754308 C20.1518798,29.5754308 25.8686026,23.858708 25.8686026,16.8318282 C25.8686026,14.1742563 25.050426,11.704419 23.6533913,9.66007509 Z M22.2388539,6.73846154 C22.4481347,6.52918071 22.7974945,6.52918071 23.0067175,6.73846154 L23.7293516,7.4610956 C23.9386324,7.67037643 23.9386324,8.01967844 23.7293516,8.22895928 L23.0767859,8.88152498 C22.6366203,8.33166458 22.1520916,7.818889 21.6283407,7.34880139 L22.2388539,6.73846154 Z M11.0489434,2.04411283 L11.0489434,0.958139983 L15.2009988,0.958139983 L15.2009988,2.04405507 L11.0489434,2.04405507 L11.0489434,2.04411283 Z M13.6679864,3.00225282 L13.6679864,4.0881679 L12.5820136,4.0881679 L12.5820136,3.00225282 L13.6679864,3.00225282 Z M13.125,28.6172908 C6.62643449,28.6172908 1.3395374,23.3303938 1.3395374,16.8318282 C1.3395374,10.3332627 6.62643449,5.04636565 13.125,5.04636565 C19.6235655,5.04636565 24.9104626,10.3332627 24.9104626,16.8318282 C24.9104626,23.3303938 19.6235655,28.6172908 13.125,28.6172908 Z" id="Shape"></path>
                    <path d="M19.80743,9.83186676 C19.6160561,9.6491576 19.3128502,9.65614711 19.1300833,9.84752094 C18.9473741,10.0388948 18.9543636,10.3421585 19.1457375,10.5248676 C20.7698445,12.075787 21.7126769,14.130182 21.8312674,16.3527871 L20.7903509,16.3527871 C20.5257894,16.3527871 20.311252,16.5672668 20.311252,16.831886 C20.311252,17.0964475 20.5257317,17.3109849 20.7903509,17.3109849 L21.8309786,17.3109849 C21.5900428,21.7381727 18.0313445,25.2968711 13.6040989,25.5378069 L13.6040989,24.4971792 C13.6040989,24.2326177 13.3896192,24.0180803 13.125,24.0180803 C12.8604385,24.0180803 12.6459011,24.2325599 12.6459011,24.4971792 L12.6459011,25.5378069 C8.21865553,25.2968711 4.65995716,21.7381727 4.41902137,17.3109271 L5.45964908,17.3109271 C5.72421055,17.3109271 5.93874795,17.0964475 5.93874795,16.8318282 C5.93874795,16.5672668 5.72426832,16.3527294 5.45964908,16.3527294 L4.41902137,16.3527294 C4.65995716,11.9254838 8.21865553,8.3667854 12.6459011,8.12584962 L12.6459011,9.16647733 C12.6459011,9.4310388 12.8603808,9.6455762 13.125,9.6455762 C13.3895615,9.6455762 13.6040989,9.43109656 13.6040989,9.16647733 L13.6040989,8.12665832 C14.9766992,8.20198325 16.3145254,8.59876769 17.4996799,9.28755175 C17.7284851,9.42052566 18.02164,9.34289015 18.1546139,9.11408491 C18.2875879,8.88533744 18.2099523,8.59212477 17.9811471,8.45915086 C16.5124266,7.60550688 14.8332122,7.15430827 13.125,7.15430827 C7.78877202,7.15430827 3.44748002,11.4955425 3.44748002,16.8317705 C3.44748002,22.1679985 7.78877202,26.5092905 13.125,26.5092905 C18.461228,26.5092905 22.8024622,22.1680562 22.8024622,16.8318282 C22.8024622,14.1621835 21.7388442,11.6761721 19.80743,9.83186676 Z" id="Shape"></path>
                    <path d="M14.1470275,15.3945316 L12.518126,15.3945316 L12.518126,14.6918841 L15.1690551,14.6918841 C15.9615842,14.6918841 16.6062939,14.0471744 16.6062939,13.2546452 C16.6062939,12.4621161 15.9615842,11.8174064 15.1690551,11.8174064 L14.5622389,11.8174064 L14.5622389,11.721575 C14.5622389,10.9290459 13.9175291,10.2843362 13.125,10.2843362 C12.3324709,10.2843362 11.6877611,10.9290459 11.6877611,11.721575 L11.6877611,11.8524694 C10.5286584,12.0503707 9.64364831,13.0621161 9.64364831,14.2766728 L9.64364831,15.8097429 C9.64364831,17.1658227 10.7468928,18.2690671 12.1029725,18.2690671 L13.731874,18.2690671 L13.731874,18.9717146 L11.0809449,18.9717146 C10.2884158,18.9717146 9.64370607,19.6164244 9.64370607,20.4089535 C9.64370607,21.2014826 10.2884158,21.8461924 11.0809449,21.8461924 L11.6877611,21.8461924 L11.6877611,21.9420237 C11.6877611,22.7345528 12.3324709,23.3792625 13.125,23.3792625 C13.9175291,23.3792625 14.5622389,22.7345528 14.5622389,21.9420237 L14.5622389,21.8111293 C15.7213416,21.6132281 16.6063517,20.6014826 16.6063517,19.386926 L16.6063517,17.8538558 C16.6063517,16.4977761 15.5031072,15.3945316 14.1470275,15.3945316 Z M15.6481539,19.386926 C15.6481539,20.2146337 14.9747352,20.8880524 14.1470275,20.8880524 L14.08314,20.8880524 C13.8185785,20.8880524 13.6040411,21.102532 13.6040411,21.3671512 L13.6040411,21.9420814 C13.6040411,22.2062963 13.3891571,22.4211803 13.1249422,22.4211803 C12.8607274,22.4211803 12.6458434,22.2062963 12.6458434,21.9420814 L12.6458434,21.3671512 C12.6458434,21.1025898 12.4313637,20.8880524 12.1667445,20.8880524 L11.0808294,20.8880524 C10.8166145,20.8880524 10.6017305,20.6731684 10.6017305,20.4089535 C10.6017305,20.1447386 10.8166145,19.9298546 11.0808294,19.9298546 L14.1469698,19.9298546 C14.4463632,19.9298546 14.6899562,19.6863194 14.6899562,19.3868682 L14.6899562,17.853798 C14.6899562,17.5544045 14.4463632,17.3108116 14.1469698,17.3108116 L12.1028569,17.3108116 C11.2751492,17.3108116 10.6017305,16.6373929 10.6017305,15.8096852 L10.6017305,14.276615 C10.6017305,13.4489073 11.2751492,12.7754886 12.1028569,12.7754886 L12.1667445,12.7754886 C12.431306,12.7754886 12.6458434,12.561009 12.6458434,12.2963897 L12.6458434,11.7215173 C12.6458434,11.4573024 12.8607274,11.2424184 13.1249422,11.2424184 C13.3891571,11.2424184 13.6040411,11.4573024 13.6040411,11.7215173 L13.6040411,12.2963897 C13.6040411,12.5609512 13.8185207,12.7754886 14.08314,12.7754886 L15.1690551,12.7754886 C15.43327,12.7754886 15.6481539,12.9903726 15.6481539,13.2545875 C15.6481539,13.5188023 15.43327,13.7336863 15.1690551,13.7336863 L12.1029147,13.7336863 C11.8035212,13.7336863 11.5599283,13.9772793 11.5599283,14.2766728 L11.5599283,15.8097429 C11.5599283,16.1091364 11.8035212,16.3527294 12.1029147,16.3527294 L14.1470275,16.3527294 C14.9747352,16.3527294 15.6481539,17.0261481 15.6481539,17.8538558 L15.6481539,19.386926 Z" id="Shape"></path>
                </g>
            </g>
        </g>
    </g>
</svg>