<?xml version="1.0" encoding="UTF-8"?>
<svg width="28px" height="30px" viewBox="0 0 28 30" version="1.1" xmlns="http://www.w3.org/2000/svg" xmlns:xlink="http://www.w3.org/1999/xlink">
    <!-- Generator: Sketch 49.1 (51147) - http://www.bohemiancoding.com/sketch -->
    <title>Group 29</title>
    <desc>Created with Sketch.</desc>
    <defs></defs>
    <g id="Desktop-Final" stroke="none" stroke-width="1" fill="none" fill-rule="evenodd">
        <g id="02-Wireframes-Health-Units" transform="translate(-611.000000, -711.000000)" fill="#8064BC" fill-rule="nonzero">
            <g id="Group-49" transform="translate(200.000000, 614.000000)">
                <g id="Group-29" transform="translate(411.000000, 97.000000)">
                    <path d="M2.06613971,20.6535997 L2.01015756,20.6535997 C1.77086134,20.6535997 1.57685924,20.846835 1.57685924,21.0851854 C1.57685924,21.3235358 1.77086134,21.5167711 2.01015756,21.5167711 L2.06613971,21.5167711 C2.30543592,21.5167711 2.49943803,21.3235358 2.49943803,21.0851854 C2.49943803,20.846835 2.30543592,20.6535997 2.06613971,20.6535997 Z" id="Shape"></path>
                    <path d="M4.86374475,20.6535997 L4.80782038,20.6535997 C4.56852416,20.6535997 4.37452206,20.846835 4.37452206,21.0851854 C4.37452206,21.3235358 4.56852416,21.5167711 4.80782038,21.5167711 L4.86374475,21.5167711 C5.10304097,21.5167711 5.29704307,21.3235358 5.29704307,21.0851854 C5.29704307,20.846835 5.10304097,20.6535997 4.86374475,20.6535997 Z" id="Shape"></path>
                    <path d="M3.43698004,20.6535997 L3.38105567,20.6535997 C3.14175945,20.6535997 2.94775735,20.846835 2.94775735,21.0851854 C2.94775735,21.3235358 3.14175945,21.5167711 3.38105567,21.5167711 L3.43698004,21.5167711 C3.67627626,21.5167711 3.87027836,21.3235358 3.87027836,21.0851854 C3.87027836,20.846835 3.67627626,20.6535997 3.43698004,20.6535997 Z" id="Shape"></path>
                    <path d="M4.10836134,9.46310102 L2.76554097,9.46310102 C2.52624475,9.46310102 2.33224265,9.65633632 2.33224265,9.8946867 C2.33224265,10.1330371 2.52624475,10.3262724 2.76554097,10.3262724 L4.10836134,10.3262724 C4.34765756,10.3262724 4.54165966,10.1330371 4.54165966,9.8946867 C4.54165966,9.65633632 4.34765756,9.46310102 4.10836134,9.46310102 Z" id="Shape"></path>
                    <path d="M12.3791597,3.37923913 L12.3232353,3.37923913 C12.0839391,3.37923913 11.889937,3.57247442 11.889937,3.81082481 C11.889937,4.04917519 12.0839391,4.24241049 12.3232353,4.24241049 L12.3791597,4.24241049 C12.6184559,4.24241049 12.812458,4.04917519 12.812458,3.81082481 C12.812458,3.57247442 12.6184559,3.37923913 12.3791597,3.37923913 Z" id="Shape"></path>
                    <path d="M15.1208403,4.24241049 L15.1768225,4.24241049 C15.4161187,4.24241049 15.6101208,4.04917519 15.6101208,3.81082481 C15.6101208,3.57247442 15.4161187,3.37923913 15.1768225,3.37923913 L15.1208403,3.37923913 C14.8815441,3.37923913 14.687542,3.57247442 14.687542,3.81082481 C14.687542,4.04917519 14.8814863,4.24241049 15.1208403,4.24241049 Z" id="Shape"></path>
                    <path d="M14.1832983,3.81082481 C14.1832983,3.57247442 13.9892962,3.37923913 13.75,3.37923913 L13.6940179,3.37923913 C13.4547216,3.37923913 13.2607195,3.57247442 13.2607195,3.81082481 C13.2607195,4.04917519 13.4547216,4.24241049 13.6940179,4.24241049 L13.75,4.24241049 C13.9892962,4.24241049 14.1832983,4.04917519 14.1832983,3.81082481 Z" id="Shape"></path>
                    <path d="M4.55598739,8.06683504 L2.31791492,8.06683504 C2.0786187,8.06683504 1.8846166,8.26007033 1.8846166,8.49842072 C1.8846166,8.7367711 2.0786187,8.93000639 2.31791492,8.93000639 L4.55598739,8.93000639 C4.79528361,8.93000639 4.98928571,8.7367711 4.98928571,8.49842072 C4.98928571,8.26007033 4.79528361,8.06683504 4.55598739,8.06683504 Z" id="Shape"></path>
                    <path d="M25.4898424,20.6535997 L25.4338603,20.6535997 C25.1945641,20.6535997 25.000562,20.846835 25.000562,21.0851854 C25.000562,21.3235358 25.1945641,21.5167711 25.4338603,21.5167711 L25.4898424,21.5167711 C25.7291387,21.5167711 25.9231408,21.3235358 25.9231408,21.0851854 C25.9231408,20.846835 25.7291387,20.6535997 25.4898424,20.6535997 Z" id="Shape"></path>
                    <path d="M10.6951891,19.8413555 C10.8408929,19.6522634 10.8050735,19.3812852 10.6152311,19.2362148 C9.3270063,18.2514514 8.58808824,16.7587404 8.58808824,15.1408696 C8.58808824,12.2987916 10.9036922,9.98658568 13.75,9.98658568 C14.4569118,9.98658568 15.1417542,10.1265345 15.7854044,10.4026343 C16.0050578,10.4967775 16.2600683,10.3959015 16.3547584,10.1769437 C16.4494485,9.95804348 16.3479412,9.70415601 16.1281723,9.60984015 C15.5080357,9.34392583 14.855604,9.1862532 14.1832983,9.13889386 L14.1832983,7.18381074 C15.8585452,6.97054987 17.1580935,5.53981458 17.1580935,3.81082481 C17.1580935,1.93526854 15.6292437,0.409411765 13.75,0.409411765 C11.8707563,0.409411765 10.3419065,1.93526854 10.3419643,3.81088235 C10.3419643,5.53987212 11.6415126,6.97060742 13.3167595,7.18386829 L13.3167595,9.13912404 C11.4239968,9.27395141 9.77018382,10.2846675 8.76100315,11.7666176 L6.58058824,10.5098402 C6.75078782,10.1055882 6.84507353,9.66191816 6.84507353,9.19661125 C6.84507353,7.32105499 5.31622374,5.79519821 3.43698004,5.79519821 C1.55773634,5.79519821 0.0288865546,7.32105499 0.0288865546,9.19661125 C0.0288865546,11.0721675 1.55773634,12.5980243 3.43698004,12.5980243 C4.54073529,12.5980243 5.52305147,12.0712596 6.14630777,11.2568286 L8.3271271,12.5138363 C7.93935399,13.3080691 7.7214916,14.1994949 7.7214916,15.1408696 C7.7214916,16.0706202 7.93097689,16.9648082 8.32273634,17.7704348 L6.14630777,19.024968 C5.52305147,18.2105371 4.54073529,17.6837724 3.43698004,17.6837724 C1.55773634,17.6837724 0.0288865546,19.2096292 0.0288865546,21.0851854 C0.0288865546,22.9607417 1.55767857,24.4865985 3.43692227,24.4865985 C5.31616597,24.4865985 6.84501576,22.9607417 6.84501576,21.0851854 C6.84501576,20.6198785 6.75073004,20.1762084 6.58053046,19.771899 L8.75609244,18.5179412 C9.11549895,19.0452238 9.5622584,19.5193926 10.0876471,19.9209974 C10.166334,19.9811893 10.2590599,20.0102494 10.3511502,20.0102494 C10.4811975,20.0101918 10.6098582,19.9520716 10.6951891,19.8413555 Z M11.2085032,3.81082481 C11.2085032,2.41122123 12.3486555,1.27258312 13.75,1.27258312 C15.1513445,1.27258312 16.2914968,2.41127877 16.2914968,3.81082481 C16.2914968,5.21037084 15.1513445,6.3490665 13.75,6.3490665 C12.3486555,6.3490665 11.2085032,5.21042839 11.2085032,3.81082481 Z M3.43698004,11.7347954 C2.03557773,11.7347954 0.895483193,10.5961573 0.895483193,9.19655371 C0.895483193,7.79695013 2.03551996,6.65831202 3.43692227,6.65831202 C4.83832458,6.65831202 5.97841912,7.79695013 5.97841912,9.19655371 C5.97841912,10.5961573 4.83838235,11.7347954 3.43698004,11.7347954 Z M3.43698004,23.6234271 C2.03557773,23.6234271 0.895483193,22.484789 0.895483193,21.0851854 C0.895483193,19.6855818 2.03551996,18.5469437 3.43692227,18.5469437 C4.83832458,18.5469437 5.97841912,19.6855818 5.97841912,21.0851854 C5.97841912,22.484789 4.83838235,23.6234271 3.43698004,23.6234271 Z" id="Shape"></path>
                    <path d="M12.1976366,25.7727813 C12.1976366,26.0111317 12.3916387,26.204367 12.6309349,26.204367 L14.8690074,26.204367 C15.1083036,26.204367 15.3023057,26.0111317 15.3023057,25.7727813 C15.3023057,25.5344309 15.1083036,25.3411957 14.8690074,25.3411957 L12.6309349,25.3411957 C12.3916387,25.3411957 12.1976366,25.5344309 12.1976366,25.7727813 Z" id="Shape"></path>
                    <path d="M24.06302,20.6535997 L24.0070378,20.6535997 C23.7677416,20.6535997 23.5737395,20.846835 23.5737395,21.0851854 C23.5737395,21.3235358 23.7677416,21.5167711 24.0070378,21.5167711 L24.06302,21.5167711 C24.3023162,21.5167711 24.4963183,21.3235358 24.4963183,21.0851854 C24.4963183,20.846835 24.3023162,20.6535997 24.06302,20.6535997 Z" id="Shape"></path>
                    <path d="M24.06302,17.6838299 C22.9592647,17.6838299 21.9769485,18.2105946 21.3536922,19.0250256 L19.1728729,17.7680179 C19.560646,16.9737276 19.7785084,16.0823018 19.7785084,15.1409271 C19.7785084,14.2172187 19.5674055,13.3216496 19.1741439,12.5131458 L21.3536922,11.2568862 C21.9769485,12.0712596 22.9593225,12.5980243 24.06302,12.5980243 C25.9422637,12.5980243 27.4711134,11.0721675 27.4711134,9.19661125 C27.4711134,7.32105499 25.9422637,5.79519821 24.06302,5.79519821 C22.1837763,5.79519821 20.6549265,7.32105499 20.6549265,9.19661125 C20.6549265,9.66191816 20.7492122,10.1055882 20.9194118,10.5098977 L18.7413078,11.7652941 C18.4288708,11.3056266 18.0508036,10.8861253 17.6130567,10.5210614 C17.4295693,10.3681074 17.1563603,10.3922187 17.0026838,10.5749233 C16.8490651,10.7576854 16.8732721,11.0298721 17.0567595,11.1828836 C18.2357353,12.1660934 18.9119118,13.6087404 18.9119118,15.1408696 C18.9119118,17.9827749 16.5965389,20.2949233 13.7504622,20.2951535 C13.7502889,20.2951535 13.7501733,20.2951535 13.75,20.2951535 C13.7498267,20.2951535 13.7497111,20.2951535 13.7495956,20.2951535 C13.0892489,20.2950959 12.4464076,20.1724105 11.8388655,19.9304923 C11.6165546,19.8419309 11.3645483,19.9496547 11.2756933,20.1710294 C11.1868382,20.3923465 11.2949895,20.6434719 11.5171849,20.7319757 C12.0938183,20.9616368 12.6974317,21.0993414 13.3167017,21.1430754 L13.3167017,23.0979284 C11.6414548,23.3111893 10.3419065,24.7419246 10.3419065,26.4709143 C10.3419065,28.3464706 11.8707563,29.8723274 13.75,29.8723274 C15.6292437,29.8723274 17.1580935,28.3464706 17.1580357,26.4709143 C17.1580357,24.7419246 15.8584874,23.3111893 14.1832405,23.0979284 L14.1832405,21.1426726 C16.0759454,21.0077877 17.7298162,19.9970716 18.7389968,18.5151215 L20.9194118,19.771899 C20.7492122,20.1762084 20.6549265,20.6198785 20.6549265,21.0851854 C20.6549265,22.9607417 22.1837763,24.4865985 24.06302,24.4865985 C25.9422637,24.4865985 27.4711134,22.9607417 27.4711134,21.0851854 C27.4711134,19.2096292 25.9422637,17.6837724 24.06302,17.6838299 Z M24.0630777,6.65831202 C25.46448,6.65831202 26.6045746,7.79695013 26.6045746,9.19655371 C26.6045746,10.5961573 25.46448,11.7347954 24.0630777,11.7347954 C22.6616754,11.7347954 21.5215809,10.5961573 21.5215809,9.19655371 C21.5215809,7.79695013 22.6616754,6.65831202 24.0630777,6.65831202 Z M16.2914968,26.4709143 C16.2914968,27.8705179 15.1513445,29.009156 13.75,29.009156 C12.3486555,29.009156 11.2085032,27.8704604 11.2085032,26.4709143 C11.2085032,25.0713683 12.3486555,23.9326726 13.75,23.9326726 C15.1513445,23.9326726 16.2914968,25.0713107 16.2914968,26.4709143 Z M24.06302,23.6234271 C22.6616176,23.6234271 21.5215231,22.484789 21.5215231,21.0851854 C21.5215231,19.6855818 22.6616176,18.5469437 24.06302,18.5469437 C25.4644223,18.5469437 26.6045168,19.6855818 26.6045168,21.0851854 C26.6045168,22.484789 25.4644223,23.6234271 24.06302,23.6234271 Z" id="Shape"></path>
                    <path d="M14.4214391,26.7374616 L13.0786187,26.7374616 C12.8393225,26.7374616 12.6453204,26.9306969 12.6453204,27.1690473 C12.6453204,27.4073977 12.8393225,27.600633 13.0786187,27.600633 L14.4214391,27.600633 C14.6607353,27.600633 14.8547374,27.4073977 14.8547374,27.1690473 C14.8547374,26.9306969 14.6607353,26.7374616 14.4214391,26.7374616 Z" id="Shape"></path>
                    <path d="M22.6921796,20.6535997 L22.6362553,20.6535997 C22.396959,20.6535997 22.2029569,20.846835 22.2029569,21.0851854 C22.2029569,21.3235358 22.396959,21.5167711 22.6362553,21.5167711 L22.6921796,21.5167711 C22.9314758,21.5167711 23.1254779,21.3235358 23.1254779,21.0851854 C23.1254779,20.846835 22.9314758,20.6535997 22.6921796,20.6535997 Z" id="Shape"></path>
                    <path d="M16.9809034,15.1408696 C16.9809034,14.9025192 16.7869013,14.7092839 16.547605,14.7092839 L10.952395,14.7092839 C10.7130987,14.7092839 10.5190966,14.9025192 10.5190966,15.1408696 C10.5190966,15.3792199 10.7130987,15.5724552 10.952395,15.5724552 L16.547605,15.5724552 C16.7869013,15.5724552 16.9809034,15.3792199 16.9809034,15.1408696 Z" id="Shape"></path>
                    <path d="M12.0714601,16.3850448 C11.8321639,16.3850448 11.6381618,16.5782801 11.6381618,16.8166304 C11.6381618,17.0549808 11.8321639,17.2482161 12.0714601,17.2482161 L15.4285399,17.2482161 C15.6678361,17.2482161 15.8618382,17.0549808 15.8618382,16.8166304 C15.8618382,16.5782801 15.6678361,16.3850448 15.4285399,16.3850448 L12.0714601,16.3850448 Z" id="Shape"></path>
                    <path d="M22.9440126,8.93000639 L25.1820851,8.93000639 C25.4213813,8.93000639 25.6153834,8.7367711 25.6153834,8.49842072 C25.6153834,8.26007033 25.4213813,8.06683504 25.1820851,8.06683504 L22.9440126,8.06683504 C22.7047164,8.06683504 22.5107143,8.26007033 22.5107143,8.49842072 C22.5107143,8.7367711 22.7047164,8.93000639 22.9440126,8.93000639 Z" id="Shape"></path>
                    <path d="M16.547605,13.033523 L10.952395,13.033523 C10.7130987,13.033523 10.5190966,13.2267583 10.5190966,13.4651087 C10.5190966,13.7034591 10.7130987,13.8966944 10.952395,13.8966944 L16.547605,13.8966944 C16.7869013,13.8966944 16.9809034,13.7034591 16.9809034,13.4651087 C16.9809034,13.2267583 16.7869013,13.033523 16.547605,13.033523 Z" id="Shape"></path>
                    <path d="M24.734459,9.46310102 L23.3915809,9.46310102 C23.1522847,9.46310102 22.9582826,9.65633632 22.9582826,9.8946867 C22.9582826,10.1330371 23.1522847,10.3262724 23.3915809,10.3262724 L24.734459,10.3262724 C24.9737553,10.3262724 25.1677574,10.1330371 25.1677574,9.8946867 C25.1677574,9.65633632 24.9737553,9.46310102 24.734459,9.46310102 Z" id="Shape"></path>
                </g>
            </g>
        </g>
    </g>
</svg>