<?xml version="1.0" encoding="UTF-8"?>
<svg width="60px" height="43px" viewBox="0 0 60 43" version="1.1" xmlns="http://www.w3.org/2000/svg" xmlns:xlink="http://www.w3.org/1999/xlink">
    <!-- Generator: Sketch 49.1 (51147) - http://www.bohemiancoding.com/sketch -->
    <title>Group 6</title>
    <desc>Created with Sketch.</desc>
    <defs></defs>
    <g id="Desktop-Final" stroke="none" stroke-width="1" fill="none" fill-rule="evenodd">
        <g id="05-Wireframes-Patients-&amp;-Family" transform="translate(-918.000000, -1180.000000)" fill="#7F7EBC" fill-rule="nonzero">
            <g id="Group-6" transform="translate(918.000000, 1180.000000)">
                <g id="Group-14">
                    <rect id="Rectangle-path" x="21.0585938" y="30" width="1.875" height="1.75271739"></rect>
                    <rect id="Rectangle-path" x="26.6835938" y="30" width="1.875" height="1.75271739"></rect>
                    <rect id="Rectangle-path" x="32.3085938" y="30" width="1.875" height="1.75271739"></rect>
                    <path d="M33.4730022,38.3133515 L33.4730022,35.5013624 L37.3218143,35.5013624 L37.3218143,33.7438692 L1.74946004,33.7438692 L1.74946004,1.75749319 L52.25054,1.75749319 L52.25054,23.3160763 L54,23.3160763 L54,0 L0,0 L0,35.5013624 L20.5269978,35.5013624 L20.5269978,38.3133515 C20.5269978,39.896267 19.2451102,41.2425068 17.6695464,41.2425068 L15.7451404,41.2425068 L15.7451404,43 L38.1382289,43 L38.1382289,41.2425068 L36.3304536,41.2425068 C34.7548898,41.2425068 33.4730022,39.896267 33.4730022,38.3133515 Z M21.279149,41.2425068 C21.9026566,40.4223433 22.2764579,39.397139 22.2764579,38.3133515 L22.2764579,35.5013624 L31.7235421,35.5013624 L31.7235421,38.3133515 C31.7235421,39.397139 32.0973434,40.4223433 32.720851,41.2425068 L21.279149,41.2425068 Z" id="Shape"></path>
                    <rect id="Rectangle-path" x="5" y="28" width="6" height="2"></rect>
                    <rect id="Rectangle-path" x="5" y="24" width="9" height="2"></rect>
                    <path d="M56.1820568,30.4051604 L56.1818182,27.7879053 L57.1363636,27.7879053 L57.1363636,26 L49.5,26 L49.5,27.7879053 L50.5738636,27.7879053 L50.5738636,30.3752428 C49.1499205,31.0403436 48.0302386,32.1980719 47.3809091,33.6283961 L45.5625,33.6283961 L45.5625,27.7879053 L46.6363636,27.7879053 L46.6363636,26 L45.6221591,26 L40.0142045,26 L39,26 L39,27.7879053 L39.9545455,27.7879053 L39.9545455,40.1840491 C39.9545455,41.7285609 41.2123977,42.9851008 42.7585227,42.9851008 C44.3046477,42.9851008 45.5625,41.7285609 45.5625,40.1840491 L45.5625,35.4163015 L46.8346705,35.4163015 C46.783125,35.6546889 46.7556818,36.0567292 46.7556818,36.3996494 C46.7556818,40.0473339 49.7263466,43 53.3778409,43 C57.0293352,43 60,40.0398247 60,36.3922594 C60,33.8096897 58.4896705,31.4831481 56.1820568,30.4051604 Z M43.7727273,40.1840491 C43.7727273,40.7425907 43.317767,41.1971954 42.7585227,41.1971954 C42.1992784,41.1971954 41.7443182,40.7425907 41.7443182,40.1840491 L41.7443182,37.3234005 L43.7727273,37.3234005 L43.7727273,40.1840491 Z M43.7727273,35.5354952 L41.7443182,35.5354952 L41.7443182,27.7879053 L43.7727273,27.7879053 L43.7727273,35.5354952 Z M51.7669261,31.8468081 L52.3636364,31.6062752 L52.3636364,27.7879053 L54.3921648,27.7879053 L54.3925227,31.6361928 L54.9891136,31.8618265 C56.6292614,32.4409886 57.8106307,33.8667835 58.1259886,35.5354952 L48.6299318,35.5354952 C48.9450511,33.8667835 50.1265398,32.425851 51.7669261,31.8468081 Z M53.3778409,41.2567923 C51.0191591,41.2567923 49.0508864,39.4688869 48.6298125,37.3234005 L58.12575,37.3234005 C57.7047955,39.4688869 55.7365227,41.2567923 53.3778409,41.2567923 Z" id="Shape"></path>
                    <path d="M44.0172786,23.9392116 L45,22.4490534 L41.5190166,20.103129 C41.5811454,19.8702918 41.6148083,19.625753 41.6148083,19.3733336 C41.6148083,18.139177 40.822253,17.0893796 39.7249595,16.7146908 L39.7249595,14.1211231 L45,10.5661168 L44.0172786,9.07595866 L38.8390929,12.5657705 L35.8494702,10.5509525 C35.9115989,10.3181153 35.9452619,10.0735766 35.9452619,9.82115714 C35.9452619,8.27392402 34.7000877,7.01517024 33.1695464,7.01517024 C31.6390051,7.01517024 30.393831,8.27368522 30.393831,9.82091833 C30.393831,10.0733378 30.4274939,10.3178765 30.4896227,10.5507137 L27.5,12.5655317 L22.7163202,9.34163189 L22.7163202,6 L20.9445869,6 L20.9445869,9.34163189 L17.8566921,11.4227189 C17.3873009,11.0553138 16.7990854,10.8358498 16.1609071,10.8358498 C15.5227288,10.8358498 14.9345134,11.0553138 14.4651222,11.4227189 L10.9827214,9.07583926 L10,10.5659974 L13.4809834,12.9119219 C13.4188546,13.1447591 13.3851917,13.3892978 13.3851917,13.6417173 C13.3851917,14.8758739 14.177747,15.9256712 15.2750405,16.30036 L15.2750405,19.8523812 L19.1505298,22.4642177 C19.0884011,22.6970549 19.0547381,22.9415937 19.0547381,23.1940131 C19.0547381,24.7412462 20.2999123,26 21.8304536,26 C23.3609949,26 24.606169,24.7412462 24.606169,23.1940131 C24.606169,22.9415937 24.5725061,22.6970549 24.5103773,22.4642177 L27.5,20.4493997 L33.1695464,24.270318 L37.1433079,21.5922125 C37.6126991,21.9596177 38.2009146,22.1790817 38.8390929,22.1790817 C39.4772712,22.1790817 40.0654866,21.9596177 40.5348778,21.5922125 L44.0172786,23.9392116 Z M16.1609071,14.6567681 C15.6072995,14.6567681 15.1569249,14.2013624 15.1569249,13.6418367 C15.1569249,13.0823109 15.6072995,12.6269052 16.1609071,12.6269052 C16.7145147,12.6269052 17.1648893,13.0823109 17.1648893,13.6418367 C17.1648893,14.2013624 16.7145147,14.6567681 16.1609071,14.6567681 Z M21.8304536,24.2090639 C21.276846,24.2090639 20.8264714,23.7536582 20.8264714,23.1941325 C20.8264714,22.6346068 21.276846,22.1792011 21.8304536,22.1792011 C22.3840612,22.1792011 22.8344357,22.6346068 22.8344357,23.1941325 C22.8344357,23.7536582 22.3840612,24.2090639 21.8304536,24.2090639 Z M26.6141334,18.8939277 L23.5262385,20.9750148 C23.0568473,20.6076096 22.4686319,20.3881456 21.8304536,20.3881456 C21.1921571,20.3881456 20.6040598,20.6076096 20.1346686,20.9750148 L17.0467738,18.8939277 L17.0467738,16.30036 C18.1440672,15.9256712 18.9366226,14.8758739 18.9366226,13.6417173 C18.9366226,13.3892978 18.9029596,13.1447591 18.8408309,12.9119219 L21.8304536,10.8971039 L26.6141334,14.1210037 L26.6141334,18.8939277 Z M33.1695464,8.8059869 C33.723154,8.8059869 34.1735286,9.26139261 34.1735286,9.82091833 C34.1735286,10.3804441 33.723154,10.8358498 33.1695464,10.8358498 C32.6159388,10.8358498 32.1655643,10.3804441 32.1655643,9.82091833 C32.1655643,9.26139261 32.6159388,8.8059869 33.1695464,8.8059869 Z M36.0633774,19.3732142 C36.0633774,19.6256336 36.0970404,19.8701724 36.1591691,20.1030096 L33.1695464,22.1178276 L28.3858666,18.8939277 L28.3858666,14.1210037 L31.4737615,12.0399167 C31.9431527,12.4073218 32.5313681,12.6267858 33.1695464,12.6267858 C33.8077248,12.6267858 34.3959402,12.4073218 34.8653314,12.0399167 L37.9532262,14.1211231 L37.9532262,16.7146908 C36.8559328,17.0892602 36.0633774,18.1390575 36.0633774,19.3732142 Z M38.8390929,20.3881456 C38.2854853,20.3881456 37.8351107,19.9327399 37.8351107,19.3732142 C37.8351107,18.8136884 38.2854853,18.3582827 38.8390929,18.3582827 C39.3927005,18.3582827 39.8430751,18.8136884 39.8430751,19.3732142 C39.8430751,19.9327399 39.3927005,20.3881456 38.8390929,20.3881456 Z" id="Shape"></path>
                </g>
            </g>
        </g>
    </g>
</svg>