<?xml version="1.0" encoding="UTF-8"?>
<svg width="37px" height="40px" viewBox="0 0 37 40" version="1.1" xmlns="http://www.w3.org/2000/svg" xmlns:xlink="http://www.w3.org/1999/xlink">
    <!-- Generator: Sketch 49.1 (51147) - http://www.bohemiancoding.com/sketch -->
    <title>Group 34</title>
    <desc>Created with Sketch.</desc>
    <defs></defs>
    <g id="Desktop-Final" stroke="none" stroke-width="1" fill="none" fill-rule="evenodd">
        <g id="04-Wireframes-Physicians" transform="translate(-204.000000, -2550.000000)" fill="#8181D3" fill-rule="nonzero">
            <g id="Group-34" transform="translate(204.000000, 2550.000000)">
                <rect id="Rectangle-path" x="32.5390625" y="6.875" width="1.171875" height="5"></rect>
                <path d="M25.6445312,13.1550781 L30.6347656,15.6550781 L36.2109375,12.8621094 L36.2109375,5.88789062 L31.2109375,3.38789062 L31.2109375,0 L30.0390625,0 L30.0390625,3.38789063 L25.7602344,5.53703125 L23.5686719,3.33570312 L22.7253125,4.16429687 L25.0390625,6.49273437 L25.0390625,12.1378906 L23.7109375,12.8019531 L23.7109375,9.375 L24.4140625,9.375 L24.4140625,8.203125 L0.0390625,8.203125 L0.0390625,14.375 L2.5390625,14.375 L2.5390625,40 L23.7109375,40 L23.7109375,35 L22.5390625,35 L22.5390625,38.828125 L3.7109375,38.828125 L3.7109375,33.4375 L19.4140625,33.4375 L19.4140625,32.265625 L3.7109375,32.265625 L3.7109375,20.9375 L20.0390625,20.9375 L20.0390625,21.6121094 L22.5390625,22.8621094 L22.5390625,32.2572656 L20.2301563,34.5857031 L21.0685937,35.4142969 L25.7553125,30.7129687 L30.0389844,32.8621875 L30.0389844,36.25 L31.2108594,36.25 L31.2108594,32.8621094 L36.2108594,30.3621094 L36.2108594,23.3878125 L31.2108594,20.8878125 L31.2108594,17.5 L30.0389844,17.5 L30.0389844,20.8878906 L25.6249219,23.0949219 L21.2108594,20.8878906 L21.2108594,15.3621875 L25.6445312,13.1550781 Z M26.2109375,6.61210937 L30.625,4.40507812 L35.0390625,6.61210937 L35.0390625,12.1378125 L30.625,14.3448437 L26.2109375,12.1378125 L26.2109375,6.61210937 Z M21.2109375,9.375 L22.5390625,9.375 L22.5390625,13.203125 L21.2109375,13.203125 L21.2109375,9.375 Z M2.5390625,13.203125 L1.2109375,13.203125 L1.2109375,9.375 L2.5390625,9.375 L2.5390625,13.203125 Z M23.7109375,23.4480469 L25.6347656,24.4050781 L30.6445312,21.9050781 L35.0390625,24.1121094 L35.0390625,29.6378125 L30.625,31.8448437 L26.2109375,29.6378125 L26.2109375,26.25 L25.0390625,26.25 L25.0390625,29.7572656 L23.7109375,31.0853906 L23.7109375,23.4480469 Z M18.7109375,9.375 L20.0390625,9.375 L20.0390625,13.203125 L18.7109375,13.203125 L18.7109375,9.375 Z M16.2109375,9.375 L17.5390625,9.375 L17.5390625,13.203125 L16.2109375,13.203125 L16.2109375,9.375 Z M13.7109375,9.375 L15.0390625,9.375 L15.0390625,13.203125 L13.7109375,13.203125 L13.7109375,9.375 Z M11.2109375,9.375 L12.5390625,9.375 L12.5390625,13.203125 L11.2109375,13.203125 L11.2109375,9.375 Z M8.7109375,9.375 L10.0390625,9.375 L10.0390625,13.203125 L8.7109375,13.203125 L8.7109375,9.375 Z M6.2109375,9.375 L7.5390625,9.375 L7.5390625,13.203125 L6.2109375,13.203125 L6.2109375,9.375 Z M3.7109375,9.375 L5.0390625,9.375 L5.0390625,13.203125 L3.7109375,13.203125 L3.7109375,9.375 Z M20.0390625,14.6378906 L20.0390625,19.765625 L3.7109375,19.765625 L3.7109375,14.375 L20.6819531,14.375 L20.0390625,14.6378906 Z" id="Shape"></path>
                <rect id="Rectangle-path" x="28.1640625" y="10.703125" width="1.25" height="1.171875"></rect>
                <rect id="Rectangle-path" x="31.9140625" y="24.453125" width="1.25" height="1.171875"></rect>
                <rect id="Rectangle-path" x="5.6640625" y="24.140625" width="13.75" height="1.171875"></rect>
                <rect id="Rectangle-path" x="5.6640625" y="27.890625" width="10" height="1.171875"></rect>
                <rect id="Rectangle-path" x="27.5390625" y="24.375" width="1.171875" height="5"></rect>
            </g>
        </g>
    </g>
</svg>