<?xml version="1.0" encoding="UTF-8"?>
<svg width="53px" height="32px" viewBox="0 0 53 32" version="1.1" xmlns="http://www.w3.org/2000/svg" xmlns:xlink="http://www.w3.org/1999/xlink">
    <!-- Generator: Sketch 49.1 (51147) - http://www.bohemiancoding.com/sketch -->
    <title>Group 30</title>
    <desc>Created with Sketch.</desc>
    <defs></defs>
    <g id="Desktop-Final" stroke="none" stroke-width="1" fill="none" fill-rule="evenodd">
        <g id="02-Wireframes-Health-Units" transform="translate(-97.000000, -2665.000000)" fill="#8064BC" fill-rule="nonzero">
            <g id="Group-30" transform="translate(97.000000, 2665.000000)">
                <path d="M49.114541,4.62103125 L47.2181348,1.27452188 C47.1662734,1.18397813 46.6819238,0.38259375 45.6571191,0.106528125 C44.6831406,-0.15613125 43.7871094,0.170465625 42.9089863,0.674540625 C41.0060586,1.76849063 39.2416348,2.9852625 38.0997539,2.67403125 C37.6861055,2.56152188 37.258793,2.8045875 37.1458574,3.21688125 C37.0328184,3.62907188 37.2768047,4.05456563 37.6907637,4.167075 C39.5024941,4.65949688 41.3715723,3.36125625 43.9034609,1.90420313 C45.1815684,1.16892188 45.7309258,1.822425 45.8723281,2.04785625 L47.7616953,5.3818875 C47.9045469,5.63371875 48.1676836,5.77530938 48.4388945,5.77530938 C49.0305898,5.77551563 49.4069727,5.13706875 49.114541,4.62103125 Z" id="Shape"></path>
                <path d="M52.440291,10.3897406 L50.9110547,7.75108125 C50.6965703,7.3808625 50.2213301,7.254225 49.849916,7.46779687 C49.4783984,7.68147187 49.3510742,8.15481562 49.5655586,8.52493125 L51.0945879,11.1634875 C51.708125,12.2224781 51.4279082,13.0027219 50.767582,13.3751062 C50.7528828,13.3835625 50.4273262,13.5708375 50.4136621,13.5792937 C50.3196699,13.6359094 50.7962559,13.3613906 47.5066328,15.2500219 C46.4013965,15.8846531 45.6850684,16.9898437 45.4931504,17.6026125 C44.3415391,21.2607656 44.9802305,20.4620625 38.4190996,24.229425 C38.4919746,23.3942156 38.2183828,22.5105375 37.5859023,21.8512594 C39.6956543,20.7463781 39.7817793,17.7301781 37.6828965,16.5258844 L28.0508711,10.9855969 L29.6410781,10.0708781 C29.9297832,9.90484687 30.0797773,9.57391875 30.014252,9.24825 C29.948623,8.9227875 29.6818633,8.67518437 29.3513379,8.63300625 C29.3245273,8.62960312 22.2647617,7.72839375 22.2378477,7.72560937 C19.9998398,7.50935625 20.1771621,4.86739687 21.981543,4.65444375 C34.0513613,3.3066 33.220752,3.35826562 34.171957,3.404775 C34.5997871,3.42550312 34.9648867,3.09674062 34.9860039,2.66980312 C35.0071211,2.24296875 34.6768027,1.87996875 34.2483516,1.85882812 C33.1009844,1.8030375 33.4536621,1.81592812 26.4978262,2.59266562 C19.4555547,1.8063375 19.9636094,1.84500937 19.3087695,1.84500937 C16.8779121,1.84500937 15.2812871,2.72394375 14.5002617,2.72445937 C13.5684141,2.72445937 12.2881328,1.956075 11.4652871,1.48314375 C9.77394531,0.49396875 9.86804102,0.564196875 9.86804102,0.564196875 C7.98726562,-0.51748125 6.40389062,0.18046875 5.77472266,1.277925 C3.12078906,5.96124375 3.45669727,5.39385 0.554119141,10.3899469 C-0.58465625,12.3559219 0.189226562,14.0059219 1.45304883,14.7177937 L1.45315234,14.7176906 C1.45315234,14.7176906 1.4263418,14.7046969 4.71192773,16.5910594 C7.15613867,17.9944875 5.3808457,20.7370969 9.23638867,22.9501594 C25.4548027,32.2625531 24.5905508,31.9536937 25.7068633,31.9536937 C27.3889922,31.9536937 28.756123,30.5944031 28.769166,28.9350187 C30.0785352,29.6881406 30.5865898,30.0861 31.5878965,30.0861 C32.7817422,30.0861 33.8523008,29.3896969 34.3430684,28.3655625 C35.0202676,27.9760594 34.059125,28.5193219 43.758332,22.9501594 C45.4059902,22.0044 46.0673516,20.795775 46.3149609,20.1594937 C46.3292461,20.122575 46.9578965,18.122775 46.9698008,18.0849281 C47.0070664,17.9900531 47.371752,17.1140062 48.2825859,16.5910594 C51.3816367,14.8116375 51.5416719,14.7174844 51.5416719,14.7174844 L51.5417754,14.7175875 C52.5931836,14.1252375 53.6953145,12.5558812 52.440291,10.3897406 Z M21.7646777,14.3986219 C22.3994355,14.7635812 35.420666,22.2515906 36.123123,22.6555312 C37.123291,23.2306594 37.1257754,24.6663656 36.1356484,25.2468562 C35.8091602,25.4385656 35.4120742,25.5083812 35.0224414,25.4162906 C34.7009219,25.3409062 35.8120586,25.9441875 19.9961133,16.8446437 C19.6245957,16.6310719 19.149459,16.7577094 18.9348711,17.127825 C18.7202832,17.4979406 18.8475039,17.9712844 19.219125,18.1850625 C33.3246816,26.3005875 32.6079395,25.7970281 32.8905371,26.280375 C33.6601758,27.582225 32.1830078,29.1113625 30.8367871,28.3369969 L29.749666,27.71175 L29.7495625,27.7116469 C29.2759785,27.4392937 27.8799668,26.6363625 27.2391016,26.2677937 C27.2391016,26.2677937 17.6362676,20.7451406 17.5987949,20.7235875 C17.2272773,20.5097062 16.7521406,20.63655 16.5376562,21.0068719 C16.3231719,21.3770906 16.4504961,21.8504344 16.8221172,22.0640062 L26.4625273,27.6082125 C27.7856641,28.3691719 27.2481074,30.4059937 25.7072773,30.4059937 C25.1315234,30.4059937 26.1206152,30.8585062 10.0125488,21.6091219 C8.79820703,20.9122031 8.31841211,20.0743125 8.13777734,19.6225219 C8.13239453,19.6051969 7.5008457,17.5987969 7.49494531,17.5816781 C7.47403516,17.5215562 6.96742969,16.0994625 5.48798437,15.2500219 C0.246884766,12.2407312 4.41452734,14.634675 2.22724219,13.3752094 C1.4097793,12.8954719 1.39383789,12.0377812 1.90023633,11.1635906 C5.05663477,5.71735312 3.94021875,7.66455937 7.12270312,2.048475 C7.16338477,1.98433125 7.45229687,1.56389062 8.03208789,1.56389062 C8.53952148,1.56389062 8.97097461,1.8112875 10.1920449,2.53120312 C14.1555547,4.87069687 14.3418828,4.42849687 17.2495332,3.63773437 C18.6351934,3.31876875 19.3842324,3.3556875 20.5828398,3.48954375 C18.2493906,4.7878875 18.4644961,8.9062875 22.0761562,9.26485312 C22.6989062,9.34425937 22.5057461,9.31971562 22.9660801,9.37839375 C22.9579023,9.65920312 23.1041699,9.92691562 23.3541602,10.070775 C37.961043,18.472575 37.0325078,17.9043562 37.255791,18.1402031 C38.3412559,19.2880875 37.1095234,21.0740062 35.6836992,20.579625 C35.4698359,20.5085719 36.2702187,20.9530406 22.541666,13.0584094 C22.1700449,12.8446312 21.6950117,12.9716812 21.4805273,13.3417969 C21.2657324,13.7117062 21.3931602,14.18505 21.7646777,14.3986219 Z" id="Shape"></path>
            </g>
        </g>
    </g>
</svg>