<?xml version="1.0" encoding="UTF-8"?>
<svg width="27px" height="30px" viewBox="0 0 27 30" version="1.1" xmlns="http://www.w3.org/2000/svg" xmlns:xlink="http://www.w3.org/1999/xlink">
    <!-- Generator: Sketch 49.1 (51147) - http://www.bohemiancoding.com/sketch -->
    <title>Group 32</title>
    <desc>Created with Sketch.</desc>
    <defs></defs>
    <g id="Desktop-Final" stroke="none" stroke-width="1" fill="none" fill-rule="evenodd">
        <g id="02-Wireframes-Health-Units" transform="translate(-977.000000, -711.000000)" fill="#8064BC" fill-rule="nonzero">
            <g id="Group-49" transform="translate(200.000000, 614.000000)">
                <g id="Group-32" transform="translate(777.000000, 97.000000)">
                    <path d="M25.5744491,5.15365783 C21.3787969,4.02850481 17.1584872,2.27653745 13.3697439,0.0872048965 C13.1684932,-0.0290877295 12.9187612,-0.0290877295 12.71757,0.0872048965 C8.81953544,2.33943457 4.82727814,3.99661906 0.512507445,5.15365783 C0.233770101,5.22832993 0.0405598571,5.47630428 0.0405598571,5.75919557 L0.0405598571,12.1740017 C0.0405598571,18.779831 3.15425849,23.1524337 5.76640858,25.6573011 C8.57855867,28.3541825 11.854318,29.8455844 13.0436569,29.8455844 C14.2328767,29.8455844 17.5086361,28.3541825 20.3207862,25.6573011 C22.9328767,23.152492 26.0463967,18.7798892 26.0463967,12.1740017 L26.0463967,5.75913728 C26.0463967,5.47630428 25.8531864,5.22832993 25.5744491,5.15365783 Z M24.7634902,12.1739435 C24.7634902,18.3437482 21.859321,22.4238997 19.4228708,24.7603614 C16.6574747,27.4123579 13.7007743,28.5898572 13.0436569,28.5898572 C12.3865396,28.5898572 9.42966051,27.4123579 6.66420488,24.7603614 C4.22781418,22.4238414 1.32352591,18.3437482 1.32352591,12.1739435 L1.32352591,6.23573302 C5.44967242,5.08912853 9.29231686,3.48895366 13.0437761,1.35529 C16.7015485,3.43235208 20.7359142,5.1120956 24.7634902,6.23549985 L24.7634902,12.1739435 Z" id="Shape"></path>
                    <path d="M7.35783204,6.16549111 C7.22799285,5.84284465 6.85556879,5.68434859 6.52584872,5.81148353 C5.37992853,6.25339551 4.20375223,6.66015739 3.03001787,7.0205188 C2.76253722,7.10271058 2.58052412,7.34520548 2.58052412,7.61952783 L2.58052412,10.0439522 C2.58052412,10.3906733 2.86777844,10.6717575 3.22197737,10.6717575 C3.5761763,10.6717575 3.86343061,10.3906733 3.86343061,10.0439522 L3.86343061,8.07834451 C4.9163788,7.74491402 5.96819535,7.37610026 6.99612865,6.97965608 C7.32578916,6.85263771 7.48773079,6.48813757 7.35783204,6.16549111 Z" id="Shape"></path>
                    <path d="M8.57635497,6.28458175 C8.66241811,6.28458175 8.74979154,6.26761877 8.83359142,6.23182746 L8.84538416,6.22681434 C9.16992257,6.08761294 9.316081,5.71786651 9.17385348,5.40034975 C9.03150685,5.08271641 8.65157832,4.93902652 8.32739726,5.07811134 L8.31703395,5.08248324 C7.99231686,5.2212766 7.84568195,5.59073157 7.98749256,5.9084232 C8.09273377,6.14427281 8.32888624,6.28458175 8.57635497,6.28458175 Z" id="Shape"></path>
                    <path d="M20.6862418,20.2438356 C20.3898154,20.0542116 19.9923169,20.1357622 19.7983323,20.4259983 C19.2697439,21.2178374 18.6496129,21.9761003 17.9549136,22.6795103 C17.3836212,23.257884 16.7645622,23.7969688 16.1149494,24.2816672 C15.8332936,24.4918683 15.7790947,24.8858059 15.9938058,25.1615855 C16.120131,25.3235791 16.3111376,25.4088021 16.5043478,25.4088021 C16.6400238,25.4088021 16.7767123,25.3668901 16.8928529,25.2801516 C17.5935676,24.7572136 18.2612269,24.1758671 18.8771888,23.5522588 C19.6282906,22.7918974 20.2995235,21.9711454 20.8723645,21.1127951 C21.0662299,20.8225007 20.9827874,20.4334596 20.6862418,20.2438356 Z" id="Shape"></path>
                    <path d="M14.6252531,25.2662781 L14.5884455,25.2874964 C14.281894,25.4612649 14.1771292,25.8452929 14.3546158,26.1453221 C14.4735557,26.3464296 14.6888624,26.4587001 14.9103633,26.4587001 C15.0193568,26.4587001 15.1300179,26.4314777 15.2310899,26.37406 L15.2735557,26.3496357 C15.5792734,26.1744098 15.6819535,25.7898572 15.5029184,25.4906441 C15.3237641,25.1915477 14.9307921,25.091227 14.6252531,25.2662781 Z" id="Shape"></path>
                    <path d="M8.67117332,13.6414456 C8.27730792,13.2559021 7.75348422,13.043719 7.19636689,13.043719 C6.63924955,13.043719 6.11536629,13.2559604 5.72132222,13.6414456 C4.90815962,14.4374818 4.90815962,15.732731 5.72132222,16.5287088 L9.50905301,20.235733 C9.90297796,20.62116 10.4268017,20.8334013 10.9839786,20.8334013 C11.5411554,20.8334013 12.0649792,20.62116 12.4589637,20.2356164 L20.3661108,12.4966482 C21.1792138,11.7004372 21.1792138,10.4053629 20.3659917,9.60961819 C19.9720667,9.22407461 19.448243,9.01189158 18.8910066,9.01189158 C18.3338297,9.01189158 17.810006,9.22413291 17.4160214,9.60961819 L10.983919,15.9048674 L8.67117332,13.6414456 Z M18.3232281,10.4975226 C18.4748064,10.3491693 18.6765337,10.2675022 18.8910661,10.2675022 C19.1057177,10.2675022 19.3072662,10.3491693 19.4589637,10.4975226 C19.7719476,10.8038473 19.7719476,11.3024774 19.4588446,11.6089187 L11.5518166,19.3477703 C11.4002382,19.4961236 11.198511,19.5777907 10.9839786,19.5777907 C10.7694461,19.5777907 10.5677189,19.4961236 10.416081,19.3477703 L6.62846933,15.6408627 C6.31536629,15.3344215 6.31536629,14.8357913 6.62835021,14.5294666 C6.77998809,14.3811134 6.98171531,14.2993296 7.19630733,14.2993296 C7.41089934,14.2993296 7.61250744,14.3809968 7.76408577,14.52935 L10.5303157,17.2367823 C10.6506849,17.3544739 10.8137582,17.4206354 10.983919,17.4206354 C11.1540798,17.4206354 11.3171531,17.3545322 11.4374032,17.2367823 L18.3232281,10.4975226 Z" id="Shape"></path>
                </g>
            </g>
        </g>
    </g>
</svg>