<?xml version="1.0" encoding="UTF-8"?>
<svg width="52px" height="40px" viewBox="0 0 52 40" version="1.1" xmlns="http://www.w3.org/2000/svg" xmlns:xlink="http://www.w3.org/1999/xlink">
    <!-- Generator: Sketch 49.1 (51147) - http://www.bohemiancoding.com/sketch -->
    <title>Group 31 Copy</title>
    <desc>Created with Sketch.</desc>
    <defs></defs>
    <g id="Desktop-Final" stroke="none" stroke-width="1" fill="none" fill-rule="evenodd">
        <g id="01-Wireframes-Homepage-Navigation" transform="translate(-799.000000, -209.000000)" fill-rule="nonzero">
            <g id="Group-34" transform="translate(773.000000, 67.000000)">
                <g id="Group-31-Copy" transform="translate(26.000000, 142.000000)">
                    <path d="M19.3298611,39.7743056 C12.1022569,39.7743056 6.22222222,33.8942708 6.22222222,26.6666667 L8.82638889,26.6666667 C8.82638889,32.4583333 13.5381944,37.1701389 19.3298611,37.1701389 C25.1215278,37.1701389 29.8333333,32.4583333 29.8333333,26.6666667 L32.4375,26.6666667 C32.4375,33.8942708 26.5574653,39.7743056 19.3298611,39.7743056 Z" id="Shape" fill="#7F6AAE"></path>
                    <path d="M6.94444444,27.2222222 C3.11527778,27.2222222 0,24.1069444 0,20.2777778 C0,16.4486111 3.11527778,13.3333333 6.94444444,13.3333333 C10.7736111,13.3333333 13.8888889,16.4486111 13.8888889,20.2777778 C13.8888889,24.1069444 10.7736111,27.2222222 6.94444444,27.2222222 Z" id="Shape" fill="#E5D4F9"></path>
                    <path d="M7.11111111,13.3333333 L7.11111111,27.2222222 C10.9402778,27.2222222 14.0555556,24.1069444 14.0555556,20.2777778 C14.0555556,16.4486111 10.9402778,13.3333333 7.11111111,13.3333333 Z" id="Shape" fill="#9676CC"></path>
                    <circle id="Oval" fill="#FFFFFF" cx="7.06944444" cy="20.4027778" r="1.73611111"></circle>
                    <path d="M38.9546875,0.434027778 C38.6488715,0.164670139 38.2486111,0 37.8090278,0 C36.8501736,0 36.0729167,0.777256944 36.0729167,1.73611111 C36.0729167,2.69496528 36.8501736,3.47222222 37.8090278,3.47222222 C38.2486111,3.47222222 38.6488715,3.30755208 38.9546875,3.03819444 L42.0625,3.03819444 L42.0625,13.0208333 C42.0625,19.2432292 37.0002604,24.3055556 30.7777778,24.3055556 C24.5552951,24.3055556 19.4930556,19.2432292 19.4930556,13.0208333 L19.4930556,3.03819444 L22.6876736,3.03819444 C22.9934896,3.30755208 23.39375,3.47222222 23.8333333,3.47222222 C24.7921875,3.47222222 25.5694444,2.69496528 25.5694444,1.73611111 C25.5694444,0.777256944 24.7921875,0 23.8333333,0 C23.39375,0 22.9934896,0.164670139 22.6876736,0.434027778 L16.8888889,0.434027778 L16.8888889,13.0208333 C16.8888889,20.6791667 23.1193576,26.9097222 30.7777778,26.9097222 C38.4361979,26.9097222 44.6666667,20.6791667 44.6666667,13.0208333 L44.6666667,0.434027778 L38.9546875,0.434027778 Z" id="Shape" fill="#E5D4F9"></path>
                    <path d="M39.2880208,0.434027778 C38.9822049,0.164670139 38.5819444,0 38.1423611,0 C37.1835069,0 36.40625,0.777256944 36.40625,1.73611111 C36.40625,2.69496528 37.1835069,3.47222222 38.1423611,3.47222222 C38.5819444,3.47222222 38.9822049,3.30755208 39.2880208,3.03819444 L42.3958333,3.03819444 L42.3958333,13.0208333 C42.3958333,19.2432292 37.3335938,24.3055556 31.1111111,24.3055556 L31.1111111,26.9097222 C38.7695313,26.9097222 45,20.6791667 45,13.0208333 L45,0.434027778 L39.2880208,0.434027778 Z" id="Shape" fill="#7F6AAE"></path>
                    <path d="M51.4486923,16.265232 L48.7551166,10.8472412 C48.5840663,10.5030512 48.2343268,10.2857118 47.851688,10.2857118 C47.4690492,10.2857118 47.1193097,10.5030949 46.9482594,10.8472412 L43.9268626,16.9245401 L40.444485,7.91846186 L40.0390164,6.86987199 C39.892098,6.49001898 39.5337214,6.23513944 39.1285999,6.22269884 C38.7263865,6.21025824 38.3503015,6.44226453 38.1804665,6.81238332 L34.4108928,15.0264537 L30.3434459,15.0264537 C29.7855902,15.0264973 29.3333333,15.4813432 29.3333333,16.0423488 C29.3333333,16.603398 29.7855902,17.0582002 30.3434459,17.0582002 L35.0572034,17.0582002 C35.4512137,17.0582002 35.8092431,16.827809 35.9743039,16.4680356 L39.0180965,9.83540566 L40.4443982,13.5241966 L42.8698316,19.7967911 C43.0146233,20.1713187 43.3653176,20.4247577 43.7644495,20.4433532 C43.7801613,20.4440952 43.7958297,20.4444444 43.8114547,20.4444444 C44.192531,20.4444444 44.5430951,20.2281089 44.7146662,19.8828714 L47.851688,13.5730859 L49.6418351,17.1738323 C49.8912708,17.6756905 50.4979981,17.8791053 50.9969563,17.6281543 C51.4959579,17.3772907 51.6981714,16.7670902 51.4486923,16.265232 Z" id="Shape" fill="#2CD4D9"></path>
                </g>
            </g>
        </g>
    </g>
</svg>