<?xml version="1.0" encoding="UTF-8"?>
<svg width="30px" height="30px" viewBox="0 0 30 30" version="1.1" xmlns="http://www.w3.org/2000/svg" xmlns:xlink="http://www.w3.org/1999/xlink">
    <!-- Generator: Sketch 49.1 (51147) - http://www.bohemiancoding.com/sketch -->
    <title>Group 22</title>
    <desc>Created with Sketch.</desc>
    <defs></defs>
    <g id="Desktop-Final" stroke="none" stroke-width="1" fill="none" fill-rule="evenodd">
        <g id="02-Wireframes-Health-Units" transform="translate(-240.000000, -711.000000)" fill="#8064BC" fill-rule="nonzero">
            <g id="Group-49" transform="translate(200.000000, 614.000000)">
                <g id="Group-22" transform="translate(40.000000, 97.000000)">
                    <path d="M28.6631579,10.5035673 L26.1562573,10.0022807 C25.9902339,9.47321637 25.7773099,8.95935673 25.5207602,8.46847953 L26.9390058,6.34111111 C27.3580117,5.7125731 27.2745029,4.86883041 26.7402924,4.3345614 L25.6654386,3.2597076 C25.1312865,2.72549708 24.2874854,2.64181287 23.6588889,3.06099415 L21.5315205,4.47923977 C21.0405848,4.22269006 20.5266667,4.00976608 19.9977193,3.84374269 L19.4963158,1.33684211 C19.3481871,0.596081871 18.6924561,0.0584795322 17.937076,0.0584795322 L16.4169006,0.0584795322 C15.6615789,0.0584795322 15.005731,0.596081871 14.8576023,1.33684211 L14.3561988,3.84374269 C13.827193,4.00976608 13.3132749,4.22269006 12.8223977,4.47923977 L10.6950292,3.06099415 C10.0664912,2.6419883 9.2225731,2.7254386 8.68847953,3.25959064 L7.61356725,4.3345614 C7.07947368,4.86871345 6.99596491,5.71251462 7.41497076,6.34099415 L8.83321637,8.46836257 C8.57666667,8.95929825 8.36374269,9.47315789 8.1977193,10.0021637 L5.69081871,10.5035088 C4.95011696,10.6516959 4.41245614,11.3074269 4.41245614,12.0628655 L4.41245614,13.582924 C4.41245614,14.3383041 4.95005848,14.994152 5.69081871,15.1422807 L7.31391813,15.4668421 C7.57,15.5179532 7.81900585,15.3519883 7.87017544,15.0959649 C7.92134503,14.8399415 7.75532164,14.5908772 7.49929825,14.5397076 L5.87619883,14.2151462 C5.57596491,14.1552047 5.3580117,13.8892398 5.3580117,13.5830409 L5.3580117,12.0629825 C5.3580117,11.7567836 5.57596491,11.4908187 5.87619883,11.4308187 L8.66245614,10.8735673 C8.83695906,10.838655 8.97707602,10.7087135 9.02502924,10.5373099 C9.20660819,9.88818713 9.46625731,9.26175439 9.79654971,8.67532164 C9.88391813,8.52023392 9.87672515,8.32918129 9.7780117,8.18105263 L8.20169591,5.81654971 C8.03181287,5.56175439 8.06573099,5.21959064 8.2822807,5.00315789 L9.35719298,3.92818713 C9.57374269,3.71163743 9.91578947,3.67783626 10.1705848,3.8477193 L12.5350877,5.42397661 C12.6831579,5.52274854 12.8742105,5.52988304 13.0293567,5.4425731 C13.615848,5.11222222 14.2422807,4.85269006 14.891345,4.67111111 C15.0627485,4.62315789 15.1926316,4.48309942 15.2276023,4.30853801 L15.7848538,1.5222807 C15.8449123,1.2219883 16.1107602,1.00403509 16.4169591,1.00403509 L17.9371345,1.00403509 C18.2433333,1.00403509 18.5092398,1.2219883 18.5692398,1.5222807 L19.1264912,4.30853801 C19.1614035,4.48309942 19.291345,4.62315789 19.4627485,4.67111111 C20.1117544,4.85269006 20.7382456,5.11222222 21.3247368,5.4425731 C21.479883,5.52988304 21.6708772,5.52274854 21.8190058,5.42397661 L24.1835673,3.84766082 C24.4383626,3.67777778 24.7804678,3.71157895 24.9969591,3.92824561 L26.0718129,5.00309942 C26.2884211,5.2197076 26.3222222,5.56175439 26.1523977,5.81654971 L24.5760819,8.18105263 C24.4773099,8.32918129 24.470117,8.52023392 24.5575439,8.67532164 C24.8878363,9.26175439 25.1474269,9.88818713 25.3290643,10.5373099 C25.3770175,10.7087135 25.5171345,10.8385965 25.6916374,10.8735673 L28.4778947,11.4308187 C28.7781871,11.4908187 28.9960819,11.7567836 28.9960819,12.0629825 L28.9960819,13.5830409 C28.9960819,13.8892398 28.7781287,14.1552047 28.4778947,14.2152047 L25.6916374,14.7724561 C25.5171345,14.8073684 25.3770175,14.9373099 25.3290643,15.108655 C25.1474854,15.7576608 24.8878947,16.3840936 24.5575439,16.9706433 C24.4701754,17.1257895 24.4773684,17.3167836 24.5760819,17.4649123 L26.1523977,19.8294152 C26.3222807,20.0842105 26.2883626,20.4263743 26.0718129,20.642807 L24.9969006,21.7177778 C24.7803509,21.9343275 24.4383626,21.9681287 24.1835088,21.7982456 L21.8190058,20.2219883 C21.6018129,20.0771345 21.3082456,20.1357895 21.1634503,20.3530994 C21.0185965,20.5702924 21.0773684,20.8638596 21.2945614,21.008655 L23.6590643,22.5849708 C23.9270175,22.7636257 24.2339766,22.8509357 24.5395906,22.8509357 C24.9507018,22.8509357 25.3591813,22.692807 25.6655556,22.3863743 L26.7404678,21.3114035 C27.2745614,20.7772515 27.3580702,19.9334503 26.9390643,19.3049708 L25.5208187,17.1776023 C25.7773684,16.6866082 25.9902924,16.1727485 26.1563158,15.6438012 L28.6632164,15.1425146 C29.4039181,14.9943275 29.9415789,14.338538 29.9415789,13.5831579 L29.9415789,12.0630994 C29.9415205,11.3075439 29.4039181,10.6518129 28.6631579,10.5035673 Z" id="Shape"></path>
                    <path d="M18.7528655,16.4475439 L14.3404094,16.4475439 C14.0792982,16.4475439 13.8676608,16.6591228 13.8676608,16.9202924 C13.8676608,17.181462 14.0793567,17.3930409 14.3404094,17.3930409 L18.7528655,17.3930409 C19.1873684,17.3930409 19.5408187,17.7464912 19.5408187,18.1809942 L19.5408187,18.811345 C19.5408187,19.245848 19.1873684,19.5992982 18.7528655,19.5992982 L14.3404094,19.5992982 C14.0792982,19.5992982 13.8676608,19.8109357 13.8676608,20.0720468 C13.8676608,20.3332164 14.0793567,20.5447953 14.3404094,20.5447953 L18.7528655,20.5447953 C19.1873684,20.5447953 19.5408187,20.8982456 19.5408187,21.3327485 L19.5408187,21.9630994 C19.5408187,22.3976023 19.1873684,22.7510526 18.7528655,22.7510526 L14.3404094,22.7510526 C14.0792982,22.7510526 13.8676608,22.9626316 13.8676608,23.2238012 C13.8676608,23.4849708 14.0793567,23.6965497 14.3404094,23.6965497 L18.7528655,23.6965497 C19.1873684,23.6965497 19.5408187,24.05 19.5408187,24.4845029 L19.5408187,25.1148538 C19.5408187,25.5493567 19.1873684,25.902807 18.7528655,25.902807 L14.3404094,25.902807 C14.0792982,25.902807 13.8676608,26.114386 13.8676608,26.3755556 C13.8676608,26.6367251 14.0793567,26.8483041 14.3404094,26.8483041 L18.7528655,26.8483041 C19.1873684,26.8483041 19.5408187,27.2017544 19.5408187,27.6362573 L19.5408187,28.2666082 C19.5408187,28.7011111 19.1873684,29.0545614 18.7528655,29.0545614 L10.1891228,29.0545614 C9.74210526,29.0545614 9.32140351,28.8808772 9.0045614,28.5656725 C8.50438596,28.0680117 7.84415205,27.7938596 7.14549708,27.7938596 L5.98830409,27.7938596 L5.98830409,22.5935088 C5.98830409,22.3323392 5.77660819,22.1207602 5.51555556,22.1207602 C5.25450292,22.1207602 5.04280702,22.3323392 5.04280702,22.5935088 L5.04280702,28.8969591 C5.04280702,28.9838596 4.97210526,29.0545614 4.88520468,29.0545614 L3.46690058,29.0545614 L3.46690058,22.5933918 C3.46690058,22.3322222 3.25520468,22.1206433 2.99415205,22.1206433 C2.73309942,22.1206433 2.52140351,22.3322222 2.52140351,22.5933918 L2.52140351,29.0544444 L1.10309942,29.0544444 C1.01625731,29.0544444 0.945497076,28.9838012 0.945497076,28.8968421 L0.945497076,18.1809942 C0.945497076,18.0940936 1.01619883,18.0233918 1.10309942,18.0233918 L4.88520468,18.0233918 C4.97204678,18.0233918 5.04280702,18.0940351 5.04280702,18.1809942 L5.04280702,20.7023977 C5.04280702,20.9635673 5.25450292,21.1751462 5.51555556,21.1751462 C5.77660819,21.1751462 5.98830409,20.9635673 5.98830409,20.7023977 L5.98830409,19.2840936 L7.12818713,19.2840936 C7.8754386,19.2840936 8.53631579,18.8077193 8.77269006,18.0988304 L8.94865497,17.5706433 C9.49391813,15.9352632 9.77035088,14.2318713 9.77035088,12.5078363 C9.77035088,12.0733333 10.1238012,11.719883 10.5583041,11.719883 C10.937193,11.719883 11.2933333,11.8674269 11.5612281,12.1353216 C11.8291228,12.4032164 11.9766082,12.7593567 11.9766082,13.1382456 L11.9766082,18.1808772 C11.9766082,18.4419883 12.1883041,18.6536257 12.4493567,18.6536257 C12.7104678,18.6536257 12.9221053,18.4420468 12.9221053,18.1808772 L12.9221053,13.1382456 C12.9221053,12.5068421 12.6762573,11.9131579 12.2297661,11.4666667 C11.7832749,11.0201754 11.1896491,10.774269 10.5581871,10.774269 C9.60233918,10.774269 8.82473684,11.5519298 8.82473684,12.5077193 C8.82473684,14.1299415 8.56461988,15.7326901 8.05157895,17.2715205 L7.87549708,17.7997076 C7.76807018,18.1219298 7.4677193,18.3384795 7.1280117,18.3384795 L5.98830409,18.3384795 L5.98830409,18.1808772 C5.98830409,17.5726316 5.49339181,17.0777778 4.88520468,17.0777778 L1.10309942,17.0777778 C0.494912281,17.0778947 0,17.5727485 0,18.1809942 L0,28.8969006 C0,29.5050877 0.494912281,30 1.10309942,30 L4.88520468,30 C5.49345029,30 5.98830409,29.5050877 5.98830409,28.8969006 L5.98830409,28.7392982 L7.1454386,28.7392982 C7.59245614,28.7392982 8.01584795,28.9156725 8.33760234,29.235848 C8.8328655,29.7285965 9.49040936,30 10.1890643,30 L18.7528655,30 C19.7087135,30 20.4863158,29.2223392 20.4863158,28.2665497 L20.4863158,27.6361988 C20.4863158,27.14 20.2767251,26.6918129 19.941462,26.3754971 C20.2767251,26.0591813 20.4863158,25.6109942 20.4863158,25.1147953 L20.4863158,24.4844444 C20.4863158,23.9882456 20.2767251,23.5400585 19.941462,23.2237427 C20.2767251,22.9074269 20.4863158,22.4592398 20.4863158,21.9630409 L20.4863158,21.3326901 C20.4863158,20.8364912 20.2767251,20.3883041 19.941462,20.0719883 C20.2767251,19.7556725 20.4863158,19.3074854 20.4863158,18.8112865 L20.4863158,18.1809357 C20.4863158,17.2252047 19.7087135,16.4475439 18.7528655,16.4475439 Z" id="Shape"></path>
                    <path d="M17.1754971,15.25 C17.2994152,15.25 17.4249123,15.2404678 17.5511111,15.2207602 C18.8732164,15.0143275 19.7808772,13.7708772 19.5745029,12.4488889 C19.3681871,11.1267836 18.1244444,10.2188889 16.8026901,10.4253801 C15.4805848,10.6318129 14.572924,11.8752632 14.7792982,13.1972515 C14.9659649,14.3930994 16.0011696,15.2499415 17.1754971,15.25 Z M16.948538,11.3595322 C17.7555556,11.2342105 18.5144444,11.7876608 18.6404094,12.5945614 C18.7663743,13.4015205 18.2123392,14.1604678 17.4054386,14.2864912 C16.598538,14.4124561 15.8395322,13.8583626 15.7135673,13.051462 C15.5876023,12.2445029 16.1416374,11.4855556 16.948538,11.3595322 Z" id="Shape"></path>
                    <path d="M21.4519883,17.3930409 C21.5764912,17.3930409 21.7007018,17.3442105 21.7935673,17.247193 C23.1843275,15.7939766 23.8042105,13.8220468 23.494386,11.8370175 C23.3369591,10.8285965 22.9559064,9.9005848 22.3615789,9.07894737 C22.2085965,8.86748538 21.9130994,8.81988304 21.7014035,8.97292398 C21.489883,9.12596491 21.4423977,9.42146199 21.5953801,9.63309942 C22.101345,10.3327485 22.4259649,11.1233333 22.560117,11.982807 C22.8240936,13.6743275 22.295731,15.3548538 21.1104094,16.5935088 C20.929883,16.7821053 20.9364327,17.0814035 21.1250877,17.2619298 C21.2167836,17.3495322 21.3345029,17.3930409 21.4519883,17.3930409 Z" id="Shape"></path>
                    <path d="M21.1195322,8.38 C21.2767251,8.17152047 21.2351462,7.87508772 21.0266082,7.71795322 C19.6325731,6.66695906 17.9151462,6.23608187 16.1908772,6.50567251 C14.2122807,6.81444444 12.5259649,8.00046784 11.564269,9.7597076 C11.4390058,9.98883041 11.5232164,10.2760234 11.7522807,10.401345 C11.824269,10.4407018 11.9019883,10.4594152 11.978655,10.4593567 C12.1459064,10.4593567 12.3080117,10.3704094 12.3938596,10.2133333 C13.2135673,8.71391813 14.6506433,7.70304094 16.3366667,7.43994152 C17.8060234,7.21040936 19.2694737,7.57748538 20.4573684,8.47304094 C20.6659649,8.63005848 20.9623977,8.58853801 21.1195322,8.38 Z" id="Shape"></path>
                </g>
            </g>
        </g>
    </g>
</svg>