<?xml version="1.0" encoding="UTF-8"?>
<svg width="600px" height="600px" viewBox="0 0 600 600" version="1.1" xmlns="http://www.w3.org/2000/svg" xmlns:xlink="http://www.w3.org/1999/xlink">
    <!-- Generator: Sketch 49.3 (51167) - http://www.bohemiancoding.com/sketch -->
    <title>Labs</title>
    <desc>Created with Sketch.</desc>
    <defs>
        <linearGradient x1="43.6892989%" y1="8.40166749%" x2="58.8668333%" y2="100%" id="linearGradient-1">
            <stop stop-color="#FFFCFF" offset="0%"></stop>
            <stop stop-color="#F3E9FF" offset="100%"></stop>
        </linearGradient>
        <rect id="path-2" x="0.2625" y="0" width="98.5900217" height="98.8495016" rx="12"></rect>
        <filter x="-35.5%" y="-25.3%" width="171.0%" height="170.8%" filterUnits="objectBoundingBox" id="filter-3">
            <feOffset dx="0" dy="10" in="SourceAlpha" result="shadowOffsetOuter1"></feOffset>
            <feGaussianBlur stdDeviation="10" in="shadowOffsetOuter1" result="shadowBlurOuter1"></feGaussianBlur>
            <feColorMatrix values="0 0 0 0 0.321568627   0 0 0 0 0.231372549   0 0 0 0 0.521568627  0 0 0 0.251019022 0" type="matrix" in="shadowBlurOuter1"></feColorMatrix>
        </filter>
        <linearGradient x1="47.605684%" y1="32.037545%" x2="58.8668333%" y2="100%" id="linearGradient-4">
            <stop stop-color="#FFFCFF" offset="0%"></stop>
            <stop stop-color="#F3E9FF" offset="100%"></stop>
        </linearGradient>
        <rect id="path-5" x="0" y="0" width="146" height="146" rx="12"></rect>
        <filter x="-24.0%" y="-17.1%" width="147.9%" height="147.9%" filterUnits="objectBoundingBox" id="filter-6">
            <feOffset dx="0" dy="10" in="SourceAlpha" result="shadowOffsetOuter1"></feOffset>
            <feGaussianBlur stdDeviation="10" in="shadowOffsetOuter1" result="shadowBlurOuter1"></feGaussianBlur>
            <feColorMatrix values="0 0 0 0 0.321568627   0 0 0 0 0.231372549   0 0 0 0 0.521568627  0 0 0 0.2674649 0" type="matrix" in="shadowBlurOuter1"></feColorMatrix>
        </filter>
    </defs>
    <g id="Labs" stroke="none" stroke-width="1" fill="none" fill-rule="evenodd">
        <g id="Group-26" transform="translate(270.000000, 225.000000)">
            <g id="Rectangle-15">
                <use fill="black" fill-opacity="1" filter="url(#filter-3)" xlink:href="#path-2"></use>
                <use fill="url(#linearGradient-1)" fill-rule="evenodd" xlink:href="#path-2"></use>
            </g>
            <g id="Group-16" transform="translate(16.675000, 17.721519)">
                <g id="Group">
                    <path d="M23.2450155,5.52375067 C23.2450155,6.77233682 23.6671201,7.80124886 24.5113418,8.61051766 C25.3555636,9.41978647 26.5674121,9.8244148 28.1469238,9.8244148 L35.1975019,9.8244148 C36.7770136,9.8244148 37.9752459,9.41978647 38.7922347,8.61051766 C39.6092235,7.80124886 40.0177117,6.77233682 40.0177117,5.52375067 C40.0177117,4.27516452 39.6092235,3.23469167 38.7922347,2.4023009 C37.9752459,1.56991013 36.7770136,1.15372099 35.1975019,1.15372099 L28.1469238,1.15372099 C26.5674121,1.15372099 25.3555636,1.56991013 24.5113418,2.4023009 C23.6671201,3.23469167 23.2450155,4.27516452 23.2450155,5.52375067 Z" id="Path-Copy-8" fill="#D587D0"></path>
                    <path d="M15.8193327,17.6869965 C15.8193327,18.9935887 15.4241397,20.031161 14.6337417,20.7997445 C13.8433437,21.5683281 12.8072971,21.9526142 11.5255706,21.9526142 C10.2438442,21.9526142 9.21847842,21.5683281 8.44944256,20.7997445 C7.68040669,20.031161 7.29589453,18.9935887 7.29589453,17.6869965 C7.29589453,16.4188336 7.68040669,15.3908685 8.44944256,14.6030703 C9.21847842,13.8152721 10.2438442,13.4213789 11.5255706,13.4213789 C12.8072971,13.4213789 13.8433437,13.805665 14.6337417,14.5742486 C15.4241397,15.3428321 15.8193327,16.3804044 15.8193327,17.6869965 Z" id="Path-Copy-4" fill="#DBA1D7"></path>
                    <path d="M59.506311,18.941126 C59.506311,20.1772504 59.0842065,21.1958932 58.2399847,21.9970849 C57.3957629,22.7982766 56.1839144,23.1988665 54.6044027,23.1988665 L24.3923079,23.1988665 C22.8127962,23.1988665 21.614564,22.7982766 20.7975752,21.9970849 C19.9805864,21.1958932 19.5720981,20.1772504 19.5720981,18.941126 C19.5720981,17.7050017 19.9805864,16.6749135 20.7975752,15.8508305 C21.614564,15.0267476 22.8127962,14.6147124 24.3923079,14.6147124 L54.6044027,14.6147124 C56.1839144,14.6147124 57.3957629,15.0267476 58.2399847,15.8508305 C59.0842065,16.6749135 59.506311,17.7050017 59.506311,18.941126 Z" id="Path-Copy-3" fill="#A26AB5"></path>
                    <path d="M25.5555645,31.1388531 C25.5555645,32.3677222 25.1304757,33.3803861 24.2802855,34.1768752 C23.4300953,34.9733644 22.2096792,35.371603 20.6190007,35.371603 L4.84713233,35.371603 C3.25645382,35.371603 2.0497503,34.9733644 1.22698556,34.1768752 C0.404220812,33.3803861 -0.00715538941,32.3677222 -0.00715538941,31.1388531 C-0.00715538941,29.9099841 0.404220812,28.885942 1.22698556,28.066696 C2.0497503,27.24745 3.25645382,26.8378331 4.84713233,26.8378331 L20.6190007,26.8378331 C22.2096792,26.8378331 23.4300953,27.24745 24.2802855,28.066696 C25.1304757,28.885942 25.5555645,29.9099841 25.5555645,31.1388531 Z" id="Path-Copy" fill="#E5D4F9"></path>
                    <path d="M29.3279701,31.1394008 C29.3279701,32.387987 29.7500746,33.416899 30.5942964,34.2261678 C31.4385181,35.0354366 32.6503667,35.440065 34.2298784,35.440065 L41.2804565,35.440065 C42.8599681,35.440065 44.0582004,35.0354366 44.8751892,34.2261678 C45.692178,33.416899 46.1006663,32.387987 46.1006663,31.1394008 C46.1006663,29.8908147 45.692178,28.8503418 44.8751892,28.0179511 C44.0582004,27.1855603 42.8599681,26.7693712 41.2804565,26.7693712 L34.2298784,26.7693712 C32.6503667,26.7693712 31.4385181,27.1855603 30.5942964,28.0179511 C29.7500746,28.8503418 29.3279701,29.8908147 29.3279701,31.1394008 Z" id="Path-Copy-15" fill="#9676CC"></path>
                    <path d="M50.0100155,31.1394008 C50.0100155,32.387987 50.4321201,33.416899 51.2763418,34.2261678 C52.1205636,35.0354366 53.3324121,35.440065 54.9119238,35.440065 L61.9625019,35.440065 C63.5420136,35.440065 64.7402459,35.0354366 65.5572347,34.2261678 C66.3742235,33.416899 66.7827117,32.387987 66.7827117,31.1394008 C66.7827117,29.8908147 66.3742235,28.8503418 65.5572347,28.0179511 C64.7402459,27.1855603 63.5420136,26.7693712 61.9625019,26.7693712 L54.9119238,26.7693712 C53.3324121,26.7693712 52.1205636,27.1855603 51.2763418,28.0179511 C50.4321201,28.8503418 50.0100155,29.8908147 50.0100155,31.1394008 Z" id="Path-Copy-14" fill="#7F6AAE"></path>
                    <path d="M47.3404019,43.3369833 C47.3404019,44.5731077 46.9182974,45.5917505 46.0740756,46.3929422 C45.2298538,47.1941339 44.0180053,47.5947238 42.4384936,47.5947238 L12.2263988,47.5947238 C10.6468871,47.5947238 9.44865487,47.1941339 8.63166607,46.3929422 C7.81467727,45.5917505 7.40618899,44.5731077 7.40618899,43.3369833 C7.40618899,42.100859 7.81467727,41.0707708 8.63166607,40.2466879 C9.44865487,39.4226049 10.6468871,39.0105697 12.2263988,39.0105697 L42.4384936,39.0105697 C44.0180053,39.0105697 45.2298538,39.4226049 46.0740756,40.2466879 C46.9182974,41.0707708 47.3404019,42.100859 47.3404019,43.3369833 Z" id="Path-Copy-6" fill="#D4C0F2"></path>
                    <path d="M59.6166055,44.5224396 C59.6166055,45.8290317 59.2214124,46.866604 58.4310144,47.6351876 C57.6406165,48.4037712 56.6045698,48.7880572 55.3228434,48.7880572 C54.0411169,48.7880572 53.0157511,48.4037712 52.2467153,47.6351876 C51.4776794,46.866604 51.0931673,45.8290317 51.0931673,44.5224396 C51.0931673,43.2542767 51.4776794,42.2263115 52.2467153,41.4385133 C53.0157511,40.6507151 54.0411169,40.256822 55.3228434,40.256822 C56.6045698,40.256822 57.6406165,40.641108 58.4310144,41.4096916 C59.2214124,42.1782752 59.6166055,43.2158475 59.6166055,44.5224396 Z" id="Path-Copy-7" fill="#D587D0"></path>
                    <path d="M35.4109246,56.755051 C35.4109246,58.0036372 35.8330292,59.0325492 36.6772509,59.841818 C37.5214727,60.6510868 38.7333212,61.0557151 40.3128329,61.0557151 L47.363411,61.0557151 C48.9429227,61.0557151 50.141155,60.6510868 50.9581438,59.841818 C51.7751326,59.0325492 52.1836208,58.0036372 52.1836208,56.755051 C52.1836208,55.5064649 51.7751326,54.465992 50.9581438,53.6336012 C50.141155,52.8012105 48.9429227,52.3850213 47.363411,52.3850213 L40.3128329,52.3850213 C38.7333212,52.3850213 37.5214727,52.8012105 36.6772509,53.6336012 C35.8330292,54.465992 35.4109246,55.5064649 35.4109246,56.755051 Z" id="Combined-Shape" fill="#8064BC"></path>
                </g>
            </g>
        </g>
        <g id="Group-57" transform="translate(251.000000, 410.000000)">
            <path d="M-0.138408549,48.8873171 C-0.138408549,62.8308023 4.66877696,74.3210945 14.2832922,83.3585386 C23.8978074,92.3959827 37.6990819,96.9146369 55.6875298,96.9146369 L102.242903,96.9146369 C120.23135,96.9146369 133.877554,92.3959827 143.181924,83.3585386 C152.486294,74.3210945 157.138409,62.8308023 157.138409,48.8873171 C157.138409,34.9438319 152.486294,23.3244353 143.181924,14.0287785 C133.877554,4.73312172 120.23135,0.0853630529 102.242903,0.0853630529 L55.6875298,0.0853630529 C37.6990819,0.0853630529 23.8978074,4.73312172 14.2832922,14.0287785 C4.66877696,23.3244353 -0.138408549,34.9438319 -0.138408549,48.8873171 Z" id="Path-Copy-11" fill="#B273BF"></path>
            <path d="M76.2620117,83 C59.6252539,83 46.0895508,69.4642969 46.0895508,52.8275391 C46.0895508,36.1907812 59.6252539,22.6550781 76.2620117,22.6550781 C92.8987695,22.6550781 106.434473,36.1907812 106.434473,52.8275391 C106.434473,69.4642969 92.8987695,83 76.2620117,83 Z" id="Shape" fill="#C880C3" fill-rule="nonzero"></path>
            <path d="M92.5151367,36.0651367 L101.335547,36.0651367 C100.818203,35.2939062 100.264766,34.5489258 99.680293,33.8300586 L91.639043,33.8300586 C89.8618359,29.6554883 87.5135547,26.2364258 84.7951758,23.8918359 C82.0874609,23.0916211 79.2255273,22.6550781 76.2620117,22.6550781 C73.2984961,22.6550781 70.4364258,23.0917578 67.7287109,23.8918359 C65.0104688,26.2365625 62.6623242,29.6554883 60.8849805,33.8300586 L52.8437305,33.8300586 C52.2593945,34.5489258 51.7058203,35.2937695 51.1884766,36.0651367 L60.0088867,36.0651367 C58.3744141,40.6598437 57.3953711,46.0008984 57.2812109,51.7101367 L46.1179883,51.7101367 C46.1044531,52.0817383 46.0896875,52.4526562 46.0896875,52.8275391 C46.0896875,53.2024219 46.1044531,53.5733398 46.1179883,53.9449414 L57.2812109,53.9449414 C57.3953711,59.6541797 58.3744141,64.9952344 60.0088867,69.5899414 L51.1884766,69.5899414 C51.7058203,70.3611719 52.2593945,71.1061523 52.8437305,71.8250195 L60.8851172,71.8250195 C62.6624609,75.9997266 65.0106055,79.4186523 67.7288477,81.7632422 C70.4365625,82.5633203 73.2986328,83 76.2620117,83 C79.2253906,83 82.0875977,82.563457 84.7951758,81.7632422 C87.5135547,79.4185156 89.8616992,75.9997266 91.639043,71.8250195 L99.680293,71.8250195 C100.264766,71.1061523 100.818203,70.3613086 101.335547,69.5899414 L92.5151367,69.5899414 C94.1496094,64.9952344 95.1286523,59.6541797 95.2428125,53.9449414 L106.406035,53.9449414 C106.41957,53.5733398 106.434336,53.2022852 106.434336,52.8275391 C106.434336,52.452793 106.41957,52.0817383 106.406035,51.7101367 L95.2428125,51.7101367 C95.1286523,46.0008984 94.1496094,40.6598437 92.5151367,36.0651367 Z M75.1446094,82.9254883 C70.3534375,82.3544141 66.1072266,78.1492188 63.2517188,71.8250195 L75.1446094,71.8250195 L75.1446094,82.9254883 Z M75.1446094,69.5900781 L62.3321484,69.5900781 C60.6525586,65.0824609 59.6329102,59.7180273 59.5154688,53.9450781 L75.1446094,53.9450781 L75.1446094,69.5900781 Z M75.1446094,51.7101367 L59.5151953,51.7101367 C59.6327734,45.9371875 60.6524219,40.5728906 62.331875,36.0651367 L75.1443359,36.0651367 L75.1443359,51.7101367 L75.1446094,51.7101367 Z M75.1446094,33.8301953 L63.2517188,33.8301953 C66.1072266,27.5059961 70.3535742,23.3008008 75.1446094,22.7297266 L75.1446094,33.8301953 Z M77.3794141,22.7297266 C82.1705859,23.3008008 86.4167969,27.5061328 89.2724414,33.8301953 L77.3794141,33.8301953 L77.3794141,22.7297266 Z M77.3794141,82.9254883 L77.3794141,71.8250195 L89.2724414,71.8250195 C86.4169336,78.1492188 82.1705859,82.3544141 77.3794141,82.9254883 Z M90.1920117,69.5900781 L77.3795508,69.5900781 L77.3795508,53.9450781 L93.0086914,53.9450781 C92.89125,59.7178906 91.8716016,65.0824609 90.1920117,69.5900781 Z M77.3794141,51.7101367 L77.3794141,36.0651367 L90.191875,36.0651367 C91.8714648,40.5727539 92.8911133,45.9371875 93.008418,51.7101367 L77.3794141,51.7101367 Z" id="Shape" fill="#DBA1D7" fill-rule="nonzero"></path>
            <path d="M54.5378125,13 C49.8720117,13 46.0895508,16.7824609 46.0895508,21.4482617 C46.0895508,28.689707 54.5378125,34.7240625 54.5378125,34.7240625 C54.5378125,34.7240625 62.9860742,28.6895703 62.9860742,21.4482617 C62.9860742,16.7824609 59.20375,13 54.5378125,13 Z M54.5378125,26.2758008 C51.8716602,26.2758008 49.7102734,24.1144141 49.7102734,21.4482617 C49.7102734,18.7819727 51.8716602,16.6207227 54.5378125,16.6207227 C57.2039648,16.6207227 59.3653516,18.7819727 59.3653516,21.4482617 C59.3654883,24.1144141 57.2041016,26.2758008 54.5378125,26.2758008 Z" id="Shape" fill="#FFFFFF" fill-rule="nonzero"></path>
            <path d="M102.81375,37.1379688 C98.1479492,37.1379688 94.3654883,40.9204297 94.3654883,45.5862305 C94.3654883,52.8275391 102.81375,58.8620313 102.81375,58.8620313 C102.81375,58.8620313 111.262012,52.8275391 111.262012,45.5862305 C111.262012,40.920293 107.479551,37.1379688 102.81375,37.1379688 Z M102.81375,50.4137695 C100.147598,50.4137695 97.9862109,48.2523828 97.9862109,45.5862305 C97.9862109,42.9199414 100.147598,40.7586914 102.81375,40.7586914 C105.479902,40.7586914 107.641289,42.9199414 107.641289,45.5862305 C107.641289,48.2523828 105.479902,50.4137695 102.81375,50.4137695 Z" id="Shape" fill="#FFFFFF" fill-rule="nonzero"></path>
            <path d="M70.2275195,51.6207227 C65.5617187,51.6207227 61.7792578,55.4031836 61.7792578,60.0689844 C61.7792578,67.3104297 70.2275195,73.3447852 70.2275195,73.3447852 C70.2275195,73.3447852 78.6757812,67.310293 78.6757812,60.0689844 C78.6757812,55.4030469 74.8933203,51.6207227 70.2275195,51.6207227 Z M70.2275195,64.8965234 C67.5613672,64.8965234 65.3999805,62.7351367 65.3999805,60.0689844 C65.3999805,57.4026953 67.5613672,55.2414453 70.2275195,55.2414453 C72.8936719,55.2414453 75.0550586,57.4026953 75.0550586,60.0689844 C75.0550586,62.7351367 72.8936719,64.8965234 70.2275195,64.8965234 Z" id="Shape" fill="#FFFFFF" fill-rule="nonzero"></path>
        </g>
        <g id="Group-60" transform="translate(110.000000, 124.000000)">
            <path d="M97.0350712,48.5 C97.0350712,63.3451953 92.5343703,75.13385 83.5328334,83.8663179 C74.5312965,92.5987857 62.7321615,96.9649541 48.1350747,96.9649541 C33.5379878,96.9649541 21.8604934,92.5987857 13.1022413,83.8663179 C4.34398915,75.13385 -0.0350712272,63.3451953 -0.0350712272,48.5 C-0.0350712272,34.0914281 4.34398915,22.4119276 13.1022413,13.461148 C21.8604934,4.51036852 33.5379878,0.0350458849 48.1350747,0.0350458849 C62.7321615,0.0350458849 74.5312965,4.40121431 83.5328334,13.1336821 C92.5343703,21.86615 97.0350712,33.6548047 97.0350712,48.5 Z" id="Path-Copy-19" fill="#B273BF"></path>
            <path d="M60.6120309,47.0366139 L55.4442655,47.0366139 C54.6574092,47.0366139 54.0194922,46.3971728 54.0194922,45.6084365 L54.0194922,35.0470212 C54.0194922,32.8355451 52.2246071,31.0363717 50.0184021,31.0363717 C47.8121971,31.0363717 46.017312,32.8355451 46.017312,35.0470212 L46.017312,45.6084365 C46.017312,46.3971728 45.379395,47.0366139 44.5925387,47.0366139 L39.4247733,47.0366139 C38.637917,47.0366139 38,46.3971728 38,45.6084365 L38,35.0470212 C38.0000952,28.4041981 43.3914123,23 50.018307,23 C56.6452016,23 62.0366139,28.4041981 62.0366139,35.0470212 L62.0366139,45.6084365 C62.0367091,46.3971728 61.3987921,47.0366139 60.6120309,47.0366139 Z" id="Shape" fill="#DBA1D7" fill-rule="nonzero"></path>
            <path d="M50,23 L50,31.0363717 C52.2574942,31.0363717 54.0941063,32.8355451 54.0941063,35.0470212 L54.0941063,45.6084365 C54.0941063,46.3971728 54.7468534,47.0366139 55.5520023,47.0366139 L60.8399064,47.0366139 C61.6450553,47.0366139 62.2978025,46.3971728 62.2978025,45.6084365 L62.2978025,35.0470212 C62.2977051,28.4041981 56.7809548,23 50,23 Z" id="Shape" fill="#EAB9E4" fill-rule="nonzero"></path>
            <path d="M63.8538703,71.6322188 L35.5986241,71.6322188 C33.0629782,71.6322188 31,69.6022144 31,67.1070971 L31,48.7667805 C31,46.2716632 33.0629782,44.2416588 35.5986241,44.2416588 L63.8537743,44.2416588 C66.3894203,44.2416588 68.4523984,46.2716632 68.4523984,48.7667805 L68.4523984,67.1070971 C68.4524944,69.6022144 66.3895163,71.6322188 63.8538703,71.6322188 Z" id="Shape" fill="#EAB9E4" fill-rule="nonzero"></path>
            <path d="M63.9223292,44.2416588 L50.0056947,44.2416588 L50.0056947,71.6322188 L63.9223292,71.6322188 C66.4201745,71.6322188 68.4523984,69.6022214 68.4523984,67.1071127 L68.4523984,48.7668594 C68.4523984,46.2715617 66.4201745,44.2416588 63.9223292,44.2416588 Z" id="Shape" fill="#DBA1D7" fill-rule="nonzero"></path>
            <path d="M53.5726195,65.4833176 L45.8813436,65.4833176 C45.4045259,65.4833176 44.9575338,65.2548363 44.6834321,64.8707298 C44.4092327,64.4867196 44.342443,63.9953982 44.5041855,63.5539308 L46.0355563,59.3720688 C45.0161093,58.397703 44.4157845,57.0418292 44.4157845,55.6171416 C44.4157845,52.7352361 46.7980147,50.39056 49.7261992,50.39056 C52.6543837,50.39056 55.0366139,52.7351399 55.0366139,55.6171416 C55.0366139,57.0410593 54.4365825,58.3966443 53.4180155,59.3710102 L54.9497776,63.5539308 C55.11152,63.9953982 55.0445348,64.4867196 54.7705309,64.8707298 C54.4964292,65.2548363 54.0495349,65.4833176 53.5726195,65.4833176 Z" id="Shape" fill="#FFFFFF" fill-rule="nonzero"></path>
            <path d="M50.0056947,50.39056 L50.0056947,65.4833176 L53.6495696,65.4833176 C54.1013249,65.4833176 54.5248223,65.2548349 54.7845167,64.8707259 C55.0442111,64.4867132 55.1075828,63.9953887 54.9543418,63.5539185 L53.503092,59.3709712 C54.4681212,58.3965991 55.0366139,57.0411017 55.0366139,55.6170787 C55.0366139,52.7353473 52.7797833,50.3907525 50.0056947,50.39056 Z" id="Shape" fill="#FFFFFF" fill-rule="nonzero"></path>
        </g>
        <g id="Group-58" transform="translate(433.000000, 124.000000)">
            <path d="M97.0350712,48.5 C97.0350712,63.3451953 92.5343703,75.13385 83.5328334,83.8663179 C74.5312965,92.5987857 62.7321615,96.9649541 48.1350747,96.9649541 C33.5379878,96.9649541 21.8604934,92.5987857 13.1022413,83.8663179 C4.34398915,75.13385 -0.0350712272,63.3451953 -0.0350712272,48.5 C-0.0350712272,34.0914281 4.34398915,22.4119276 13.1022413,13.461148 C21.8604934,4.51036852 33.5379878,0.0350458849 48.1350747,0.0350458849 C62.7321615,0.0350458849 74.5312965,4.40121431 83.5328334,13.1336821 C92.5343703,21.86615 97.0350712,33.6548047 97.0350712,48.5 Z" id="Path-Copy-17" fill="#B273BF"></path>
            <path d="M69.8763931,69.2532928 L59.6636272,69.2532928 L59.6636272,36.8318136 L72.7943262,36.8318136 C73.6000648,36.8318136 74.2532928,37.4896464 74.2532928,38.3010649 L74.2532928,64.8455388 C74.2532928,67.2798924 72.2937062,69.2532928 69.8763931,69.2532928 Z" id="Shape" fill="#B273BF" fill-rule="nonzero"></path>
            <path d="M69.3900709,69.2532928 L31.289626,69.2532928 C27.2657524,69.2532928 24,65.9554205 24,61.8919706 L24,20.4722644 C24,19.6476982 24.6413899,19 25.4579252,19 L63.5583702,19 C64.3749055,19 65.0162954,19.6476982 65.0162954,20.4722644 L65.0162954,64.8364995 C65.0162954,67.2803603 66.9698179,69.2532928 69.3900709,69.2532928 Z" id="Shape" fill="#FFFFFF" fill-rule="nonzero"></path>
            <path d="M69.3900709,69.2532928 L45.0739615,69.2532928 L45.0739615,19 L63.6909828,19 C64.4889501,19 65.1157548,19.6476982 65.1157548,20.4722644 L65.1157548,64.8364995 C65.1157548,67.2803603 67.0248544,69.2532928 69.3900709,69.2532928 Z" id="Shape" fill="#E2AFDE" fill-rule="nonzero"></path>
            <path d="M35.7953282,44.9371834 C31.5835855,44.9371834 28.0526849,48.7668761 28.0526849,53.4478217 L28.0526849,54.8662614 C28.0526849,55.6606822 28.6141542,56.2847011 29.3289448,56.2847011 L42.1766277,56.2847011 C42.8914183,56.2847011 43.4528875,55.6606822 43.4528875,54.8662614 L43.4528875,53.4478217 C43.4528875,48.7668761 40.0070709,44.9371834 35.7953282,44.9371834 Z" id="Shape" fill="#DBA1D7" fill-rule="nonzero"></path>
            <path d="M44.2634245,53.4478217 L44.2634245,54.8662614 C44.2634245,55.6606822 43.6691208,56.2847011 42.9125296,56.2847011 L36.1580547,56.2847011 L36.1580547,44.9371834 C40.6160982,44.9371834 44.2634245,48.7668761 44.2634245,53.4478217 Z" id="Shape" fill="#B273BF" fill-rule="nonzero"></path>
            <path d="M35.3944083,36.8318136 C32.2997245,36.8318136 29.6737589,39.3850996 29.6737589,42.5055724 C29.6737589,45.6260453 32.2997245,48.1793313 35.3944083,48.1793313 C38.4890921,48.1793313 41.0212766,45.6260453 41.0212766,42.5055724 C41.0212766,39.3850996 38.4890921,36.8318136 35.3944083,36.8318136 Z" id="Shape" fill="#DBA1D7" fill-rule="nonzero"></path>
            <path d="M42.6423506,42.5055724 C42.6423506,45.6260453 39.7243094,48.1793313 36.1580547,48.1793313 L36.1580547,36.8318136 C39.7243094,36.8318136 42.6423506,39.3850996 42.6423506,42.5055724 Z" id="Shape" fill="#B273BF" fill-rule="nonzero"></path>
            <path d="M58.2143226,25.4842958 L31.9336004,25.4842958 C31.1218932,25.4842958 30.4842958,26.1896233 30.4842958,27.0875558 L30.4842958,33.6074797 C30.4842958,34.5051983 31.1218932,35.2107396 31.9336004,35.2107396 L58.2143226,35.2107396 C59.0260298,35.2107396 59.6636272,34.5051983 59.6636272,33.6074797 L59.6636272,27.0875558 C59.6636272,26.1896233 59.0260298,25.4842958 58.2143226,25.4842958 Z" id="Shape" fill="#DBA1D7" fill-rule="nonzero"></path>
            <path d="M59.6636272,27.0875558 L59.6636272,33.6074797 C59.6636272,34.5051983 59.0260298,35.2107396 58.2143226,35.2107396 L45.0739615,35.2107396 L45.0739615,25.4842958 L58.2143226,25.4842958 C59.0260298,25.4842958 59.6636272,26.1896233 59.6636272,27.0875558 Z" id="Shape" fill="#B273BF" fill-rule="nonzero"></path>
            <path d="M60.142134,45.3796045 L52.3727949,45.3796045 C51.9229656,45.3796045 51.5582573,44.9176408 51.5582573,44.347857 C51.5582573,43.7780732 51.9229656,43.3161094 52.3727949,43.3161094 L60.142134,43.3161094 C60.5919633,43.3161094 60.9566715,43.7780732 60.9566715,44.347857 C60.9566715,44.9176408 60.5919633,45.3796045 60.142134,45.3796045 Z" id="Shape" fill="#FFFFFF" fill-rule="nonzero" transform="translate(56.257464, 44.347857) scale(-1, 1) translate(-56.257464, -44.347857) "></path>
            <path d="M59.8061998,40.5163827 L49.130647,40.5163827 C48.6808176,40.5163827 48.3161094,40.0544189 48.3161094,39.4846351 C48.3161094,38.9148513 48.6808176,38.4528875 49.130647,38.4528875 L59.8061998,38.4528875 C60.2560291,38.4528875 60.6207374,38.9148513 60.6207374,39.4846351 C60.6207374,40.0544189 60.2560291,40.5163827 59.8061998,40.5163827 Z" id="Shape" fill="#FFFFFF" fill-rule="nonzero" transform="translate(54.468423, 39.484635) scale(-1, 1) translate(-54.468423, -39.484635) "></path>
            <path d="M60.142134,55.1060483 L52.3727949,55.1060483 C51.9229656,55.1060483 51.5582573,54.6440846 51.5582573,54.0743007 C51.5582573,53.5045169 51.9229656,53.0425532 52.3727949,53.0425532 L60.142134,53.0425532 C60.5919633,53.0425532 60.9566715,53.5045169 60.9566715,54.0743007 C60.9566715,54.6440846 60.5919633,55.1060483 60.142134,55.1060483 Z" id="Shape-Copy" fill="#FFFFFF" fill-rule="nonzero" transform="translate(56.257464, 54.074301) scale(-1, 1) translate(-56.257464, -54.074301) "></path>
            <path d="M59.8061998,50.2428264 L49.130647,50.2428264 C48.6808176,50.2428264 48.3161094,49.7808627 48.3161094,49.2110789 C48.3161094,48.6412951 48.6808176,48.1793313 49.130647,48.1793313 L59.8061998,48.1793313 C60.2560291,48.1793313 60.6207374,48.6412951 60.6207374,49.2110789 C60.6207374,49.7808627 60.2560291,50.2428264 59.8061998,50.2428264 Z" id="Shape-Copy-2" fill="#FFFFFF" fill-rule="nonzero" transform="translate(54.468423, 49.211079) scale(-1, 1) translate(-54.468423, -49.211079) "></path>
        </g>
        <g id="Group-59" transform="translate(433.000000, 318.000000)">
            <path d="M97.0350712,48.5 C97.0350712,63.3451953 92.5343703,75.13385 83.5328334,83.8663179 C74.5312965,92.5987857 62.7321615,96.9649541 48.1350747,96.9649541 C33.5379878,96.9649541 21.8604934,92.5987857 13.1022413,83.8663179 C4.34398915,75.13385 -0.0350712272,63.3451953 -0.0350712272,48.5 C-0.0350712272,34.0914281 4.34398915,22.4119276 13.1022413,13.461148 C21.8604934,4.51036852 33.5379878,0.0350458849 48.1350747,0.0350458849 C62.7321615,0.0350458849 74.5312965,4.40121431 83.5328334,13.1336821 C92.5343703,21.86615 97.0350712,33.6548047 97.0350712,48.5 Z" id="Path-Copy-14" fill="#B273BF"></path>
            <path d="M24,49.015625 C24,52.7680664 24.8425781,56.4666992 26.4486328,59.821875 L47.0976562,47.9 L47.0939453,24.0679687 C34.1936523,25.0550781 24,35.8669922 24,49.015625 Z" id="Shape" fill="#FFFFFF" fill-rule="nonzero"></path>
            <path d="M69.6585938,63.0964844 L49.0000977,51.1458008 L28.3414063,63.0493164 C30.4985352,66.2144531 33.3535156,68.8479492 36.6835938,70.7290039 C40.4456055,72.8539063 44.7178711,73.9769531 49.0383789,73.9769531 C53.4030273,73.9769531 57.7205078,72.8162109 61.5242188,70.6202148 C64.7740234,68.744043 67.5558594,66.1648438 69.6585938,63.0964844 Z" id="Shape" fill="#DBA1D7" fill-rule="nonzero"></path>
            <path d="M61.4783203,27.3101563 C58.2128906,25.425 54.5688477,24.3027344 50.8416016,24.0229492 L50.8453125,47.9001953 L71.5144531,59.8333984 C74.1224609,54.4370117 74.7038086,48.3522461 73.1367188,42.5035156 C71.4067383,36.0477539 67.2664063,30.6519531 61.4783203,27.3101563 Z" id="Shape" fill="#DBA1D7" fill-rule="nonzero"></path>
            <path d="M49.0000977,51.1458008 L49.0000977,73.9763672 C49.0129883,73.9763672 49.0256836,73.9769531 49.0385742,73.9769531 C53.4032227,73.9769531 57.7207031,72.8162109 61.5244141,70.6202148 C64.7741211,68.744043 67.5560547,66.1649414 69.6585938,63.0964844 L49.0000977,51.1458008 Z" id="Shape" fill="#EAB9E4" fill-rule="nonzero"></path>
        </g>
        <g id="Group-56" transform="translate(70.000000, 299.000000)">
            <rect id="Rectangle-15" fill="#B273BF" x="6" y="6" width="146" height="146" rx="12"></rect>
            <g id="Rectangle-15">
                <use fill="black" fill-opacity="1" filter="url(#filter-6)" xlink:href="#path-5"></use>
                <use fill="url(#linearGradient-4)" fill-rule="evenodd" xlink:href="#path-5"></use>
            </g>
            <path d="M42.8841038,98.6415041 C33.2400943,108.258362 30.7735849,111.510637 30.7735849,117.827053 C30.7735849,119.735607 32.2925472,121.283013 34.1698113,121.283013 C36.0470755,121.283013 37.5660377,119.735607 37.5660377,117.827053 C37.5660377,114.193542 39.1546226,112.038535 47.754717,103.463649 C46.0610613,101.774764 44.5297877,100.266022 42.8841038,98.6415041 Z" id="Shape" fill="#E5D4F9" fill-rule="nonzero"></path>
            <path d="M52.7964171,98.6415041 L55.3018868,96.1407015 C53.7823018,94.6068066 52.1080337,92.9363646 50.2608458,91.0943343 L47.754717,93.5962672 C49.486332,95.3254878 50.9828464,96.813038 52.7964171,98.6415041 Z" id="Shape" fill="#264C78" fill-rule="nonzero"></path>
            <path d="M44.6118177,96.7547116 C43.7374892,97.63194 42.8605286,98.5109628 42.0943396,99.2951076 L42.3400114,99.538695 C44.1597377,101.342049 45.7289664,102.903161 47.1240314,104.301881 C47.886272,103.522671 48.7377881,102.664732 49.6415094,101.75857 C47.8268282,99.9406365 46.3517006,98.4811312 44.6118177,96.7547116 Z" id="Shape" fill="#523B85" fill-rule="nonzero"></path>
            <path d="M51.2957853,106.188674 L38.1468454,106.188674 C36.1571247,106.188674 34.5471698,107.878297 34.5471698,109.962259 C34.5471698,112.046221 36.1571247,113.735844 38.1468454,113.735844 L57.1886792,113.735844 C56.2984345,111.867212 54.5402179,109.663202 51.2957853,106.188674 Z" id="Shape" fill="#8064BC" fill-rule="nonzero"></path>
            <path d="M33.8675605,72.0442367 C33.8675605,63.5584199 41.8120741,56.4113939 47.5606165,50.7101127 C45.7621179,48.933843 44.1202904,47.307133 42.6332024,45.8113154 C36.5249603,51.8672795 27,60.4402846 27,72.0422601 C27,92.1234638 57.8680739,106.494821 57.8680739,117.769127 C57.8680739,119.709671 59.4038801,121.283013 61.3019615,121.283013 C63.2000428,121.283013 64.7358491,119.709671 64.7358491,117.769127 C64.7356344,101.83387 33.8675605,88.5059174 33.8675605,72.0442367 Z" id="Shape" fill="#9676CC" fill-rule="nonzero"></path>
            <path d="M60.9622642,66.4054192 C60.1001429,64.0476361 58.7383484,61.6047116 56.8150207,59.0188626 C50.4316639,59.0188626 44.0060504,59.0188626 36.1454558,59.0188626 C34.2190787,59.0188626 32.6603774,60.7084852 32.6603774,62.7924475 C32.6603774,64.8764097 34.2190787,66.5660324 36.1454558,66.5660324 C45.3715477,66.5660324 52.4440789,66.5660324 60.2277839,66.5660324 C60.4885113,66.5660324 60.717873,66.4641456 60.9622642,66.4054192 Z" id="Shape" fill="#8064BC" fill-rule="nonzero"></path>
            <path d="M56.7891464,50.0775729 C41.8043049,35.2228448 37.6413601,31.4426833 37.6413601,26.6831713 C37.6413601,24.7429153 36.1055538,23.1698059 34.2074725,23.1698059 C32.3093911,23.1698059 30.7735849,24.7429153 30.7735849,26.6831713 C30.7735849,34.812879 36.6579805,39.9006711 52.0005902,55.1144213 C58.5766995,61.6591621 61.6416588,67.160653 61.6416588,72.4274072 C61.6416588,80.8715611 53.7261187,87.9999597 47.9430228,93.7410182 C49.6346417,95.4204068 51.0964047,96.8652783 52.8676468,98.6415041 C58.9984238,92.5570141 68.509434,83.9951624 68.509434,72.4256505 C68.5092193,65.1365154 64.7836659,58.0342474 56.7891464,50.0775729 Z" id="Shape" fill="#E5D4F9" fill-rule="nonzero"></path>
            <path d="M38.6230376,85.4339569 C41.0610894,85.4339569 57.1078448,85.4339569 59.4347171,85.4339569 C61.3219933,85.4339569 62.8490566,83.7443343 62.8490566,81.660372 C62.8490566,79.5764097 61.3219933,77.8867871 59.4347171,77.8867871 L34.5471698,77.8867871 C35.3700256,80.2926833 36.7078065,82.7879663 38.6230376,85.4339569 Z" id="Shape" fill="#8064BC" fill-rule="nonzero"></path>
            <path d="M47.754717,93.8800124 C47.754717,93.8800124 50.9123145,97.0015817 52.5528096,98.6415041 L59.0754717,92.0764817 C57.6307317,90.6306708 56.0389663,89.0564477 54.2830258,87.3207493 C53.4646605,88.1283386 48.5205881,93.1219109 47.754717,93.8800124 Z" id="Shape" fill="#523B85" fill-rule="nonzero"></path>
            <path d="M55.3438449,66.5660324 L59.0754717,66.5660324 C58.2978264,64.1579556 57.0503827,61.6627514 55.2705008,59.0188626 C54.2413053,59.0988871 53.4150943,60.7367866 53.4150943,62.7778868 C53.4150943,64.8698902 54.2787702,66.5660324 55.3438449,66.5660324 Z" id="Shape" fill="#5B986C" fill-rule="nonzero"></path>
            <path d="M52.6255391,45.8113154 C61.1006126,37.345908 64.7358491,32.8801897 64.7358491,26.6250743 C64.7358491,24.7169023 63.2171526,23.1698059 61.3402169,23.1698059 C59.4632812,23.1698059 57.9445847,24.7169023 57.9445847,26.6250743 C57.9445847,30.1913431 55.509492,33.2434248 47.754717,40.9899204 C49.1864004,42.4210493 50.8107859,44.0245098 52.6255391,45.8113154 Z" id="Shape" fill="#9676CC" fill-rule="nonzero"></path>
            <path d="M44.1209576,36.3773531 L57.3274825,36.3773531 C59.336608,36.3773531 60.9622642,34.6877305 60.9622642,32.6037682 C60.9622642,30.5198059 59.336608,28.8301833 57.3274825,28.8301833 L38.3207547,28.8301833 C39.2839719,30.8278248 41.1013627,33.1268814 44.1209576,36.3773531 Z" id="Shape" fill="#9676CC" fill-rule="nonzero"></path>
            <path d="M52.7998013,45.8113154 C53.6638181,44.9431842 54.5291548,44.0748283 55.3018868,43.2774686 L54.8527212,42.8330681 C53.1145691,41.1170261 51.6324546,39.6409334 50.2609818,38.2641456 C49.5069467,39.0392627 48.635891,39.9136848 47.754717,40.798217 C49.2377113,42.2862173 50.9202126,43.9532809 52.7998013,45.8113154 Z" id="Shape" fill="#523B85" fill-rule="nonzero"></path>
            <path d="M42.7194691,45.8113154 L40.2075472,48.317179 C41.7080335,49.8360963 43.3072071,51.4353963 45.07393,53.1943328 L45.2386282,53.3584852 L47.754717,50.8478799 C45.9167199,49.021431 44.2392543,47.3489736 42.7194691,45.8113154 Z" id="Shape" fill="#523B85" fill-rule="nonzero"></path>
            <path d="M97.3281548,83.5471644 L116.199968,102.481437 C118.024537,104.305314 118.021023,107.25931 116.191623,109.079024 L112.879815,112.373875 C111.051293,114.192932 108.090651,114.189427 106.266522,112.36577 L87.3773585,93.4137531 L97.3281548,83.5471644 Z" id="Shape" fill="#735BA7" fill-rule="nonzero"></path>
            <path d="M74.1698113,43.9245229 C58.5389888,43.9245229 45.8679245,56.5955872 45.8679245,72.2264097 C45.8679245,87.8572322 58.5389888,100.528297 74.1698113,100.528297 C89.8006338,100.528297 102.471698,87.8572322 102.471698,72.2264097 C102.471698,56.5955872 89.8006338,43.9245229 74.1698113,43.9245229 Z" id="Shape" fill="#9676CC" fill-rule="nonzero"></path>
            <path d="M93.6241002,79.4251373 C91.7012593,84.6218161 87.8702788,88.758663 82.8357392,91.0737752 C80.0835732,92.3390009 77.1768275,92.9811267 74.1954945,92.9811267 C66.1071964,92.9811267 58.6992649,88.236098 55.3231592,80.8929461 C53.0083563,75.8586365 52.7923772,70.2243609 54.7154343,65.0276821 C56.6382752,59.8305709 60.4692557,55.6941564 65.5037953,53.3790442 C68.2550966,52.1138186 71.1635718,51.4723414 74.1485801,51.4716927 C82.2338515,51.4721251 89.6400535,56.2167214 93.0163753,63.5596571 C95.3311782,68.5941829 95.5473735,74.2284586 93.6241002,79.4251373 Z" id="Shape" fill="#FFFFFF" fill-rule="nonzero"></path>
            <polygon id="Shape" fill="#E5D4F9" fill-rule="nonzero" points="66.6226415 57.1320701 74.1698113 61.8483633 74.1698113 71.2820963 66.6226415 75.9999946 59.0754717 71.2820963 59.0754717 61.8483633"></polygon>
            <polygon id="Shape" fill="#9676CC" fill-rule="nonzero" points="74.1698113 72.2264097 81.7169811 76.9428749 81.7169811 86.3764932 74.1698113 91.0943343 66.6226415 86.3764932 66.6226415 76.9428749"></polygon>
            <polygon id="Shape" fill="#2CD4D9" fill-rule="nonzero" points="81.717087 57.1320701 89.2641509 61.8483633 89.2641509 71.2820963 81.717087 75.9999946 74.1698113 71.2820963 74.1698113 61.8483633"></polygon>
            <path d="M76.0566038,72.2264097 L81.7169811,75.9999946 L76.0566038,72.2264097 Z" id="Shape" fill="#D5E2F2" fill-rule="nonzero" opacity="0.5"></path>
            <path d="M42.8841038,98.6415041 C33.2400943,108.258362 30.7735849,111.510637 30.7735849,117.827053 C30.7735849,119.735607 32.2925472,121.283013 34.1698113,121.283013 C36.0470755,121.283013 37.5660377,119.735607 37.5660377,117.827053 C37.5660377,114.193542 39.1546226,112.038535 47.754717,103.463649 C46.0610613,101.774764 44.5297877,100.266022 42.8841038,98.6415041 Z" id="Shape" fill="#DBA1D7" fill-rule="nonzero"></path>
            <path d="M52.7964171,98.6415041 L55.3018868,96.1407015 C53.7823018,94.6068066 52.1080337,92.9363646 50.2608458,91.0943343 L47.754717,93.5962672 C49.486332,95.3254878 50.9828464,96.813038 52.7964171,98.6415041 Z" id="Shape" fill="#264C78" fill-rule="nonzero"></path>
            <path d="M44.6118177,96.7547116 C43.7374892,97.63194 42.8605286,98.5109628 42.0943396,99.2951076 L42.3400114,99.538695 C44.1597377,101.342049 45.7289664,102.903161 47.1240314,104.301881 C47.886272,103.522671 48.7377881,102.664732 49.6415094,101.75857 C47.8268282,99.9406365 46.3517006,98.4811312 44.6118177,96.7547116 Z" id="Shape" fill="#9F659B" fill-rule="nonzero"></path>
            <path d="M51.2957853,106.188674 L38.1468454,106.188674 C36.1571247,106.188674 34.5471698,107.878297 34.5471698,109.962259 C34.5471698,112.046221 36.1571247,113.735844 38.1468454,113.735844 L57.1886792,113.735844 C56.2984345,111.867212 54.5402179,109.663202 51.2957853,106.188674 Z" id="Shape" fill="#B273BF" fill-rule="nonzero"></path>
            <path d="M33.8675605,72.0442367 C33.8675605,63.5584199 41.8120741,56.4113939 47.5606165,50.7101127 C45.7621179,48.933843 44.1202904,47.307133 42.6332024,45.8113154 C36.5249603,51.8672795 27,60.4402846 27,72.0422601 C27,92.1234638 57.8680739,106.494821 57.8680739,117.769127 C57.8680739,119.709671 59.4038801,121.283013 61.3019615,121.283013 C63.2000428,121.283013 64.7358491,119.709671 64.7358491,117.769127 C64.7356344,101.83387 33.8675605,88.5059174 33.8675605,72.0442367 Z" id="Shape" fill="#BE8ABB" fill-rule="nonzero"></path>
            <path d="M60.9622642,66.4054192 C60.1001429,64.0476361 58.7383484,61.6047116 56.8150207,59.0188626 C50.4316639,59.0188626 44.0060504,59.0188626 36.1454558,59.0188626 C34.2190787,59.0188626 32.6603774,60.7084852 32.6603774,62.7924475 C32.6603774,64.8764097 34.2190787,66.5660324 36.1454558,66.5660324 C45.3715477,66.5660324 52.4440789,66.5660324 60.2277839,66.5660324 C60.4885113,66.5660324 60.717873,66.4641456 60.9622642,66.4054192 Z" id="Shape" fill="#DBA1D7" fill-rule="nonzero"></path>
            <path d="M56.7891464,50.0775729 C41.8043049,35.2228448 37.6413601,31.4426833 37.6413601,26.6831713 C37.6413601,24.7429153 36.1055538,23.1698059 34.2074725,23.1698059 C32.3093911,23.1698059 30.7735849,24.7429153 30.7735849,26.6831713 C30.7735849,34.812879 36.6579805,39.9006711 52.0005902,55.1144213 C58.5766995,61.6591621 61.6416588,67.160653 61.6416588,72.4274072 C61.6416588,80.8715611 53.7261187,87.9999597 47.9430228,93.7410182 C49.6346417,95.4204068 51.0964047,96.8652783 52.8676468,98.6415041 C58.9984238,92.5570141 68.509434,83.9951624 68.509434,72.4256505 C68.5092193,65.1365154 64.7836659,58.0342474 56.7891464,50.0775729 Z" id="Shape" fill="#E2AFDE" fill-rule="nonzero"></path>
            <path d="M38.6230376,85.4339569 C41.0610894,85.4339569 57.1078448,85.4339569 59.4347171,85.4339569 C61.3219933,85.4339569 62.8490566,83.7443343 62.8490566,81.660372 C62.8490566,79.5764097 61.3219933,77.8867871 59.4347171,77.8867871 L34.5471698,77.8867871 C35.3700256,80.2926833 36.7078065,82.7879663 38.6230376,85.4339569 Z" id="Shape" fill="#DBA1D7" fill-rule="nonzero"></path>
            <path d="M47.754717,93.8800124 C47.754717,93.8800124 50.9123145,97.0015817 52.5528096,98.6415041 L59.0754717,92.0764817 C57.6307317,90.6306708 56.0389663,89.0564477 54.2830258,87.3207493 C53.4646605,88.1283386 48.5205881,93.1219109 47.754717,93.8800124 Z" id="Shape" fill="#9F659B" fill-rule="nonzero"></path>
            <path d="M55.3438449,66.5660324 L59.0754717,66.5660324 C58.2978264,64.1579556 57.0503827,61.6627514 55.2705008,59.0188626 C54.2413053,59.0988871 53.4150943,60.7367866 53.4150943,62.7778868 C53.4150943,64.8698902 54.2787702,66.5660324 55.3438449,66.5660324 Z" id="Shape" fill="#5B986C" fill-rule="nonzero"></path>
            <path d="M52.6255391,45.8113154 C61.1006126,37.345908 64.7358491,32.8801897 64.7358491,26.6250743 C64.7358491,24.7169023 63.2171526,23.1698059 61.3402169,23.1698059 C59.4632812,23.1698059 57.9445847,24.7169023 57.9445847,26.6250743 C57.9445847,30.1913431 55.509492,33.2434248 47.754717,40.9899204 C49.1864004,42.4210493 50.8107859,44.0245098 52.6255391,45.8113154 Z" id="Shape" fill="#B273BF" fill-rule="nonzero"></path>
            <path d="M43.1209576,36.3773531 L56.3274825,36.3773531 C58.336608,36.3773531 59.9622642,34.6877305 59.9622642,32.6037682 C59.9622642,30.5198059 58.336608,28.8301833 56.3274825,28.8301833 L37.3207547,28.8301833 C38.2839719,30.8278248 40.1013627,33.1268814 43.1209576,36.3773531 Z" id="Shape" fill="#DBA1D7" fill-rule="nonzero"></path>
            <path d="M52.7998013,45.8113154 C53.6638181,44.9431842 54.5291548,44.0748283 55.3018868,43.2774686 L54.8527212,42.8330681 C53.1145691,41.1170261 51.6324546,39.6409334 50.2609818,38.2641456 C49.5069467,39.0392627 48.635891,39.9136848 47.754717,40.798217 C49.2377113,42.2862173 50.9202126,43.9532809 52.7998013,45.8113154 Z" id="Shape" fill="#9F659B" fill-rule="nonzero"></path>
            <path d="M42.7194691,45.8113154 L40.2075472,48.317179 C41.7080335,49.8360963 43.3072071,51.4353963 45.07393,53.1943328 L45.2386282,53.3584852 L47.754717,50.8478799 C45.9167199,49.021431 44.2392543,47.3489736 42.7194691,45.8113154 Z" id="Shape" fill="#9F659B" fill-rule="nonzero"></path>
            <path d="M97.3281548,83.5471644 L116.199968,102.481437 C118.024537,104.305314 118.021023,107.25931 116.191623,109.079024 L112.879815,112.373875 C111.051293,114.192932 108.090651,114.189427 106.266522,112.36577 L87.3773585,93.4137531 L97.3281548,83.5471644 Z" id="Shape" fill="#B273BF" fill-rule="nonzero"></path>
            <path d="M74.1698113,43.9245229 C58.5389888,43.9245229 45.8679245,56.5955872 45.8679245,72.2264097 C45.8679245,87.8572322 58.5389888,100.528297 74.1698113,100.528297 C89.8006338,100.528297 102.471698,87.8572322 102.471698,72.2264097 C102.471698,56.5955872 89.8006338,43.9245229 74.1698113,43.9245229 Z" id="Shape" fill="#BE8ABB" fill-rule="nonzero"></path>
            <path d="M93.6241002,79.4251373 C91.7012593,84.6218161 87.8702788,88.758663 82.8357392,91.0737752 C80.0835732,92.3390009 77.1768275,92.9811267 74.1954945,92.9811267 C66.1071964,92.9811267 58.6992649,88.236098 55.3231592,80.8929461 C53.0083563,75.8586365 52.7923772,70.2243609 54.7154343,65.0276821 C56.6382752,59.8305709 60.4692557,55.6941564 65.5037953,53.3790442 C68.2550966,52.1138186 71.1635718,51.4723414 74.1485801,51.4716927 C82.2338515,51.4721251 89.6400535,56.2167214 93.0163753,63.5596571 C95.3311782,68.5941829 95.5473735,74.2284586 93.6241002,79.4251373 Z" id="Shape" fill="#FFF5FE" fill-rule="nonzero"></path>
            <polygon id="Shape" fill="#F7C1F3" fill-rule="nonzero" points="66.6226415 57.1320701 74.1698113 61.8483633 74.1698113 71.2820963 66.6226415 75.9999946 59.0754717 71.2820963 59.0754717 61.8483633"></polygon>
            <polygon id="Shape" fill="#B273BF" fill-rule="nonzero" points="74.1698113 72.2264097 81.7169811 76.9428749 81.7169811 86.3764932 74.1698113 91.0943343 66.6226415 86.3764932 66.6226415 76.9428749"></polygon>
            <polygon id="Shape" fill="#DBA1D7" fill-rule="nonzero" points="81.717087 57.1320701 89.2641509 61.8483633 89.2641509 71.2820963 81.717087 75.9999946 74.1698113 71.2820963 74.1698113 61.8483633"></polygon>
            <path d="M76.0566038,72.2264097 L81.7169811,75.9999946 L76.0566038,72.2264097 Z" id="Shape" fill="#D5E2F2" fill-rule="nonzero" opacity="0.5"></path>
        </g>
        <path d="M136.760723,265.49506 C136.257212,271.096024 136,276.767974 136,282.5" id="Path" stroke="#523B85" stroke-width="5" opacity="0.4" stroke-linecap="round"></path>
        <path d="M508.182489,315.062807 C509.549687,307.254946 510.433833,299.280894 510.802986,291.17259 M510.240565,265.509398 C509.670497,259.16263 508.784171,252.906996 507.597463,246.758374" id="Oval-4" stroke="#523B85" stroke-width="5" opacity="0.4" stroke-linecap="round"></path>
        <path d="M229.475497,120.243263 C223.101136,123.945056 216.964921,128.011708 211.09544,132.414627" id="Path" stroke="#523B85" stroke-width="5" opacity="0.4" stroke-linecap="round"></path>
        <path d="M433.116275,130.362836 C412.774492,115.680671 389.370355,104.977838 364.044765,99.3952396 M291.086746,97.7913863 C274.983549,100.597657 259.58602,105.458407 245.174142,112.093651" id="Path" stroke="#523B85" stroke-width="5" opacity="0.4" stroke-linecap="round"></path>
        <path d="M327.147221,95.0347642 C325.934266,95.011623 324.71849,95 323.5,95 C316.91719,95 310.413612,95.3392323 304.005794,96.0011688" id="Path" stroke="#523B85" stroke-width="5" opacity="0.4" stroke-linecap="round"></path>
        <circle id="Oval-5" fill="#523B85" opacity="0.4" cx="345.5" cy="96.5" r="2.5"></circle>
        <path d="M139.925615,244.148388 C139.019299,248.508861 138.424497,251.87411 137.826823,256.339844" id="Path" stroke="#523B85" stroke-width="5" opacity="0.4" stroke-linecap="round"></path>
        <path d="M232.158455,446.285376 C235.135038,447.948947 238.161639,449.533728 241.235437,451.036896" id="Path" stroke="#523B85" stroke-width="5" opacity="0.4" stroke-linecap="round"></path>
        <path d="M416.033609,445.613418 C418.567855,444.172652 421.065239,442.674531 423.523994,441.120819 M433.838888,434.112988 C436.645964,432.066583 439.394044,429.944116 442.080098,427.748615" id="Path" stroke="#523B85" stroke-width="5" opacity="0.4" stroke-linecap="round"></path>
        <circle id="Oval-6-Copy-2" fill="#523B85" opacity="0.4" cx="510.5" cy="279.5" r="2.5"></circle>
        <circle id="Oval-6-Copy-3" fill="#523B85" opacity="0.4" cx="505.5" cy="236.5" r="2.5"></circle>
        <path d="M205.611236,220.940831 L217.030008,227.120252 M225.52353,231.573965 L231.322555,234.701628" id="Path" stroke="#523B85" stroke-width="5" opacity="0.4" stroke-linecap="round"></path>
        <circle id="Oval-5-Copy" fill="#523B85" opacity="0.4" transform="translate(237.500000, 329.500000) scale(-1, 1) translate(-237.500000, -329.500000) " cx="237.5" cy="329.5" r="2.5"></circle>
        <circle id="Oval-5-Copy-2" fill="#523B85" opacity="0.4" transform="translate(390.500000, 247.500000) scale(-1, 1) translate(-390.500000, -247.500000) " cx="390.5" cy="247.5" r="2.5"></circle>
        <path d="M259.622603,324.798417 L246.582578,317.422" id="Path-4" stroke="#523B85" stroke-width="5" opacity="0.4" stroke-linecap="round" transform="translate(253.102591, 321.110208) scale(-1, 1) translate(-253.102591, -321.110208) "></path>
        <circle id="Oval-5-Copy" fill="#523B85" opacity="0.4" cx="391.5" cy="326.5" r="2.5"></circle>
        <circle id="Oval-5-Copy-3" fill="#523B85" opacity="0.4" cx="449.5" cy="421.5" r="2.5"></circle>
        <g id="Group-2" opacity="0.4" transform="translate(400.000000, 220.000000)" stroke="#523B85" stroke-linecap="round" stroke-width="5">
            <path d="M0,111 L23.9071062,124.123109" id="Path-4"></path>
            <path d="M3.79402757,0.940830747 L15.2128002,7.12025162 M29.1937818,14.686246 L40.3887643,20.7445599" id="Path" transform="translate(22.091396, 10.842695) scale(-1, 1) translate(-22.091396, -10.842695) "></path>
        </g>
        <circle id="Oval-7" stroke="#979797" fill="#523B85" opacity="0.4" cx="240.5" cy="239.5" r="2.5"></circle>
    </g>
</svg>