<?xml version="1.0" encoding="UTF-8"?>
<svg width="264px" height="320px" viewBox="0 0 264 320" version="1.1" xmlns="http://www.w3.org/2000/svg" xmlns:xlink="http://www.w3.org/1999/xlink">
    <!-- Generator: Sketch 49.3 (51167) - http://www.bohemiancoding.com/sketch -->
    <title>2 copy</title>
    <desc>Created with Sketch.</desc>
    <defs></defs>
    <g id="Desktop" stroke="none" stroke-width="1" fill="none" fill-rule="evenodd" opacity="0.15">
        <g id="02-Desktop-Health-Units" transform="translate(-914.000000, -1701.000000)" fill="#89878A">
            <g id="Group-51" transform="translate(320.000000, 1598.000000)">
                <g id="Group-50" transform="translate(594.000000, 103.000000)">
                    <path d="M263.425414,254.613003 L263.425414,320 L10.6259783,320 L0,281.609907 C42.8336149,257.667579 81.0538056,230.753503 114.661719,200.866873 C148.269632,170.980243 165.073337,141.589412 165.073337,112.693498 C165.073337,97.3373845 160.666483,84.9536074 151.852643,75.5417957 C143.038803,66.1299839 129.900612,61.4241486 112.437677,61.4241486 C97.1164223,61.4241486 81.9601398,64.6852099 66.9683746,71.2074303 C51.9766094,77.7296508 39.9504287,85.5314303 30.8894717,94.6130031 L1.97692619,49.2879257 C9.55518113,41.3621895 19.274971,33.6842477 31.1365874,26.25387 C42.9982039,18.8234923 57.001291,12.5903245 73.1462689,7.55417957 C89.2912468,2.51803467 106.589178,0 125.040581,0 C153.376665,0 176.56413,4.54071827 194.603671,13.622291 C212.643213,22.7038638 225.699033,34.5922898 233.771522,49.2879257 C241.844011,63.9835616 245.880194,80.3301474 245.880194,98.3281734 C245.880194,128.049684 235.46025,156.449813 214.620049,183.529412 C193.779848,210.609011 164.167437,236.037033 125.781929,259.814241 L263.425414,254.613003 Z" id="2-copy"></path>
                </g>
            </g>
        </g>
    </g>
</svg>