<?xml version="1.0" encoding="UTF-8"?>
<svg width="200px" height="320px" viewBox="0 0 200 320" version="1.1" xmlns="http://www.w3.org/2000/svg" xmlns:xlink="http://www.w3.org/1999/xlink">
    <!-- Generator: Sketch 49.3 (51167) - http://www.bohemiancoding.com/sketch -->
    <title>3</title>
    <desc>Created with Sketch.</desc>
    <defs></defs>
    <g id="Desktop" stroke="none" stroke-width="1" fill="none" fill-rule="evenodd" opacity="0.15">
        <g id="02-Desktop-Health-Units" transform="translate(-315.000000, -2244.000000)" fill="#89878A">
            <g id="Group-52" transform="translate(315.000000, 2244.000000)">
                <g id="Group-40">
                    <path d="M130.201955,148.514851 C145.791916,149.83499 158.805376,154.125376 169.242723,161.386139 C179.680071,168.646901 187.342818,177.491697 192.231196,187.920792 C197.119574,198.349887 199.563726,209.04285 199.563726,220 C199.563726,238.745968 193.915753,255.742498 182.619636,270.990099 C171.32352,286.2377 155.469559,298.217778 135.057279,306.930693 C114.644998,315.643608 91.2273768,320 64.8037126,320 C55.5554301,320 47.2651298,319.471952 39.9325629,318.415842 C32.5999961,317.359731 27.2823134,316.369642 23.9793554,315.445545 C20.6763974,314.521448 15.7220346,313.003311 9.11611859,310.891089 L8.91794209,270.49505 C23.0546025,273.531368 35.4735384,275.049505 46.1751224,275.049505 C63.0862675,275.049505 78.1475302,272.970318 91.3593623,268.811881 C104.571194,264.653445 114.942327,258.481889 122.473071,250.29703 C130.003816,242.11217 133.769131,232.211279 133.769131,220.594059 C133.769131,205.544479 129.244147,193.498395 120.194042,184.455446 C111.143937,175.412496 96.7762849,171.287125 77.090655,172.079208 L49.5441227,179.207921 L41.2207101,140 C50.3368743,138.019792 59.2216981,135.643578 67.8754482,132.871287 C76.5291982,130.098996 83.7625678,127.194735 89.5757739,124.158416 C109.921995,112.67321 120.094954,97.8218733 120.094954,79.6039604 C120.094954,69.0428515 116.362667,61.2541505 108.897982,56.2376238 C101.433297,51.221097 91.4915421,48.7128713 79.0724199,48.7128713 C65.8605878,48.7128713 54.6306989,50.5610376 45.3824164,54.2574257 C36.1341339,57.9538139 27.1502229,62.7722475 18.4304137,68.7128713 L0,30.0990099 C4.09566796,25.7425525 10.734514,21.2211455 19.9167373,16.5346535 C29.0989607,11.8481614 39.7012969,7.92080792 51.7240641,4.75247525 C63.7468314,1.58414257 75.7033601,0 87.594009,0 C108.600822,0 126.271383,2.97026733 140.60622,8.91089109 C154.941058,14.8515149 165.70854,23.2342693 172.908988,34.0594059 C180.109437,44.8845426 183.709607,57.5576832 183.709607,72.0792079 C183.709607,89.6370515 178.788273,104.884424 168.945459,117.821782 C159.102644,130.759141 146.188271,140.990061 130.201955,148.514851 Z" id="3"></path>
                </g>
            </g>
        </g>
    </g>
</svg>