<?xml version="1.0" encoding="UTF-8"?>
<svg width="159px" height="148px" viewBox="0 0 159 148" version="1.1" xmlns="http://www.w3.org/2000/svg" xmlns:xlink="http://www.w3.org/1999/xlink">
    <!-- Generator: Sketch 49.3 (51167) - http://www.bohemiancoding.com/sketch -->
    <title>Shape</title>
    <desc>Created with Sketch.</desc>
    <defs></defs>
    <g id="Desktop" stroke="none" stroke-width="1" fill="none" fill-rule="evenodd">
        <g id="01-Homepage-Navigation" transform="translate(-226.000000, -2009.000000)" fill="#FFFFFF" fill-rule="nonzero">
            <g id="Group-28" transform="translate(226.000000, 2009.000000)">
                <path d="M68.4615426,6.52472666 L68.4615426,33.097304 C68.4615426,36.7021137 65.5441115,39.6262411 61.9428637,39.6262411 C49.103084,39.6262411 42.1226887,52.8118309 41.1558167,78.8391606 L61.9428637,78.8391606 C65.5441115,78.8391606 68.4615426,81.7597792 68.4615426,85.3687994 L68.4615426,141.475273 C68.4615426,145.080083 65.5441115,148 61.9428637,148 L6.51867892,148 C2.91743111,148 0,145.080083 0,141.475273 L0,85.3687994 C0,72.8919613 1.25483168,61.4361469 3.72736155,51.3234522 C6.26434956,40.9616417 10.1563596,31.8987416 15.2919912,24.3873764 C20.5803606,16.6725081 27.1964273,10.6144349 34.9566259,6.39630926 C42.76727,2.15362294 51.8467584,1.70530257e-13 61.9470675,1.70530257e-13 C65.5441115,2.1041924e-13 68.4615426,2.92272387 68.4615426,6.52472666 Z M152.489724,1.70530257e-13 C142.392918,1.70530257e-13 133.309226,2.15292121 125.499283,6.39630926 C117.738383,10.6144349 111.122317,16.6725081 105.834648,24.3873764 C100.695513,31.902952 96.8063056,40.9616417 94.2658144,51.3311712 C91.7932845,61.4431643 90.5426566,72.8912596 90.5426566,85.3680976 L90.5426566,141.474572 C90.5426566,145.079381 93.4607884,147.999298 97.0571318,147.999298 L152.486221,147.999298 C156.082564,147.999298 158.999995,145.079381 158.999995,141.474572 L158.999995,85.3680976 C158.999995,81.7590775 156.082564,78.8384588 152.486221,78.8384588 L131.991337,78.8384588 C132.945598,52.8111291 139.828606,39.6255393 152.486221,39.6255393 C156.082564,39.6255393 158.999995,36.701412 158.999995,33.0966023 L158.999995,6.52472666 C159.004199,2.92272387 156.086768,1.70530257e-13 152.489724,1.70530257e-13 Z" id="Shape"></path>
            </g>
        </g>
    </g>
</svg>
