<?xml version="1.0" encoding="UTF-8"?>
<svg width="107px" height="107px" viewBox="0 0 107 107" version="1.1" xmlns="http://www.w3.org/2000/svg" xmlns:xlink="http://www.w3.org/1999/xlink">
    <!-- Generator: Sketch 49.3 (51167) - http://www.bohemiancoding.com/sketch -->
    <title>Group 23</title>
    <desc>Created with Sketch.</desc>
    <defs></defs>
    <g id="Desktop" stroke="none" stroke-width="1" fill="none" fill-rule="evenodd">
        <g id="03-Desktop-Labs" transform="translate(-414.000000, -2424.000000)" fill-rule="nonzero">
            <g id="Group-23" transform="translate(414.000000, 2424.000000)">
                <path d="M98,107 L77,107 L77,38 L104,38 C105.6568,38 107,39.4000121 107,41.1268882 L107,97.6193353 C107,102.800172 102.9706,107 98,107 Z" id="Shape" fill="#D587D0"></path>
                <path d="M96,107 L15.4175589,107 C6.90706638,107 0,99.978125 0,91.3261719 L0,3.13476562 C0,1.37908789 1.35653961,0 3.08351178,0 L83.6659529,0 C85.3929251,0 86.7494647,1.37908789 86.7494647,3.13476562 L86.7494647,97.5957031 C86.7494647,102.799205 90.8811649,107 96,107 Z" id="Shape" fill="#F9CDF6"></path>
                <path d="M97,107 L45,107 L45,0 L84.8125,0 C86.5189531,0 87.859375,1.37908789 87.859375,3.13476562 L87.859375,97.5957031 C87.859375,102.799205 91.9419844,107 97,107 Z" id="Shape" fill="#DBA1D7"></path>
                <path d="M23.6022099,55 C13.483221,55 5,63.4372917 5,73.75 L5,76.875 C5,78.6252083 6.34896685,80 8.06629834,80 L38.9337017,80 C40.6510331,80 42,78.6252083 42,76.875 L42,73.75 C42,63.4372917 33.7211989,55 23.6022099,55 Z" id="Shape" fill="#FAE0F8"></path>
                <path d="M42,74.25 L42,77.625 C42,79.515225 40.4602333,81 38.5,81 L21,81 L21,54 C32.5502333,54 42,63.112275 42,74.25 Z" id="Shape" fill="#DBA1D7"></path>
                <path d="M20.6033058,37 C13.7853306,37 8,42.6252083 8,49.5 C8,56.3747917 13.7853306,62 20.6033058,62 C27.421281,62 33,56.3747917 33,49.5 C33,42.6252083 27.421281,37 20.6033058,37 Z" id="Shape" fill="#FAE0F8"></path>
                <path d="M35,49.5 C35,56.3747917 28.6997667,62 21,62 L21,37 C28.6997667,37 35,42.6252083 35,49.5 Z" id="Shape" fill="#DBA1D7"></path>
                <path d="M71.9205298,15 L16.0794702,15 C14.3547616,15 13,16.5228462 13,18.4615385 L13,32.5384615 C13,34.4766923 14.3547616,36 16.0794702,36 L71.9205298,36 C73.6452384,36 75,34.4766923 75,32.5384615 L75,18.4615385 C75,16.5228462 73.6452384,15 71.9205298,15 Z" id="Shape" fill="#FAE0F8"></path>
                <path d="M75,18.4615385 L75,32.5384615 C75,34.4766923 73.6889404,36 72.0198675,36 L45,36 L45,15 L72.0198675,15 C73.6889404,15 75,16.5228462 75,18.4615385 Z" id="Shape" fill="#F7C1F3"></path>
                <path d="M77.266649,56 L60.733351,56 C59.7761059,56 59,55.1045024 59,54 C59,52.8954976 59.7761059,52 60.733351,52 L77.266649,52 C78.2238941,52 79,52.8954976 79,54 C79,55.1045024 78.2238941,56 77.266649,56 Z" id="Shape" fill="#FFFFFF" transform="translate(69.000000, 54.000000) scale(-1, 1) translate(-69.000000, -54.000000) "></path>
                <path d="M77.2126633,45 L53.7873367,45 C52.8002779,45 52,44.1045024 52,43 C52,41.8954976 52.8002779,41 53.7873367,41 L77.2126633,41 C78.1997221,41 79,41.8954976 79,43 C79,44.1045024 78.1997221,45 77.2126633,45 Z" id="Shape" fill="#FFFFFF" transform="translate(65.500000, 43.000000) scale(-1, 1) translate(-65.500000, -43.000000) "></path>
                <path d="M77.266649,77 L60.733351,77 C59.7761059,77 59,76.1045024 59,75 C59,73.8954976 59.7761059,73 60.733351,73 L77.266649,73 C78.2238941,73 79,73.8954976 79,75 C79,76.1045024 78.2238941,77 77.266649,77 Z" id="Shape-Copy" fill="#FFFFFF" transform="translate(69.000000, 75.000000) scale(-1, 1) translate(-69.000000, -75.000000) "></path>
                <path d="M77.2126633,67 L53.7873367,67 C52.8002779,67 52,66.1045024 52,65 C52,63.8954976 52.8002779,63 53.7873367,63 L77.2126633,63 C78.1997221,63 79,63.8954976 79,65 C79,66.1045024 78.1997221,67 77.2126633,67 Z" id="Shape-Copy-2" fill="#FFFFFF" transform="translate(65.500000, 65.000000) scale(-1, 1) translate(-65.500000, -65.000000) "></path>
            </g>
        </g>
    </g>
</svg>