<?xml version="1.0" encoding="UTF-8"?>
<svg width="107px" height="107px" viewBox="0 0 107 107" version="1.1" xmlns="http://www.w3.org/2000/svg" xmlns:xlink="http://www.w3.org/1999/xlink">
    <!-- Generator: Sketch 49.3 (51167) - http://www.bohemiancoding.com/sketch -->
    <title>Group 19</title>
    <desc>Created with Sketch.</desc>
    <defs></defs>
    <g id="Desktop" stroke="none" stroke-width="1" fill="none" fill-rule="evenodd">
        <g id="03-Desktop-Labs" transform="translate(-1071.000000, -1830.000000)" fill-rule="nonzero">
            <g id="Group-19" transform="translate(1071.000000, 1830.000000)">
                <path d="M37.6171875,25.078125 L18.8085938,25.078125 C15.3459316,25.078125 12.5390625,22.2712559 12.5390625,18.8085938 L12.5390625,3.13476562 C12.5390625,1.40353906 13.9426016,0 15.6738281,0 L40.7519531,0 C42.4831797,0 43.8867188,1.40353906 43.8867188,3.13476562 L43.8867188,18.8085938 C43.8867188,22.2712559 41.0798496,25.078125 37.6171875,25.078125 Z" id="Shape" fill="#FAE0F8"></path>
                <path d="M26.5742441,94.3771348 C18.4194648,93.544541 12.5390625,85.8549609 12.5390625,77.6577578 L12.5390625,18.8085938 L43.8867188,18.8085938 L43.8867188,78.578125 C43.8867188,87.7604805 35.9480293,95.3340742 26.5742441,94.3771348 Z" id="Shape" fill="#F7C1F3"></path>
                <path d="M88.1914062,25.078125 L69.3828125,25.078125 C65.9201504,25.078125 63.1132812,22.2712559 63.1132812,18.8085938 L63.1132812,3.13476562 C63.1132812,1.40353906 64.5168203,0 66.2480469,0 L91.3261719,0 C93.0573984,0 94.4609375,1.40353906 94.4609375,3.13476562 L94.4609375,18.8085938 C94.4609375,22.2712559 91.6540684,25.078125 88.1914062,25.078125 Z" id="Shape" fill="#FAE0F8"></path>
                <path d="M77.1484629,94.3771348 C68.9936836,93.544541 63.1132812,85.8549609 63.1132812,77.6577578 L63.1132812,18.8085938 L94.4609375,18.8085938 L94.4609375,78.578125 C94.4609375,87.7604805 86.522248,95.3340742 77.1484629,94.3771348 Z" id="Shape" fill="#F7C1F3"></path>
                <path d="M47.0214844,6.26953125 L9.40429688,6.26953125 C7.67160742,6.26953125 6.26953125,4.86745508 6.26953125,3.13476562 C6.26953125,1.40207617 7.67160742,0 9.40429688,0 L47.0214844,0 C48.7541738,0 50.15625,1.40207617 50.15625,3.13476562 C50.15625,4.86745508 48.7541738,6.26953125 47.0214844,6.26953125 Z" id="Shape" fill="#D587D0"></path>
                <path d="M97.5957031,6.26953125 L59.9785156,6.26953125 C58.2458262,6.26953125 56.84375,4.86745508 56.84375,3.13476562 C56.84375,1.40207617 58.2458262,0 59.9785156,0 L97.5957031,0 C99.3283926,0 100.730469,1.40207617 100.730469,3.13476562 C100.730469,4.86745508 99.3283926,6.26953125 97.5957031,6.26953125 Z" id="Shape" fill="#D587D0"></path>
                <path d="M97.5957031,44.0957031 L9.40429688,44.0957031 C4.21855859,44.0957031 0,48.3142617 0,53.5 L0,97.5957031 C0,102.781441 4.21855859,107 9.40429688,107 L97.5957031,107 C102.781441,107 107,102.781441 107,97.5957031 L107,53.5 C107,48.3142617 102.781441,44.0957031 97.5957031,44.0957031 Z M9.40429688,50.3652344 L97.5957031,50.3652344 C99.3252578,50.3652344 100.730469,51.7704453 100.730469,53.5 L100.730469,62.9042969 L6.26953125,62.9042969 L6.26953125,53.5 C6.26953125,51.7704453 7.67474219,50.3652344 9.40429688,50.3652344 Z" id="Shape" fill="#DBA1D7"></path>
                <path d="M97.5957031,44.0957031 L53.5,44.0957031 L53.5,50.3652344 L97.5957031,50.3652344 C99.3252578,50.3652344 100.730469,51.7704453 100.730469,53.5 L100.730469,62.9042969 L53.5,62.9042969 L53.5,107 L97.5957031,107 C102.781441,107 107,102.781441 107,97.5957031 L107,53.5 C107,48.3142617 102.781441,44.0957031 97.5957031,44.0957031 Z" id="Shape" fill="#D587D0"></path>
            </g>
        </g>
    </g>
</svg>