<?xml version="1.0" encoding="UTF-8"?>
<svg width="524px" height="378px" viewBox="0 0 524 378" version="1.1" xmlns="http://www.w3.org/2000/svg" xmlns:xlink="http://www.w3.org/1999/xlink">
    <!-- Generator: Sketch 49.3 (51167) - http://www.bohemiancoding.com/sketch -->
    <title>Group 34</title>
    <desc>Created with Sketch.</desc>
    <defs>
        <linearGradient x1="43.6892989%" y1="8.40166749%" x2="58.8668333%" y2="100%" id="linearGradient-1">
            <stop stop-color="#FFFCFF" offset="0%"></stop>
            <stop stop-color="#F3E9FF" offset="100%"></stop>
        </linearGradient>
        <rect id="path-2" x="171.772152" y="112" width="138.389302" height="138.389302" rx="12"></rect>
        <filter x="-25.3%" y="-18.1%" width="150.6%" height="150.6%" filterUnits="objectBoundingBox" id="filter-3">
            <feOffset dx="0" dy="10" in="SourceAlpha" result="shadowOffsetOuter1"></feOffset>
            <feGaussianBlur stdDeviation="10" in="shadowOffsetOuter1" result="shadowBlurOuter1"></feGaussianBlur>
            <feColorMatrix values="0 0 0 0 0.321568627   0 0 0 0 0.231372549   0 0 0 0 0.521568627  0 0 0 0.251019022 0" type="matrix" in="shadowBlurOuter1"></feColorMatrix>
        </filter>
        <path d="M288.285815,112.578213 L299.238165,112.691616 C305.85909,112.760171 311.173313,118.178491 311.113431,124.7995 L310.090807,237.867788 C310.031252,244.452592 304.676371,249.759261 298.091298,249.759261 L183.593955,249.759261 C176.966538,249.759261 171.593955,244.386678 171.593955,237.759261 L171.593955,225.208669 C177.213582,226.185295 182.993649,226.694377 188.892618,226.694377 C244.304586,226.694377 289.224862,181.774101 289.224862,126.362133 C289.224862,121.685876 288.904949,117.084338 288.285815,112.578213 Z" id="path-4"></path>
        <filter x="-25.1%" y="-18.2%" width="150.2%" height="151.0%" filterUnits="objectBoundingBox" id="filter-5">
            <feOffset dx="0" dy="10" in="SourceAlpha" result="shadowOffsetOuter1"></feOffset>
            <feGaussianBlur stdDeviation="10" in="shadowOffsetOuter1" result="shadowBlurOuter1"></feGaussianBlur>
            <feColorMatrix values="0 0 0 0 0   0 0 0 0 0   0 0 0 0 0  0 0 0 0.0416666667 0" type="matrix" in="shadowBlurOuter1"></feColorMatrix>
        </filter>
        <rect id="path-6" x="0" y="236" width="108.734452" height="108.734452" rx="12"></rect>
        <filter x="-33.1%" y="-23.9%" width="166.2%" height="166.2%" filterUnits="objectBoundingBox" id="filter-7">
            <feMorphology radius="1" operator="dilate" in="SourceAlpha" result="shadowSpreadOuter1"></feMorphology>
            <feOffset dx="0" dy="10" in="shadowSpreadOuter1" result="shadowOffsetOuter1"></feOffset>
            <feGaussianBlur stdDeviation="10" in="shadowOffsetOuter1" result="shadowBlurOuter1"></feGaussianBlur>
            <feComposite in="shadowBlurOuter1" in2="SourceAlpha" operator="out" result="shadowBlurOuter1"></feComposite>
            <feColorMatrix values="0 0 0 0 0.321568627   0 0 0 0 0.231372549   0 0 0 0 0.521568627  0 0 0 0.251019022 0" type="matrix" in="shadowBlurOuter1"></feColorMatrix>
        </filter>
        <path d="M104.52138,239.885361 C107.09972,242.08636 108.734452,245.360293 108.734452,249.016039 L108.734452,333.75049 C108.734452,340.377907 103.361869,345.75049 96.7344518,345.75049 L12,345.75049 C5.372583,345.75049 8.11624501e-16,340.377907 0,333.75049 L0,323.174331 C8.19342628,326.058973 17.0069109,327.628082 26.1868805,327.628082 C69.7248556,327.628082 105.019358,292.333579 105.019358,248.795604 C105.019358,245.783069 104.850378,242.81 104.52138,239.885361 Z" id="path-8"></path>
        <filter x="-32.2%" y="-24.3%" width="164.4%" height="168.1%" filterUnits="objectBoundingBox" id="filter-9">
            <feOffset dx="0" dy="10" in="SourceAlpha" result="shadowOffsetOuter1"></feOffset>
            <feGaussianBlur stdDeviation="10" in="shadowOffsetOuter1" result="shadowBlurOuter1"></feGaussianBlur>
            <feColorMatrix values="0 0 0 0 0   0 0 0 0 0   0 0 0 0 0  0 0 0 0.0416666667 0" type="matrix" in="shadowBlurOuter1"></feColorMatrix>
        </filter>
        <path d="M99.180378,236.366327 C105.314404,236.899862 110.126857,242.048285 110.126857,248.320718 L110.126857,333.05517 C110.126857,339.682587 104.754274,345.05517 98.1268569,345.05517 L13.3924051,345.05517 C6.76498807,345.05517 1.39240506,339.682587 1.39240506,333.05517 L1.39240506,323.84108 C7.69975663,325.466911 14.3128412,326.331701 21.1279084,326.331701 C64.6658835,326.331701 99.9603859,291.037199 99.9603859,247.499223 C99.9603859,243.720258 99.694487,240.003396 99.180378,236.366327 Z" id="path-10"></path>
        <filter x="-32.2%" y="-23.2%" width="164.4%" height="165.0%" filterUnits="objectBoundingBox" id="filter-11">
            <feOffset dx="0" dy="10" in="SourceAlpha" result="shadowOffsetOuter1"></feOffset>
            <feGaussianBlur stdDeviation="10" in="shadowOffsetOuter1" result="shadowBlurOuter1"></feGaussianBlur>
            <feColorMatrix values="0 0 0 0 0   0 0 0 0 0   0 0 0 0 0  0 0 0 0.0416666667 0" type="matrix" in="shadowBlurOuter1"></feColorMatrix>
        </filter>
        <rect id="path-12" x="0" y="29" width="109.829895" height="109.829895" rx="12"></rect>
        <filter x="-31.9%" y="-22.8%" width="163.7%" height="163.7%" filterUnits="objectBoundingBox" id="filter-13">
            <feOffset dx="0" dy="10" in="SourceAlpha" result="shadowOffsetOuter1"></feOffset>
            <feGaussianBlur stdDeviation="10" in="shadowOffsetOuter1" result="shadowBlurOuter1"></feGaussianBlur>
            <feColorMatrix values="0 0 0 0 0.321568627   0 0 0 0 0.231372549   0 0 0 0 0.521568627  0 0 0 0.2674649 0" type="matrix" in="shadowBlurOuter1"></feColorMatrix>
        </filter>
        <path d="M96.0241072,138.78691 C96.0877712,137.481233 96.1199742,136.167294 96.1199742,134.845832 C96.1199742,90.8864461 60.4838507,55.2503226 16.5244645,55.2503226 C10.8585446,55.2503226 5.33089568,55.8423313 -5.32907052e-15,56.9678665 L-1.77635684e-15,41 C-2.58798134e-15,34.372583 5.372583,29 12,29 L97.7869099,29 C104.414327,29 109.78691,34.372583 109.78691,41 L109.78691,126.78691 C109.78691,133.414327 104.414327,138.78691 97.7869099,138.78691 L96.0241072,138.78691 Z" id="path-14"></path>
        <filter x="-31.9%" y="-22.8%" width="163.8%" height="163.8%" filterUnits="objectBoundingBox" id="filter-15">
            <feOffset dx="0" dy="10" in="SourceAlpha" result="shadowOffsetOuter1"></feOffset>
            <feGaussianBlur stdDeviation="10" in="shadowOffsetOuter1" result="shadowBlurOuter1"></feGaussianBlur>
            <feColorMatrix values="0 0 0 0 0   0 0 0 0 0   0 0 0 0 0  0 0 0 0.0416666667 0" type="matrix" in="shadowBlurOuter1"></feColorMatrix>
        </filter>
        <rect id="path-16" x="0" y="0" width="108.734452" height="108.734452" rx="12"></rect>
        <filter x="-32.2%" y="-23.0%" width="164.4%" height="164.4%" filterUnits="objectBoundingBox" id="filter-17">
            <feOffset dx="0" dy="10" in="SourceAlpha" result="shadowOffsetOuter1"></feOffset>
            <feGaussianBlur stdDeviation="10" in="shadowOffsetOuter1" result="shadowBlurOuter1"></feGaussianBlur>
            <feColorMatrix values="0 0 0 0 0   0 0 0 0 0   0 0 0 0 0  0 0 0 0.0416666667 0" type="matrix" in="shadowBlurOuter1"></feColorMatrix>
        </filter>
        <rect id="path-18" x="0" y="0" width="108.734452" height="108.734452" rx="12"></rect>
        <filter x="-33.1%" y="-23.9%" width="166.2%" height="166.2%" filterUnits="objectBoundingBox" id="filter-19">
            <feMorphology radius="1" operator="dilate" in="SourceAlpha" result="shadowSpreadOuter1"></feMorphology>
            <feOffset dx="0" dy="10" in="shadowSpreadOuter1" result="shadowOffsetOuter1"></feOffset>
            <feGaussianBlur stdDeviation="10" in="shadowOffsetOuter1" result="shadowBlurOuter1"></feGaussianBlur>
            <feComposite in="shadowBlurOuter1" in2="SourceAlpha" operator="out" result="shadowBlurOuter1"></feComposite>
            <feColorMatrix values="0 0 0 0 0.321568627   0 0 0 0 0.231372549   0 0 0 0 0.521568627  0 0 0 0.251019022 0" type="matrix" in="shadowBlurOuter1"></feColorMatrix>
        </filter>
        <path d="M108.734452,25.8488451 C96.8374452,18.6447008 82.8825043,14.4979269 67.9590324,14.4979269 C39.0116722,14.4979269 13.7084237,30.1002239 -1.23160363e-06,53.354106 L4.97379915e-14,12 C4.8926367e-14,5.372583 5.372583,8.32286411e-15 12,7.10542736e-15 L96.7344518,0 C103.361869,4.668892e-15 108.734452,5.372583 108.734452,12 L108.734452,25.8488451 Z" id="path-20"></path>
        <filter x="-32.2%" y="-46.9%" width="164.4%" height="231.2%" filterUnits="objectBoundingBox" id="filter-21">
            <feOffset dx="0" dy="10" in="SourceAlpha" result="shadowOffsetOuter1"></feOffset>
            <feGaussianBlur stdDeviation="10" in="shadowOffsetOuter1" result="shadowBlurOuter1"></feGaussianBlur>
            <feColorMatrix values="0 0 0 0 0   0 0 0 0 0   0 0 0 0 0  0 0 0 0.0416666667 0" type="matrix" in="shadowBlurOuter1"></feColorMatrix>
        </filter>
        <rect id="path-22" x="372" y="236" width="110" height="110" rx="12"></rect>
        <filter x="-31.8%" y="-22.7%" width="163.6%" height="163.6%" filterUnits="objectBoundingBox" id="filter-23">
            <feOffset dx="0" dy="10" in="SourceAlpha" result="shadowOffsetOuter1"></feOffset>
            <feGaussianBlur stdDeviation="10" in="shadowOffsetOuter1" result="shadowBlurOuter1"></feGaussianBlur>
            <feColorMatrix values="0 0 0 0 0   0 0 0 0 0   0 0 0 0 0  0 0 0 0.0416666667 0" type="matrix" in="shadowBlurOuter1"></feColorMatrix>
        </filter>
        <rect id="path-24" x="372" y="236" width="110" height="110" rx="12"></rect>
        <filter x="-32.7%" y="-23.6%" width="165.5%" height="165.5%" filterUnits="objectBoundingBox" id="filter-25">
            <feMorphology radius="1" operator="dilate" in="SourceAlpha" result="shadowSpreadOuter1"></feMorphology>
            <feOffset dx="0" dy="10" in="shadowSpreadOuter1" result="shadowOffsetOuter1"></feOffset>
            <feGaussianBlur stdDeviation="10" in="shadowOffsetOuter1" result="shadowBlurOuter1"></feGaussianBlur>
            <feComposite in="shadowBlurOuter1" in2="SourceAlpha" operator="out" result="shadowBlurOuter1"></feComposite>
            <feColorMatrix values="0 0 0 0 0.321568627   0 0 0 0 0.231372549   0 0 0 0 0.521568627  0 0 0 0.251019022 0" type="matrix" in="shadowBlurOuter1"></feColorMatrix>
        </filter>
    </defs>
    <g id="Desktop" stroke="none" stroke-width="1" fill="none" fill-rule="evenodd">
        <g id="01-Homepage-Navigation" transform="translate(-865.000000, -129.000000)">
            <g id="Group-34" transform="translate(886.000000, 130.000000)">
                <path d="M237.764331,375.528662 C341.463708,375.528662 425.528662,291.463708 425.528662,187.764331 C425.528662,119.030242 388.596303,58.922168 333.493615,26.2021384 C305.462671,9.55733708 272.729619,0 237.764331,0 C134.064955,0 50,84.0649545 50,187.764331 C50,291.463708 134.064955,375.528662 237.764331,375.528662 Z" id="Oval-3" stroke="#FFFFFF" stroke-linecap="round" stroke-linejoin="round" stroke-dasharray="6,6"></path>
                <path d="M79.8807232,94.1125478 C109.710532,150.842123 169.219569,189.528662 237.764331,189.528662 C309.295095,189.528662 370.985744,147.398119 399.375674,86.5976348" id="Oval-3-Copy-2" stroke="#FFFFFF" stroke-linecap="round" stroke-linejoin="round" stroke-dasharray="6,6"></path>
                <path d="M79.8807232,184.112548 C109.710532,240.842123 169.219569,279.528662 237.764331,279.528662 C309.295095,279.528662 370.985744,237.398119 399.375674,176.597635" id="Oval-3-Copy-2" stroke="#FFFFFF" stroke-linecap="round" stroke-linejoin="round" stroke-dasharray="6,6" transform="translate(239.628199, 228.063149) scale(1, -1) translate(-239.628199, -228.063149) "></path>
                <circle id="Oval" fill="#7F6AAE" fill-rule="nonzero" cx="400.97943" cy="84.1495748" r="2.71954114"></circle>
                <g id="Rectangle-15">
                    <use fill="black" fill-opacity="1" filter="url(#filter-3)" xlink:href="#path-2"></use>
                    <use fill="url(#linearGradient-1)" fill-rule="evenodd" xlink:href="#path-2"></use>
                </g>
                <g id="Combined-Shape">
                    <use fill="black" fill-opacity="1" filter="url(#filter-5)" xlink:href="#path-4"></use>
                    <use fill="#F6EFF8" fill-rule="evenodd" xlink:href="#path-4"></use>
                </g>
                <g id="Group-16" transform="translate(194.810127, 136.810127)">
                    <g id="Group">
                        <path d="M32.6595729,7.73337873 C32.6595729,9.48599997 33.2505193,10.930268 34.4324298,12.0662263 C35.6143402,13.2021845 37.3109282,13.770155 39.5222446,13.770155 L49.3930539,13.770155 C51.6043703,13.770155 53.2818954,13.2021845 54.4256798,12.0662263 C55.5694641,10.930268 56.1413477,9.48599997 56.1413477,7.73337873 C56.1413477,5.98075749 55.5694641,4.52026169 54.4256798,3.35184753 C53.2818954,2.18343337 51.6043703,1.59923505 49.3930539,1.59923505 L39.5222446,1.59923505 C37.3109282,1.59923505 35.6143402,2.18343337 34.4324298,3.35184753 C33.2505193,4.52026169 32.6595729,5.98075749 32.6595729,7.73337873 Z" id="Path-Copy-8" fill="#D587D0"></path>
                        <path d="M22.1896519,24.7617952 C22.1896519,26.5958385 21.6363816,28.0522628 20.5298244,29.1311118 C19.4232673,30.2099608 17.9728019,30.7493772 16.1783849,30.7493772 C14.3839679,30.7493772 12.9484558,30.2099608 11.8718056,29.1311118 C10.7951554,28.0522628 10.2568384,26.5958385 10.2568384,24.7617952 C10.2568384,22.9816943 10.7951554,21.5387554 11.8718056,20.4329351 C12.9484558,19.3271149 14.3839679,18.7742131 16.1783849,18.7742131 C17.9728019,18.7742131 19.4232673,19.3136295 20.5298244,20.3924785 C21.6363816,21.4713275 22.1896519,22.9277518 22.1896519,24.7617952 Z" id="Path-Copy-4" fill="#DBA1D7"></path>
                        <path d="M83.4545244,26.517703 C83.4545244,28.2528318 82.8635781,29.682685 81.6816676,30.8073056 C80.4997571,31.9319261 78.8031692,32.494228 76.5918528,32.494228 L34.2949201,32.494228 C32.0836037,32.494228 30.4060786,31.9319261 29.2622942,30.8073056 C28.1185099,29.682685 27.5466263,28.2528318 27.5466263,26.517703 C27.5466263,24.7825741 28.1185099,23.3366551 29.2622942,22.1799026 C30.4060786,21.02315 32.0836037,20.4447824 34.2949201,20.4447824 L76.5918528,20.4447824 C78.8031692,20.4447824 80.4997571,21.02315 81.6816676,22.1799026 C82.8635781,23.3366551 83.4545244,24.7825741 83.4545244,26.517703 Z" id="Path-Copy-3" fill="#A26AB5"></path>
                        <path d="M35.824859,43.5945202 C35.824859,45.3194648 35.2297348,46.7409256 34.0394685,47.8589452 C32.8492021,48.9769649 31.1406196,49.5359663 28.9136697,49.5359663 L6.83305402,49.5359663 C4.60610411,49.5359663 2.91671918,48.9769649 1.76484854,47.8589452 C0.612977894,46.7409256 0.037051212,45.3194648 0.037051212,43.5945202 C0.037051212,41.8695756 0.612977894,40.4321433 1.76484854,39.2821802 C2.91671918,38.1322172 4.60610411,37.5572443 6.83305402,37.5572443 L28.9136697,37.5572443 C31.1406196,37.5572443 32.8492021,38.1322172 34.0394685,39.2821802 C35.2297348,40.4321433 35.824859,41.8695756 35.824859,43.5945202 Z" id="Path-Copy" fill="#E5D4F9"></path>
                        <path d="M41.198123,43.595289 C41.198123,45.3479102 41.7890694,46.7921783 42.9709798,47.9281365 C44.1528903,49.0640947 45.8494783,49.6320653 48.0607946,49.6320653 L57.931604,49.6320653 C60.1429203,49.6320653 61.8204455,49.0640947 62.9642298,47.9281365 C64.1080141,46.7921783 64.6798977,45.3479102 64.6798977,43.595289 C64.6798977,41.8426677 64.1080141,40.3821719 62.9642298,39.2137578 C61.8204455,38.0453436 60.1429203,37.4611453 57.931604,37.4611453 L48.0607946,37.4611453 C45.8494783,37.4611453 44.1528903,38.0453436 42.9709798,39.2137578 C41.7890694,40.3821719 41.198123,41.8426677 41.198123,43.595289 Z" id="Path-Copy-15" fill="#9676CC"></path>
                        <path d="M70.2291932,43.595289 C70.2291932,45.3479102 70.8201396,46.7921783 72.00205,47.9281365 C73.1839605,49.0640947 74.8805485,49.6320653 77.0918648,49.6320653 L86.9626742,49.6320653 C89.1739905,49.6320653 90.8515157,49.0640947 91.9953,47.9281365 C93.1390843,46.7921783 93.7109679,45.3479102 93.7109679,43.595289 C93.7109679,41.8426677 93.1390843,40.3821719 91.9953,39.2137578 C90.8515157,38.0453436 89.1739905,37.4611453 86.9626742,37.4611453 L77.0918648,37.4611453 C74.8805485,37.4611453 73.1839605,38.0453436 72.00205,39.2137578 C70.8201396,40.3821719 70.2291932,41.8426677 70.2291932,43.595289 Z" id="Path-Copy-14" fill="#7F6AAE"></path>
                        <path d="M66.3774243,60.6719032 C66.3774243,62.407032 65.7864779,63.8368853 64.6045675,64.9615058 C63.422657,66.0861264 61.726069,66.6484282 59.5147527,66.6484282 L17.21782,66.6484282 C15.0065036,66.6484282 13.3289784,66.0861264 12.1851941,64.9615058 C11.0414098,63.8368853 10.4695262,62.407032 10.4695262,60.6719032 C10.4695262,58.9367744 11.0414098,57.4908553 12.1851941,56.3341028 C13.3289784,55.1773502 15.0065036,54.5989826 17.21782,54.5989826 L59.5147527,54.5989826 C61.726069,54.5989826 63.422657,55.1773502 64.6045675,56.3341028 C65.7864779,57.4908553 66.3774243,58.9367744 66.3774243,60.6719032 Z" id="Path-Copy-6" fill="#D4C0F2"></path>
                        <path d="M83.6672123,62.3314154 C83.6672123,64.1654587 83.113942,65.6218831 82.0073848,66.7007321 C80.9008277,67.7795811 79.4503623,68.3189975 77.6559453,68.3189975 C75.8615283,68.3189975 74.4260162,67.7795811 73.349366,66.7007321 C72.2727158,65.6218831 71.7343988,64.1654587 71.7343988,62.3314154 C71.7343988,60.5513145 72.2727158,59.1083756 73.349366,58.0025554 C74.4260162,56.8967352 75.8615283,56.3438333 77.6559453,56.3438333 C79.4503623,56.3438333 80.9008277,56.8832498 82.0073848,57.9620988 C83.113942,59.0409478 83.6672123,60.4973721 83.6672123,62.3314154 Z" id="Path-Copy-7" fill="#D587D0"></path>
                        <path d="M49.7366731,79.4571992 C49.7366731,81.2098205 50.3276194,82.6540885 51.5095299,83.7900467 C52.6914404,84.9260049 54.3880283,85.4939755 56.5993447,85.4939755 L66.470154,85.4939755 C68.6814704,85.4939755 70.3589955,84.9260049 71.5027799,83.7900467 C72.6465642,82.6540885 73.2184478,81.2098205 73.2184478,79.4571992 C73.2184478,77.704578 72.6465642,76.2440822 71.5027799,75.075668 C70.3589955,73.9072539 68.6814704,73.3230555 66.470154,73.3230555 L56.5993447,73.3230555 C54.3880283,73.3230555 52.6914404,73.9072539 51.5095299,75.075668 C50.3276194,76.2440822 49.7366731,77.704578 49.7366731,79.4571992 Z" id="Combined-Shape" fill="#8064BC"></path>
                    </g>
                </g>
                <path d="M400.184254,323.435897 C399.995296,323.435897 399.817397,323.364959 399.683584,323.236308 L394.182291,317.936523 C393.519145,317.297477 393.153846,316.446668 393.153846,315.541152 C393.153846,314.635786 393.519145,313.784977 394.182291,313.145931 C394.846528,312.506133 395.729476,312.153846 396.668816,312.153846 C397.608001,312.153846 398.491105,312.506133 399.155186,313.145931 L400.204505,314.156802 L401.254292,313.145931 C401.917905,312.506133 402.801165,312.153846 403.740194,312.153846 C404.679534,312.153846 405.562638,312.506133 406.226719,313.145931 C406.890956,313.785578 407.25641,314.636387 407.25641,315.541152 C407.25641,316.446066 406.8908,317.296575 406.226407,317.936523 L400.682587,323.237811 C400.549553,323.36556 400.372278,323.435897 400.184254,323.435897 Z" id="Shape" fill="#2CD4D9" fill-rule="nonzero"></path>
                <g id="Rectangle-15">
                    <use fill="black" fill-opacity="1" filter="url(#filter-7)" xlink:href="#path-6"></use>
                    <use fill="url(#linearGradient-1)" fill-rule="evenodd" xlink:href="#path-6"></use>
                    <rect stroke-opacity="0.324162138" stroke="#B3A1DC" stroke-width="1" x="-0.5" y="235.5" width="109.734452" height="109.734452" rx="12"></rect>
                </g>
                <g id="Combined-Shape" opacity="0.418308424">
                    <use fill="black" fill-opacity="1" filter="url(#filter-9)" xlink:href="#path-8"></use>
                    <use fill="#F6EFF8" fill-rule="evenodd" xlink:href="#path-8"></use>
                </g>
                <path d="M37.9356058,306.724584 C30.5692555,313.943231 28.6852702,316.384468 28.6852702,321.125723 C28.6852702,322.55833 29.8454939,323.71985 31.279398,323.71985 C32.7133022,323.71985 33.8735258,322.55833 33.8735258,321.125723 C33.8735258,318.398321 35.0869291,316.780721 41.6559093,310.344203 C40.3622502,309.076485 39.1926228,307.943986 37.9356058,306.724584 Z" id="Shape" fill="#E5D4F9" fill-rule="nonzero"></path>
                <path d="M45.376375,306.724584 L47.2251775,304.931069 C46.1038657,303.830997 44.8684124,302.632996 43.5053603,301.311936 L41.6560715,303.106262 C42.9338415,304.346417 44.0381293,305.413252 45.376375,306.724584 Z" id="Shape" fill="#264C78" fill-rule="nonzero"></path>
                <path d="M37.9390105,306.727827 C37.2927484,307.361929 36.6445408,307.997328 36.0782102,308.564145 L36.2597992,308.740221 C37.6048545,310.043771 38.7647539,311.172216 39.7959197,312.183278 C40.3593318,311.620028 40.9887321,310.999869 41.65672,310.344852 C40.3153938,309.030764 39.2250494,307.975764 37.9390105,306.727827 Z" id="Shape" fill="#523B85" fill-rule="nonzero"></path>
                <path d="M44.5799778,313.258544 L35.1041152,313.258544 C33.6702111,313.258544 32.5099874,314.420064 32.5099874,315.852671 C32.5099874,317.285278 33.6702111,318.446799 35.1041152,318.446799 L48.8267272,318.446799 C48.1851669,317.16222 46.9180976,315.647087 44.5799778,313.258544 Z" id="Shape" fill="#8064BC" fill-rule="nonzero"></path>
                <path d="M31.3072849,287.369148 C31.3072849,281.104491 37.3089617,275.828197 41.6516939,271.619225 C40.2930194,270.307893 39.052702,269.106974 37.9292826,268.002687 C33.3148156,272.473504 26.1191914,278.802527 26.1191914,287.367689 C26.1191914,302.192643 49.4384549,312.802301 49.4384549,321.12556 C49.4384549,322.558168 50.5986786,323.719688 52.0325828,323.719688 C53.4664869,323.719688 54.6267106,322.558168 54.6267106,321.12556 C54.6265485,309.361353 31.3072849,299.521988 31.3072849,287.369148 Z" id="Shape" fill="#9676CC" fill-rule="nonzero"></path>
                <path d="M51.1654955,283.315661 C50.5237732,281.694817 49.5101177,280.015444 48.0784834,278.237818 C43.327014,278.237818 38.5440909,278.237818 32.6930355,278.237818 C31.2591314,278.237818 30.0989077,279.399339 30.0989077,280.831946 C30.0989077,282.264553 31.2591314,283.426074 32.6930355,283.426074 C39.5605026,283.426074 44.8249607,283.426074 50.6187831,283.426074 C50.8128563,283.426074 50.9835823,283.356032 51.1654955,283.315661 Z" id="Shape" fill="#8064BC" fill-rule="nonzero"></path>
                <path d="M48.338869,270.866928 C37.0185816,259.898793 33.873688,257.107674 33.873688,253.593441 C33.873688,252.160834 32.7134643,250.999314 31.2795601,250.999314 C29.845656,250.999314 28.6854323,252.160834 28.6854323,253.593441 C28.6854323,259.596091 33.1307946,263.352712 44.7213577,274.585934 C49.6892747,279.418308 52.0046959,283.480388 52.0046959,287.369148 C52.0046959,293.603972 46.024907,298.867295 41.6560715,303.106262 C42.9340037,304.346255 44.0382915,305.41309 45.376375,306.724584 C50.007866,302.232041 57.1929515,295.910314 57.1929515,287.367851 C57.1927894,281.985846 54.3783229,276.741817 48.338869,270.866928 Z" id="Shape" fill="#E5D4F9" fill-rule="nonzero"></path>
                <path d="M35.1691306,296.396713 C37.0215,296.396713 49.2134143,296.396713 50.9813125,296.396713 C52.4152166,296.396713 53.5754403,295.235192 53.5754403,293.802585 C53.5754403,292.369978 52.4152166,291.208457 50.9813125,291.208457 L32.0723905,291.208457 C32.6975753,292.862376 33.713987,294.577743 35.1691306,296.396713 Z" id="Shape" fill="#8064BC" fill-rule="nonzero"></path>
                <path d="M41.65672,303.105451 C41.65672,303.105451 44.1046039,305.478106 45.376375,306.724584 L50.4329787,301.734617 C49.312964,300.63568 48.0789698,299.439138 46.7177012,298.119862 C46.0832749,298.733698 42.250451,302.529231 41.65672,303.105451 Z" id="Shape" fill="#523B85" fill-rule="nonzero"></path>
                <path d="M48.1533889,283.426074 L51.2055424,283.426074 C50.5694947,281.777019 49.5491918,280.068299 48.0933997,278.25776 C47.2516052,278.312561 46.5758349,279.434197 46.5758349,280.831946 C46.5758349,282.264553 47.2822483,283.426074 48.1533889,283.426074 Z" id="Shape" fill="#5B986C" fill-rule="nonzero"></path>
                <path d="M61.1327695,266.632911 C49.671102,266.632911 40.3797468,275.924267 40.3797468,287.385934 C40.3797468,298.847601 49.671102,308.138957 61.1327695,308.138957 C72.5944369,308.138957 81.8857921,298.847601 81.8857921,287.385934 C81.8857921,275.924267 72.5944369,266.632911 61.1327695,266.632911 Z" id="Shape" fill="#9676CC" fill-rule="nonzero"></path>
                <path d="M76.1036151,293.16503 C74.6616043,297.062059 71.7886077,300.164311 68.0130168,301.900431 C65.9490638,302.849234 63.7691858,303.330769 61.5333719,303.330769 C55.4676525,303.330769 49.9121656,299.772436 47.3802968,294.265751 C45.6443389,290.490484 45.4823681,286.265299 46.924541,282.36827 C48.3665518,278.470917 51.2395484,275.368989 55.0151393,273.632869 C57.0784437,272.684067 59.2596188,272.203018 61.498189,272.202532 C67.5616385,272.202856 73.1158283,275.760864 75.6478592,281.267387 C77.3838171,285.042816 77.5459501,289.268002 76.1036151,293.16503 Z" id="Shape" fill="#FFFFFF" fill-rule="nonzero"></path>
                <polygon id="Shape" fill="#E5D4F9" fill-rule="nonzero" points="55.9814938 276.940754 61.7587787 280.275505 61.7587787 286.945819 55.9814938 290.281705 50.204209 286.945819 50.204209 280.275505"></polygon>
                <polygon id="Shape" fill="#9676CC" fill-rule="nonzero" points="61.4734873 287.518987 67.2507721 290.853901 67.2507721 297.524214 61.4734873 300.8601 55.6962025 297.524214 55.6962025 290.853901"></polygon>
                <g id="Combined-Shape-Copy" opacity="0.420686141" style="mix-blend-mode: multiply;">
                    <use fill="black" fill-opacity="1" filter="url(#filter-11)" xlink:href="#path-10"></use>
                    <use fill="#F6EFF8" fill-rule="evenodd" xlink:href="#path-10"></use>
                </g>
                <path d="M45.3747537,267.997985 C51.8493725,261.642371 54.6265485,258.289623 54.6265485,253.593441 C54.6265485,252.160834 53.4663248,250.999314 52.0324206,250.999314 C50.5985165,250.999314 49.4382928,252.160834 49.4382928,253.593441 C49.4382928,256.270906 47.5779789,258.562331 41.6536395,264.378204 C42.7473886,265.452659 43.9883545,266.656496 45.3747537,267.997985 Z" id="Shape" fill="#9676CC" fill-rule="nonzero"></path>
                <path d="M38.6614751,261.375987 L48.0869143,261.375987 C49.5208185,261.375987 50.6810422,260.214466 50.6810422,258.781859 C50.6810422,257.349252 49.5208185,256.187731 48.0869143,256.187731 L34.5218957,256.187731 C35.2093395,257.560998 36.5064035,259.14147 38.6614751,261.375987 Z" id="Shape" fill="#9676CC" fill-rule="nonzero"></path>
                <path d="M45.371511,267.995066 C46.0083694,267.368584 46.6462006,266.74194 47.2157738,266.16653 L46.8846982,265.845831 C45.6035233,264.60746 44.5110713,263.542246 43.5001721,262.548695 C42.9443802,263.108054 42.3023335,263.739075 41.6528288,264.377393 C42.7459294,265.4512 43.9860846,266.654226 45.371511,267.995066 Z" id="Shape" fill="#523B85" fill-rule="nonzero"></path>
                <path d="M37.9292826,268.002849 L36.0722113,269.802201 C37.1815252,270.892869 38.363799,272.041257 39.6699423,273.304273 L39.7917042,273.422144 L41.651856,271.619387 C40.2930194,270.307893 39.0528642,269.106974 37.9292826,268.002849 Z" id="Shape" fill="#523B85" fill-rule="nonzero"></path>
                <path d="M78.358904,295.873418 L92.2911539,309.887383 C93.6381547,311.237302 93.6355606,313.423665 92.2849928,314.770504 L89.8400273,317.209146 C88.4901081,318.555499 86.3043932,318.552905 84.9577166,317.203147 L71.0126582,303.17605 L78.358904,295.873418 Z" id="Shape" fill="#523B85" fill-rule="nonzero"></path>
                <polygon id="Shape" fill="#2CD4D9" fill-rule="nonzero" points="67.0431076 276.379747 72.8202303 279.714498 72.8202303 286.384811 67.0431076 289.720698 61.2658228 286.384811 61.2658228 279.714498"></polygon>
                <path d="M62.6582278,287.518987 L67.132612,290.102577 L62.6582278,287.518987 Z" id="Shape" fill="#D5E2F2" fill-rule="nonzero" opacity="0.5"></path>
                <g id="Rectangle-15">
                    <use fill="black" fill-opacity="1" filter="url(#filter-13)" xlink:href="#path-12"></use>
                    <use fill="url(#linearGradient-1)" fill-rule="evenodd" xlink:href="#path-12"></use>
                </g>
                <g id="Combined-Shape" opacity="0.420686141" style="mix-blend-mode: multiply;">
                    <use fill="black" fill-opacity="1" filter="url(#filter-15)" xlink:href="#path-14"></use>
                    <use fill="#F6EFF8" fill-rule="evenodd" xlink:href="#path-14"></use>
                </g>
                <g id="Group-15" transform="translate(18.144330, 47.144330)" fill-rule="nonzero">
                    <polygon id="Shape" fill="#E5D4F9" points="73.7113402 23.0880804 73.7113402 74.8453608 49.8969072 74.8453608 49.8969072 11.3402062 52.4359973 12.5714877"></polygon>
                    <rect id="Rectangle-path" fill="#FFFFFF" x="55.5670103" y="28.3505155" width="5.67010309" height="5.67010309"></rect>
                    <rect id="Rectangle-path" fill="#FFFFFF" x="65.7731959" y="28.3505155" width="5.67010309" height="5.67010309"></rect>
                    <rect id="Rectangle-path" fill="#FFFFFF" x="55.5670103" y="39.6907216" width="5.67010309" height="5.67010309"></rect>
                    <rect id="Rectangle-path" fill="#FFFFFF" x="65.7731959" y="39.6907216" width="5.67010309" height="5.67010309"></rect>
                    <rect id="Rectangle-path" fill="#FFFFFF" x="55.5670103" y="52.1649485" width="5.67010309" height="5.67010309"></rect>
                    <rect id="Rectangle-path" fill="#FFFFFF" x="65.7731959" y="52.1649485" width="5.67010309" height="5.67010309"></rect>
                    <rect id="Rectangle-path" fill="#FFFFFF" x="55.5670103" y="63.5051546" width="5.67010309" height="5.67010309"></rect>
                    <rect id="Rectangle-path" fill="#FFFFFF" x="65.7731959" y="63.5051546" width="5.67010309" height="5.67010309"></rect>
                    <polygon id="Shape" fill="#D4C0F2" points="52.1649485 12.5714877 52.1649485 74.8453608 49.8969072 74.8453608 49.8969072 11.3402062"></polygon>
                    <path d="M0,74.8453608 L49.8969072,74.8453608 L49.8969072,3.11368396 C49.8969072,1.40335052 48.4934196,0 46.7829192,0 L3.11398806,0 C1.40348757,0 0,1.40335052 0,3.11368396 L0,74.8453608 Z" id="Shape" fill="#E5D4F9"></path>
                    <rect id="Rectangle-path" fill="#9676CC" x="18.1443299" y="55.5670103" width="9.07216495" height="18.1443299"></rect>
                    <rect id="Rectangle-path" fill="#7F6AAE" x="24.9484536" y="55.5670103" width="9.07216495" height="18.1443299"></rect>
                    <rect id="Rectangle-path" fill="#7F6AAE" x="12.4742268" y="23.814433" width="11.3402062" height="11.3402062"></rect>
                    <rect id="Rectangle-path" fill="#7F6AAE" x="12.4742268" y="40.8247423" width="11.3402062" height="11.3402062"></rect>
                    <rect id="Rectangle-path" fill="#7F6AAE" x="29.4845361" y="23.814433" width="11.3402062" height="11.3402062"></rect>
                    <rect id="Rectangle-path" fill="#7F6AAE" x="29.4845361" y="40.8247423" width="11.3402062" height="11.3402062"></rect>
                    <path d="M24.4374495,19.2783505 C24.0869347,19.2783505 23.8015155,18.9933122 23.8015155,18.6427128 L23.8015155,14.7550763 L19.9136314,14.7550763 C19.5628989,14.7550763 19.2783505,14.470038 19.2783505,14.1194386 L19.2783505,10.8292321 C19.2783505,10.4788498 19.5628989,10.1940286 19.9136314,10.1940286 L23.8015155,10.1940286 L23.8015155,6.30552369 C23.8015155,5.95535853 24.0869347,5.67010309 24.4374495,5.67010309 L27.7277167,5.67010309 C28.0780138,5.67010309 28.3629976,5.95535853 28.3629976,6.30552369 L28.3629976,10.1940286 L32.2510994,10.1940286 C32.6018319,10.1940286 32.8865979,10.4788498 32.8865979,10.8292321 L32.8865979,14.1194386 C32.8865979,14.4698209 32.6018319,14.7550763 32.2510994,14.7550763 L28.3629976,14.7550763 L28.3629976,18.6427128 C28.3629976,18.9933122 28.0780138,19.2783505 27.7277167,19.2783505 L24.4374495,19.2783505 Z" id="Shape" fill="#2CD4D9"></path>
                </g>
                <g id="Group-36" transform="translate(372.000000, 29.000000)">
                    <g id="Rectangle-15">
                        <use fill="black" fill-opacity="1" filter="url(#filter-17)" xlink:href="#path-16"></use>
                        <use fill="#FFFFFF" fill-rule="evenodd" xlink:href="#path-16"></use>
                    </g>
                    <g id="Rectangle-15">
                        <use fill="black" fill-opacity="1" filter="url(#filter-19)" xlink:href="#path-18"></use>
                        <use fill="url(#linearGradient-1)" fill-rule="evenodd" xlink:href="#path-18"></use>
                        <rect stroke-opacity="0.324162138" stroke="#B3A1DC" stroke-width="1" x="-0.5" y="-0.5" width="109.734452" height="109.734452" rx="12"></rect>
                    </g>
                    <g id="Combined-Shape" opacity="0.42" style="mix-blend-mode: multiply;">
                        <use fill="black" fill-opacity="1" filter="url(#filter-21)" xlink:href="#path-20"></use>
                        <use fill="#F6EFF8" fill-rule="evenodd" xlink:href="#path-20"></use>
                    </g>
                </g>
                <g id="Group-26" transform="translate(386.000000, 52.000000)" fill-rule="nonzero">
                    <g id="Group-41">
                        <path d="M30.4445312,62.6445313 C19.0610547,62.6445313 9.8,53.3834766 9.8,42 L13.9015625,42 C13.9015625,51.121875 21.3226563,58.5429688 30.4445312,58.5429688 C39.5664062,58.5429688 46.9875,51.121875 46.9875,42 L51.0890625,42 C51.0890625,53.3834766 41.8280078,62.6445313 30.4445312,62.6445313 Z" id="Shape" fill="#7F6AAE"></path>
                        <path d="M10.9375,42.875 C4.9065625,42.875 0,37.9684375 0,31.9375 C0,25.9065625 4.9065625,21 10.9375,21 C16.9684375,21 21.875,25.9065625 21.875,31.9375 C21.875,37.9684375 16.9684375,42.875 10.9375,42.875 Z" id="Shape" fill="#E5D4F9"></path>
                        <path d="M11.2,21 L11.2,42.875 C17.2309375,42.875 22.1375,37.9684375 22.1375,31.9375 C22.1375,25.9065625 17.2309375,21 11.2,21 Z" id="Shape" fill="#9676CC"></path>
                        <circle id="Oval" fill="#7F6AAE" cx="11.134375" cy="32.134375" r="2.734375"></circle>
                        <path d="M61.3536328,0.68359375 C60.8719727,0.259355469 60.2415625,0 59.5492188,0 C58.0390234,0 56.8148438,1.22417969 56.8148438,2.734375 C56.8148438,4.24457031 58.0390234,5.46875 59.5492188,5.46875 C60.2415625,5.46875 60.8719727,5.20939453 61.3536328,4.78515625 L66.2484375,4.78515625 L66.2484375,20.5078125 C66.2484375,30.3080859 58.2754102,38.28125 48.475,38.28125 C38.6745898,38.28125 30.7015625,30.3080859 30.7015625,20.5078125 L30.7015625,4.78515625 L35.7330859,4.78515625 C36.2147461,5.20939453 36.8451563,5.46875 37.5375,5.46875 C39.0476953,5.46875 40.271875,4.24457031 40.271875,2.734375 C40.271875,1.22417969 39.0476953,0 37.5375,0 C36.8451563,0 36.2147461,0.259355469 35.7330859,0.68359375 L26.6,0.68359375 L26.6,20.5078125 C26.6,32.5696875 36.4129883,42.3828125 48.475,42.3828125 C60.5370117,42.3828125 70.35,32.5696875 70.35,20.5078125 L70.35,0.68359375 L61.3536328,0.68359375 Z" id="Shape" fill="#E5D4F9"></path>
                        <path d="M61.8786328,0.68359375 C61.3969727,0.259355469 60.7665625,0 60.0742187,0 C58.5640234,0 57.3398437,1.22417969 57.3398437,2.734375 C57.3398437,4.24457031 58.5640234,5.46875 60.0742187,5.46875 C60.7665625,5.46875 61.3969727,5.20939453 61.8786328,4.78515625 L66.7734375,4.78515625 L66.7734375,20.5078125 C66.7734375,30.3080859 58.8004102,38.28125 49,38.28125 L49,42.3828125 C61.0620117,42.3828125 70.875,32.5696875 70.875,20.5078125 L70.875,0.68359375 L61.8786328,0.68359375 Z" id="Shape" fill="#7F6AAE"></path>
                        <path d="M81.0316904,25.6177403 L76.7893086,17.0844049 C76.5199044,16.5423057 75.9690647,16.199996 75.3664086,16.199996 C74.7637525,16.199996 74.2129128,16.5423744 73.9435086,17.0844049 L69.1848086,26.6561507 L63.7000639,12.4715774 L63.0614508,10.8200484 C62.8300544,10.2217799 62.2656112,9.82034462 61.6275449,9.80075068 C60.9940587,9.78115673 60.4017249,10.1465666 60.1342347,10.7295037 L54.1971562,23.6666645 L47.7909273,23.6666645 C46.9123045,23.6667333 46.2,24.3831155 46.2,25.2666993 C46.2,26.1503519 46.9123045,26.8666653 47.7909273,26.8666653 L55.2150954,26.8666653 C55.8356616,26.8666653 56.399558,26.5037992 56.6595286,25.937156 L61.453502,15.4907639 L63.6999272,21.3006096 L67.5199848,31.179946 C67.7480316,31.7698269 68.3003753,32.1689934 68.9290079,32.1982812 C68.953754,32.19945 68.9784317,32.2 69.0030411,32.2 C69.6032362,32.2 70.1553748,31.8592716 70.4255993,31.3155224 L75.3664086,21.3776104 L78.1858903,27.0487859 C78.5787515,27.8392126 79.534347,28.1595908 80.3202062,27.7643431 C81.1061337,27.3692329 81.42462,26.408167 81.0316904,25.6177403 Z" id="Shape" fill="#2CD4D9"></path>
                        <path d="M30.4445312,62.6445313 C19.0610547,62.6445313 9.8,53.3834766 9.8,42 L13.9015625,42 C13.9015625,51.121875 21.3226563,58.5429688 30.4445312,58.5429688 C39.5664062,58.5429688 46.9875,51.121875 46.9875,42 L51.0890625,42 C51.0890625,53.3834766 41.8280078,62.6445313 30.4445312,62.6445313 Z" id="Shape" fill="#8181D3"></path>
                        <path d="M10.9375,42.875 C4.9065625,42.875 0,37.9684375 0,31.9375 C0,25.9065625 4.9065625,21 10.9375,21 C16.9684375,21 21.875,25.9065625 21.875,31.9375 C21.875,37.9684375 16.9684375,42.875 10.9375,42.875 Z" id="Shape" fill="#D2E2FC"></path>
                        <path d="M11.2,21 L11.2,42.875 C17.2309375,42.875 22.1375,37.9684375 22.1375,31.9375 C22.1375,25.9065625 17.2309375,21 11.2,21 Z" id="Shape" fill="#6868B5"></path>
                        <circle id="Oval" fill="#8181D3" cx="11.134375" cy="32.134375" r="2.734375"></circle>
                        <path d="M61.3536328,0.68359375 C60.8719727,0.259355469 60.2415625,0 59.5492188,0 C58.0390234,0 56.8148438,1.22417969 56.8148438,2.734375 C56.8148438,4.24457031 58.0390234,5.46875 59.5492188,5.46875 C60.2415625,5.46875 60.8719727,5.20939453 61.3536328,4.78515625 L66.2484375,4.78515625 L66.2484375,20.5078125 C66.2484375,30.3080859 58.2754102,38.28125 48.475,38.28125 C38.6745898,38.28125 30.7015625,30.3080859 30.7015625,20.5078125 L30.7015625,4.78515625 L35.7330859,4.78515625 C36.2147461,5.20939453 36.8451563,5.46875 37.5375,5.46875 C39.0476953,5.46875 40.271875,4.24457031 40.271875,2.734375 C40.271875,1.22417969 39.0476953,0 37.5375,0 C36.8451563,0 36.2147461,0.259355469 35.7330859,0.68359375 L26.6,0.68359375 L26.6,20.5078125 C26.6,32.5696875 36.4129883,42.3828125 48.475,42.3828125 C60.5370117,42.3828125 70.35,32.5696875 70.35,20.5078125 L70.35,0.68359375 L61.3536328,0.68359375 Z" id="Shape" fill="#D2E2FC"></path>
                        <path d="M61.8786328,0.68359375 C61.3969727,0.259355469 60.7665625,0 60.0742187,0 C58.5640234,0 57.3398437,1.22417969 57.3398437,2.734375 C57.3398437,4.24457031 58.5640234,5.46875 60.0742187,5.46875 C60.7665625,5.46875 61.3969727,5.20939453 61.8786328,4.78515625 L66.7734375,4.78515625 L66.7734375,20.5078125 C66.7734375,30.3080859 58.8004102,38.28125 49,38.28125 L49,42.3828125 C61.0620117,42.3828125 70.875,32.5696875 70.875,20.5078125 L70.875,0.68359375 L61.8786328,0.68359375 Z" id="Shape" fill="#6868B5"></path>
                        <path d="M81.0316904,25.6177403 L76.7893086,17.0844049 C76.5199044,16.5423057 75.9690647,16.199996 75.3664086,16.199996 C74.7637525,16.199996 74.2129128,16.5423744 73.9435086,17.0844049 L69.1848086,26.6561507 L63.7000639,12.4715774 L63.0614508,10.8200484 C62.8300544,10.2217799 62.2656112,9.82034462 61.6275449,9.80075068 C60.9940587,9.78115673 60.4017249,10.1465666 60.1342347,10.7295037 L54.1971562,23.6666645 L47.7909273,23.6666645 C46.9123045,23.6667333 46.2,24.3831155 46.2,25.2666993 C46.2,26.1503519 46.9123045,26.8666653 47.7909273,26.8666653 L55.2150954,26.8666653 C55.8356616,26.8666653 56.399558,26.5037992 56.6595286,25.937156 L61.453502,15.4907639 L63.6999272,21.3006096 L67.5199848,31.179946 C67.7480316,31.7698269 68.3003753,32.1689934 68.9290079,32.1982812 C68.953754,32.19945 68.9784317,32.2 69.0030411,32.2 C69.6032362,32.2 70.1553748,31.8592716 70.4255993,31.3155224 L75.3664086,21.3776104 L78.1858903,27.0487859 C78.5787515,27.8392126 79.534347,28.1595908 80.3202062,27.7643431 C81.1061337,27.3692329 81.42462,26.408167 81.0316904,25.6177403 Z" id="Shape" fill="#2CD4D9"></path>
                    </g>
                </g>
                <g id="Rectangle-15">
                    <use fill="black" fill-opacity="1" filter="url(#filter-23)" xlink:href="#path-22"></use>
                    <use fill="#FFFFFF" fill-rule="evenodd" xlink:href="#path-22"></use>
                </g>
                <g id="Rectangle-15">
                    <use fill="black" fill-opacity="1" filter="url(#filter-25)" xlink:href="#path-24"></use>
                    <use fill="url(#linearGradient-1)" fill-rule="evenodd" xlink:href="#path-24"></use>
                    <rect stroke-opacity="0.324162138" stroke="#B3A1DC" stroke-width="1" x="371.5" y="235.5" width="111" height="111" rx="12"></rect>
                </g>
                <g id="Group-37" transform="translate(394.000000, 254.000000)" fill-rule="nonzero">
                    <path d="M29.7045315,49.6923077 L25.0613524,49.6923077 C23.6464936,50.2556448 22.1424839,50.5525651 20.6027202,50.5525651 C19.0629566,50.5525651 17.5587908,50.2554945 16.1439319,49.6923077 L11.5007529,49.6923077 C7.57686926,49.6923077 4.38461538,52.7752598 4.38461538,56.5649002 L4.38461538,58.2060759 C5.19915067,58.2577665 5.9579472,58.5836876 6.54031573,59.1434184 L7.5921701,60.1540893 C7.62245951,60.1833907 7.66242904,60.1981165 7.70239857,60.1981165 C7.7423681,60.1981165 7.78218149,60.1835409 7.81262703,60.1542396 L8.86479366,59.1435686 C9.50040285,58.5321473 10.3461643,58.1955575 11.2461033,58.1955575 C12.1460422,58.1955575 12.9919598,58.5321473 13.6278813,59.1435686 C14.2639588,59.7546895 14.6141606,60.5673134 14.6141606,61.4319284 C14.6141606,62.2965434 14.2638027,63.1093176 13.6277251,63.7205887 L8.07164832,69.0205255 C7.96750896,69.1203003 7.82917692,69.1749962 7.68210154,69.1749962 C7.53424551,69.1749962 7.39513281,69.1196993 7.29052506,69.0193234 L4.38461538,66.22668 L4.38461538,72.8675664 C4.38461538,73.3088898 4.75495805,73.6666667 5.21226567,73.6666667 L35.9931748,73.6666667 C36.4506385,73.6666667 36.8205128,73.3088898 36.8205128,72.8675664 L36.8205128,56.5649002 C36.8205128,52.7752598 33.6282589,49.6923077 29.7045315,49.6923077 Z" id="Shape" fill="#6868B5"></path>
                    <path d="M7.18425398,69.4358974 C6.99529551,69.4358974 6.81739726,69.3649591 6.68358414,69.2363082 L1.18229118,63.936523 C0.519145091,63.2974768 0.153846154,62.4466676 0.153846154,61.5411518 C0.153846154,60.6357862 0.519145091,59.784977 1.18229118,59.1459308 C1.84652771,58.5061332 2.72947628,58.1538462 3.6688164,58.1538462 C4.60800075,58.1538462 5.49110509,58.5061332 6.15518584,59.1459308 L7.20450509,60.1568021 L8.25429168,59.1459308 C8.9179051,58.5061332 9.80116522,58.1538462 10.7401938,58.1538462 C11.6795339,58.1538462 12.5626383,58.5061332 13.226719,59.1459308 C13.8909555,59.7855782 14.2564103,60.6363874 14.2564103,61.5411518 C14.2564103,62.4460665 13.8907998,63.2965751 13.2264075,63.936523 L7.68258716,69.2378111 C7.54955292,69.3655603 7.37227778,69.4358974 7.18425398,69.4358974 Z" id="Shape" fill="#2CD4D9"></path>
                    <path d="M26.4605002,68.025641 C26.2062272,68.025641 25.9991763,67.8188664 25.9991763,67.5645321 L25.9991763,64.7443342 L23.1787988,64.7443342 C22.9243679,64.7443342 22.7179487,64.5375596 22.7179487,64.2832252 L22.7179487,61.8964194 C22.7179487,61.6422426 22.9243679,61.4356254 23.1787988,61.4356254 L25.9991763,61.4356254 L25.9991763,58.6147976 C25.9991763,58.3607783 26.2062272,58.1538462 26.4605002,58.1538462 L28.84735,58.1538462 C29.1014651,58.1538462 29.3082002,58.3607783 29.3082002,58.6147976 L29.3082002,61.4356254 L32.1287355,61.4356254 C32.3831665,61.4356254 32.5897436,61.6422426 32.5897436,61.8964194 L32.5897436,64.2832252 C32.5897436,64.5374021 32.3831665,64.7443342 32.1287355,64.7443342 L29.3082002,64.7443342 L29.3082002,67.5645321 C29.3082002,67.8188664 29.1014651,68.025641 28.84735,68.025641 L26.4605002,68.025641 Z" id="Shape" fill="#FFFFFF"></path>
                    <path d="M57.9096597,44.0512821 L53.2664806,44.0512821 C51.8516218,44.6146192 50.3476121,44.9115394 48.8078484,44.9115394 C47.2680848,44.9115394 45.763919,44.6144689 44.3490601,44.0512821 L39.7058811,44.0512821 C35.7819975,44.0512821 32.5897436,47.1342341 32.5897436,50.9238745 L32.5897436,52.5650503 C32.5897436,53.9843656 32.9600863,68.025641 33.4173939,68.025641 L64.198303,68.025641 C64.6557667,68.025641 65.025641,67.6678641 65.025641,67.2265408 L65.025641,50.9238745 C65.025641,47.1342341 61.8333871,44.0512821 57.9096597,44.0512821 Z" id="Shape" fill="#6868B5"></path>
                    <path d="M56.0758848,59.5641026 C55.8216118,59.5641026 55.6145609,59.357328 55.6145609,59.1029936 L55.6145609,56.2827957 L52.7941835,56.2827957 C52.5397525,56.2827957 52.3333333,56.0760211 52.3333333,55.8216868 L52.3333333,53.434881 C52.3333333,53.1807041 52.5397525,52.974087 52.7941835,52.974087 L55.6145609,52.974087 L55.6145609,50.1532592 C55.6145609,49.8992398 55.8216118,49.6923077 56.0758848,49.6923077 L58.4627347,49.6923077 C58.7168497,49.6923077 58.9235848,49.8992398 58.9235848,50.1532592 L58.9235848,52.974087 L61.7441202,52.974087 C61.9985511,52.974087 62.2051282,53.1807041 62.2051282,53.434881 L62.2051282,55.8216868 C62.2051282,56.0758636 61.9985511,56.2827957 61.7441202,56.2827957 L58.9235848,56.2827957 L58.9235848,59.1029936 C58.9235848,59.357328 58.7168497,59.5641026 58.4627347,59.5641026 L56.0758848,59.5641026 Z" id="Shape" fill="#FFFFFF"></path>
                    <path d="M65.025641,4.91112611 L65.025641,6.90870841 C65.025641,7.40860438 64.9608358,7.89982681 64.836954,8.37553696 C64.4447213,8.59270898 64.0249196,8.77885643 63.5809501,8.93231132 L62.8799081,9.17533715 C62.4377288,9.32879204 61.9660113,9.02705303 61.9975188,8.61522682 C62.0992021,7.28984364 61.2445609,6.32624703 61.2445609,6.32624703 C60.5435189,7.92050986 58.5325879,8.37903973 57.3172215,8.50997678 C56.8916911,8.55651365 56.5329352,8.21691131 56.6308591,7.85495794 C57.0175422,6.41915396 56.351588,5.09727355 56.351588,5.09727355 C53.7858743,7.83093891 48.8613938,9.10811724 45.0932032,9.70108694 C42.7808026,10.0630403 40.9050317,10.1716263 40.2741655,10.1974801 C40.135425,10.2043189 39.9984748,10.2078217 39.8579441,10.2026509 C38.4057344,10.1441045 36.8205128,9.526949 36.8205128,8.14118466 L36.8205128,3.06166113 C36.8205128,2.51189232 36.8964173,1.97580101 37.0369479,1.46222754 C38.2874022,0.748662319 39.7840089,0.333333333 41.3842681,0.333333333 L50.559756,0.333333333 C53.532561,0.333333333 56.1297823,1.79315634 57.4488012,3.92534526 C57.9334082,2.59128854 59.3782781,1.6191852 61.0691214,1.6191852 L61.2282701,1.6191852 C63.3163587,1.6190184 65.025641,3.09969125 65.025641,4.91112611 Z" id="Shape" fill="#D4C0F2"></path>
                    <path d="M59.3148718,25.9073873 C59.3148718,30.1503996 56.6439108,33.8075486 52.8707273,35.3405721 L52.8707273,42.5960219 C52.8707273,44.3422612 51.8093806,45.8567746 50.2868493,46.5453168 C49.7263189,46.8004423 49.1025201,46.9415385 48.4481533,46.9415385 L48.1079963,46.9415385 C45.6744698,46.9415385 43.6854222,44.9854012 43.6854222,42.5960219 L43.6854222,35.5254989 C39.6557881,34.1201255 36.7507692,30.3320085 36.7507692,25.9077366 L36.7507692,8.86461538 L59.3148718,8.86461538 L59.3148718,25.9073873 Z" id="Shape" fill="#B2C3F7"></path>
                    <path d="M59.3148718,8.12461538 L59.3148718,25.3465962 C59.3148718,29.6342248 56.6748451,33.3298296 52.9453616,34.8789732 L52.9453616,42.2107158 C52.9453616,43.9753173 51.8963072,45.5057561 50.3914094,46.2015385 C48.8865116,45.5075207 47.8358762,43.9754937 47.8358762,42.2107158 L47.8358762,36.2560682 C47.8358762,35.5763437 47.4567972,34.946381 46.8463712,34.6529278 C43.3860022,32.9908497 40.9815385,29.4378247 40.9815385,25.3465962 L40.9815385,8.12461538 C40.9815385,8.12461538 59.3148718,8.12461538 59.3148718,8.12461538 Z" id="Shape" fill="#FFFFFF"></path>
                    <path d="M65.025641,5.39215115 L65.025641,7.59963529 C65.025641,8.1520593 64.9620019,8.69489837 64.8403493,9.22059516 C64.3025814,11.5537894 62.6186065,13.5271799 60.2789029,14.439592 L59.5904756,14.7081545 C59.156253,14.8777341 58.6930237,14.544289 58.7239642,14.0891889 C58.8257516,12.6245372 57.9845553,11.5596878 57.9845553,11.5596878 C57.296128,13.3214725 55.323316,13.8281838 54.1296435,13.9728794 C53.7100122,14.0243063 53.357536,13.6490192 53.4538736,13.2490325 C53.8335986,11.6623572 53.1796278,10.2015763 53.1796278,10.2015763 C50.6600822,13.2224896 45.8242142,14.6338712 42.1238293,15.289149 C39.8530388,15.6891356 38.011021,15.8091317 37.3915067,15.8377021 C37.2552628,15.8452595 37.1207768,15.8491303 36.9827749,15.8434162 C35.5566966,15.7787179 34,15.096713 34,13.5673629 L34,7.95409354 C34,5.29703911 35.411487,2.94651825 37.5405839,1.58084942 C38.7685372,0.792304234 40.2382135,0.333333333 41.8096772,0.333333333 L50.8200589,0.333333333 C53.7393706,0.333333333 56.2898567,1.94655153 57.5851409,4.30278648 C58.0610277,2.82854983 59.4798982,1.75429987 61.1403161,1.75429987 L61.296601,1.75429987 C63.3471159,1.75411554 65.025641,3.39037445 65.025641,5.39215115 Z" id="Shape" fill="#8181D3"></path>
                    <path d="M37.9608932,37.421777 L33.7688113,22.9489687 C33.6417623,22.5105232 33.7351227,22.0329818 34.0331236,21.6864741 C35.09539,20.4500434 35.710028,18.8940617 35.710028,17.2434642 L35.710028,15.1039001 C35.710028,13.1658851 33.9996142,11.580269 31.9091283,11.580269 L31.7512577,11.580269 C30.0566131,11.580269 28.6117658,12.6222912 28.1254313,14.04956 C26.8047661,11.7668226 24.2044711,10.2051282 21.2289424,10.2051282 L12.0455703,10.2051282 C7.6673051,10.2051282 4.085023,13.5259603 4.085023,17.5847948 L4.085023,20.8449301 L4.085023,22.9914565 C4.07642165,23.6125282 4.34485537,24.0907837 4.76560463,24.4428255 C5.19244651,24.8000443 5.34709157,25.3873757 5.19137134,25.9204369 L1.83397864,37.4215985 C0.92617807,40.5317768 2.36762058,43.8492171 5.27075461,45.3077268 C8.05203621,46.7051827 12.258812,48.036229 18.3792084,48.2820513 L21.5575856,48.2761601 C27.6009283,48.0158777 31.764339,46.6942929 34.5241172,45.3080838 C37.4272512,43.8492171 38.8686937,40.5319554 37.9608932,37.421777 Z" id="Shape" fill="#8181D3"></path>
                    <path d="M29.7692308,29.9487179 L29.7692308,37 C32.1057291,37 34,35.4216159 34,33.474359 C34,31.527102 32.1059391,29.9487179 29.7692308,29.9487179 Z" id="Shape" fill="#F9F4FA"></path>
                    <path d="M31.1794872,17.2564103 L31.1794872,34.2991822 C31.1794872,38.5421945 28.5085261,42.1993435 24.7353427,43.732367 L24.7353427,50.9878168 C24.7353427,52.7340561 23.673996,54.2485695 22.1514647,54.9371116 C21.5909343,55.1922372 20.9671354,55.3333333 20.3127687,55.3333333 L19.9726117,55.3333333 C17.5390852,55.3333333 15.5500376,53.377196 15.5500376,50.9878168 L15.5500376,43.9172938 C11.5204035,42.5119203 8.61538462,38.7238034 8.61538462,34.2995314 L8.61538462,17.2564103 L31.1794872,17.2564103 Z" id="Shape" fill="#B2C3F7"></path>
                    <path d="M31.1794872,16.5164103 L31.1794872,33.7383911 C31.1794872,38.0260197 28.5394605,41.7216245 24.809977,43.2707681 L24.809977,50.6025107 C24.809977,52.3671121 23.7609226,53.897551 22.2560248,54.5933333 C20.751127,53.8993156 19.7004916,52.3672886 19.7004916,50.6025107 L19.7004916,44.6478631 C19.7004916,43.9681386 19.3214126,43.3381759 18.7109866,43.0447227 C15.2506176,41.3826446 12.8461538,37.8296195 12.8461538,33.7383911 L12.8461538,16.5164103 C12.8461538,16.5164103 31.1794872,16.5164103 31.1794872,16.5164103 Z" id="Shape" fill="#FFFFFF"></path>
                    <path d="M35.4102564,15.263946 L35.4102564,17.4714302 C35.4102564,18.0238542 35.3466173,18.5666932 35.2249647,19.09239 C34.6871967,21.4255843 33.0032219,23.3989748 30.6635183,24.3113869 L29.9750909,24.5799493 C29.5408684,24.749529 29.0776391,24.4160838 29.1085796,23.9609838 C29.210367,22.4963321 28.3691707,21.4314827 28.3691707,21.4314827 C27.6807433,23.1932674 25.7079314,23.6999786 24.5142589,23.8446743 C24.0946276,23.8961011 23.7421514,23.5208141 23.838489,23.1208274 C24.218214,21.5341521 23.5642432,20.0733712 23.5642432,20.0733712 C21.0446976,23.0942845 16.2088296,24.5056661 12.5084447,25.1609438 C10.2376541,25.5609305 8.39563636,25.6809265 7.77612207,25.709497 C7.63987816,25.7170544 7.50539222,25.7209252 7.36739032,25.7152111 C5.94131203,25.6505128 4.38461538,24.9685078 4.38461538,23.4391578 L4.38461538,17.8258884 C4.38461538,15.168834 5.79610239,12.8183131 7.92519929,11.4526443 C9.15315255,10.6640991 10.6228289,10.2051282 12.1942926,10.2051282 L21.2046743,10.2051282 C24.123986,10.2051282 26.6744721,11.8183464 27.9697562,14.1745814 C28.4456431,12.7003447 29.8645136,11.6260947 31.5249314,11.6260947 L31.6812164,11.6260947 C33.7317313,11.6259104 35.4102564,13.2621693 35.4102564,15.263946 Z" id="Shape" fill="#8181D3"></path>
                    <path d="M35.4102564,14.782921 L35.4102564,16.7805033 C35.4102564,17.2803992 35.3454512,17.7716217 35.2215694,18.2473318 C34.8293367,18.4645039 34.409535,18.6506513 33.9655655,18.8041062 L33.2645234,19.047132 C32.8223442,19.2005869 32.3506267,18.8988479 32.3821342,18.4870217 C32.4838175,17.1616385 31.6291763,16.1980419 31.6291763,16.1980419 C30.9281342,17.7923047 28.9172033,18.2508346 27.7018369,18.3817717 C27.2763065,18.4283085 26.9175506,18.0887062 27.0154745,17.7267528 C27.4021575,16.2909488 26.7362034,14.9690684 26.7362034,14.9690684 C24.1704896,17.7027338 19.2460092,18.9799121 15.4778185,19.5728818 C13.165418,19.9348352 11.2896471,20.0434212 10.6587808,20.069275 C10.5200404,20.0761138 10.3830901,20.0796165 10.2425595,20.0744458 C8.79034975,20.0158994 7.20512821,19.3987439 7.20512821,18.0129795 L7.20512821,12.933456 C7.20512821,12.3836872 7.28103266,11.8475959 7.42156331,11.3340224 C8.67201757,10.6204572 10.1686242,10.2051282 11.7688835,10.2051282 L20.9443713,10.2051282 C23.9171764,10.2051282 26.5143977,11.6649512 27.8334166,13.7971401 C28.3180235,12.4630834 29.7628935,11.4909801 31.4537368,11.4909801 L31.6128855,11.4909801 C33.700974,11.4908133 35.4102564,12.9714861 35.4102564,14.782921 Z" id="Shape" fill="#B2C3F7"></path>
                </g>
            </g>
        </g>
    </g>
</svg>