<?xml version="1.0" encoding="utf-8"?>
<!-- Generator: Adobe Illustrator 16.0.0, SVG Export Plug-In . SVG Version: 6.00 Build 0)  -->
<!DOCTYPE svg PUBLIC "-//W3C//DTD SVG 1.1//EN" "http://www.w3.org/Graphics/SVG/1.1/DTD/svg11.dtd">
<svg version="1.1" id="Calque_1" xmlns="http://www.w3.org/2000/svg" xmlns:xlink="http://www.w3.org/1999/xlink" x="0px" y="0px"
	 width="873.088px" height="264.025px" viewBox="0 0 873.088 264.025" enable-background="new 0 0 873.088 264.025"
	 xml:space="preserve">
<title>cores</title>
<desc>Created with Sketch.</desc>
<g id="cores">
	<path id="Path" fill="#FFFFFF" d="M459.781,207c-4.32,0-7.88-1.494-10.681-4.481c-2.8-2.986-4.199-7.274-4.199-12.864V17.058
		c0-5.59,1.399-9.83,4.199-12.721C451.901,1.446,455.461,0,459.781,0c4.319,0,7.92,1.444,10.8,4.336
		c2.88,2.891,4.32,7.131,4.32,12.721v172.597c0,5.59-1.44,9.878-4.32,12.864C467.701,205.505,464.1,207,459.781,207z"/>
	<path id="Path_1_" fill="#FFFFFF" d="M553.545,206c-20.837,0-37.659-4.111-50.468-12.334c-6.117-3.633-9.177-8.796-9.177-15.489
		c0-3.823,1.053-6.932,3.154-9.321c2.103-2.391,4.685-3.586,7.742-3.586c3.25,0,7.742,1.529,13.477,4.59
		c6.118,2.867,11.709,5.066,16.775,6.598c5.065,1.529,11.518,2.294,19.354,2.294c8.028,0,14.289-1.338,18.781-4.016
		c4.493-2.678,6.739-6.405,6.739-11.188c0-3.251-0.908-5.832-2.725-7.744c-1.815-1.912-5.065-3.682-9.749-5.307
		c-4.685-1.625-11.806-3.49-21.363-5.594c-17.014-3.441-29.2-8.317-36.561-14.628c-7.359-6.312-11.039-15.013-11.039-26.104
		c0-8.414,2.484-16.015,7.455-22.804c4.971-6.788,11.805-12.047,20.503-15.775c8.697-3.729,18.591-5.594,29.679-5.594
		c8.028,0,15.771,1.004,23.226,3.012c7.456,2.008,14.146,4.924,20.072,8.749c6.118,3.824,9.177,8.893,9.177,15.202
		c0,3.824-1.052,7.027-3.153,9.608c-2.104,2.582-4.685,3.873-7.742,3.873c-2.104,0-4.158-0.432-6.165-1.291
		c-2.008-0.86-4.54-2.151-7.6-3.872c-5.544-2.869-10.322-5.021-14.338-6.454c-4.015-1.435-8.983-2.151-14.91-2.151
		c-7.073,0-12.664,1.436-16.774,4.303c-4.11,2.868-6.165,6.788-6.165,11.761c0,4.78,2.104,8.414,6.309,10.899
		s12.33,4.973,24.373,7.458c12.81,2.678,22.846,5.736,30.108,9.18c7.265,3.44,12.474,7.743,15.628,12.906s4.732,11.762,4.732,19.793
		c0,13.003-5.4,23.426-16.201,31.266C585.898,202.08,571.513,206,553.545,206z"/>
	<path id="Path_2_" fill="#FFFFFF" d="M648.781,208c-4.32,0-7.88-1.483-10.681-4.45c-2.8-2.968-4.199-7.227-4.199-12.776V79.941
		c0-5.552,1.399-9.764,4.199-12.635c2.801-2.871,6.36-4.306,10.681-4.306c4.319,0,7.92,1.436,10.8,4.307s4.32,7.083,4.32,12.634
		v110.831c0,5.552-1.44,9.811-4.32,12.777C656.701,206.517,653.1,208,648.781,208z"/>
	<path id="Path_3_" fill="#FFFFFF" d="M648.901,30c-4.596,0-8.243-1.391-10.946-4.173c-2.702-2.782-4.054-6.429-4.054-10.94
		c0-4.511,1.352-8.12,4.054-10.827C640.658,1.353,644.306,0,648.901,0c4.459,0,8.073,1.354,10.845,4.06
		c2.771,2.707,4.155,6.316,4.155,10.827c0,4.513-1.353,8.158-4.055,10.94C657.143,28.61,653.496,30,648.901,30z"/>
	<path id="Combined-Shape" fill="#FFFFFF" d="M803.836,166.27c3.256,0,5.889,1.242,7.899,3.729
		c2.012,2.486,3.017,5.832,3.017,10.039c0,5.928-3.543,10.9-10.629,14.916c-6.513,3.633-13.886,6.549-22.121,8.748
		S765.915,207,758.445,207c-22.601,0-40.508-6.502-53.723-19.505s-19.821-30.787-19.821-53.352c0-14.342,2.872-27.059,8.617-38.148
		c5.746-11.091,13.838-19.696,24.275-25.815s22.265-9.179,35.479-9.179c12.642,0,23.652,2.772,33.037,8.318
		c9.386,5.546,16.662,13.386,21.833,23.521s7.759,22.086,7.759,35.854c0,8.223-3.64,12.334-10.918,12.334h-84.746
		c1.147,13.193,4.883,22.898,11.202,29.113c6.32,6.216,15.515,9.322,27.579,9.322c6.129,0,11.539-0.765,16.231-2.295
		s10.007-3.633,15.944-6.311C796.939,167.799,801.154,166.27,803.836,166.27z M754.135,86.241c-9.768,0-17.571,3.06-23.413,9.18
		c-5.842,6.119-9.337,14.915-10.484,26.389h64.925c-0.383-11.665-3.256-20.509-8.618-26.531
		C771.181,89.255,763.712,86.241,754.135,86.241z"/>
	<path id="Path-Copy-8" fill="#FFFFFF" d="M79.9,15.103c0,4.315,1.481,7.871,4.444,10.669c2.962,2.797,7.215,4.194,12.759,4.194
		h24.744c5.543,0,9.748-1.397,12.615-4.194c2.867-2.798,4.301-6.354,4.301-10.669c0-4.314-1.434-7.911-4.301-10.788
		C131.595,1.439,127.39,0,121.847,0H97.103c-5.543,0-9.796,1.438-12.759,4.314S79.9,10.788,79.9,15.103z"/>
	<path id="Path-Copy-4" fill="#FFFFFF" d="M55.026,59.082c0,4.59-1.387,8.233-4.161,10.934c-2.773,2.699-6.409,4.05-10.907,4.05
		c-4.499,0-8.098-1.351-10.796-4.05c-2.699-2.699-4.049-6.344-4.049-10.934c0-4.454,1.351-8.065,4.049-10.832
		c2.698-2.768,6.297-4.15,10.796-4.15c4.498,0,8.134,1.351,10.907,4.05C53.639,50.849,55.026,54.492,55.026,59.082z"/>
	<path id="Path-Copy-3" fill="#FFFFFF" d="M210.048,60.103c0,4.315-1.48,7.871-4.444,10.669c-2.963,2.797-7.216,4.194-12.759,4.194
		H86.817c-5.543,0-9.749-1.397-12.616-4.194c-2.866-2.798-4.301-6.354-4.301-10.669c0-4.314,1.435-7.91,4.301-10.786
		c2.867-2.877,7.072-4.315,12.616-4.315h106.028c5.543,0,9.796,1.438,12.759,4.315C208.566,52.192,210.048,55.787,210.048,60.103z"
		/>
	<path id="Path-Copy" fill="#FFFFFF" d="M89.712,105.246c0,4.313-1.492,7.871-4.477,10.668c-2.982,2.797-7.267,4.195-12.849,4.195
		H17.036c-5.583,0-9.817-1.398-12.705-4.195C1.442,113.117,0,109.56,0,105.246c0-4.315,1.442-7.911,4.331-10.788
		c2.887-2.876,7.122-4.314,12.705-4.314h55.351c5.583,0,9.866,1.438,12.849,4.314C88.219,97.335,89.712,100.931,89.712,105.246z"/>
	<path id="Path-Copy-15" fill="#FFFFFF" d="M103.9,105.104c0,4.314,1.481,7.87,4.444,10.668c2.962,2.797,7.215,4.194,12.759,4.194
		h24.744c5.543,0,9.748-1.397,12.615-4.194c2.867-2.798,4.301-6.354,4.301-10.668c0-4.315-1.434-7.911-4.301-10.787
		c-2.867-2.877-7.072-4.315-12.615-4.315h-24.744c-5.543,0-9.796,1.438-12.759,4.315C105.382,97.192,103.9,100.787,103.9,105.104z"
		/>
	<path id="Path-Copy-14" fill="#FFFFFF" d="M176.9,105.104c0,4.314,1.481,7.87,4.444,10.668c2.962,2.797,7.215,4.194,12.759,4.194
		h24.743c5.544,0,9.749-1.397,12.616-4.194c2.867-2.798,4.301-6.354,4.301-10.668c0-4.315-1.434-7.911-4.301-10.787
		c-2.867-2.877-7.072-4.315-12.616-4.315h-24.743c-5.543,0-9.796,1.438-12.759,4.315C178.382,97.192,176.9,100.787,176.9,105.104z"
		/>
	<path id="Path-Copy-6" fill="#FFFFFF" d="M166.048,149.104c0,4.314-1.481,7.87-4.444,10.668c-2.963,2.797-7.216,4.194-12.759,4.194
		H42.817c-5.543,0-9.749-1.397-12.616-4.194c-2.866-2.798-4.301-6.354-4.301-10.668c0-4.315,1.435-7.911,4.301-10.787
		c2.867-2.877,7.072-4.315,12.616-4.315h106.028c5.543,0,9.796,1.438,12.759,4.315C164.566,141.192,166.048,144.787,166.048,149.104
		z"/>
	<path id="Path-Copy-7" fill="#FFFFFF" d="M210.904,149.656c0,4.589-1.388,8.232-4.16,10.933c-2.774,2.7-6.41,4.05-10.908,4.05
		s-8.098-1.35-10.795-4.05c-2.699-2.699-4.049-6.344-4.049-10.933c0-4.455,1.35-8.065,4.049-10.832
		c2.698-2.769,6.297-4.151,10.795-4.151s8.134,1.351,10.908,4.05C209.516,141.422,210.904,145.067,210.904,149.656z"/>
	<path id="Combined-Shape_1_" fill="#FFFFFF" d="M124.9,194.104c0,4.314,1.481,7.87,4.444,10.668
		c2.962,2.797,7.215,4.194,12.759,4.194h24.744c5.543,0,9.748-1.397,12.615-4.194c2.867-2.798,4.301-6.354,4.301-10.668
		c0-4.315-1.434-7.911-4.301-10.787c-2.867-2.877-7.072-4.315-12.615-4.315h-24.744c-5.543,0-9.796,1.438-12.759,4.315
		C126.382,186.192,124.9,189.787,124.9,194.104z"/>
	<path id="Path_4_" fill="#FFFFFF" d="M308.704,207.049c-5.552,0-9.906-1.565-13.064-4.699c-3.159-3.133-4.737-7.537-4.737-13.216
		V17.915c0-5.679,1.578-10.083,4.737-13.216C298.798,1.566,303.153,0,308.704,0h96.682c5.552,0,9.858,1.271,12.921,3.817
		c3.063,2.545,4.595,6.167,4.595,10.867c0,4.896-1.53,8.663-4.595,11.308c-3.062,2.644-7.369,3.965-12.921,3.965h-85.282v56.975
		h64.133c5.552,0,9.857,1.272,12.922,3.818c3.062,2.545,4.594,6.265,4.594,11.16c0,4.699-1.531,8.321-4.594,10.866
		c-3.063,2.545-7.37,3.817-12.922,3.817h-64.133v60.499h85.282c5.552,0,9.858,1.321,12.921,3.965
		c3.063,2.644,4.595,6.412,4.595,11.308c0,4.699-1.53,8.32-4.595,10.866c-3.062,2.545-7.369,3.817-12.921,3.817H308.704
		L308.704,207.049z"/>
</g>
</svg>
