<?xml version="1.0" encoding="utf-8"?>
<!-- Generator: Adobe Illustrator 16.0.0, SVG Export Plug-In . SVG Version: 6.00 Build 0)  -->
<!DOCTYPE svg PUBLIC "-//W3C//DTD SVG 1.1//EN" "http://www.w3.org/Graphics/SVG/1.1/DTD/svg11.dtd">
<svg version="1.1" id="Calque_1" xmlns="http://www.w3.org/2000/svg" xmlns:xlink="http://www.w3.org/1999/xlink" x="0px" y="0px"
	 width="873.087px" height="264.026px" viewBox="67.275 376.306 873.087 264.026"
	 enable-background="new 67.275 376.306 873.087 264.026" xml:space="preserve">
<title>cores</title>
<desc>Created with Sketch.</desc>
<g id="cores">
	<path id="Path" fill="#523B85" d="M563.88,615c-4.32,0-7.88-1.494-10.68-4.481s-4.2-7.275-4.2-12.865V425.058
		c0-5.59,1.4-9.83,4.2-12.721S559.56,408,563.88,408s7.92,1.445,10.8,4.336s4.32,7.131,4.32,12.721v172.596
		c0,5.59-1.44,9.878-4.32,12.865S568.2,615,563.88,615z"/>
	<path id="Path_1_" fill="#523B85" d="M657.644,614c-20.837,0-37.659-4.111-50.468-12.334c-6.117-3.633-9.176-8.796-9.176-15.489
		c0-3.824,1.052-6.932,3.154-9.322s4.684-3.585,7.742-3.585c3.25,0,7.742,1.529,13.477,4.589c6.118,2.868,11.709,5.067,16.775,6.598
		c5.065,1.529,11.518,2.294,19.355,2.294c8.028,0,14.289-1.338,18.781-4.016c4.493-2.677,6.739-6.405,6.739-11.187
		c0-3.251-0.908-5.832-2.725-7.744c-1.815-1.912-5.065-3.682-9.749-5.307s-11.805-3.49-21.363-5.594
		c-17.014-3.441-29.2-8.317-36.56-14.628c-7.36-6.311-11.04-15.012-11.04-26.103c0-8.414,2.485-16.015,7.455-22.804
		c4.971-6.788,11.805-12.047,20.503-15.775c8.698-3.729,18.591-5.594,29.679-5.594c8.028,0,15.771,1.004,23.226,3.012
		c7.456,2.008,14.146,4.924,20.072,8.749c6.118,3.824,9.177,8.892,9.177,15.202c0,3.824-1.052,7.027-3.154,9.608
		c-2.104,2.582-4.684,3.873-7.742,3.873c-2.104,0-4.158-0.431-6.165-1.291c-2.008-0.86-4.54-2.151-7.599-3.872
		c-5.544-2.869-10.323-5.02-14.338-6.454s-8.984-2.151-14.911-2.151c-7.073,0-12.664,1.435-16.774,4.303s-6.165,6.788-6.165,11.76
		c0,4.781,2.103,8.414,6.309,10.9c4.205,2.485,12.33,4.972,24.373,7.458c12.809,2.677,22.845,5.736,30.108,9.179
		c7.265,3.441,12.474,7.744,15.628,12.907S717,562.943,717,570.975c0,13.003-5.4,23.425-16.201,31.265
		C689.998,610.08,675.613,614,657.644,614z"/>
	<path id="Path_2_" fill="#523B85" d="M752.88,616c-4.32,0-7.88-1.483-10.68-4.45c-2.8-2.968-4.2-7.227-4.2-12.777V487.94
		c0-5.551,1.4-9.763,4.2-12.634S748.56,471,752.88,471s7.92,1.436,10.8,4.307S768,482.39,768,487.94v110.832
		c0,5.551-1.44,9.81-4.32,12.777C760.8,614.517,757.2,616,752.88,616z"/>
	<path id="Path_3_" fill="#523B85" d="M753,438c-4.595,0-8.243-1.391-10.946-4.173c-2.702-2.782-4.054-6.429-4.054-10.94
		c0-4.511,1.352-8.12,4.054-10.827c2.703-2.707,6.352-4.06,10.946-4.06c4.459,0,8.074,1.354,10.845,4.06
		c2.771,2.707,4.155,6.316,4.155,10.827c0,4.512-1.352,8.158-4.054,10.94C761.243,436.609,757.595,438,753,438z"/>
	<path id="Combined-Shape" fill="#523B85" d="M907.935,574.27c3.256,0,5.889,1.242,7.899,3.729
		c2.012,2.486,3.017,5.832,3.017,10.039c0,5.928-3.543,10.9-10.629,14.916c-6.512,3.633-13.886,6.549-22.121,8.748
		S870.014,615,862.544,615c-22.6,0-40.507-6.502-53.722-19.505S789,564.708,789,542.144c0-14.342,2.873-27.059,8.618-38.149
		c5.746-11.091,13.838-19.696,24.275-25.815c10.438-6.119,22.265-9.179,35.479-9.179c12.641,0,23.652,2.772,33.037,8.318
		s16.662,13.386,21.833,23.521S920,522.926,920,536.693c0,8.223-3.639,12.334-10.917,12.334h-84.747
		c1.148,13.194,4.883,22.899,11.203,29.114s15.514,9.322,27.579,9.322c6.129,0,11.539-0.765,16.231-2.295s10.007-3.633,15.944-6.311
		C901.039,575.799,905.253,574.27,907.935,574.27z M858.234,494.241c-9.768,0-17.571,3.06-23.413,9.18
		c-5.842,6.119-9.337,14.915-10.485,26.389h64.925c-0.383-11.665-3.256-20.509-8.618-26.532S867.811,494.241,858.234,494.241z"/>
	<path id="Path-Copy-8" fill="#D587D0" d="M184,423.103c0,4.315,1.481,7.871,4.444,10.668c2.962,2.797,7.215,4.195,12.759,4.195
		h24.744c5.543,0,9.748-1.398,12.615-4.195s4.301-6.353,4.301-10.668c0-4.315-1.434-7.911-4.301-10.788
		c-2.867-2.876-7.072-4.315-12.615-4.315h-24.744c-5.543,0-9.796,1.438-12.759,4.315C185.481,415.192,184,418.788,184,423.103z"/>
	<path id="Path-Copy-4" fill="#DBA1D7" d="M159.126,467.082c0,4.59-1.387,8.233-4.161,10.934c-2.774,2.699-6.41,4.049-10.908,4.049
		c-4.499,0-8.097-1.35-10.796-4.049c-2.699-2.7-4.048-6.344-4.048-10.934c0-4.454,1.35-8.065,4.048-10.832
		c2.699-2.768,6.297-4.15,10.796-4.15c4.498,0,8.134,1.35,10.908,4.049C157.739,458.849,159.126,462.492,159.126,467.082z"/>
	<path id="Path-Copy-3" fill="#A26AB5" d="M314.147,468.103c0,4.315-1.481,7.871-4.444,10.668s-7.216,4.195-12.759,4.195H190.917
		c-5.543,0-9.749-1.398-12.616-4.195S174,472.418,174,468.103s1.434-7.911,4.301-10.787c2.867-2.877,7.072-4.315,12.616-4.315
		h106.028c5.543,0,9.796,1.438,12.759,4.315C312.666,460.191,314.147,463.787,314.147,468.103z"/>
	<path id="Path-Copy" fill="#E5D4F9" d="M193.811,513.246c0,4.314-1.492,7.871-4.476,10.668c-2.983,2.797-7.267,4.195-12.849,4.195
		h-55.351c-5.583,0-9.817-1.398-12.705-4.195c-2.888-2.797-4.331-6.354-4.331-10.668c0-4.315,1.443-7.911,4.331-10.788
		c2.887-2.876,7.122-4.314,12.705-4.314h55.351c5.583,0,9.866,1.438,12.849,4.314C192.319,505.335,193.811,508.931,193.811,513.246z
		"/>
	<path id="Path-Copy-15" fill="#9676CC" d="M208,513.103c0,4.315,1.481,7.871,4.444,10.668c2.962,2.797,7.215,4.195,12.759,4.195
		h24.744c5.543,0,9.748-1.398,12.615-4.195s4.301-6.353,4.301-10.668s-1.434-7.911-4.301-10.787
		c-2.867-2.877-7.072-4.315-12.615-4.315h-24.744c-5.543,0-9.796,1.438-12.759,4.315C209.481,505.191,208,508.787,208,513.103z"/>
	<path id="Path-Copy-14" fill="#7F6AAE" d="M281,513.103c0,4.315,1.481,7.871,4.444,10.668c2.962,2.797,7.215,4.195,12.759,4.195
		h24.743c5.544,0,9.749-1.398,12.616-4.195s4.301-6.353,4.301-10.668s-1.434-7.911-4.301-10.787
		c-2.867-2.877-7.072-4.315-12.616-4.315h-24.743c-5.543,0-9.796,1.438-12.759,4.315C282.481,505.191,281,508.787,281,513.103z"/>
	<path id="Path-Copy-6" fill="#D4C0F2" d="M270.147,557.103c0,4.315-1.481,7.871-4.444,10.668s-7.216,4.195-12.759,4.195H146.917
		c-5.543,0-9.749-1.398-12.616-4.195S130,561.418,130,557.103s1.434-7.911,4.301-10.787c2.867-2.877,7.072-4.315,12.616-4.315
		h106.028c5.543,0,9.796,1.438,12.759,4.315C268.666,549.191,270.147,552.787,270.147,557.103z"/>
	<path id="Path-Copy-7" fill="#D587D0" d="M315.003,557.656c0,4.589-1.387,8.233-4.16,10.933c-2.774,2.7-6.41,4.05-10.908,4.05
		s-8.097-1.35-10.795-4.05c-2.699-2.699-4.048-6.344-4.048-10.933c0-4.455,1.349-8.065,4.048-10.832
		c2.699-2.768,6.297-4.151,10.795-4.151s8.134,1.35,10.908,4.05C313.616,549.422,315.003,553.066,315.003,557.656z"/>
	<path id="Combined-Shape_1_" fill="#8064BC" d="M229,602.103c0,4.315,1.481,7.871,4.444,10.668
		c2.962,2.797,7.215,4.195,12.759,4.195h24.744c5.543,0,9.748-1.398,12.615-4.195s4.301-6.353,4.301-10.668
		s-1.434-7.911-4.301-10.787c-2.867-2.877-7.072-4.315-12.615-4.315h-24.744c-5.543,0-9.796,1.438-12.759,4.315
		C230.481,594.191,229,597.787,229,602.103z"/>
	<path id="Path_4_" fill="#523B85" d="M412.803,615.049c-5.552,0-9.906-1.566-13.064-4.699c-3.159-3.133-4.738-7.538-4.738-13.216
		V425.915c0-5.678,1.579-10.083,4.738-13.216c3.158-3.133,7.513-4.699,13.064-4.699h96.682c5.552,0,9.858,1.272,12.921,3.818
		c3.063,2.545,4.595,6.167,4.595,10.867c0,4.895-1.531,8.663-4.595,11.307c-3.062,2.644-7.369,3.965-12.921,3.965h-85.282v56.975
		h64.132c5.552,0,9.858,1.272,12.922,3.818c3.062,2.545,4.594,6.265,4.594,11.16c0,4.699-1.531,8.321-4.594,10.866
		c-3.063,2.545-7.37,3.818-12.922,3.818h-64.132v60.499h85.282c5.552,0,9.858,1.321,12.921,3.965
		c3.063,2.643,4.595,6.412,4.595,11.307c0,4.699-1.531,8.321-4.595,10.866c-3.062,2.545-7.369,3.818-12.921,3.818H412.803z"/>
</g>
</svg>
