<?xml version="1.0" encoding="UTF-8"?>
<svg width="600px" height="600px" viewBox="0 0 600 600" version="1.1" xmlns="http://www.w3.org/2000/svg" xmlns:xlink="http://www.w3.org/1999/xlink">
    <!-- Generator: Sketch 49.3 (51167) - http://www.bohemiancoding.com/sketch -->
    <title>Health Units</title>
    <desc>Created with Sketch.</desc>
    <defs>
        <linearGradient x1="43.6892989%" y1="8.40166749%" x2="58.8668333%" y2="100%" id="linearGradient-1">
            <stop stop-color="#FFFCFF" offset="0%"></stop>
            <stop stop-color="#F3E9FF" offset="100%"></stop>
        </linearGradient>
        <rect id="path-2" x="0.2625" y="0" width="98.5900217" height="98.8495016" rx="12"></rect>
        <filter x="-35.5%" y="-25.3%" width="171.0%" height="170.8%" filterUnits="objectBoundingBox" id="filter-3">
            <feOffset dx="0" dy="10" in="SourceAlpha" result="shadowOffsetOuter1"></feOffset>
            <feGaussianBlur stdDeviation="10" in="shadowOffsetOuter1" result="shadowBlurOuter1"></feGaussianBlur>
            <feColorMatrix values="0 0 0 0 0.321568627   0 0 0 0 0.231372549   0 0 0 0 0.521568627  0 0 0 0.251019022 0" type="matrix" in="shadowBlurOuter1"></feColorMatrix>
        </filter>
        <linearGradient x1="47.605684%" y1="32.037545%" x2="58.8668333%" y2="100%" id="linearGradient-4">
            <stop stop-color="#FFFCFF" offset="0%"></stop>
            <stop stop-color="#F3E9FF" offset="100%"></stop>
        </linearGradient>
        <rect id="path-5" x="0" y="0" width="145.671041" height="145.671041" rx="12"></rect>
        <filter x="-24.0%" y="-17.2%" width="148.1%" height="148.1%" filterUnits="objectBoundingBox" id="filter-6">
            <feOffset dx="0" dy="10" in="SourceAlpha" result="shadowOffsetOuter1"></feOffset>
            <feGaussianBlur stdDeviation="10" in="shadowOffsetOuter1" result="shadowBlurOuter1"></feGaussianBlur>
            <feColorMatrix values="0 0 0 0 0.321568627   0 0 0 0 0.231372549   0 0 0 0 0.521568627  0 0 0 0.2674649 0" type="matrix" in="shadowBlurOuter1"></feColorMatrix>
        </filter>
    </defs>
    <g id="Health-Units" stroke="none" stroke-width="1" fill="none" fill-rule="evenodd">
        <g id="Group-3" transform="translate(70.000000, 100.000000)">
            <g id="Group-37-Copy" transform="translate(363.000000, 24.000000)">
                <path d="M97.3347714,48.6322188 C97.3347714,63.5286486 92.8218008,75.357989 83.7957242,84.1205948 C74.7696477,92.8832005 62.9383464,97.2644377 48.3014655,97.2644377 C33.6645846,97.2644377 21.9552555,92.8832005 13.173127,84.1205948 C4.39099841,75.357989 -5.03970605e-15,63.5286486 -4.1275628e-15,48.6322188 C-3.24224729e-15,34.1739193 4.39099841,22.4541099 13.173127,13.472439 C21.9552555,4.49076809 33.6645846,1.42108547e-14 48.3014655,1.42108547e-14 C62.9383464,1.42108547e-14 74.7696477,4.38123716 83.7957242,13.1438429 C92.8218008,21.9064487 97.3347714,33.735789 97.3347714,48.6322188 Z" id="Path-Copy-17" fill="#A083D0" opacity="0.825577446"></path>
                <g id="Group-8" transform="translate(24.316109, 19.452888)" fill-rule="nonzero">
                    <path d="M45.8763931,50.2532928 L35.6636272,50.2532928 L35.6636272,17.8318136 L48.7943262,17.8318136 C49.6000648,17.8318136 50.2532928,18.4896464 50.2532928,19.3010649 L50.2532928,45.8455388 C50.2532928,48.2798924 48.2937062,50.2532928 45.8763931,50.2532928 Z" id="Shape" fill="#8064BC"></path>
                    <path d="M45.3900709,50.2532928 L7.28962595,50.2532928 C3.26575243,50.2532928 0,46.9554205 0,42.8919706 L0,1.47226444 C0,0.647698202 0.641389889,0 1.45792519,0 L39.5583702,0 C40.3749055,0 41.0162954,0.647698202 41.0162954,1.47226444 L41.0162954,45.8364995 C41.0162954,48.2803603 42.9698179,50.2532928 45.3900709,50.2532928 Z" id="Shape" fill="#FFFFFF"></path>
                    <path d="M45.3900709,50.2532928 L21.0739615,50.2532928 L21.0739615,0 L39.6909828,0 C40.4889501,0 41.1157548,0.647698202 41.1157548,1.47226444 L41.1157548,45.8364995 C41.1157548,48.2803603 43.0248544,50.2532928 45.3900709,50.2532928 Z" id="Shape" fill="#D3C0F0"></path>
                    <path d="M11.7953282,25.9371834 C7.58358551,25.9371834 4.0526849,29.7668761 4.0526849,34.4478217 L4.0526849,35.8662614 C4.0526849,36.6606822 4.61415417,37.2847011 5.32894479,37.2847011 L18.1766277,37.2847011 C18.8914183,37.2847011 19.4528875,36.6606822 19.4528875,35.8662614 L19.4528875,34.4478217 C19.4528875,29.7668761 16.0070709,25.9371834 11.7953282,25.9371834 Z" id="Shape" fill="#AE93DD"></path>
                    <path d="M20.2634245,34.4478217 L20.2634245,35.8662614 C20.2634245,36.6606822 19.6691208,37.2847011 18.9125296,37.2847011 L12.1580547,37.2847011 L12.1580547,25.9371834 C16.6160982,25.9371834 20.2634245,29.7668761 20.2634245,34.4478217 Z" id="Shape" fill="#8064BC"></path>
                    <path d="M11.3944083,17.8318136 C8.29972452,17.8318136 5.67375887,20.3850996 5.67375887,23.5055724 C5.67375887,26.6260453 8.29972452,29.1793313 11.3944083,29.1793313 C14.4890921,29.1793313 17.0212766,26.6260453 17.0212766,23.5055724 C17.0212766,20.3850996 14.4890921,17.8318136 11.3944083,17.8318136 Z" id="Shape" fill="#AE93DD"></path>
                    <path d="M18.6423506,23.5055724 C18.6423506,26.6260453 15.7243094,29.1793313 12.1580547,29.1793313 L12.1580547,17.8318136 C15.7243094,17.8318136 18.6423506,20.3850996 18.6423506,23.5055724 Z" id="Shape" fill="#8064BC"></path>
                    <path d="M34.2143226,6.48429585 L7.93360038,6.48429585 C7.12189322,6.48429585 6.48429585,7.18962335 6.48429585,8.08755581 L6.48429585,14.6074797 C6.48429585,15.5051983 7.12189322,16.2107396 7.93360038,16.2107396 L34.2143226,16.2107396 C35.0260298,16.2107396 35.6636272,15.5051983 35.6636272,14.6074797 L35.6636272,8.08755581 C35.6636272,7.18962335 35.0260298,6.48429585 34.2143226,6.48429585 Z" id="Shape" fill="#AE93DD"></path>
                    <path d="M35.6636272,8.08755581 L35.6636272,14.6074797 C35.6636272,15.5051983 35.0260298,16.2107396 34.2143226,16.2107396 L21.0739615,16.2107396 L21.0739615,6.48429585 L34.2143226,6.48429585 C35.0260298,6.48429585 35.6636272,7.18962335 35.6636272,8.08755581 Z" id="Shape" fill="#8064BC"></path>
                    <path d="M36.142134,26.3796045 L28.3727949,26.3796045 C27.9229656,26.3796045 27.5582573,25.9176408 27.5582573,25.347857 C27.5582573,24.7780732 27.9229656,24.3161094 28.3727949,24.3161094 L36.142134,24.3161094 C36.5919633,24.3161094 36.9566715,24.7780732 36.9566715,25.347857 C36.9566715,25.9176408 36.5919633,26.3796045 36.142134,26.3796045 Z" id="Shape" fill="#FFFFFF" transform="translate(32.257464, 25.347857) scale(-1, 1) translate(-32.257464, -25.347857) "></path>
                    <path d="M35.8061998,21.5163827 L25.130647,21.5163827 C24.6808176,21.5163827 24.3161094,21.0544189 24.3161094,20.4846351 C24.3161094,19.9148513 24.6808176,19.4528875 25.130647,19.4528875 L35.8061998,19.4528875 C36.2560291,19.4528875 36.6207374,19.9148513 36.6207374,20.4846351 C36.6207374,21.0544189 36.2560291,21.5163827 35.8061998,21.5163827 Z" id="Shape" fill="#FFFFFF" transform="translate(30.468423, 20.484635) scale(-1, 1) translate(-30.468423, -20.484635) "></path>
                    <path d="M36.142134,36.1060483 L28.3727949,36.1060483 C27.9229656,36.1060483 27.5582573,35.6440846 27.5582573,35.0743007 C27.5582573,34.5045169 27.9229656,34.0425532 28.3727949,34.0425532 L36.142134,34.0425532 C36.5919633,34.0425532 36.9566715,34.5045169 36.9566715,35.0743007 C36.9566715,35.6440846 36.5919633,36.1060483 36.142134,36.1060483 Z" id="Shape-Copy" fill="#FFFFFF" transform="translate(32.257464, 35.074301) scale(-1, 1) translate(-32.257464, -35.074301) "></path>
                    <path d="M35.8061998,31.2428264 L25.130647,31.2428264 C24.6808176,31.2428264 24.3161094,30.7808627 24.3161094,30.2110789 C24.3161094,29.6412951 24.6808176,29.1793313 25.130647,29.1793313 L35.8061998,29.1793313 C36.2560291,29.1793313 36.6207374,29.6412951 36.6207374,30.2110789 C36.6207374,30.7808627 36.2560291,31.2428264 35.8061998,31.2428264 Z" id="Shape-Copy-2" fill="#FFFFFF" transform="translate(30.468423, 30.211079) scale(-1, 1) translate(-30.468423, -30.211079) "></path>
                </g>
            </g>
            <g id="Group-33-Copy-3" transform="translate(363.000000, 218.000000)">
                <path d="M97.3347714,48.6322188 C97.3347714,63.5286486 92.8218008,75.357989 83.7957242,84.1205948 C74.7696477,92.8832005 62.9383464,97.2644377 48.3014655,97.2644377 C33.6645846,97.2644377 21.9552555,92.8832005 13.173127,84.1205948 C4.39099841,75.357989 -5.03970605e-15,63.5286486 -4.1275628e-15,48.6322188 C-3.24224729e-15,34.1739193 4.39099841,22.4541099 13.173127,13.472439 C21.9552555,4.49076809 33.6645846,0 48.3014655,0 C62.9383464,0 74.7696477,4.38123716 83.7957242,13.1438429 C92.8218008,21.9064487 97.3347714,33.735789 97.3347714,48.6322188 Z" id="Path-Copy-14" fill="#A083D0" opacity="0.825577446"></path>
                <g id="Group-9" transform="translate(14.589666, 25.937183)" fill-rule="nonzero">
                    <rect id="Rectangle-path" fill="#FFFFFF" x="0" y="25.9371834" width="67.2511784" height="19.5639765" rx="2"></rect>
                    <path d="M40.452675,39.730325 L19.0546255,39.730325 C18.3793262,39.730325 17.8318136,39.1828124 17.8318136,38.507513 C17.8318136,37.8322137 18.3793262,37.2847011 19.0546255,37.2847011 L40.452675,37.2847011 C41.1279743,37.2847011 41.6754869,37.8322137 41.6754869,38.507513 C41.6754869,39.1828124 41.1279743,39.730325 40.452675,39.730325 Z" id="Shape" fill="#D4C0F2"></path>
                    <path d="M61.8508694,33.2460291 L19.0546255,33.2460291 C18.3793262,33.2460291 17.8318136,32.6985165 17.8318136,32.0232172 C17.8318136,31.3479179 18.3793262,30.8004053 19.0546255,30.8004053 L61.8508694,30.8004053 C62.5261687,30.8004053 63.0736813,31.3479179 63.0736813,32.0232172 C63.0735365,32.6985165 62.5261687,33.2460291 61.8508694,33.2460291 Z" id="Shape" fill="#D4C0F2"></path>
                    <path d="M66.5937087,2 L66.5937087,17.5639765 C66.5937087,18.668546 65.6982782,19.5639765 64.5937087,19.5639765 L47.0297322,19.5639765 L43.768997,9.78191582 L47.0297322,0 L64.5937087,0 C65.6982782,-2.02906125e-16 66.5937087,0.8954305 66.5937087,2 Z" id="Shape" fill="#8064BC"></path>
                    <polygon id="Shape" fill="#D4C0F2" points="47.0574682 0 47.0574682 19.5639765 42.1665103 19.5639765 38.9057751 9.78191582 42.1665103 0"></polygon>
                    <path d="M63.4305793,13.0693276 L60.0878404,9.72644377 L58.3586626,11.4559113 L61.7014015,14.7986502 C61.9400237,15.0372724 62.2531157,15.1568008 62.565918,15.1568008 C62.8787202,15.1568008 63.1918122,15.0374173 63.4304344,14.7986502 C63.9081134,14.3211161 63.9081134,13.5467168 63.4305793,13.0693276 Z" id="Shape" fill="#FFFFFF"></path>
                    <path d="M56.8668514,13.2318259 C55.5326245,13.2318259 54.278373,12.7122757 53.3348954,11.768798 C51.3875239,9.8214266 51.3875239,6.65269207 53.3348954,4.70503086 C54.278373,3.76155322 55.5326245,3.24214792 56.8668514,3.24214792 C58.2009334,3.24214792 59.4553298,3.76169811 60.3986625,4.70503086 C61.3421402,5.64850849 61.8616904,6.90276 61.8616904,8.23698689 C61.8616904,9.57121378 61.3421402,10.8254653 60.3986625,11.768798 C59.4553298,12.7121308 58.2009334,13.2318259 56.8668514,13.2318259 Z M56.8668514,5.68777176 C56.1859016,5.68777176 55.545664,5.95290752 55.064218,6.43449838 C54.0703211,7.42854015 54.0701762,9.04586828 55.064218,10.0397652 C55.5458088,10.521356 56.1859016,10.7864918 56.8668514,10.7864918 C57.5478012,10.7864918 58.1878939,10.521356 58.6694848,10.0397652 C59.1510756,9.55817432 59.4162114,8.91808154 59.4162114,8.23713178 C59.4162114,7.55618201 59.1510756,6.91594435 58.6694848,6.43449838 C58.1878939,5.95290752 57.5476563,5.68777176 56.8668514,5.68777176 Z" id="Shape" fill="#FFFFFF"></path>
                    <polygon id="Shape" fill="#9676CC" points="14.6266953 30.8004053 14.6266953 40.5823211 11.3659601 40.5823211 8.10536981 35.6913632 11.3659601 30.8004053"></polygon>
                    <rect id="Rectangle-path" fill="#8064BC" x="4.86322188" y="30.8004053" width="6.52132551" height="9.78191582"></rect>
                    <path d="M2,0 L42.7962439,0 L42.7962439,19.5639765 L2,19.5639765 C0.8954305,19.5639765 1.3527075e-16,18.668546 0,17.5639765 L0,2 C-1.3527075e-16,0.8954305 0.8954305,2.02906125e-16 2,0 Z" id="Rectangle-path" fill="#FFFFFF"></path>
                </g>
            </g>
            <g id="Group-26" transform="translate(200.000000, 125.000000)">
                <g id="Rectangle-15">
                    <use fill="black" fill-opacity="1" filter="url(#filter-3)" xlink:href="#path-2"></use>
                    <use fill="url(#linearGradient-1)" fill-rule="evenodd" xlink:href="#path-2"></use>
                </g>
                <g id="Group-16" transform="translate(16.675000, 17.721519)">
                    <g id="Group">
                        <path d="M23.2450155,5.52375067 C23.2450155,6.77233682 23.6671201,7.80124886 24.5113418,8.61051766 C25.3555636,9.41978647 26.5674121,9.8244148 28.1469238,9.8244148 L35.1975019,9.8244148 C36.7770136,9.8244148 37.9752459,9.41978647 38.7922347,8.61051766 C39.6092235,7.80124886 40.0177117,6.77233682 40.0177117,5.52375067 C40.0177117,4.27516452 39.6092235,3.23469167 38.7922347,2.4023009 C37.9752459,1.56991013 36.7770136,1.15372099 35.1975019,1.15372099 L28.1469238,1.15372099 C26.5674121,1.15372099 25.3555636,1.56991013 24.5113418,2.4023009 C23.6671201,3.23469167 23.2450155,4.27516452 23.2450155,5.52375067 Z" id="Path-Copy-8" fill="#D587D0"></path>
                        <path d="M15.8193327,17.6869965 C15.8193327,18.9935887 15.4241397,20.031161 14.6337417,20.7997445 C13.8433437,21.5683281 12.8072971,21.9526142 11.5255706,21.9526142 C10.2438442,21.9526142 9.21847842,21.5683281 8.44944256,20.7997445 C7.68040669,20.031161 7.29589453,18.9935887 7.29589453,17.6869965 C7.29589453,16.4188336 7.68040669,15.3908685 8.44944256,14.6030703 C9.21847842,13.8152721 10.2438442,13.4213789 11.5255706,13.4213789 C12.8072971,13.4213789 13.8433437,13.805665 14.6337417,14.5742486 C15.4241397,15.3428321 15.8193327,16.3804044 15.8193327,17.6869965 Z" id="Path-Copy-4" fill="#DBA1D7"></path>
                        <path d="M59.506311,18.941126 C59.506311,20.1772504 59.0842065,21.1958932 58.2399847,21.9970849 C57.3957629,22.7982766 56.1839144,23.1988665 54.6044027,23.1988665 L24.3923079,23.1988665 C22.8127962,23.1988665 21.614564,22.7982766 20.7975752,21.9970849 C19.9805864,21.1958932 19.5720981,20.1772504 19.5720981,18.941126 C19.5720981,17.7050017 19.9805864,16.6749135 20.7975752,15.8508305 C21.614564,15.0267476 22.8127962,14.6147124 24.3923079,14.6147124 L54.6044027,14.6147124 C56.1839144,14.6147124 57.3957629,15.0267476 58.2399847,15.8508305 C59.0842065,16.6749135 59.506311,17.7050017 59.506311,18.941126 Z" id="Path-Copy-3" fill="#A26AB5"></path>
                        <path d="M25.5555645,31.1388531 C25.5555645,32.3677222 25.1304757,33.3803861 24.2802855,34.1768752 C23.4300953,34.9733644 22.2096792,35.371603 20.6190007,35.371603 L4.84713233,35.371603 C3.25645382,35.371603 2.0497503,34.9733644 1.22698556,34.1768752 C0.404220812,33.3803861 -0.00715538941,32.3677222 -0.00715538941,31.1388531 C-0.00715538941,29.9099841 0.404220812,28.885942 1.22698556,28.066696 C2.0497503,27.24745 3.25645382,26.8378331 4.84713233,26.8378331 L20.6190007,26.8378331 C22.2096792,26.8378331 23.4300953,27.24745 24.2802855,28.066696 C25.1304757,28.885942 25.5555645,29.9099841 25.5555645,31.1388531 Z" id="Path-Copy" fill="#E5D4F9"></path>
                        <path d="M29.3279701,31.1394008 C29.3279701,32.387987 29.7500746,33.416899 30.5942964,34.2261678 C31.4385181,35.0354366 32.6503667,35.440065 34.2298784,35.440065 L41.2804565,35.440065 C42.8599681,35.440065 44.0582004,35.0354366 44.8751892,34.2261678 C45.692178,33.416899 46.1006663,32.387987 46.1006663,31.1394008 C46.1006663,29.8908147 45.692178,28.8503418 44.8751892,28.0179511 C44.0582004,27.1855603 42.8599681,26.7693712 41.2804565,26.7693712 L34.2298784,26.7693712 C32.6503667,26.7693712 31.4385181,27.1855603 30.5942964,28.0179511 C29.7500746,28.8503418 29.3279701,29.8908147 29.3279701,31.1394008 Z" id="Path-Copy-15" fill="#9676CC"></path>
                        <path d="M50.0100155,31.1394008 C50.0100155,32.387987 50.4321201,33.416899 51.2763418,34.2261678 C52.1205636,35.0354366 53.3324121,35.440065 54.9119238,35.440065 L61.9625019,35.440065 C63.5420136,35.440065 64.7402459,35.0354366 65.5572347,34.2261678 C66.3742235,33.416899 66.7827117,32.387987 66.7827117,31.1394008 C66.7827117,29.8908147 66.3742235,28.8503418 65.5572347,28.0179511 C64.7402459,27.1855603 63.5420136,26.7693712 61.9625019,26.7693712 L54.9119238,26.7693712 C53.3324121,26.7693712 52.1205636,27.1855603 51.2763418,28.0179511 C50.4321201,28.8503418 50.0100155,29.8908147 50.0100155,31.1394008 Z" id="Path-Copy-14" fill="#7F6AAE"></path>
                        <path d="M47.3404019,43.3369833 C47.3404019,44.5731077 46.9182974,45.5917505 46.0740756,46.3929422 C45.2298538,47.1941339 44.0180053,47.5947238 42.4384936,47.5947238 L12.2263988,47.5947238 C10.6468871,47.5947238 9.44865487,47.1941339 8.63166607,46.3929422 C7.81467727,45.5917505 7.40618899,44.5731077 7.40618899,43.3369833 C7.40618899,42.100859 7.81467727,41.0707708 8.63166607,40.2466879 C9.44865487,39.4226049 10.6468871,39.0105697 12.2263988,39.0105697 L42.4384936,39.0105697 C44.0180053,39.0105697 45.2298538,39.4226049 46.0740756,40.2466879 C46.9182974,41.0707708 47.3404019,42.100859 47.3404019,43.3369833 Z" id="Path-Copy-6" fill="#D4C0F2"></path>
                        <path d="M59.6166055,44.5224396 C59.6166055,45.8290317 59.2214124,46.866604 58.4310144,47.6351876 C57.6406165,48.4037712 56.6045698,48.7880572 55.3228434,48.7880572 C54.0411169,48.7880572 53.0157511,48.4037712 52.2467153,47.6351876 C51.4776794,46.866604 51.0931673,45.8290317 51.0931673,44.5224396 C51.0931673,43.2542767 51.4776794,42.2263115 52.2467153,41.4385133 C53.0157511,40.6507151 54.0411169,40.256822 55.3228434,40.256822 C56.6045698,40.256822 57.6406165,40.641108 58.4310144,41.4096916 C59.2214124,42.1782752 59.6166055,43.2158475 59.6166055,44.5224396 Z" id="Path-Copy-7" fill="#D587D0"></path>
                        <path d="M35.4109246,56.755051 C35.4109246,58.0036372 35.8330292,59.0325492 36.6772509,59.841818 C37.5214727,60.6510868 38.7333212,61.0557151 40.3128329,61.0557151 L47.363411,61.0557151 C48.9429227,61.0557151 50.141155,60.6510868 50.9581438,59.841818 C51.7751326,59.0325492 52.1836208,58.0036372 52.1836208,56.755051 C52.1836208,55.5064649 51.7751326,54.465992 50.9581438,53.6336012 C50.141155,52.8012105 48.9429227,52.3850213 47.363411,52.3850213 L40.3128329,52.3850213 C38.7333212,52.3850213 37.5214727,52.8012105 36.6772509,53.6336012 C35.8330292,54.465992 35.4109246,55.5064649 35.4109246,56.755051 Z" id="Combined-Shape" fill="#8064BC"></path>
                    </g>
                </g>
            </g>
            <g id="Group-35-Copy" transform="translate(38.000000, 223.000000)">
                <g id="Group-34" fill="#A083D0">
                    <path d="M97.3347714,48.6322188 C97.3347714,63.5286486 92.8218008,75.357989 83.7957242,84.1205948 C74.7696477,92.8832005 62.9383464,97.2644377 48.3014655,97.2644377 C33.6645846,97.2644377 21.9552555,92.8832005 13.173127,84.1205948 C4.39099841,75.357989 -3.34614155e-14,63.5286486 -3.25492722e-14,48.6322188 C-3.16639567e-14,34.1739193 4.39099841,22.4541099 13.173127,13.472439 C21.9552555,4.49076809 33.6645846,2.84217094e-14 48.3014655,2.84217094e-14 C62.9383464,2.84217094e-14 74.7696477,4.38123716 83.7957242,13.1438429 C92.8218008,21.9064487 97.3347714,33.735789 97.3347714,48.6322188 Z" id="Path-Copy-19"></path>
                </g>
                <g id="002-lock" transform="translate(30.800405, 23.100304)" fill-rule="nonzero">
                    <path d="M29.3199232,24.0366139 L24.1521578,24.0366139 C23.3653015,24.0366139 22.7273845,23.3971728 22.7273845,22.6084365 L22.7273845,12.0470212 C22.7273845,9.83554514 20.9324994,8.03637169 18.7262944,8.03637169 C16.5200894,8.03637169 14.7252043,9.83554514 14.7252043,12.0470212 L14.7252043,22.6084365 C14.7252043,23.3971728 14.0872873,24.0366139 13.300431,24.0366139 L8.13266557,24.0366139 C7.34580926,24.0366139 6.70789225,23.3971728 6.70789225,22.6084365 L6.70789225,12.0470212 C6.70798742,5.4041981 12.0993045,0 18.7261992,0 C25.3530939,0 30.7445062,5.4041981 30.7445062,12.0470212 L30.7445062,22.6084365 C30.7446013,23.3971728 30.1066843,24.0366139 29.3199232,24.0366139 Z" id="Shape" fill="#8064BC"></path>
                    <path d="M19.0056947,0 L19.0056947,8.03637169 C21.2631889,8.03637169 23.099801,9.83554514 23.099801,12.0470212 L23.099801,22.6084365 C23.099801,23.3971728 23.7525481,24.0366139 24.557697,24.0366139 L29.8456012,24.0366139 C30.6507501,24.0366139 31.3034972,23.3971728 31.3034972,22.6084365 L31.3034972,12.0470212 C31.3033998,5.4041981 25.7866495,0 19.0056947,0 Z" id="Shape" fill="#E5D4F9"></path>
                    <path d="M32.8538703,48.6322188 L4.59862415,48.6322188 C2.06297816,48.6322188 0,46.6022144 0,44.1070971 L0,25.7667805 C0,23.2716632 2.06297816,21.2416588 4.59862415,21.2416588 L32.8537743,21.2416588 C35.3894203,21.2416588 37.4523984,23.2716632 37.4523984,25.7667805 L37.4523984,44.1070971 C37.4524944,46.6022144 35.3895163,48.6322188 32.8538703,48.6322188 Z" id="Shape" fill="#E5D4F9"></path>
                    <path d="M32.9223292,21.2416588 L19.0056947,21.2416588 L19.0056947,48.6322188 L32.9223292,48.6322188 C35.4201745,48.6322188 37.4523984,46.6022214 37.4523984,44.1071127 L37.4523984,25.7668594 C37.4523984,23.2715617 35.4201745,21.2416588 32.9223292,21.2416588 Z" id="Shape" fill="#8064BC"></path>
                    <path d="M22.5726195,42.4833176 L14.8813436,42.4833176 C14.4045259,42.4833176 13.9575338,42.2548363 13.6834321,41.8707298 C13.4092327,41.4867196 13.342443,40.9953982 13.5041855,40.5539308 L15.0355563,36.3720688 C14.0161093,35.397703 13.4157845,34.0418292 13.4157845,32.6171416 C13.4157845,29.7352361 15.7980147,27.39056 18.7261992,27.39056 C21.6543837,27.39056 24.0366139,29.7351399 24.0366139,32.6171416 C24.0366139,34.0410593 23.4365825,35.3966443 22.4180155,36.3710102 L23.9497776,40.5539308 C24.11152,40.9953982 24.0445348,41.4867196 23.7705309,41.8707298 C23.4964292,42.2548363 23.0495349,42.4833176 22.5726195,42.4833176 Z" id="Shape" fill="#FFFFFF"></path>
                    <path d="M19.0056947,27.39056 L19.0056947,42.4833176 L22.6495696,42.4833176 C23.1013249,42.4833176 23.5248223,42.2548349 23.7845167,41.8707259 C24.0442111,41.4867132 24.1075828,40.9953887 23.9543418,40.5539185 L22.503092,36.3709712 C23.4681212,35.3965991 24.0366139,34.0411017 24.0366139,32.6170787 C24.0366139,29.7353473 21.7797833,27.3907525 19.0056947,27.39056 Z" id="Shape" fill="#FFFFFF"></path>
                </g>
            </g>
            <g id="Group-46">
                <rect id="Rectangle-15" fill="#A083D0" opacity="0.825577446" x="6.80243161" y="6.95440729" width="145.671041" height="145.671041" rx="12"></rect>
                <g id="Group-22" transform="translate(0.723404, 0.875380)">
                    <g id="Rectangle-15">
                        <use fill="black" fill-opacity="1" filter="url(#filter-6)" xlink:href="#path-5"></use>
                        <use fill="url(#linearGradient-4)" fill-rule="evenodd" xlink:href="#path-5"></use>
                    </g>
                    <g id="Group-15" transform="translate(24.065428, 24.065428)" fill-rule="nonzero">
                        <polygon id="Shape" fill="#E5D4F9" points="97.7658008 30.6224885 97.7658008 99.26989 66.1799267 99.26989 66.1799267 15.0408924 69.5476063 16.673982"></polygon>
                        <rect id="Rectangle-path" fill="#FFFFFF" x="73.7003729" y="37.6022311" width="7.52044621" height="7.52044621"></rect>
                        <rect id="Rectangle-path" fill="#FFFFFF" x="87.2371761" y="37.6022311" width="7.52044621" height="7.52044621"></rect>
                        <rect id="Rectangle-path" fill="#FFFFFF" x="73.7003729" y="52.6431235" width="7.52044621" height="7.52044621"></rect>
                        <rect id="Rectangle-path" fill="#FFFFFF" x="87.2371761" y="52.6431235" width="7.52044621" height="7.52044621"></rect>
                        <rect id="Rectangle-path" fill="#FFFFFF" x="73.7003729" y="69.1881052" width="7.52044621" height="7.52044621"></rect>
                        <rect id="Rectangle-path" fill="#FFFFFF" x="87.2371761" y="69.1881052" width="7.52044621" height="7.52044621"></rect>
                        <rect id="Rectangle-path" fill="#FFFFFF" x="73.7003729" y="84.2289976" width="7.52044621" height="7.52044621"></rect>
                        <rect id="Rectangle-path" fill="#FFFFFF" x="87.2371761" y="84.2289976" width="7.52044621" height="7.52044621"></rect>
                        <polygon id="Shape" fill="#D4C0F2" points="69.1881052 16.673982 69.1881052 99.26989 66.1799267 99.26989 66.1799267 15.0408924"></polygon>
                        <path d="M0,99.26989 L66.1799267,99.26989 L66.1799267,4.12978253 C66.1799267,1.86131044 64.3184345,0 62.0497408,0 L4.13018587,0 C1.86149222,0 0,1.86131044 0,4.12978253 L0,99.26989 Z" id="Shape" fill="#E5D4F9"></path>
                        <rect id="Rectangle-path" fill="#D4C0F2" x="24.0654279" y="74.9161784" width="12.0327139" height="24.0654279"></rect>
                        <rect id="Rectangle-path" fill="#7F6AAE" x="33.0899633" y="74.9161784" width="12.0327139" height="24.0654279"></rect>
                        <rect id="Rectangle-path" fill="#7F6AAE" x="16.5449817" y="31.5858741" width="15.0408924" height="15.0408924"></rect>
                        <rect id="Rectangle-path" fill="#7F6AAE" x="16.5449817" y="54.1472127" width="15.0408924" height="15.0408924"></rect>
                        <rect id="Rectangle-path" fill="#7F6AAE" x="39.1063203" y="31.5858741" width="15.0408924" height="15.0408924"></rect>
                        <rect id="Rectangle-path" fill="#7F6AAE" x="39.1063203" y="54.1472127" width="15.0408924" height="15.0408924"></rect>
                        <path d="M32.4122016,25.5695171 C31.9473021,25.5695171 31.5687412,25.1914613 31.5687412,24.7264497 L31.5687412,19.5701482 L26.4121113,19.5701482 C25.9469231,19.5701482 25.5695171,19.1920924 25.5695171,18.7270808 L25.5695171,14.3631705 C25.5695171,13.8984468 25.9469231,13.5206789 26.4121113,13.5206789 L31.5687412,13.5206789 L31.5687412,8.36322567 C31.5687412,7.89878998 31.9473021,7.52044621 32.4122016,7.52044621 L36.7761924,7.52044621 C37.240803,7.52044621 37.6187865,7.89878998 37.6187865,8.36322567 L37.6187865,13.5206789 L42.7757051,13.5206789 C43.2408933,13.5206789 43.618588,13.8984468 43.618588,14.3631705 L43.618588,18.7270808 C43.618588,19.1918044 43.2408933,19.5701482 42.7757051,19.5701482 L37.6187865,19.5701482 L37.6187865,24.7264497 C37.6187865,25.1914613 37.240803,25.5695171 36.7761924,25.5695171 L32.4122016,25.5695171 Z" id="Shape" fill="#2CD4D9"></path>
                    </g>
                </g>
            </g>
        </g>
        <path d="M136.760723,265.49506 C136.257212,271.096024 136,276.767974 136,282.5" id="Path" stroke="#523B85" stroke-width="5" opacity="0.4" stroke-linecap="round"></path>
        <path d="M433.116275,130.362836 C412.774492,115.680671 389.370355,104.977838 364.044765,99.3952396 M291.086746,97.7913863 C274.983549,100.597657 259.58602,105.458407 245.174142,112.093651" id="Path" stroke="#523B85" stroke-width="5" opacity="0.4" stroke-linecap="round"></path>
        <path d="M327.147221,95.0347642 C325.934266,95.011623 324.71849,95 323.5,95 C316.91719,95 310.413612,95.3392323 304.005794,96.0011688" id="Path" stroke="#523B85" stroke-width="5" opacity="0.4" stroke-linecap="round"></path>
        <circle id="Oval-5" fill="#523B85" opacity="0.4" cx="345.5" cy="96.5" r="2.5"></circle>
        <path d="M232.158455,446.285376 C235.135038,447.948947 238.161639,449.533728 241.235437,451.036896" id="Path" stroke="#523B85" stroke-width="5" opacity="0.4" stroke-linecap="round"></path>
        <path d="M416.033609,445.613418 C418.567855,444.172652 421.065239,442.674531 423.523994,441.120819 M433.838888,434.112988 C436.645964,432.066583 439.394044,429.944116 442.080098,427.748615" id="Path" stroke="#523B85" stroke-width="5" opacity="0.4" stroke-linecap="round"></path>
        <path d="M196,429.364373 C198.807075,427.317968 201.555155,425.195501 204.24121,423" id="Path" stroke="#523B85" stroke-width="5" opacity="0.4" stroke-linecap="round" transform="translate(200.120605, 426.182186) scale(-1, 1) translate(-200.120605, -426.182186) "></path>
        <path d="M248.52353,243.573965 L259.942302,249.753386" id="Path" stroke="#523B85" stroke-width="5" opacity="0.4" stroke-linecap="round"></path>
        <circle id="Oval-5-Copy" fill="#523B85" opacity="0.4" transform="translate(237.500000, 329.500000) scale(-1, 1) translate(-237.500000, -329.500000) " cx="237.5" cy="329.5" r="2.5"></circle>
        <circle id="Oval-5-Copy-2" fill="#523B85" opacity="0.4" transform="translate(390.500000, 247.500000) scale(-1, 1) translate(-390.500000, -247.500000) " cx="390.5" cy="247.5" r="2.5"></circle>
        <path d="M259.622603,324.798417 L246.582578,317.422" id="Path-4" stroke="#523B85" stroke-width="5" opacity="0.4" stroke-linecap="round" transform="translate(253.102591, 321.110208) scale(-1, 1) translate(-253.102591, -321.110208) "></path>
        <circle id="Oval-5-Copy" fill="#523B85" opacity="0.4" cx="391.5" cy="326.5" r="2.5"></circle>
        <g id="Group-2" opacity="0.4" transform="translate(400.000000, 220.000000)" stroke="#523B85" stroke-linecap="round" stroke-width="5">
            <path d="M0,111 L23.9071062,124.123109" id="Path-4"></path>
            <path d="M3.79402757,0.940830747 L15.2128002,7.12025162 M29.1937818,14.686246 L40.3887643,20.7445599" id="Path" transform="translate(22.091396, 10.842695) scale(-1, 1) translate(-22.091396, -10.842695) "></path>
        </g>
        <circle id="Oval-7" fill="#523B85" opacity="0.4" cx="240.5" cy="239.5" r="2.5"></circle>
        <path d="M508.182489,315.062807 C509.549687,307.254946 510.433833,299.280894 510.802986,291.17259 M510.240565,265.509398 C509.670497,259.16263 508.784171,252.906996 507.597463,246.758374" id="Oval-4" stroke="#523B85" stroke-width="5" opacity="0.4" stroke-linecap="round"></path>
        <circle id="Oval-6-Copy-2" fill="#523B85" opacity="0.4" cx="510.5" cy="279.5" r="2.5"></circle>
        <circle id="Oval-6-Copy-3" fill="#523B85" opacity="0.4" cx="505.5" cy="236.5" r="2.5"></circle>
        <circle id="Oval-5-Copy-4" fill="#523B85" opacity="0.4" cx="218.5" cy="438.5" r="2.5"></circle>
        <circle id="Oval-5-Copy-5" fill="#523B85" opacity="0.4" cx="136.5" cy="303.5" r="2.5"></circle>
        <g id="Group-67" transform="translate(251.000000, 410.000000)">
            <g id="Group-66">
                <path d="M-0.138408549,48.8873171 C-0.138408549,62.8308023 4.66877696,74.3210945 14.2832922,83.3585386 C23.8978074,92.3959827 37.6990819,96.9146369 55.6875298,96.9146369 L102.242903,96.9146369 C120.23135,96.9146369 133.877554,92.3959827 143.181924,83.3585386 C152.486294,74.3210945 157.138409,62.8308023 157.138409,48.8873171 C157.138409,34.9438319 152.486294,23.3244353 143.181924,14.0287785 C133.877554,4.73312172 120.23135,0.0853630529 102.242903,0.0853630529 L55.6875298,0.0853630529 C37.6990819,0.0853630529 23.8978074,4.73312172 14.2832922,14.0287785 C4.66877696,23.3244353 -0.138408549,34.9438319 -0.138408549,48.8873171 Z" id="Path-Copy-11" fill="#A083D0"></path>
                <path d="M121.113471,77.4525638 L39.0037295,77.4525638 C37.3448199,77.4525638 36,76.1086598 36,74.4508802 L36,28.3376397 C36,26.6798601 37.3448199,25.3359562 39.0037295,25.3359562 L121.113471,25.3359562 C122.77238,25.3359562 124.1172,26.6798601 124.1172,28.3376397 L124.1172,74.4510522 C124.1172,76.1086598 122.77238,77.4525638 121.113471,77.4525638 Z" id="Shape" fill="#8064BC" fill-rule="nonzero"></path>
                <path d="M80.8580228,25.3361282 C80.1883665,26.6413351 79.8081889,28.1193886 79.8081889,29.6868752 C79.8081889,28.1192166 79.4280114,26.6413351 78.7583551,25.3361282 L39.0037295,25.3361282 C38.9889285,25.3361282 38.9746439,25.338192 38.959843,25.338364 L38.959843,71.6191196 C38.959843,72.7079672 39.8430802,73.5906029 40.9326701,73.5906029 L79.8081889,73.5906029 L118.683708,73.5906029 C119.773298,73.5906029 120.656535,72.7079672 120.656535,71.6191196 L120.656535,25.3361282 L80.8580228,25.3361282 Z" id="Shape" fill="#D4C0F2" fill-rule="nonzero"></path>
                <path d="M79.8081889,71.1986121 L43.4216368,71.1986121 C42.4019211,71.1986121 41.575134,70.3725601 41.575134,69.353367 L41.575134,23.0094924 C41.575134,21.9904713 42.401749,21.1642473 43.4216368,21.1642473 L70.8603347,21.1642473 C75.8021263,21.1642473 79.8081889,25.1675812 79.8081889,30.1060067 L79.8081889,71.1986121 Z" id="Shape" fill="#FBF8FF" fill-rule="nonzero"></path>
                <path d="M79.8081889,71.1986121 L116.194741,71.1986121 C117.214457,71.1986121 118.041244,70.3725601 118.041244,69.353367 L118.041244,23.0094924 C118.041244,21.9904713 117.214629,21.1642473 116.194741,21.1642473 L88.7560431,21.1642473 C83.8142516,21.1642473 79.8081889,25.1675812 79.8081889,30.1060067 L79.8081889,71.1986121 Z" id="Shape" fill="#FFFFFF" fill-rule="nonzero"></path>
                <path d="M104.503723,64.8808534 C93.5811483,64.8808534 84.7267465,56.0324827 84.7267465,45.1173481 L84.7267465,23.7882481 C84.7267465,23.1883585 84.7869828,22.6025719 84.8997109,22.0357038 C81.8884088,23.4752323 79.8081889,26.5477743 79.8081889,30.1061787 L79.8081889,71.1989561 L116.194741,71.1989561 C117.214457,71.1989561 118.041244,70.3729041 118.041244,69.353711 L118.041244,64.8810254 L104.503723,64.8810254 L104.503723,64.8808534 Z" id="Shape" fill="#FBF8FF" fill-rule="nonzero"></path>
                <path d="M82.4747669,79.7031814 L77.5004476,79.7031814 C74.9237079,79.7031814 72.8348828,77.6157791 72.8348828,75.0407946 L72.8348828,71.1986121 L87.1401596,71.1986121 L87.1401596,75.0407946 C87.1403317,77.6159511 85.0515065,79.7031814 82.4747669,79.7031814 Z" id="Shape" fill="#8064BC" fill-rule="nonzero"></path>
                <path d="M73.4071283,29.8048581 L47.8056396,29.8048581 C47.0537176,29.8048581 46.4441256,29.1956812 46.4441256,28.4442714 C46.4441256,27.6926897 47.0537176,27.0836848 47.8056396,27.0836848 L73.4071283,27.0836848 C74.1590503,27.0836848 74.7686423,27.6928616 74.7686423,28.4442714 C74.7688144,29.1958532 74.1592224,29.8048581 73.4071283,29.8048581 Z" id="Shape" fill="#8064BC" fill-rule="nonzero"></path>
                <path d="M73.4071283,57.0460002 L47.8056396,57.0460002 C47.0537176,57.0460002 46.4441256,56.4368234 46.4441256,55.6854136 C46.4441256,54.9340038 47.0537176,54.324827 47.8056396,54.324827 L73.4071283,54.324827 C74.1590503,54.324827 74.7686423,54.9340038 74.7686423,55.6854136 C74.7686423,56.4368234 74.1592224,57.0460002 73.4071283,57.0460002 Z" id="Shape" fill="#8064BC" fill-rule="nonzero"></path>
                <path d="M73.4071283,63.6379057 L47.8056396,63.6379057 C47.0537176,63.6379057 46.4441256,63.0287289 46.4441256,62.2773191 C46.4441256,61.5257373 47.0537176,60.9167325 47.8056396,60.9167325 L73.4071283,60.9167325 C74.1590503,60.9167325 74.7686423,61.5259093 74.7686423,62.2773191 C74.7688144,63.0289009 74.1592224,63.6379057 73.4071283,63.6379057 Z" id="Shape" fill="#8064BC" fill-rule="nonzero"></path>
                <path d="M60.0375805,50.4540948 L47.8056396,50.4540948 C47.0537176,50.4540948 46.4441256,49.844918 46.4441256,49.0935082 C46.4441256,48.3419264 47.0537176,47.7329215 47.8056396,47.7329215 L60.0375805,47.7329215 C60.7895025,47.7329215 61.3990945,48.3420984 61.3990945,49.0935082 C61.3990945,49.84509 60.7895025,50.4540948 60.0375805,50.4540948 Z" id="Shape" fill="#8064BC" fill-rule="nonzero"></path>
                <path d="M55.4317358,36.687937 L47.8056396,36.687937 C47.0537176,36.687937 46.4441256,36.0787602 46.4441256,35.3273503 C46.4441256,34.5759405 47.0537176,33.9667637 47.8056396,33.9667637 L55.4317358,33.9667637 C56.1836578,33.9667637 56.7932498,34.5759405 56.7932498,35.3273503 C56.7932498,36.0787602 56.1836578,36.687937 55.4317358,36.687937 Z" id="Shape" fill="#8064BC" fill-rule="nonzero"></path>
                <path d="M52.1870608,43.5710159 L47.8056396,43.5710159 C47.0537176,43.5710159 46.4441256,42.9618391 46.4441256,42.2104293 C46.4441256,41.4590195 47.0537176,40.8498426 47.8056396,40.8498426 L52.1870608,40.8498426 C52.9389828,40.8498426 53.5485748,41.4590195 53.5485748,42.2104293 C53.5485748,42.9618391 52.9391549,43.5710159 52.1870608,43.5710159 Z" id="Shape" fill="#8064BC" fill-rule="nonzero"></path>
                <path d="M63.057832,43.5710159 L57.0175012,43.5710159 C56.2655792,43.5710159 55.6559872,42.9618391 55.6559872,42.2104293 C55.6559872,41.4590195 56.2655792,40.8498426 57.0175012,40.8498426 L63.057832,40.8498426 C63.809754,40.8498426 64.419346,41.4590195 64.419346,42.2104293 C64.419346,42.9618391 63.809754,43.5710159 63.057832,43.5710159 Z" id="Shape" fill="#8064BC" fill-rule="nonzero"></path>
                <path d="M73.5775112,43.5710159 L68.3145737,43.5710159 C67.5626518,43.5710159 66.9530597,42.9618391 66.9530597,42.2104293 C66.9530597,41.4590195 67.5626518,40.8498426 68.3145737,40.8498426 L73.5775112,40.8498426 C74.3294332,40.8498426 74.9390252,41.4590195 74.9390252,42.2104293 C74.9390252,42.9618391 74.3296053,43.5710159 73.5775112,43.5710159 Z" id="Shape" fill="#8064BC" fill-rule="nonzero"></path>
                <path d="M73.5775112,50.4540948 L65.7388667,50.4540948 C64.9869447,50.4540948 64.3773527,49.844918 64.3773527,49.0935082 C64.3773527,48.3419264 64.9869447,47.7329215 65.7388667,47.7329215 L73.5775112,47.7329215 C74.3294332,47.7329215 74.9390252,48.3420984 74.9390252,49.0935082 C74.9391973,49.84509 74.3296053,50.4540948 73.5775112,50.4540948 Z" id="Shape" fill="#8064BC" fill-rule="nonzero"></path>
                <path d="M73.4071283,36.687937 L61.3013395,36.687937 C60.5494176,36.687937 59.9398255,36.0787602 59.9398255,35.3273503 C59.9398255,34.5759405 60.5494176,33.9667637 61.3013395,33.9667637 L73.4071283,33.9667637 C74.1590503,33.9667637 74.7686423,34.5759405 74.7686423,35.3273503 C74.7686423,36.0787602 74.1592224,36.687937 73.4071283,36.687937 Z" id="Shape" fill="#8064BC" fill-rule="nonzero"></path>
                <path d="M110.346749,35.0311156 L89.4870674,35.0311156 C88.5929141,35.0311156 87.8673916,34.31868 87.8673916,33.4409879 C87.8673916,32.5632958 88.5930659,31.8507111 89.4870674,31.8507111 L110.346901,31.8507111 C111.241055,31.8507111 111.965515,32.5631468 111.965515,33.4409879 C111.965515,34.318829 111.240903,35.0311156 110.346749,35.0311156 Z" id="Shape" fill="#8064BC" fill-rule="nonzero"></path>
                <path d="M107.333858,41.3873051 L92.4536651,41.3873051 C91.5596636,41.3873051 90.8350518,40.6771047 90.8350518,39.7994126 C90.8350518,38.9215715 91.5595118,38.2092849 92.4536651,38.2092849 L107.333858,38.2092849 C108.22786,38.2092849 108.95232,38.9217205 108.95232,39.7994126 C108.95232,40.6771047 108.22786,41.3873051 107.333858,41.3873051 Z" id="Shape" fill="#8064BC" fill-rule="nonzero"></path>
                <path d="M107.332644,55.1041545 L92.4536651,55.1041545 C91.5596636,55.1041545 90.8350518,54.3917189 90.8350518,53.5138778 C90.8350518,52.6361857 91.5595118,51.9237501 92.4536651,51.9237501 L107.332644,51.9237501 C108.226645,51.9237501 108.951105,52.6361857 108.951105,53.5138778 C108.951105,54.3917189 108.226645,55.1041545 107.332644,55.1041545 Z" id="Shape" fill="#8064BC" fill-rule="nonzero"></path>
                <path d="M110.346749,61.4590029 L89.4407736,61.4590029 C88.5466203,61.4590029 87.8221603,60.7511867 87.8221603,59.8714084 C87.8221603,58.9959515 88.5466203,58.2835159 89.4407736,58.2835159 L110.346749,58.2835159 C111.240903,58.2835159 111.965363,58.9959515 111.965363,59.8714084 C111.965363,60.7511867 111.240903,61.4590029 110.346749,61.4590029 Z" id="Shape" fill="#8064BC" fill-rule="nonzero"></path>
                <path d="M88.6236797,64 C88.5251714,64 88.426511,63.9907527 88.3257224,63.9719597 C87.4456841,63.813562 86.8637552,62.9838384 87.0276317,62.1168272 C87.1322208,61.5667606 89.6926777,48.5876937 99.4012224,45.01062 C101.675427,44.1740354 104.93426,42.0393951 107.539866,36.628219 C109.147924,33.2887418 109.71906,30.331537 109.724988,30.3012595 C109.887649,29.4366347 110.734547,28.8680734 111.614585,29.0264711 C112.495688,29.1872552 113.076552,30.0192161 112.91374,30.8814545 C112.809151,31.4337584 110.248694,44.4140184 100.540149,47.9888549 C98.2659442,48.8278259 95.0071118,50.9624662 92.4015052,56.3736423 C90.7923835,59.7120755 90.2223121,62.6716666 90.2163834,62.6995578 C90.0715092,63.4639535 89.3897038,64 88.6236797,64 Z" id="Shape" fill="#9676CC" fill-rule="nonzero"></path>
                <path d="M111.31773,64 C110.550489,64 109.87005,63.4639536 109.725024,62.6995579 C109.702525,62.5830714 107.386815,50.93219 99.4012419,47.9888565 C89.6926819,44.4141695 87.132069,31.4339107 87.0276318,30.8814577 C86.863755,30.0192194 87.4456848,29.1872586 88.3257245,29.0264745 C89.2057642,28.8680768 90.0512954,29.4366381 90.2163884,30.2988764 C90.2388872,30.4177492 92.5547491,42.0696747 100.54017,45.0106218 C110.24873,48.5876952 112.809343,61.5669099 112.91378,62.1168274 C113.076441,62.9836894 112.495727,63.8134129 111.614624,63.9719597 C111.514747,63.9907527 111.415022,64 111.31773,64 Z" id="Shape" fill="#D4C0F2" fill-rule="nonzero"></path>
            </g>
        </g>
    </g>
</svg>