<?xml version="1.0" encoding="UTF-8"?>
<svg width="40px" height="45px" viewBox="0 0 40 45" version="1.1" xmlns="http://www.w3.org/2000/svg" xmlns:xlink="http://www.w3.org/1999/xlink">
    <!-- Generator: Sketch 49.1 (51147) - http://www.bohemiancoding.com/sketch -->
    <title>Group 32 Copy</title>
    <desc>Created with Sketch.</desc>
    <defs></defs>
    <g id="Desktop-Final" stroke="none" stroke-width="1" fill="none" fill-rule="evenodd">
        <g id="01-Wireframes-Homepage-Navigation" transform="translate(-804.000000, -400.000000)" fill-rule="nonzero">
            <g id="Group-34" transform="translate(773.000000, 67.000000)">
                <g id="Group-32-Copy" transform="translate(31.000000, 333.000000)">
                    <path d="M35.7446809,11.965812 L35.7446809,16.3067403 C36.9338917,16.3067403 37.8980213,15.3350514 37.8980213,14.1362761 C37.8980213,12.9375008 36.9339985,11.965812 35.7446809,11.965812 Z" id="Shape" fill="#F9F4FA"></path>
                    <path d="M17.8356751,29.9145299 L15.0331655,29.9145299 C14.1791912,30.2549423 13.2714077,30.4343648 12.3420439,30.4343648 C11.4126801,30.4343648 10.5048023,30.2548515 9.65082804,29.9145299 L6.84831847,29.9145299 C4.47995805,29.9145299 2.55319149,31.7774911 2.55319149,34.0674887 L2.55319149,35.0592157 C3.04482512,35.0904512 3.50281619,35.2873982 3.85431963,35.6256314 L4.48919326,36.236358 C4.50747521,36.2540642 4.53159984,36.2629626 4.55572447,36.2629626 C4.57984911,36.2629626 4.6038795,36.254155 4.62225569,36.2364488 L5.25731779,35.6257222 C5.64095599,35.2562535 6.15143699,35.0528596 6.69461817,35.0528596 C7.23779935,35.0528596 7.74837459,35.2562535 8.13220126,35.6257222 C8.51612217,35.9950093 8.72749542,36.4860603 8.72749542,37.0085285 C8.72749542,37.5309966 8.51602794,38.0221384 8.13210703,38.3915163 L4.77859461,41.5941534 C4.71573864,41.6544451 4.63224479,41.6874966 4.54347368,41.6874966 C4.45423139,41.6874966 4.37026636,41.6540819 4.30712767,41.593427 L2.55319149,39.905893 L2.55319149,43.9188369 C2.55319149,44.185519 2.77672129,44.4017159 3.05274101,44.4017159 L21.6313468,44.4017159 C21.9074607,44.4017159 22.1307078,44.185519 22.1307078,43.9188369 L22.1307078,34.0674887 C22.1307078,31.7774911 20.2039413,29.9145299 17.8356751,29.9145299 Z" id="Shape" fill="#735BA7"></path>
                    <path d="M4.10938108,42.286328 C3.99893196,42.286328 3.89494771,42.2407824 3.81673189,42.1581826 L0.601141874,38.7554781 C0.213522826,38.3451812 0,37.7989228 0,37.2175402 C0,36.6362541 0.213522826,36.0899957 0.601141874,35.6796988 C0.989398304,35.2689194 1.50549527,35.042735 2.05455396,35.042735 C2.6035216,35.042735 3.11970962,35.2689194 3.50787499,35.6796988 L4.12121817,36.3287244 L4.73483451,35.6796988 C5.12272672,35.2689194 5.63900579,35.042735 6.18788238,35.042735 C6.73694107,35.042735 7.25312909,35.2689194 7.64129446,35.6796988 C8.02955089,36.0903817 8.24316477,36.6366401 8.24316477,37.2175402 C8.24316477,37.7985368 8.02945984,38.3446022 7.64111236,38.7554781 L4.40066446,42.1591476 C4.32290391,42.2411683 4.21928388,42.286328 4.10938108,42.286328 Z" id="Shape" fill="#2CD4D9"></path>
                    <path d="M15.9608556,41.251529 C15.8016129,41.251529 15.6719439,41.1214796 15.6719439,40.9615179 L15.6719439,39.1877748 L13.9056362,39.1877748 C13.7462947,39.1877748 13.6170213,39.0577254 13.6170213,38.8977637 L13.6170213,37.3965994 C13.6170213,37.2367367 13.7462947,37.1067864 13.9056362,37.1067864 L15.6719439,37.1067864 L15.6719439,35.3326471 C15.6719439,35.1728835 15.8016129,35.042735 15.9608556,35.042735 L17.4556595,35.042735 C17.6148032,35.042735 17.7442744,35.1728835 17.7442744,35.3326471 L17.7442744,37.1067864 L19.510681,37.1067864 C19.6700226,37.1067864 19.7993949,37.2367367 19.7993949,37.3965994 L19.7993949,38.8977637 C19.7993949,39.0576264 19.6700226,39.1877748 19.510681,39.1877748 L17.7442744,39.1877748 L17.7442744,40.9615179 C17.7442744,41.1214796 17.6148032,41.251529 17.4556595,41.251529 L15.9608556,41.251529 Z" id="Shape" fill="#FFFFFF"></path>
                    <path d="M34.8569517,26.4957265 L32.0544421,26.4957265 C31.2004678,26.8361389 30.2926843,27.0155614 29.3633205,27.0155614 C28.4339567,27.0155614 27.5260789,26.8360481 26.6721046,26.4957265 L23.8695951,26.4957265 C21.5012346,26.4957265 19.5744681,28.3586877 19.5744681,30.6486853 L19.5744681,31.6404123 C19.5744681,32.4980738 19.7979979,40.9829125 20.0740176,40.9829125 L38.6526234,40.9829125 C38.9287373,40.9829125 39.1519844,40.7667156 39.1519844,40.5000335 L39.1519844,30.6486853 C39.1519844,28.3586877 37.2252179,26.4957265 34.8569517,26.4957265 Z" id="Shape" fill="#735BA7"></path>
                    <path d="M33.833196,36.1233239 C33.6739533,36.1233239 33.5442843,35.9932745 33.5442843,35.8333127 L33.5442843,34.0595697 L31.7779767,34.0595697 C31.6186351,34.0595697 31.4893617,33.9295203 31.4893617,33.7695586 L31.4893617,32.2683943 C31.4893617,32.1085316 31.6186351,31.9785812 31.7779767,31.9785812 L33.5442843,31.9785812 L33.5442843,30.204442 C33.5442843,30.0446784 33.6739533,29.9145299 33.833196,29.9145299 L35.3279999,29.9145299 C35.4871436,29.9145299 35.6166148,30.0446784 35.6166148,30.204442 L35.6166148,31.9785812 L37.3830214,31.9785812 C37.542363,31.9785812 37.6717353,32.1085316 37.6717353,32.2683943 L37.6717353,33.7695586 C37.6717353,33.9294213 37.542363,34.0595697 37.3830214,34.0595697 L35.6166148,34.0595697 L35.6166148,35.8333127 C35.6166148,35.9932745 35.4871436,36.1233239 35.3279999,36.1233239 L33.833196,36.1233239 Z" id="Shape" fill="#FFFFFF"></path>
                    <path d="M38.9663159,2.95654104 L38.9663159,4.24666804 C38.9663159,4.56952297 38.9276267,4.88677614 38.8536685,5.1940108 C38.6195028,5.33427009 38.3688783,5.45449235 38.1038255,5.5536003 L37.6852985,5.71055714 C37.4213144,5.80966509 37.1396958,5.61478869 37.158506,5.34881311 C37.2192117,4.49282203 36.708985,3.87048873 36.708985,3.87048873 C36.290458,4.90013417 35.0899183,5.19627304 34.3643362,5.28083798 C34.1102917,5.31089354 33.8961119,5.09156334 33.9545731,4.85779784 C34.1854256,3.93049213 33.7878463,3.0767633 33.7878463,3.0767633 C32.2560975,4.84228529 29.3161487,5.66714354 27.0665128,6.0501096 C25.6859937,6.2838751 24.5661456,6.35400474 24.189514,6.37070228 C24.106685,6.37511905 24.0249248,6.37738129 23.941027,6.37404179 C23.0740478,6.33622995 22.1276596,5.93764362 22.1276596,5.04265572 L22.1276596,1.76207476 C22.1276596,1.40700975 22.1729751,1.06077827 22.2568728,0.729089807 C23.0034027,0.268237828 23.8968872,0 24.852253,0 L30.3300826,0 C32.1048678,0 33.6554268,0.942818262 34.4428902,2.31988017 C34.7322039,1.45828734 35.5948012,0.830460007 36.6042464,0.830460007 L36.6992592,0.830460007 C37.9458625,0.830352281 38.9663159,1.7866363 38.9663159,2.95654104 Z" id="Shape" fill="#D4C0F2"></path>
                    <path d="M36.5481455,14.7872421 C36.5481455,17.4047694 34.941904,19.6608757 32.6728167,20.6066026 L32.6728167,25.0825116 C32.6728167,26.159772 32.0345524,27.0940799 31.1189445,27.5188436 C30.7818572,27.6762314 30.4067219,27.763274 30.013204,27.763274 L29.8086431,27.763274 C28.3451881,27.763274 27.1490303,26.556527 27.1490303,25.0825116 L27.1490303,20.7206845 C24.7257208,19.8537053 22.9787234,17.5168044 22.9787234,14.7874576 L22.9787234,4.27350427 L36.5481455,4.27350427 L36.5481455,14.7872421 Z" id="Shape" fill="#E5D4F9"></path>
                    <path d="M36.6862569,4.27350427 L36.6862569,14.7872421 C36.6862569,17.4047694 35.0800154,19.6608757 32.8109281,20.6066026 L32.8109281,25.0825116 C32.8109281,26.159772 32.1726638,27.0940799 31.2570559,27.5188436 C30.341448,27.0951571 29.7022218,26.1598797 29.7022218,25.0825116 L29.7022218,21.4472966 C29.7022218,21.0323359 29.4715831,20.6477539 29.1001885,20.4686055 C26.9948355,19.453934 25.5319149,17.2848703 25.5319149,14.7872421 L25.5319149,4.27350427 C25.5319149,4.27350427 36.6862569,4.27350427 36.6862569,4.27350427 Z" id="Shape" fill="#F9F4FA"></path>
                    <path d="M39.2874604,2.95654104 L39.2874604,4.24666804 C39.2874604,4.56952297 39.2487713,4.88677614 39.174813,5.1940108 C38.8478789,6.55760695 37.8241123,7.71092189 36.4016978,8.24416576 L35.9831708,8.40112259 C35.7191868,8.50023055 35.4375682,8.30535415 35.4563784,8.03937857 C35.5182596,7.18338749 35.0068573,6.56105418 35.0068573,6.56105418 C34.5883304,7.59069963 33.3889663,7.8868385 32.6632773,7.97140344 C32.408164,8.001459 32.1938773,7.7821288 32.2524455,7.5483633 C32.4832979,6.62105759 32.0857187,5.76732876 32.0857187,5.76732876 C30.5539699,7.53285075 27.614021,8.357709 25.3643852,8.74067506 C23.9838661,8.97444056 22.8640179,9.0445702 22.4873864,9.06126774 C22.4045574,9.06568451 22.3227971,9.06794675 22.2388994,9.06460725 C21.3719201,9.02679541 20.4255319,8.62820908 20.4255319,7.73440616 L20.4255319,4.45382521 C20.4255319,2.90095441 21.2836404,1.527232 22.5780174,0.729089807 C23.3245472,0.268237828 24.2180317,0 25.1733975,0 L30.6512271,0 C32.4260123,0 33.9765713,0.942818262 34.7640347,2.31988017 C35.0533484,1.45828734 35.9159458,0.830460007 36.9253909,0.830460007 L37.0204038,0.830460007 C38.2670071,0.830352281 39.2874604,1.7866363 39.2874604,2.95654104 Z" id="Shape" fill="#9676CC"></path>
                    <path d="M22.5590023,22.4064942 L20.0587419,13.6730367 C19.9829667,13.4084616 20.0386492,13.1202945 20.2163842,12.9111982 C20.849946,12.1650877 21.2165311,11.2261476 21.2165311,10.2301127 L21.2165311,8.93901612 C21.2165311,7.76954228 20.1963984,6.81271963 18.9495813,6.81271963 L18.8554235,6.81271963 C17.8446958,6.81271963 16.9829535,7.4415165 16.6928917,8.30278615 C15.9052145,6.92529334 14.3543349,5.98290598 12.5796566,5.98290598 L7.1024682,5.98290598 C4.49116349,5.98290598 2.3546026,7.98682569 2.3546026,10.4360848 L2.3546026,12.4033777 L2.3546026,13.6986755 C2.34947254,14.0734544 2.509573,14.3620525 2.76051817,14.5744882 C3.01509714,14.790048 3.10733124,15.1444667 3.01445588,15.4661366 L1.01202454,22.4063864 C0.470590018,24.2831894 1.33030168,26.2850623 3.06180201,27.165184 C4.72062656,28.0084635 7.2296508,28.8116688 10.8800053,28.9600075 L12.7756674,28.9564526 C16.3800652,28.799388 18.8632254,28.0018922 20.5092248,27.1653995 C22.2407252,26.2850623 23.1004368,24.2832971 22.5590023,22.4064942 Z" id="Shape" fill="#9676CC"></path>
                    <path d="M17.8723404,17.9487179 L17.8723404,22.2896463 C19.0615512,22.2896463 20.0256809,21.3179574 20.0256809,20.1191821 C20.0256809,18.9204068 19.0616581,17.9487179 17.8723404,17.9487179 Z" id="Shape" fill="#F9F4FA"></path>
                    <path d="M18.6758051,10.2564103 L18.6758051,20.7701481 C18.6758051,23.3876753 17.0695636,25.6437817 14.8004763,26.5895086 L14.8004763,31.0654176 C14.8004763,32.142678 14.162212,33.0769859 13.2466041,33.5017496 C12.9095168,33.6591374 12.5343815,33.74618 12.1408636,33.74618 L11.9363026,33.74618 C10.4728477,33.74618 9.27668992,32.5394329 9.27668992,31.0654176 L9.27668992,26.7035904 C6.85338035,25.8366113 5.10638298,23.4997104 5.10638298,20.7703636 L5.10638298,10.2564103 L18.6758051,10.2564103 Z" id="Shape" fill="#E5D4F9"></path>
                    <path d="M18.8139165,10.2564103 L18.8139165,20.7701481 C18.8139165,23.3876753 17.207675,25.6437817 14.9385877,26.5895086 L14.9385877,31.0654176 C14.9385877,32.142678 14.3003234,33.0769859 13.3847155,33.5017496 C12.4691076,33.0780631 11.8298814,32.1427857 11.8298814,31.0654176 L11.8298814,27.4302025 C11.8298814,27.0152419 11.5992427,26.6306599 11.2278481,26.4515115 C9.12249506,25.43684 7.65957447,23.2677763 7.65957447,20.7701481 L7.65957447,10.2564103 C7.65957447,10.2564103 18.8139165,10.2564103 18.8139165,10.2564103 Z" id="Shape" fill="#F9F4FA"></path>
                    <path d="M21.41512,8.93944702 L21.41512,10.229574 C21.41512,10.552429 21.3764308,10.8696821 21.3024726,11.1769168 C20.9755384,12.5405129 19.9517719,13.6938279 18.5293574,14.2270717 L18.1108304,14.3840286 C17.8468464,14.4831365 17.5652277,14.2882601 17.5840379,14.0222846 C17.6459192,13.1662935 17.1345169,12.5439602 17.1345169,12.5439602 C16.7159899,13.5736056 15.5166259,13.8697445 14.7909369,13.9543094 C14.5358236,13.984365 14.3215369,13.7650348 14.380105,13.5312693 C14.6109575,12.6039636 14.2133783,11.7502347 14.2133783,11.7502347 C12.6816294,13.5157567 9.7416806,14.340615 7.49204475,14.723581 C6.11152566,14.9573465 4.99167748,15.0274762 4.61504596,15.0441737 C4.53221696,15.0485905 4.45045671,15.0508527 4.36655894,15.0475132 C3.4995797,15.0097014 2.55319149,14.6111151 2.55319149,13.7173121 L2.55319149,10.4367312 C2.55319149,8.88386039 3.41130001,7.51013799 4.70567693,6.71199579 C5.45220676,6.25114381 6.34569128,5.98290598 7.30105709,5.98290598 L12.7788867,5.98290598 C14.5536719,5.98290598 16.1042309,6.92572424 16.8916943,8.30278615 C17.181008,7.44119332 18.0436053,6.81336599 19.0530505,6.81336599 L19.1480633,6.81336599 C20.3946666,6.81325826 21.41512,7.76954228 21.41512,8.93944702 Z" id="Shape" fill="#9676CC"></path>
                    <path d="M21.0939755,8.93944702 L21.0939755,10.229574 C21.0939755,10.552429 21.0552863,10.8696821 20.981328,11.1769168 C20.7471624,11.3171761 20.4965379,11.4373983 20.231485,11.5365063 L19.8129581,11.6934631 C19.548974,11.7925711 19.2673554,11.5976947 19.2861656,11.3317191 C19.3468712,10.475728 18.8366445,9.85339471 18.8366445,9.85339471 C18.4181176,10.8830402 17.2175779,11.179179 16.4919958,11.263744 C16.2379512,11.2937995 16.0237714,11.0744693 16.0822327,10.8407038 C16.3130852,9.91339811 15.9155059,9.05966928 15.9155059,9.05966928 C14.3837571,10.8251913 11.4438083,11.6500495 9.19417241,12.0330156 C7.81365332,12.2667811 6.69380514,12.3369107 6.31717362,12.3536083 C6.23434462,12.358025 6.15258437,12.3602873 6.0686866,12.3569478 C5.20170736,12.3191359 4.25531915,11.9205496 4.25531915,11.0255617 L4.25531915,7.74498074 C4.25531915,7.38991573 4.30063463,7.04368425 4.3845324,6.71199579 C5.13106223,6.25114381 6.02454675,5.98290598 6.97991256,5.98290598 L12.4577422,5.98290598 C14.2325274,5.98290598 15.7830864,6.92572424 16.5705498,8.30278615 C16.8598635,7.44119332 17.7224608,6.81336599 18.7319059,6.81336599 L18.8269188,6.81336599 C20.0735221,6.81325826 21.0939755,7.76954228 21.0939755,8.93944702 Z" id="Shape" fill="#D4C0F2"></path>
                </g>
            </g>
        </g>
    </g>
</svg>