<?xml version="1.0" encoding="UTF-8"?>
<svg width="39px" height="60px" viewBox="0 0 39 60" version="1.1" xmlns="http://www.w3.org/2000/svg" xmlns:xlink="http://www.w3.org/1999/xlink">
    <!-- Generator: Sketch 49.1 (51147) - http://www.bohemiancoding.com/sketch -->
    <title>Group 3</title>
    <desc>Created with Sketch.</desc>
    <defs></defs>
    <g id="Desktop-Final" stroke="none" stroke-width="1" fill="none" fill-rule="evenodd">
        <g id="05-Wireframes-Patients-&amp;-Family" transform="translate(-653.000000, -1171.000000)" fill="#7F7EBC" fill-rule="nonzero">
            <g id="Group-3" transform="translate(653.000000, 1171.000000)">
                <path d="M32.9511582,42.7177673 C29.3539612,41.6100314 24.6016657,41 19.5436567,41 C14.4856478,41 9.69702985,41.6100314 6.09971642,42.7177673 C2.1235791,43.9421321 0,45.6416164 0,47.6320755 L0,53.3679245 C0,55.3583836 2.13091343,57.0578679 6.10705075,58.2822327 C9.70424776,59.3899686 14.4856478,60 19.5436567,60 C24.6016657,60 29.3466269,59.3899686 32.9438239,58.2822327 C36.9199612,57.0578679 39,55.3583836 39,53.3679245 L39,47.6320755 C39,45.6416164 36.9272955,43.9421321 32.9511582,42.7177673 Z M37.2537313,53.3679245 C37.2537313,54.6294528 34.6791493,55.8787925 32.4492806,56.5654214 C29.0102955,57.624283 24.4363522,58.2075472 19.5436567,58.2075472 C14.6509612,58.2075472 10.0405791,57.624283 6.60159403,56.5654214 C4.37184179,55.8787925 1.74626866,54.6294528 1.74626866,53.3679245 L1.74626866,50.5309497 C2.79402985,51.2944151 4.24366567,51.9725597 6.10705075,52.5463836 C9.70424776,53.6541195 14.4856478,54.2641509 19.5436567,54.2641509 C24.6016657,54.2641509 29.3466269,53.6541195 32.9438239,52.5463836 C34.807209,51.9725597 36.3223881,51.2945346 37.2537313,50.5309497 L37.2537313,53.3679245 Z M19.558209,51.3962264 C21.0657045,51.3962264 22.2922836,50.138283 22.2939134,48.5912767 C26.6775134,48.7931069 30.6502746,49.4774654 33.4617672,50.4971321 C33.1321881,50.6185409 32.8013284,50.7301509 32.4783851,50.8295723 C29.0394,51.888434 24.4509045,52.4716981 19.558209,52.4716981 C14.6655134,52.4716981 10.0770179,51.888434 6.63803284,50.8295723 C6.31508955,50.7301509 5.98434627,50.6185409 5.65465075,50.4971321 C8.46614328,49.4774654 12.4389045,48.7932264 16.8225045,48.5912767 C16.8241343,50.138283 18.0507134,51.3962264 19.558209,51.3962264 Z M18.5686567,48.5881698 C18.5708687,48.2872767 18.986597,47.3977421 19.5584418,46.4193019 C20.1300537,47.3972642 20.5455493,48.2866792 20.5477612,48.5881698 C20.5477612,49.1481321 20.1037433,49.6037736 19.558209,49.6037736 C19.0126746,49.6037736 18.5686567,49.1480126 18.5686567,48.5881698 Z M35.662997,49.4861887 C32.5471881,47.9789748 27.4160687,46.9767547 21.7411612,46.7749245 C21.2492955,45.7364969 20.5646418,44.6828931 20.2765075,44.2547358 L19.5580925,43.1871509 L18.8396776,44.2547358 C18.5515433,44.6828931 17.8668896,45.7364969 17.3750239,46.7749245 C11.7002328,46.9767547 6.56911343,47.9788553 3.45318806,49.4861887 C2.48785075,48.9204906 1.80447761,48.277956 1.80447761,47.6320755 C1.80447761,46.3705472 4.40816418,45.1212075 6.63803284,44.4345786 C10.0770179,43.375717 14.6655134,42.7924528 19.558209,42.7924528 C24.4509045,42.7924528 29.0394,43.375717 32.4783851,44.4345786 C34.7082537,45.1212075 37.3119403,46.3705472 37.3119403,47.6320755 C37.3119403,48.277956 36.6285672,48.9204906 35.662997,49.4861887 Z" id="Shape"></path>
                <path d="M14.8738739,32.3545069 L19.5,37 L24.1261261,32.3545069 L24.1261261,18.8171872 L22.3693694,18.8171872 L22.3693694,31.6239296 L19.5,34.5053114 L16.6306306,31.6239296 L16.6306306,15.9946091 L26,15.9946091 L26,10.4670604 L24.1261261,10.4670604 L24.1261261,4.64549309 C24.1261261,2.08400348 22.0508108,0 19.5,0 C16.9491892,0 14.8738739,2.08400348 14.8738739,4.64549309 L14.8738739,10.4670604 L13,10.4670604 L13,15.9946091 L14.8738739,15.9946091 L14.8738739,32.3545069 Z M16.6306306,4.64549309 C16.6306306,3.05661685 17.9177477,1.7641113 19.5,1.7641113 C21.0822523,1.7641113 22.3693694,3.05661685 22.3693694,4.64549309 L22.3693694,10.4670604 L16.6306306,10.4670604 L16.6306306,4.64549309 Z M14.7567568,14.2304978 L14.7567568,12.2311717 L24.2432432,12.2311717 L24.2432432,14.2304978 L14.7567568,14.2304978 Z" id="Shape"></path>
            </g>
        </g>
    </g>
</svg>