<?xml version="1.0" encoding="UTF-8"?>
<svg width="27px" height="30px" viewBox="0 0 27 30" version="1.1" xmlns="http://www.w3.org/2000/svg" xmlns:xlink="http://www.w3.org/1999/xlink">
    <!-- Generator: Sketch 49.1 (51147) - http://www.bohemiancoding.com/sketch -->
    <title>Shape</title>
    <desc>Created with Sketch.</desc>
    <defs></defs>
    <g id="Desktop-Final" stroke="none" stroke-width="1" fill="none" fill-rule="evenodd">
        <g id="03-Wireframes-Labs" transform="translate(-973.000000, -653.000000)" fill="#D587D0" fill-rule="nonzero">
            <g id="Group-6" transform="translate(200.000000, 614.000000)">
                <g id="Group-17" transform="translate(773.000000, 39.000000)">
                    <path d="M16.5,29 L1.416,29 C1.1865,29 1,28.8135 1,28.584 L1,15.5 L26,15.5 L26,17 C26,17.2765 26.2235,17.5 26.5,17.5 C26.7765,17.5 27,17.2765 27,17 L27,1.416 C27,0.6355 26.3645,0 25.584,0 L1.416,0 C0.6355,0 0,0.6355 0,1.416 L0,28.584 C0,29.3645 0.6355,30 1.416,30 L16.5,30 C16.7765,30 17,29.7765 17,29.5 C17,29.2235 16.7765,29 16.5,29 Z M1.416,1 L25.584,1 C25.8135,1 26,1.19340741 26,1.43140741 L26,15 L1,15 L1,1.43140741 C1,1.19340741 1.1865,1 1.416,1 Z" id="Shape"></path>
                </g>
            </g>
        </g>
    </g>
</svg>