<?xml version="1.0" encoding="UTF-8"?>
<svg width="40px" height="40px" viewBox="0 0 40 40" version="1.1" xmlns="http://www.w3.org/2000/svg" xmlns:xlink="http://www.w3.org/1999/xlink">
    <!-- Generator: Sketch 49.1 (51147) - http://www.bohemiancoding.com/sketch -->
    <title>Group 27</title>
    <desc>Created with Sketch.</desc>
    <defs></defs>
    <g id="Desktop-Final" stroke="none" stroke-width="1" fill="none" fill-rule="evenodd">
        <g id="02-Wireframes-Health-Units" transform="translate(-359.000000, -2662.000000)" fill="#8064BC" fill-rule="nonzero">
            <g id="Group-27" transform="translate(359.000000, 2662.000000)">
                <path d="M29.2392969,16.0953125 C29.2857812,15.6177344 29.3110156,15.1358594 29.3110156,14.6555469 C29.3110938,6.57445313 22.7366406,0 14.6555469,0 C6.57445313,0 0,6.57445313 0,14.6555469 C0,22.7366406 6.57445313,29.3110938 14.6555469,29.3110938 C15.1359375,29.3110938 15.6177344,29.2858594 16.0953125,29.239375 C16.7097656,35.2748437 21.8217969,40 28.0167187,40 C34.6242969,40 40,34.6242969 40,28.0167187 C40,21.8217969 35.2748437,16.7097656 29.2392969,16.0953125 Z M16.0338281,27.9874219 C15.5771094,28.0339063 15.115625,28.0584375 14.655625,28.0584375 C7.26515625,28.0585156 1.25265625,22.0460156 1.25265625,14.655625 C1.25265625,7.26523437 7.26515625,1.25257812 14.6555469,1.25257812 C22.0459375,1.25257812 28.0584375,7.26507812 28.0584375,14.6554687 C28.0584375,15.1155469 28.0339844,15.5770312 27.9874219,16.0336719 C21.403125,16.0496094 16.0496875,21.4029688 16.0338281,27.9874219 Z M28.0167188,38.7474219 C22.0998438,38.7474219 17.2860156,33.9336719 17.2860156,28.0167188 C17.2860156,22.0997656 22.0997656,17.2860156 28.0167188,17.2860156 C33.9336719,17.2860156 38.7474219,22.0997656 38.7474219,28.0167188 C38.7474219,33.9336719 33.9335938,38.7474219 28.0167188,38.7474219 Z" id="Shape"></path>
                <path d="M28.0167188,18.705625 C22.8825781,18.705625 18.705625,22.8825781 18.705625,28.0167188 C18.705625,33.1508594 22.8825781,37.3278125 28.0167188,37.3278125 C33.1508594,37.3278125 37.3278125,33.1508594 37.3278125,28.0167188 C37.3278125,22.8825781 33.1507813,18.705625 28.0167188,18.705625 Z M28.0167188,36.0751563 C23.5732813,36.0751563 19.9582813,32.4601563 19.9582813,28.0167188 C19.9582813,23.5732813 23.5732813,19.9582813 28.0167188,19.9582813 C32.4601563,19.9582813 36.0751563,23.5732813 36.0751563,28.0167188 C36.0751563,32.4601563 32.4601563,36.0751563 28.0167188,36.0751563 Z" id="Shape"></path>
                <path d="M28.6429688,27.5590625 L28.6429688,24.6911719 C29.5034375,24.8516406 30.0625781,25.3271094 30.0625781,25.7619531 C30.0625781,26.1078125 30.3429688,26.3882812 30.6889063,26.3882812 C31.0347656,26.3882812 31.3152344,26.1078906 31.3152344,25.7619531 C31.3152344,24.5824219 30.1830469,23.6292969 28.6429688,23.4236719 L28.6429688,22.6721875 C28.6429688,22.3263281 28.3625781,22.0458594 28.0166406,22.0458594 C27.6707031,22.0458594 27.3903125,22.32625 27.3903125,22.6721875 L27.3903125,23.4236719 C25.8502344,23.6292969 24.7180469,24.5823437 24.7180469,25.7619531 C24.7180469,27.4302344 26.1922656,28.0786719 27.3903125,28.4742969 L27.3903125,31.3421875 C26.5298438,31.1817187 25.9707031,30.7063281 25.9707031,30.2714062 C25.9707031,29.9255469 25.6903125,29.6450781 25.344375,29.6450781 C24.9984375,29.6450781 24.7180469,29.9254687 24.7180469,30.2714062 C24.7180469,31.4509375 25.8502344,32.4040625 27.3903125,32.6096875 L27.3903125,33.3611719 C27.3903125,33.7070312 27.6707031,33.9875 28.0166406,33.9875 C28.3625781,33.9875 28.6429688,33.7071094 28.6429688,33.3611719 L28.6429688,32.6096875 C30.1830469,32.4040625 31.3152344,31.4510156 31.3152344,30.2714062 C31.3152344,28.603125 29.8410156,27.9546875 28.6429688,27.5590625 Z M27.3903906,27.1410156 C26.3217969,26.7332812 25.9707813,26.3644531 25.9707813,25.7619531 C25.9707813,25.3270312 26.5299219,24.8516406 27.3903906,24.6911719 L27.3903906,27.1410156 Z M28.6429688,31.3421875 L28.6429688,28.8923437 C29.7115625,29.3000781 30.0625781,29.6689062 30.0625781,30.2714062 C30.0626563,30.7063281 29.5034375,31.1817187 28.6429688,31.3421875 Z" id="Shape"></path>
                <path d="M21.1624219,9.5946875 C20.9500781,9.32164063 20.5565625,9.27242188 20.2835938,9.48484375 L15.7383594,13.0200781 C15.4278125,12.8138281 15.0555469,12.6932031 14.655625,12.6932031 C14.3425781,12.6932031 14.0467188,12.7672656 13.7839063,12.898125 L8.41789063,7.53210938 C8.17328125,7.2875 7.77671875,7.2875 7.5321875,7.53210938 C7.28757813,7.77671875 7.28757813,8.17328125 7.5321875,8.4178125 L12.8982031,13.7838281 C12.7672656,14.0466406 12.6932813,14.3425781 12.6932813,14.6555469 C12.6932813,15.7376563 13.5735938,16.6179688 14.6557031,16.6179688 C15.7378125,16.6179688 16.6179688,15.7376563 16.6179688,14.6555469 C16.6179688,14.4288281 16.5789063,14.2110938 16.5078125,14.0082813 L21.0525781,10.4735156 C21.3257031,10.2610938 21.3748438,9.86765625 21.1624219,9.5946875 Z M14.6555469,15.3653125 C14.2641406,15.3653125 13.9457031,15.046875 13.9457031,14.6554688 C13.9457031,14.2640625 14.2641406,13.945625 14.6555469,13.945625 C15.0469531,13.945625 15.3653906,14.2640625 15.3653906,14.6554688 C15.3653906,15.046875 15.0469531,15.3653125 14.6555469,15.3653125 Z" id="Shape"></path>
                <path d="M14.6555469,2.67226562 C14.3096875,2.67226562 14.0292187,2.95265625 14.0292187,3.29859375 L14.0292187,4.6346875 C14.0292187,4.98054687 14.3096094,5.26101562 14.6555469,5.26101562 C15.0014844,5.26101562 15.281875,4.980625 15.281875,4.6346875 L15.281875,3.29851562 C15.281875,2.95265625 15.0014062,2.67226562 14.6555469,2.67226562 Z" id="Shape"></path>
                <path d="M14.6555469,24.0500781 C14.3096875,24.0500781 14.0292187,24.3304687 14.0292187,24.6764062 L14.0292187,26.0125 C14.0292187,26.3583594 14.3096094,26.6388281 14.6555469,26.6388281 C15.0014844,26.6388281 15.281875,26.3584375 15.281875,26.0125 L15.281875,24.6764062 C15.281875,24.3305469 15.0014062,24.0500781 14.6555469,24.0500781 Z" id="Shape"></path>
                <path d="M26.0125,14.0292187 L24.6764063,14.0292187 C24.3305469,14.0292187 24.0500781,14.3096094 24.0500781,14.6555469 C24.0500781,15.0014844 24.3304688,15.281875 24.6764063,15.281875 L26.0125,15.281875 C26.3583594,15.281875 26.6388281,15.0014844 26.6388281,14.6555469 C26.6388281,14.3096094 26.3584375,14.0292187 26.0125,14.0292187 Z" id="Shape"></path>
                <path d="M4.6346875,14.0292187 L3.29851563,14.0292187 C2.95265625,14.0292187 2.6721875,14.3096094 2.6721875,14.6555469 C2.6721875,15.0014844 2.95257813,15.281875 3.29851563,15.281875 L4.63460938,15.281875 C4.98046875,15.281875 5.2609375,15.0014844 5.2609375,14.6555469 C5.2609375,14.3096094 4.98054688,14.0292187 4.6346875,14.0292187 Z" id="Shape"></path>
                <path d="M20.6471875,4.27773437 C20.3475781,4.10460937 19.9646094,4.20742187 19.7916406,4.50695312 L19.4575781,5.08546875 C19.2846094,5.385 19.3872656,5.76804687 19.6867969,5.94101562 C19.7853906,5.99796875 19.893125,6.025 19.999375,6.025 C20.2158594,6.025 20.4263281,5.91257812 20.5423437,5.71179687 L20.8764062,5.13328125 C21.049375,4.83375 20.9467187,4.45070312 20.6471875,4.27773437 Z" id="Shape"></path>
                <path d="M9.62421875,23.37 C9.3246875,23.196875 8.94164062,23.2996875 8.76867187,23.5992187 L8.43460937,24.1777344 C8.26164062,24.4772656 8.36429687,24.8603125 8.66382812,25.0332812 C8.76242187,25.0902344 8.87015625,25.1172656 8.97640625,25.1172656 C9.19289062,25.1172656 9.40335937,25.0048437 9.519375,24.8040625 L9.8534375,24.2255469 C10.0264062,23.9260156 9.92375,23.5429687 9.62421875,23.37 Z" id="Shape"></path>
                <path d="M9.8534375,5.08554687 L9.519375,4.50703125 C9.34640625,4.20742187 8.96335937,4.10476562 8.66382812,4.2778125 C8.36429687,4.45078125 8.26164062,4.83382812 8.43460937,5.13335937 L8.76867187,5.711875 C8.8846875,5.9128125 9.09515625,6.02507812 9.31164062,6.02507812 C9.41789062,6.02507812 9.525625,5.99804687 9.62421875,5.94109375 C9.92375,5.768125 10.0264062,5.38507812 9.8534375,5.08554687 Z" id="Shape"></path>
                <path d="M5.71179688,8.76867187 L5.13328125,8.43460937 C4.83375,8.2615625 4.45070313,8.36421875 4.27773438,8.66382812 C4.10476563,8.96335937 4.20742188,9.34640625 4.50695313,9.519375 L5.08546875,9.8534375 C5.1840625,9.91039062 5.29179688,9.93742187 5.39804688,9.93742187 C5.61453125,9.93742187 5.825,9.825 5.94101563,9.62421875 C6.11398438,9.3246875 6.01132813,8.94164062 5.71179688,8.76867187 Z" id="Shape"></path>
                <path d="M25.0333594,8.66390625 C24.8603906,8.36429687 24.4773437,8.26171875 24.1778125,8.4346875 L23.5992969,8.76875 C23.2997656,8.94171875 23.1971094,9.32476562 23.3700781,9.62429687 C23.4860937,9.82523437 23.6965625,9.9375 23.9130469,9.9375 C24.0192969,9.9375 24.1270312,9.91046875 24.225625,9.85351562 L24.8041406,9.51945312 C25.1036719,9.34648437 25.20625,8.9634375 25.0333594,8.66390625 Z" id="Shape"></path>
                <path d="M5.94101563,19.686875 C5.76804688,19.3872656 5.38492188,19.2846875 5.08546875,19.4576562 L4.50695313,19.7917187 C4.20742188,19.9646875 4.10476563,20.3477344 4.27773438,20.6472656 C4.39375,20.8482031 4.60421875,20.9604687 4.82070313,20.9604687 C4.92695313,20.9604687 5.0346875,20.9334375 5.13328125,20.8764844 L5.71179688,20.5424219 C6.01132813,20.3694531 6.11398438,19.9864062 5.94101563,19.686875 Z" id="Shape"></path>
            </g>
        </g>
    </g>
</svg>