<?xml version="1.0" encoding="UTF-8"?>
<svg width="47px" height="60px" viewBox="0 0 47 60" version="1.1" xmlns="http://www.w3.org/2000/svg" xmlns:xlink="http://www.w3.org/1999/xlink">
    <!-- Generator: Sketch 49.1 (51147) - http://www.bohemiancoding.com/sketch -->
    <title>Group 15</title>
    <desc>Created with Sketch.</desc>
    <defs></defs>
    <g id="Desktop-Final" stroke="none" stroke-width="1" fill="none" fill-rule="evenodd">
        <g id="05-Wireframes-Patients-&amp;-Family" transform="translate(-1184.000000, -1171.000000)" fill="#7F7EBC" fill-rule="nonzero">
            <g id="Group-15" transform="translate(1184.000000, 1171.000000)">
                <path d="M43.2355294,47.6025 L43.2354118,45 L44.2352941,45 L44.2352941,43.2421875 L36.7058824,43.2421875 L36.7058824,45 L37.6470588,45 L37.6470588,47.6023828 C36.3529412,48.2374219 35.2616471,49.31625 34.614,50.625 L32.8235294,50.625 L32.8235294,45 L33.7647059,45 L33.7647059,43.2421875 L26.2352941,43.2421875 L26.2352941,45 L27.2941176,45 L27.2941176,54.375 L1.76470588,54.375 L1.76470588,5.5078125 L13.1764706,5.5078125 L13.1764706,7.5 L3.76470588,7.5 L3.76470588,52.3828125 L25.4117647,52.3828125 L25.4117647,50.625 L5.52941176,50.625 L5.52941176,9.2578125 L37.6470588,9.2578125 L37.6470588,41.25 L39.4117647,41.25 L39.4117647,7.5 L30,7.5 L30,5.5078125 L41.4117647,5.5078125 L41.4117647,41.25 L43.1764706,41.25 L43.1764706,3.75 L30,3.75 L30,1.875 L26.2352941,1.875 L26.2352941,0 L16.9411765,0 L16.9411765,1.875 L13.1764706,1.875 L13.1764706,3.75 L0,3.75 L0,56.1328125 L27.2941176,56.1328125 L27.2941176,57.2460938 C27.2941176,58.7646094 28.5343529,60 30.0588235,60 C31.5832941,60 32.8235294,58.7646094 32.8235294,57.2460938 L32.8235294,56.1328125 L34.504,56.1328125 C35.5216471,58.4085938 37.8123529,60 40.4705882,60 C44.0709412,60 47,57.0823828 47,53.4960938 C47,50.9571094 45.5108235,48.6623437 43.2355294,47.6025 Z M18.7058824,3.6328125 L18.7058824,1.7578125 L24.4705882,1.7578125 L24.4705882,3.6328125 L28.2352941,3.6328125 L28.2352941,7.5 L14.9411765,7.5 L14.9411765,3.6328125 L18.7058824,3.6328125 Z M38.8528235,49.0197656 L39.4117647,48.8126953 L39.4117647,45 L41.4707059,45 L41.4710588,48.8128125 L42.0591765,49.02 C43.6764706,49.5895313 44.8412941,50.9779687 45.1521176,52.6171875 L35.7890588,52.6171875 C36.0998824,50.9777344 37.2355294,49.5891797 38.8528235,49.0197656 Z M31.0588235,45 L31.0588235,52.6171875 L29.0588235,52.6171875 L29.0588235,45 L31.0588235,45 Z M30.0588235,58.2421875 C29.5074118,58.2421875 29.0588235,57.7953516 29.0588235,57.2460938 L29.0588235,54.375 L31.0588235,54.375 L31.0588235,57.2460938 C31.0588235,57.7953516 30.6102353,58.2421875 30.0588235,58.2421875 Z M32.8235294,54.375 L32.8235294,52.3828125 L34.0384706,52.3828125 C33.9749412,52.7464453 33.9411765,53.1183984 33.9411765,53.4960938 C33.9411765,53.7943359 33.9631765,54.0873047 34.0024706,54.375 L32.8235294,54.375 Z M40.4705882,58.2421875 C38.1449412,58.2421875 36.2042353,56.5733203 35.7891765,54.375 L45.1521176,54.375 C44.7369412,56.5733203 42.7962353,58.2421875 40.4705882,58.2421875 Z" id="Shape"></path>
                <rect id="Rectangle-path" x="8" y="39" width="11" height="2"></rect>
                <rect id="Rectangle-path" x="8" y="42" width="8" height="2"></rect>
                <rect id="Rectangle-path" x="18" y="42" width="2" height="2"></rect>
                <rect id="Rectangle-path" x="22" y="39" width="2" height="2"></rect>
                <path d="M28.4801841,36 L28.4801841,32.6607614 L31.572251,30.5811648 C32.0378243,30.9483068 32.6358996,31.1676136 33.268887,31.1676136 C34.7869791,31.1676136 36,29.9097614 36,28.3636364 C36,27.1303636 35.2751632,26.0813182 34.1036151,25.7068977 L34.1036151,22.1574205 L30.2889372,19.5474545 C30.3505607,19.3147841 30.3985941,19.0704205 30.3985941,18.8181818 C30.3985941,17.2720568 29.1708117,16.0142045 27.6527197,16.0142045 C26.1346276,16.0142045 24.9032134,17.2720568 24.9032134,18.8181818 C24.9032134,19.0704205 24.938477,19.3147841 25.0001004,19.5474545 L22.0064435,21.5608295 L17.2333222,18.3392386 L17.2333222,15 L15.476,15 L15.476,18.3392386 L12.4425105,20.4188352 C11.9769372,20.0516932 11.4081506,19.8323864 10.7751632,19.8323864 C9.25707113,19.8323864 8,21.0902386 8,22.6363636 C8,23.8696364 8.79817573,24.9186818 9.85256904,25.2931023 L9.85256904,28.8425795 L13.7258243,31.4525455 C13.6642008,31.6852159 13.6454561,31.9295795 13.6454561,32.1818182 C13.6454561,33.7279432 14.8877657,34.9857955 16.4058577,34.9857955 C17.9239498,34.9857955 19.1626276,33.7279432 19.1626276,32.1818182 C19.1626276,31.9295795 19.1309958,31.6852159 19.0693724,31.4525455 L22.0063264,29.4391705 L26.7227448,32.6607614 L26.7227448,36 L28.4801841,36 Z M33.2835314,29.3778409 C32.7344268,29.3778409 32.2877155,28.9228807 32.2877155,28.3636364 C32.2877155,27.804392 32.7344268,27.3494318 33.2835314,27.3494318 C33.832636,27.3494318 34.2793473,27.804392 34.2793473,28.3636364 C34.2793473,28.9228807 33.832636,29.3778409 33.2835314,29.3778409 Z M32.3462929,25.7068977 C31.2918996,26.0813182 30.5011046,27.1303636 30.5011046,28.3636364 C30.5011046,28.615875 30.5491381,28.8602386 30.6107615,29.0929091 L27.623431,31.1062841 L22.8567531,27.8846932 L22.8567531,23.1151875 L25.9488201,21.0355909 C26.4143933,21.402733 27.0124686,21.6220398 27.6454561,21.6220398 C28.2784435,21.6220398 28.8398494,21.402733 29.3055397,21.0355909 L32.3462929,23.1151875 L32.3462929,25.7068977 Z M27.6601004,17.8039773 C28.209205,17.8039773 28.6559163,18.2589375 28.6559163,18.8181818 C28.6559163,19.3774261 28.209205,19.8323864 27.6601004,19.8323864 C27.1109958,19.8323864 26.6642845,19.3774261 26.6642845,18.8181818 C26.6642845,18.2589375 27.1109958,17.8039773 27.6601004,17.8039773 Z M10.7898075,21.6221591 C11.3389121,21.6221591 11.7856234,22.0771193 11.7856234,22.6363636 C11.7856234,23.195608 11.3389121,23.6505682 10.7898075,23.6505682 C10.2407029,23.6505682 9.79399163,23.195608 9.79399163,22.6363636 C9.79399163,22.0771193 10.2407029,21.6221591 10.7898075,21.6221591 Z M16.4132385,33.1960227 C15.8641339,33.1960227 15.4174226,32.7410625 15.4174226,32.1818182 C15.4174226,31.6225739 15.8641339,31.1676136 16.4132385,31.1676136 C16.9623431,31.1676136 17.4090544,31.6225739 17.4090544,32.1818182 C17.4090544,32.7410625 16.9623431,33.1960227 16.4132385,33.1960227 Z M21.099431,27.8846932 L18.0659414,29.9642898 C17.6003682,29.5971477 17.0315816,29.3778409 16.3985941,29.3778409 C15.7654895,29.3778409 15.1601506,29.5971477 14.6945774,29.9642898 L11.6098912,27.8846932 L11.6098912,25.292983 C12.7814393,24.9185625 13.5136569,23.869517 13.5136569,22.6362443 C13.5136569,22.3840057 13.4949121,22.139642 13.4332887,21.9069716 L16.3766862,19.8935966 L21.0995481,23.1151875 L21.099431,27.8846932 Z" id="Shape"></path>
            </g>
        </g>
    </g>
</svg>