<?xml version="1.0" encoding="UTF-8"?>
<svg width="27px" height="25px" viewBox="0 0 27 25" version="1.1" xmlns="http://www.w3.org/2000/svg" xmlns:xlink="http://www.w3.org/1999/xlink">
    <!-- Generator: Sketch 49.1 (51147) - http://www.bohemiancoding.com/sketch -->
    <title>Group 16</title>
    <desc>Created with Sketch.</desc>
    <defs></defs>
    <g id="Desktop-Final" stroke="none" stroke-width="1" fill="none" fill-rule="evenodd">
        <g id="05-Wireframes-Patients-&amp;-Family" transform="translate(-628.000000, -651.000000)" fill="#8181D3" fill-rule="nonzero">
            <g id="Group-31" transform="translate(207.000000, 614.000000)">
                <g id="Group-22" transform="translate(421.000000, 37.000000)">
                    <g id="Group-16">
                        <path d="M26.7643636,8.10624793 C26.7674876,8.08795041 26.7692727,8.07009917 26.7701653,8.05135537 C26.7710579,8.0294876 26.7706116,8.0085124 26.7688264,7.98664463 C26.7670413,7.96790083 26.7643636,7.95004959 26.7599008,7.93175207 C26.7549917,7.91033058 26.7482975,7.88980165 26.7402645,7.86927273 C26.7362479,7.85856198 26.7353554,7.84740496 26.7304463,7.8371405 C26.726876,7.82955372 26.7206281,7.82375207 26.7166116,7.81616529 C26.712595,7.80857851 26.7108099,7.80054545 26.7063471,7.79295868 L22.2435372,0.65246281 C22.2230083,0.619884298 22.1989091,0.590429752 22.171686,0.564545455 C22.1712397,0.564099174 22.1707934,0.564099174 22.1703471,0.563652893 C22.1319669,0.527504132 22.0864463,0.501619835 22.0378017,0.481090909 C22.0315537,0.478413223 22.0275372,0.473057851 22.020843,0.470380165 C22.0159339,0.468595041 22.0105785,0.469487603 22.0056694,0.46814876 C21.960595,0.452975207 21.9141818,0.442710744 21.8655372,0.442710744 L4.9068595,0.442710744 C4.85866116,0.442710744 4.81269421,0.452975207 4.7685124,0.467702479 C4.76360331,0.469041322 4.75869421,0.46814876 4.7542314,0.469933884 C4.74753719,0.472165289 4.74352066,0.477520661 4.73727273,0.480198347 C4.6908595,0.49938843 4.64712397,0.524380165 4.60919008,0.558297521 C4.60695868,0.560528926 4.60383471,0.561867769 4.60160331,0.563652893 C4.57393388,0.58953719 4.54938843,0.619438017 4.5288595,0.652016529 L0.0660495868,7.7925124 C0.0615867769,7.79965289 0.0598016529,7.80813223 0.055785124,7.81571901 C0.051768595,7.82330579 0.0455206612,7.82910744 0.0419504132,7.83669421 C0.0370413223,7.84695868 0.0361487603,7.8581157 0.0316859504,7.86882645 C0.0236528926,7.88935537 0.0169586777,7.9098843 0.0120495868,7.93130579 C0.00803305785,7.94960331 0.00490909091,7.96790083 0.00312396694,7.98664463 C-1.19832482e-13,8.0085124 -0.000446280992,8.02993388 0.000446280992,8.05135537 C0.00133884298,8.07009917 0.00312396694,8.08795041 0.00624793388,8.10624793 C0.00981818182,8.12766942 0.0156198347,8.14864463 0.0227603306,8.16961983 C0.0285619835,8.18702479 0.0348099174,8.20398347 0.0428429752,8.22094215 C0.0468595041,8.22897521 0.0481983471,8.23790083 0.052661157,8.24593388 C0.0598016529,8.25887603 0.0705123967,8.26869421 0.0785454545,8.2807438 C0.0847933884,8.2901157 0.0883636364,8.30038017 0.0959504132,8.30930579 L13.0331901,24.3691736 C13.0340826,24.3705124 13.0349752,24.371405 13.0358678,24.3722975 L13.0380992,24.3754215 C13.039438,24.3772066 13.0416694,24.3776529 13.0430083,24.379438 C13.0796033,24.4236198 13.125124,24.4570909 13.1746612,24.4838678 C13.1880496,24.4910083 13.2005455,24.4972562 13.2143802,24.5030579 C13.2683802,24.5258182 13.3255041,24.5418843 13.3853058,24.5418843 C13.4361818,24.5418843 13.4875041,24.5329587 13.5383802,24.5146612 C13.5459669,24.5119835 13.550876,24.5057355 13.5584628,24.5026116 C13.5812231,24.4932397 13.5990744,24.4780661 13.6196033,24.465124 C13.6535207,24.4437025 13.6852066,24.4213884 13.7115372,24.3923802 C13.7177851,24.385686 13.727157,24.382562 13.7329587,24.3754215 L26.6751074,8.30930579 C26.6822479,8.30038017 26.6858182,8.28966942 26.6925124,8.2807438 C26.7009917,8.26869421 26.7112562,8.25887603 26.7183967,8.24593388 C26.7228595,8.23790083 26.7241983,8.22897521 26.7282149,8.22094215 C26.7362479,8.20398347 26.7424959,8.18747107 26.7482975,8.16961983 C26.7545455,8.14864463 26.7607934,8.1281157 26.7643636,8.10624793 Z M14.3233884,1.33571901 L21.2224463,1.33571901 L19.0535207,7.15745455 L14.3233884,1.33571901 Z M18.2493223,7.58365289 L8.52173554,7.58365289 L13.3853058,1.59768595 L18.2493223,7.58365289 Z M7.68585124,7.19628099 L5.54414876,1.33571901 L12.4476694,1.33571901 L7.68585124,7.19628099 Z M18.5621653,8.47621488 L13.3072066,22.5813719 L8.15310744,8.47621488 L18.5621653,8.47621488 Z M21.9663967,1.89490909 L25.5219174,7.58409917 L19.8470083,7.58409917 L21.9663967,1.89490909 Z M4.80019835,1.90071074 L6.8767438,7.58365289 L1.24869421,7.58365289 L4.80019835,1.90071074 Z M7.20297521,8.47621488 L12.0402149,21.7146942 L1.3758843,8.47621488 L7.20297521,8.47621488 Z M14.4550413,22.0565455 L19.5145289,8.47621488 L25.3947273,8.47621488 L14.4550413,22.0565455 Z" id="Shape"></path>
                    </g>
                </g>
            </g>
        </g>
    </g>
</svg>