<?xml version="1.0" encoding="UTF-8"?>
<svg width="44px" height="35px" viewBox="0 0 44 35" version="1.1" xmlns="http://www.w3.org/2000/svg" xmlns:xlink="http://www.w3.org/1999/xlink">
    <!-- Generator: Sketch 49.1 (51147) - http://www.bohemiancoding.com/sketch -->
    <title>Group 14</title>
    <desc>Created with Sketch.</desc>
    <defs></defs>
    <g id="Desktop-Final" stroke="none" stroke-width="1" fill="none" fill-rule="evenodd">
        <g id="01-Wireframes-Homepage" transform="translate(-593.000000, -1479.000000)" fill="#8064BC" fill-rule="nonzero">
            <g id="Group-14" transform="translate(593.000000, 1479.000000)">
                <path d="M21.6447368,8.37697368 C22.0263289,8.37697368 22.3355263,8.06768421 22.3355263,7.68618421 L22.3355263,4.92302632 C22.3355263,4.54152632 22.0263289,4.23223684 21.6447368,4.23223684 C21.2631447,4.23223684 20.9539474,4.54152632 20.9539474,4.92302632 L20.9539474,7.68618421 C20.9539474,8.06768421 21.2631447,8.37697368 21.6447368,8.37697368 Z" id="Shape"></path>
                <path d="M21.6447368,28.9024474 C22.0263289,28.9024474 22.3355263,28.5931579 22.3355263,28.2116579 L22.3355263,10.4493421 C22.3355263,10.0678421 22.0263289,9.75855263 21.6447368,9.75855263 C21.2631447,9.75855263 20.9539474,10.0678421 20.9539474,10.4493421 L20.9539474,28.2116579 C20.9539474,28.5931579 21.2631447,28.9024474 21.6447368,28.9024474 Z" id="Shape"></path>
                <path d="M42.5986842,2.81169737 C42.2170921,2.81169737 41.9078947,3.12098684 41.9078947,3.50248684 L41.9078947,32.4267632 L24.2911053,32.4267632 C23.9375132,32.4267632 23.6082368,32.5947632 23.3999868,32.8787237 L22.8078421,33.5696974 L20.4818158,33.5698816 L19.8893947,32.8789079 C19.6807763,32.5948553 19.3514079,32.4267632 18.9981842,32.4267632 L1.38157895,32.4267632 L1.38157895,3.50248684 C1.38157895,3.12098684 1.07238158,2.81169737 0.690789474,2.81169737 C0.309197368,2.81169737 0,3.12098684 0,3.50248684 L0,33.1175526 C0,33.4990526 0.309197368,33.8083421 0.690789474,33.8083421 L18.8665658,33.8083421 L19.6398816,34.7103289 C19.7711316,34.8634079 19.9627105,34.9514605 20.1643289,34.9514605 L23.1256974,34.9511842 C23.3273158,34.9511842 23.5189868,34.8630395 23.6501447,34.7098684 L24.4228158,33.80825 L42.5986842,33.80825 C42.9802763,33.80825 43.2894737,33.4989605 43.2894737,33.1174605 L43.2894737,3.50248684 C43.2894737,3.12098684 42.9802763,2.81169737 42.5986842,2.81169737 Z" id="Shape"></path>
                <path d="M3.45394737,31.0451842 L18.9983684,31.0451842 C19.8325658,31.0451842 20.6068026,31.4604868 21.0696316,32.15625 C21.19775,32.34875 21.4135526,32.4644342 21.6448289,32.4644342 C21.8760132,32.4644342 22.0919079,32.34875 22.2199342,32.1561579 C22.6824868,31.4604868 23.4568158,31.0451842 24.2911053,31.0451842 L39.8355263,31.0451842 C40.2171184,31.0451842 40.5263158,30.7358947 40.5263158,30.3543947 L40.5263158,0.739328947 C40.5263158,0.357828947 40.2171184,0.0485394737 39.8355263,0.0485394737 L24.2911053,0.0485394737 C23.2948947,0.0485394737 22.3536711,0.429302632 21.6447368,1.09605263 C20.9357105,0.429394737 19.9945789,0.0485394737 18.9983684,0.0485394737 L3.45394737,0.0485394737 C3.07235526,0.0485394737 2.76315789,0.357828947 2.76315789,0.739328947 L2.76315789,30.3543947 C2.76315789,30.7358947 3.07235526,31.0451842 3.45394737,31.0451842 Z M4.14473684,1.43011842 L18.9983684,1.43011842 C19.8324737,1.43011842 20.6067105,1.84588158 21.0694474,2.54228947 C21.1974737,2.73497368 21.4133684,2.85075 21.6447368,2.85075 C21.8761053,2.85075 22.092,2.73497368 22.2201184,2.54228947 C22.6827632,1.84588158 23.457,1.43021053 24.2911053,1.43021053 L39.1447368,1.43011842 L39.1447368,29.6636974 L24.2911053,29.6636974 C23.2948026,29.6636974 22.3536711,30.0441842 21.6446447,30.7102895 C20.9356184,30.0441842 19.9944868,29.6636974 18.9983684,29.6636974 L4.14473684,29.6636974 L4.14473684,1.43011842 Z" id="Shape"></path>
                <path d="M17.9605263,3.73275 L7.13815789,3.73275 C6.75656579,3.73275 6.44736842,4.04203947 6.44736842,4.42353947 C6.44736842,4.80503947 6.75656579,5.11432895 7.13815789,5.11432895 L17.9605263,5.11432895 C18.3421184,5.11432895 18.6513158,4.80503947 18.6513158,4.42353947 C18.6513158,4.04203947 18.3421184,3.73275 17.9605263,3.73275 Z" id="Shape"></path>
                <path d="M17.9605263,6.49590789 L7.13815789,6.49590789 C6.75656579,6.49590789 6.44736842,6.80519737 6.44736842,7.18669737 C6.44736842,7.56819737 6.75656579,7.87748684 7.13815789,7.87748684 L17.9605263,7.87748684 C18.3421184,7.87748684 18.6513158,7.56819737 18.6513158,7.18669737 C18.6513158,6.80519737 18.3421184,6.49590789 17.9605263,6.49590789 Z" id="Shape"></path>
                <path d="M17.9605263,9.25906579 L7.13815789,9.25906579 C6.75656579,9.25906579 6.44736842,9.56835526 6.44736842,9.94985526 C6.44736842,10.3313553 6.75656579,10.6406447 7.13815789,10.6406447 L17.9605263,10.6406447 C18.3421184,10.6406447 18.6513158,10.3313553 18.6513158,9.94985526 C18.6513158,9.56835526 18.3421184,9.25906579 17.9605263,9.25906579 Z" id="Shape"></path>
                <path d="M17.9605263,12.0222237 L7.13815789,12.0222237 C6.75656579,12.0222237 6.44736842,12.3315132 6.44736842,12.7130132 C6.44736842,13.0945132 6.75656579,13.4038026 7.13815789,13.4038026 L17.9605263,13.4038026 C18.3421184,13.4038026 18.6513158,13.0945132 18.6513158,12.7130132 C18.6513158,12.3315132 18.3421184,12.0222237 17.9605263,12.0222237 Z" id="Shape"></path>
                <path d="M17.9605263,14.7853816 L7.13815789,14.7853816 C6.75656579,14.7853816 6.44736842,15.0946711 6.44736842,15.4761711 C6.44736842,15.8576711 6.75656579,16.1669605 7.13815789,16.1669605 L17.9605263,16.1669605 C18.3421184,16.1669605 18.6513158,15.8576711 18.6513158,15.4761711 C18.6513158,15.0946711 18.3421184,14.7853816 17.9605263,14.7853816 Z" id="Shape"></path>
                <path d="M7.13815789,18.9301184 L12.5493421,18.9301184 C12.9309342,18.9301184 13.2401316,18.6208289 13.2401316,18.2393289 C13.2401316,17.8578289 12.9309342,17.5485395 12.5493421,17.5485395 L7.13815789,17.5485395 C6.75656579,17.5485395 6.44736842,17.8578289 6.44736842,18.2393289 C6.44736842,18.6208289 6.75656579,18.9301184 7.13815789,18.9301184 Z" id="Shape"></path>
                <path d="M17.9605263,20.3116974 L7.13815789,20.3116974 C6.75656579,20.3116974 6.44736842,20.6209868 6.44736842,21.0024868 L6.44736842,26.6701842 C6.44736842,27.0516842 6.75656579,27.3609737 7.13815789,27.3609737 L17.9605263,27.3609737 C18.3421184,27.3609737 18.6513158,27.0516842 18.6513158,26.6701842 L18.6513158,21.0024868 C18.6513158,20.6209868 18.3421184,20.3116974 17.9605263,20.3116974 Z M17.2697368,25.9793947 L7.82894737,25.9793947 L7.82894737,21.6932763 L17.2697368,21.6932763 L17.2697368,25.9793947 Z" id="Shape"></path>
                <path d="M24.4078947,16.3083421 L35.2302632,16.3083421 C35.6118553,16.3083421 35.9210526,15.9990526 35.9210526,15.6175526 C35.9210526,15.2360526 35.6118553,14.9267632 35.2302632,14.9267632 L24.4078947,14.9267632 C24.0263026,14.9267632 23.7171053,15.2360526 23.7171053,15.6175526 C23.7171053,15.9990526 24.0263026,16.3083421 24.4078947,16.3083421 Z" id="Shape"></path>
                <path d="M24.4078947,19.0715 L35.2302632,19.0715 C35.6118553,19.0715 35.9210526,18.7622105 35.9210526,18.3807105 C35.9210526,17.9992105 35.6118553,17.6899211 35.2302632,17.6899211 L24.4078947,17.6899211 C24.0263026,17.6899211 23.7171053,17.9992105 23.7171053,18.3807105 C23.7171053,18.7622105 24.0263026,19.0715 24.4078947,19.0715 Z" id="Shape"></path>
                <path d="M24.4078947,21.8346579 L35.2302632,21.8346579 C35.6118553,21.8346579 35.9210526,21.5253684 35.9210526,21.1438684 C35.9210526,20.7623684 35.6118553,20.4530789 35.2302632,20.4530789 L24.4078947,20.4530789 C24.0263026,20.4530789 23.7171053,20.7623684 23.7171053,21.1438684 C23.7171053,21.5253684 24.0263026,21.8346579 24.4078947,21.8346579 Z" id="Shape"></path>
                <path d="M24.4078947,24.5978158 L35.2302632,24.5978158 C35.6118553,24.5978158 35.9210526,24.2885263 35.9210526,23.9070263 C35.9210526,23.5255263 35.6118553,23.2162368 35.2302632,23.2162368 L24.4078947,23.2162368 C24.0263026,23.2162368 23.7171053,23.5255263 23.7171053,23.9070263 C23.7171053,24.2885263 24.0263026,24.5978158 24.4078947,24.5978158 Z" id="Shape"></path>
                <path d="M24.4078947,27.3609737 L29.8190789,27.3609737 C30.2006711,27.3609737 30.5098684,27.0516842 30.5098684,26.6701842 C30.5098684,26.2886842 30.2006711,25.9793947 29.8190789,25.9793947 L24.4078947,25.9793947 C24.0263026,25.9793947 23.7171053,26.2886842 23.7171053,26.6701842 C23.7171053,27.0516842 24.0263026,27.3609737 24.4078947,27.3609737 Z" id="Shape"></path>
                <path d="M24.4078947,12.1636053 C24.0263026,12.1636053 23.7171053,12.4728947 23.7171053,12.8543947 C23.7171053,13.2358947 24.0263026,13.5451842 24.4078947,13.5451842 C25.3983026,13.5451842 26.2293684,13.2957632 26.9474211,12.8879211 C26.9838026,12.8706974 27.0184342,12.8507105 27.0510395,12.8276842 C28.2058553,12.1368026 29.0635395,11.0332895 29.8190789,9.90444737 C30.5743421,11.0328289 31.4316579,12.1359737 32.5858289,12.8268553 C32.6194474,12.8507105 32.6552763,12.8715263 32.6930395,12.8891184 C33.4105395,13.2961316 34.2409605,13.5450921 35.2303553,13.5450921 C35.6119474,13.5450921 35.9211447,13.2358026 35.9211447,12.8543026 C35.9211447,12.4728026 35.6119474,12.1635132 35.2303553,12.1635132 C34.6456711,12.1635132 34.1347632,12.0493947 33.6760789,11.8456579 L33.6760789,5.43209211 C34.1347632,5.22835526 34.6456711,5.11423684 35.2303553,5.11423684 C35.6119474,5.11423684 35.9211447,4.80494737 35.9211447,4.42344737 C35.9211447,4.04194737 35.6119474,3.73265789 35.2303553,3.73265789 C34.2405921,3.73265789 33.4098947,3.98180263 32.6921184,4.38909211 C32.655,4.40659211 32.6195395,4.42703947 32.5863816,4.45052632 C31.4319342,5.14140789 30.5745263,6.24464474 29.8191711,7.37321053 C29.0634474,6.24418421 28.2056711,5.14057895 27.0505789,4.44969737 C27.0184342,4.42703947 26.9842632,4.40732895 26.9484342,4.39038158 C26.2301974,3.98226316 25.3988553,3.73265789 24.4079868,3.73265789 C24.0263947,3.73265789 23.7171974,4.04194737 23.7171974,4.42344737 C23.7171974,4.80494737 24.0263947,5.11423684 24.4079868,5.11423684 C24.9926711,5.11423684 25.5035789,5.22835526 25.9622632,5.43209211 L25.9622632,11.8456579 C25.5034868,12.0494868 24.9925789,12.1636053 24.4078947,12.1636053 Z M32.2944079,6.42848684 L32.2944079,10.8494474 C31.6996842,10.2423816 31.1783684,9.47182895 30.6404737,8.63901316 C31.1783684,7.80610526 31.6996842,7.03546053 32.2944079,6.42848684 Z M27.34375,6.42848684 C27.9384737,7.03555263 28.4597895,7.80610526 28.9976842,8.63892105 C28.4596974,9.47173684 27.9384737,10.2423816 27.34375,10.8493553 L27.34375,6.42848684 Z" id="Shape"></path>
            </g>
        </g>
    </g>
</svg>