<?xml version="1.0" encoding="UTF-8"?>
<svg width="28px" height="20px" viewBox="0 0 28 20" version="1.1" xmlns="http://www.w3.org/2000/svg" xmlns:xlink="http://www.w3.org/1999/xlink">
    <!-- Generator: Sketch 49.1 (51147) - http://www.bohemiancoding.com/sketch -->
    <title>Group 21</title>
    <desc>Created with Sketch.</desc>
    <defs></defs>
    <g id="Desktop-Final" stroke="none" stroke-width="1" fill="none" fill-rule="evenodd">
        <g id="05-Wireframes-Patients-&amp;-Family" transform="translate(-985.000000, -709.000000)" fill="#8181D3" fill-rule="nonzero">
            <g id="Group-31" transform="translate(207.000000, 614.000000)">
                <g id="Group-21" transform="translate(778.000000, 95.000000)">
                    <path d="M24.3837952,11.1329338 C24.2026074,10.8978822 23.8651289,10.8541915 23.6299167,11.0354329 C23.394758,11.2166743 23.3511208,11.5542063 23.5323622,11.7893115 C24.0849745,12.5061386 24.3770489,13.3647999 24.3770489,14.272399 C24.3770489,14.5692387 24.6177225,14.8099123 24.9145622,14.8099123 C25.2114018,14.8099123 25.4520754,14.5691851 25.4520754,14.272399 C25.4520754,13.1251436 25.0826856,12.0395156 24.3837952,11.1329338 Z" id="Shape"></path>
                    <path d="M22.5775921,7.52652441 C23.6689492,6.78994007 24.3880251,5.54202475 24.3880251,4.12930558 C24.3880251,1.87050765 22.550339,0.0328215597 20.2915411,0.0328215597 C18.0327431,0.0328215597 16.195057,1.87050765 16.195057,4.12930558 C16.195057,5.54138224 16.9134369,6.78881568 18.0039908,7.52556064 C17.209527,7.79450468 16.4657144,8.20405135 15.8053211,8.7410292 C15.2465515,8.20362301 14.496635,7.89409375 13.7069365,7.89409375 C12.9172916,7.89409375 12.1673751,8.20373009 11.6089268,8.7410292 C10.9483192,8.20405135 10.2043996,7.79450468 9.40982871,7.5255071 C10.5003826,6.78876214 11.2187625,5.5413287 11.2187625,4.1291985 C11.2187625,1.87040056 9.38107638,0.0327144746 7.12227844,0.0327144746 C4.86374822,0.0327144746 3.02632984,1.87040056 3.02632984,4.1291985 C3.02632984,5.54191767 3.74524515,6.78977945 4.83644154,7.52641732 C2.03145644,8.47952757 0.00679989898,11.1365212 0.000749595163,14.2584244 C0.000588967628,14.2631897 0,14.2676873 0,14.272399 C0,15.0976497 0.468925317,16.3155812 2.70304016,17.4314072 C4.29496612,18.2265135 6.48260606,18.8242085 9.02951625,19.1597595 C10.5234594,19.3567959 12.0971809,19.4567598 13.7069365,19.4567598 C15.3170669,19.4567598 16.8909491,19.3568494 18.3848387,19.1597595 C20.9315347,18.8242085 23.119014,18.2265135 24.7108864,17.4314072 C26.9448407,16.3155277 27.413766,15.0976497 27.413766,14.272399 C27.413766,11.144499 25.3869142,8.48108031 22.5775921,7.52652441 Z M17.2701371,4.12930558 C17.2701371,2.46327679 18.6255658,1.10790165 20.2915411,1.10790165 C21.9575163,1.10790165 23.312945,2.46333033 23.312945,4.12930558 C23.312945,5.79506667 21.9575163,7.15017409 20.2915411,7.15017409 C18.6255658,7.15017409 17.2701371,5.79506667 17.2701371,4.12930558 Z M12.1030706,9.80893459 C12.4682841,9.28314713 13.067746,8.96917384 13.706883,8.96917384 C14.3463412,8.96917384 14.9460173,9.28314713 15.3111773,9.80893459 C15.3112308,9.80909522 15.3113379,9.80920231 15.3113914,9.80930939 C15.5392684,10.136936 15.6596319,10.521639 15.6596319,10.9219763 C15.6596319,11.9987698 14.7836229,12.8747788 13.7068294,12.8747788 C12.6303037,12.8747788 11.7545624,11.9987162 11.7545624,10.9219228 C11.7545624,10.5209965 11.8748724,10.1364006 12.1030706,9.80893459 Z M4.10130285,4.12930558 C4.10130285,2.46327679 5.45646382,1.10790165 7.12217136,1.10790165 C8.78820015,1.10790165 10.1435753,2.46333033 10.1435753,4.12930558 C10.1435753,5.79506667 8.78814661,7.15017409 7.12217136,7.15017409 C5.45646382,7.15017409 4.10130285,5.79506667 4.10130285,4.12930558 Z M8.56246492,18.0075782 C6.39479634,17.6774886 4.54436714,17.1493988 3.18347712,16.4696766 C1.82778072,15.7926315 1.07968475,15.0147659 1.0753478,14.2788241 C1.0753478,14.2766824 1.07566906,14.2745942 1.07566906,14.2724525 C1.07561552,10.9380391 3.7881327,8.22525418 7.1222249,8.22525418 C8.54067312,8.22525418 9.8939601,8.71527525 10.9769109,9.61280837 C10.7816414,10.0186071 10.6795894,10.4634918 10.6795894,10.9220299 C10.6795894,11.8577923 11.1063767,12.6956791 11.7753369,13.2515575 C9.8964766,14.0154485 8.56733729,15.8588101 8.56246492,18.0075782 Z M17.7770241,18.1514469 C16.4695695,18.3039895 15.1030575,18.3817868 13.706883,18.3817868 C12.3110297,18.3817868 10.9447319,18.3039895 9.6372773,18.1514469 L9.6372773,18.0194646 C9.6372773,15.7754444 11.4628628,13.9498589 13.706883,13.9498589 C15.9511709,13.9498589 17.7770241,15.7754444 17.7770241,18.0194646 L17.7770241,18.1514469 Z M24.2304495,16.469623 C22.8696666,17.1493988 21.0194515,17.677435 18.8519971,18.0075246 C18.8471247,15.8587565 17.5178783,14.015502 15.6388574,13.2515039 C16.3079782,12.6956256 16.7348726,11.8577388 16.7348726,10.9219228 C16.7348726,10.4639201 16.6328206,10.0189283 16.4373369,9.61275483 C17.5198059,8.71516817 18.8729322,8.2251471 20.2916482,8.2251471 C23.6260081,8.22520064 26.3387394,10.9379855 26.3387394,14.2723455 C26.3387394,15.0102683 25.5900009,15.7905969 24.2304495,16.469623 Z" id="Shape"></path>
                    <path d="M22.7731294,9.87024077 C22.0814137,9.87024077 22.0801822,10.9452673 22.7731294,10.9452673 C23.4648987,10.9452673 23.466023,9.87024077 22.7731294,9.87024077 Z" id="Shape"></path>
                </g>
            </g>
        </g>
    </g>
</svg>