<?xml version="1.0" encoding="UTF-8"?>
<svg width="24px" height="30px" viewBox="0 0 24 30" version="1.1" xmlns="http://www.w3.org/2000/svg" xmlns:xlink="http://www.w3.org/1999/xlink">
    <!-- Generator: Sketch 49.1 (51147) - http://www.bohemiancoding.com/sketch -->
    <title>Group 32 Copy</title>
    <desc>Created with Sketch.</desc>
    <defs></defs>
    <g id="Desktop-Final" stroke="none" stroke-width="1" fill="none" fill-rule="evenodd">
        <g id="05-Wireframes-Patients-&amp;-Family" transform="translate(-990.000000, -649.000000)" fill="#8181D3" fill-rule="nonzero">
            <g id="Group-31" transform="translate(207.000000, 614.000000)">
                <g id="Group-32-Copy" transform="translate(783.000000, 35.000000)">
                    <path d="M11.5429688,1.52115234 C10.7896289,1.52115234 10.1767383,2.13404297 10.1767383,2.88738281 C10.1767383,3.64072266 10.7896289,4.25361328 11.5429688,4.25361328 C12.2963086,4.25361328 12.9091992,3.64072266 12.9091992,2.88738281 C12.9091992,2.13404297 12.2963086,1.52115234 11.5429688,1.52115234 Z M11.5429688,3.37464844 C11.2742578,3.37464844 11.0556445,3.15603516 11.0556445,2.88732422 C11.0556445,2.61861328 11.2742578,2.4 11.5429688,2.4 C11.8116797,2.4 12.030293,2.61861328 12.030293,2.88732422 C12.030293,3.15603516 11.8116797,3.37464844 11.5429688,3.37464844 Z" id="Shape"></path>
                    <path d="M7.49162109,4.80035156 C7.24892578,4.80035156 7.05216797,4.99710938 7.05216797,5.23980469 L7.05216797,5.97304688 C7.05216797,6.21574219 7.24892578,6.4125 7.49162109,6.4125 C7.73431641,6.4125 7.93107422,6.21574219 7.93107422,5.97304688 L7.93107422,5.23980469 C7.93107422,4.99710938 7.73431641,4.80035156 7.49162109,4.80035156 Z" id="Shape"></path>
                    <path d="M15.5943164,4.80035156 C15.3516211,4.80035156 15.1548633,4.99710938 15.1548633,5.23980469 L15.1548633,5.97304688 C15.1548633,6.21574219 15.3516211,6.4125 15.5943164,6.4125 C15.8370117,6.4125 16.0337695,6.21574219 16.0337695,5.97304688 L16.0337695,5.23980469 C16.0337695,4.99710938 15.8370117,4.80035156 15.5943164,4.80035156 Z" id="Shape"></path>
                    <path d="M12.8320898,5.59119141 C12.6493945,5.43140625 12.3717773,5.45009766 12.2119922,5.63279297 C12.0496875,5.81841797 11.8058789,5.92494141 11.5429687,5.92494141 C11.2800586,5.92494141 11.0361914,5.81847656 10.8739453,5.63279297 C10.7142187,5.45009766 10.4366016,5.43140625 10.2538477,5.59119141 C10.0710937,5.75097656 10.0524609,6.02853516 10.2121875,6.21128906 C10.5414258,6.58792969 11.0264648,6.80390625 11.5429687,6.80390625 C12.0594727,6.80390625 12.5445117,6.58787109 12.87375,6.21128906 C13.0334766,6.02853516 13.0148437,5.75085938 12.8320898,5.59119141 Z" id="Shape"></path>
                    <path d="M16.3869727,17.6646094 L6.69896484,17.6646094 C6.45626953,17.6646094 6.25951172,17.8613672 6.25951172,18.1040625 C6.25951172,18.3468164 6.45626953,18.5435156 6.69896484,18.5435156 L16.3869727,18.5435156 C16.629668,18.5435156 16.8264258,18.3468164 16.8264258,18.1040625 C16.8264258,17.8613672 16.629668,17.6646094 16.3869727,17.6646094 Z" id="Shape"></path>
                    <path d="M16.3869727,20.3172656 L6.69896484,20.3172656 C6.45626953,20.3172656 6.25951172,20.5140234 6.25951172,20.7567187 C6.25951172,20.9994727 6.45626953,21.1961719 6.69896484,21.1961719 L16.3869727,21.1961719 C16.629668,21.1961719 16.8264258,20.9994727 16.8264258,20.7567187 C16.8264258,20.5140234 16.629668,20.3172656 16.3869727,20.3172656 Z" id="Shape"></path>
                    <path d="M16.3869727,22.9699805 L6.69896484,22.9699805 C6.45626953,22.9699805 6.25951172,23.1667383 6.25951172,23.4094336 C6.25951172,23.6521289 6.45626953,23.8488867 6.69896484,23.8488867 L16.3869727,23.8488867 C16.629668,23.8488867 16.8264258,23.6521289 16.8264258,23.4094336 C16.8264258,23.1667383 16.629668,22.9699805 16.3869727,22.9699805 Z" id="Shape"></path>
                    <path d="M14.0285742,11.8228125 L12.9091992,11.8228125 L12.9091992,10.7034375 C12.9091992,10.4606836 12.7124414,10.2639844 12.4697461,10.2639844 L10.6161914,10.2639844 C10.3734961,10.2639844 10.1767383,10.4606836 10.1767383,10.7034375 L10.1767383,11.8228125 L9.05736328,11.8228125 C8.81466797,11.8228125 8.61791016,12.0195703 8.61791016,12.2622656 L8.61791016,14.1158789 C8.61791016,14.3585742 8.81466797,14.555332 9.05736328,14.555332 L10.1767383,14.555332 L10.1767383,15.674707 C10.1767383,15.9174023 10.3734961,16.1141602 10.6161914,16.1141602 L12.4697461,16.1141602 C12.7124414,16.1141602 12.9091992,15.9174023 12.9091992,15.674707 L12.9091992,14.555332 L14.0285742,14.555332 C14.2712695,14.555332 14.4680273,14.3585742 14.4680273,14.1158789 L14.4680273,12.2622656 C14.4680273,12.0195703 14.2712695,11.8228125 14.0285742,11.8228125 Z M13.5891211,13.6764258 L12.4697461,13.6764258 C12.2270508,13.6764258 12.030293,13.873125 12.030293,14.1158789 L12.030293,15.2352539 L11.0556445,15.2352539 L11.0556445,14.1158789 C11.0556445,13.873125 10.8588867,13.6764258 10.6161914,13.6764258 L9.49681641,13.6764258 L9.49681641,12.7017187 L10.6161914,12.7017187 C10.8588867,12.7017187 11.0556445,12.5049609 11.0556445,12.2622656 L11.0556445,11.1428906 L12.030293,11.1428906 L12.030293,12.2622656 C12.030293,12.5049609 12.2270508,12.7017187 12.4697461,12.7017187 L13.5891211,12.7017187 L13.5891211,13.6764258 Z" id="Shape"></path>
                    <path d="M20.491582,4.61267578 L18.6141211,4.61267578 L18.6141211,3.92203125 C18.6141211,3.193125 18.0210938,2.60009766 17.2921875,2.60009766 L14.5508203,2.60009766 C14.3372461,1.13162109 13.0697461,0 11.5429688,0 C10.0161914,0 8.74875,1.13162109 8.53511719,2.60009766 L5.79375,2.60009766 C5.06484375,2.60009766 4.47181641,3.193125 4.47181641,3.92203125 L4.47181641,4.61267578 L2.59435547,4.61267578 C1.18628906,4.61267578 0.0406640625,5.75824219 0.0406640625,7.16630859 L0.0406640625,27.4463672 C0.0406640625,28.8544336 1.18623047,30 2.59435547,30 L4.70431641,30 C4.94701172,30 5.14376953,29.8032422 5.14376953,29.5605469 C5.14376953,29.3178516 4.94701172,29.1210938 4.70431641,29.1210938 L2.59435547,29.1210938 C1.67091797,29.1210938 0.919570313,28.3698047 0.919570313,27.4463672 L0.919570313,7.16630859 C0.919570313,6.24287109 1.67085938,5.49158203 2.59435547,5.49158203 L4.47181641,5.49158203 L4.47181641,6.63099609 L2.59435547,6.63099609 C2.29916016,6.63099609 2.05904297,6.87111328 2.05904297,7.16630859 L2.05904297,27.4463672 C2.05904297,27.7415625 2.29916016,27.9816797 2.59435547,27.9816797 L20.491582,27.9816797 C20.7867773,27.9816797 21.0268945,27.7415625 21.0268945,27.4463672 L21.0268945,7.16630859 C21.0268945,6.87111328 20.7867188,6.63099609 20.491582,6.63099609 L18.6141211,6.63099609 L18.6141211,5.49158203 L20.491582,5.49158203 C21.4150195,5.49158203 22.1663672,6.24287109 22.1663672,7.16630859 L22.1663672,27.4463672 C22.1663672,28.3698047 21.4150781,29.1210938 20.491582,29.1210938 L6.46212891,29.1210938 C6.21943359,29.1210938 6.02267578,29.3178516 6.02267578,29.5605469 C6.02267578,29.8032422 6.21943359,30 6.46212891,30 L20.491582,30 C21.8996484,30 23.0452734,28.8544336 23.0452734,27.4463672 L23.0452734,7.16630859 C23.0452734,5.75824219 21.899707,4.61267578 20.491582,4.61267578 Z M20.1479883,7.50996094 L20.1479883,27.1027734 L2.93794922,27.1027734 L2.93794922,7.50990234 L4.47181641,7.50990234 L4.47181641,7.60388672 C4.47181641,8.33279297 5.06484375,8.92582031 5.79375,8.92582031 L14.3136914,8.92582031 C14.5563867,8.92582031 14.7531445,8.7290625 14.7531445,8.48636719 C14.7531445,8.24367188 14.5563867,8.04691406 14.3136914,8.04691406 L5.79375,8.04691406 C5.54947266,8.04691406 5.35072266,7.84816406 5.35072266,7.60388672 L5.35072266,3.92203125 C5.35072266,3.67775391 5.54947266,3.47900391 5.79375,3.47900391 L8.94292969,3.47900391 C9.185625,3.47900391 9.38238281,3.28224609 9.38238281,3.03955078 C9.38232422,1.84816406 10.351582,0.87890625 11.5429688,0.87890625 C12.7343555,0.87890625 13.7036133,1.84816406 13.7036133,3.03955078 C13.7036133,3.28224609 13.9003711,3.47900391 14.1430664,3.47900391 L17.2921875,3.47900391 C17.5364648,3.47900391 17.7352148,3.67775391 17.7352148,3.92203125 L17.7352148,7.60394531 C17.7352148,7.84822266 17.5364648,8.04697266 17.2921875,8.04697266 L16.0715039,8.04697266 C15.8288086,8.04697266 15.6320508,8.24373047 15.6320508,8.48642578 C15.6320508,8.72912109 15.8288086,8.92587891 16.0715039,8.92587891 L17.2921875,8.92587891 C18.0210938,8.92587891 18.6141211,8.33285156 18.6141211,7.60394531 L18.6141211,7.50996094 L20.1479883,7.50996094 Z" id="Shape"></path>
                </g>
            </g>
        </g>
    </g>
</svg>