<?xml version="1.0" encoding="UTF-8"?>
<svg width="52px" height="62px" viewBox="0 0 52 62" version="1.1" xmlns="http://www.w3.org/2000/svg" xmlns:xlink="http://www.w3.org/1999/xlink">
    <!-- Generator: Sketch 49.1 (51147) - http://www.bohemiancoding.com/sketch -->
    <title>Shape</title>
    <desc>Created with Sketch.</desc>
    <defs></defs>
    <g id="Desktop-Final" stroke="none" stroke-width="1" fill="none" fill-rule="evenodd">
        <g id="05-Wireframes-Patients-&amp;-Family" transform="translate(-366.000000, -1170.000000)" fill="#7F7EBC" fill-rule="nonzero" stroke="#FFFFFF">
            <path d="M417.0112,1193.39968 C417.0112,1204.18192 406.75888,1212.95344 394.15712,1212.95344 L392.0056,1212.95344 L389.85408,1212.95344 C379.0168,1212.95344 370.2,1220.28944 370.2,1229.30656 C370.2,1230.19024 369.48368,1230.90672 368.6,1230.90672 C367.71632,1230.90672 367,1230.19056 367,1229.30688 C367,1218.5248 377.25232,1209.75344 389.85408,1209.75344 L392.0056,1209.75344 L394.15712,1209.75344 C404.9944,1209.75344 413.8112,1202.41728 413.8112,1193.40016 C413.8112,1192.51648 414.52752,1191.8 415.4112,1191.8 C416.29488,1191.8 417.0112,1192.516 417.0112,1193.39968 Z M368.60016,1210.10656 C369.48384,1210.10656 370.20016,1209.39024 370.20016,1208.50656 C370.20016,1199.48944 379.01696,1192.15328 389.85424,1192.15328 L392.00576,1192.15328 L394.15728,1192.15328 C406.75904,1192.15328 417.01136,1183.3816 417.01136,1172.6 C417.01136,1171.71632 416.29504,1171 415.41136,1171 C414.52768,1171 413.81136,1171.71632 413.81136,1172.6 C413.81136,1181.61728 404.99456,1188.95328 394.15728,1188.95328 L392.00576,1188.95328 L389.85424,1188.95328 C377.25248,1188.95328 367.00016,1197.7248 367.00016,1208.50656 C367.00016,1209.39024 367.71648,1210.10656 368.60016,1210.10656 Z M390.40576,1196.03472 L390.40576,1205.87168 C390.40576,1206.75536 391.12208,1207.47168 392.00576,1207.47168 C392.88944,1207.47168 393.60576,1206.75536 393.60576,1205.87168 L393.60576,1196.03472 C393.60576,1195.15104 392.88944,1194.43472 392.00576,1194.43472 C391.12208,1194.43472 390.40576,1195.15104 390.40576,1196.03472 Z M405.75584,1193.49744 L405.75584,1197.72176 C405.75584,1198.60544 406.47216,1199.32176 407.35584,1199.32176 C408.23952,1199.32176 408.95584,1198.60544 408.95584,1197.72176 L408.95584,1193.49744 C408.95584,1192.61376 408.23952,1191.89744 407.35584,1191.89744 C406.47216,1191.89744 405.75584,1192.61376 405.75584,1193.49744 Z M398.08064,1196.08464 L398.08064,1203.33184 C398.08064,1204.21552 398.79696,1204.93184 399.68064,1204.93184 C400.56432,1204.93184 401.28064,1204.21552 401.28064,1203.33184 L401.28064,1196.08464 C401.28064,1195.20096 400.56432,1194.48464 399.68064,1194.48464 C398.79696,1194.48464 398.08064,1195.20096 398.08064,1196.08464 Z M375.05568,1204.1848 L375.05568,1208.40896 C375.05568,1209.29264 375.772,1210.00896 376.65568,1210.00896 C377.53936,1210.00896 378.25568,1209.29264 378.25568,1208.40896 L378.25568,1204.1848 C378.25568,1203.30112 377.53936,1202.5848 376.65568,1202.5848 C375.772,1202.5848 375.05568,1203.30112 375.05568,1204.1848 Z M382.73088,1198.57472 L382.73088,1205.82192 C382.73088,1206.7056 383.4472,1207.42192 384.33088,1207.42192 C385.21456,1207.42192 385.93088,1206.7056 385.93088,1205.82192 L385.93088,1198.57472 C385.93088,1197.69104 385.21456,1196.97472 384.33088,1196.97472 C383.4472,1196.97472 382.73088,1197.69104 382.73088,1198.57472 Z M368.60016,1216.25328 C369.48384,1216.25328 370.20016,1215.53696 370.20016,1214.65328 L370.20016,1213.7344 C370.20016,1212.85072 369.48384,1212.1344 368.60016,1212.1344 C367.71648,1212.1344 367.00016,1212.85072 367.00016,1213.7344 L367.00016,1214.65328 C367.00016,1215.53696 367.71648,1216.25328 368.60016,1216.25328 Z M413.61632,1186.85216 L413.61632,1187.77088 C413.61632,1188.65456 414.33264,1189.37088 415.21632,1189.37088 C416.1,1189.37088 416.81632,1188.65456 416.81632,1187.77088 L416.81632,1186.85216 C416.81632,1185.96848 416.1,1185.25216 415.21632,1185.25216 C414.33264,1185.25216 413.61632,1185.96848 413.61632,1186.85216 Z" id="Shape"></path>
        </g>
    </g>
</svg>