<?xml version="1.0" encoding="UTF-8"?>
<svg width="30px" height="62px" viewBox="0 0 30 62" version="1.1" xmlns="http://www.w3.org/2000/svg" xmlns:xlink="http://www.w3.org/1999/xlink">
    <!-- Generator: Sketch 49.1 (51147) - http://www.bohemiancoding.com/sketch -->
    <title>Group 5</title>
    <desc>Created with Sketch.</desc>
    <defs></defs>
    <g id="Desktop-Final" stroke="none" stroke-width="1" fill="none" fill-rule="evenodd">
        <g id="05-Wireframes-Patients-&amp;-Family" transform="translate(-89.000000, -1170.000000)" fill="#7F7EBC" fill-rule="nonzero" stroke="#FFFFFF" stroke-width="0.5">
            <g id="Group-5" transform="translate(90.000000, 1171.000000)">
                <path d="M14.8885352,42.4313391 C10.3075231,40.3883899 6.87164108,38.0732035 4.86741756,35.4855459 L20.0421122,35.4855459 C20.9010827,35.4855459 21.4736477,34.9407205 21.4736477,34.1236578 C21.4736477,33.3065952 20.9009597,32.7617697 20.0421122,32.7617697 L3.43588205,32.7617697 C3.14959956,31.8084714 2.86319403,30.9912918 2.86319403,30.0378765 C2.86319403,25.8158595 6.58535858,22.5472578 9.59163235,20.5043086 C10.3074001,20.0957187 10.4506029,19.2785391 10.0211176,18.597595 C9.59163235,17.916651 8.73266184,17.7804153 8.01689408,18.1890052 C2.71999127,21.7300781 0,25.8158595 0,30.0377594 C0,35.7579001 4.86741756,41.069451 13.7431591,44.8827611 C19.0400619,47.1980645 22.7621035,50.0580764 24.6231242,53.1905595 L8.5895821,53.1905595 C7.73061159,53.1905595 7.1580466,53.7353849 7.1580466,54.5524476 C7.1580466,55.3696273 7.73073462,55.9143357 8.5895821,55.9143357 L25.6254205,55.9143357 C25.7686233,56.3229255 25.7686233,56.8676339 25.7686233,57.2762238 L25.7686233,58.6381119 C25.7686233,59.4552916 26.3413113,60 27.2001588,60 C28.0590063,60 28.6316943,59.4551745 28.6316943,58.6381119 L28.6316943,57.2762238 C28.6316943,51.5563171 23.7642767,46.2447663 14.8885352,42.4313391 Z" id="Shape"></path>
                <path d="M10.0147155,45.9398554 C9.5855046,45.2639014 8.72708285,45.1286642 8.01177238,45.5342598 C2.71825357,49.0493831 0,53.1052231 0,57.2961841 L0,58.6480921 C0,59.4592833 0.572322147,60 1.43062095,60 C2.28904269,60 2.86124189,59.4591671 2.86124189,58.6480921 L2.86124189,57.2961841 C2.86124189,53.1051069 6.58102848,49.8604581 9.58538165,47.83248 C10.3008151,47.4270006 10.4439263,46.6158094 10.0147155,45.9398554 Z" id="Shape"></path>
                <path d="M14.8884761,15.1021521 C9.59155054,12.7891951 5.86949302,9.93208177 4.00846427,6.80277331 L20.0421983,6.80277331 C20.9011725,6.80277331 21.47374,6.2585 21.47374,5.44226541 C21.47374,4.62603083 20.9010495,4.08175752 20.0421983,4.08175752 L3.00628669,4.08175752 C2.86308331,3.67358177 2.86308331,3.12930846 2.86308331,2.72124963 L2.86308331,1.36050789 C2.86308331,0.54427331 2.29051586,0 1.43154165,0 C0.572567451,0 0,0.54427331 0,1.36050789 L0,2.72101578 C0,8.43535939 4.86743847,13.7415272 13.7432182,17.5509727 C18.3242499,19.5918515 21.7601467,21.9046915 23.7643788,24.4897267 L8.58949598,24.4897267 C7.73052178,24.4897267 7.15795433,25.034 7.15795433,25.8502346 C7.15795433,26.6665861 7.73064481,27.2107425 8.58949598,27.2107425 L25.1959205,27.2107425 C25.4822042,28.1630746 25.768611,28.9794261 25.768611,29.9318752 C25.768611,34.1496133 22.0464304,37.551 18.8969404,39.5917618 C18.1811695,39.9999376 18.0379662,40.8162891 18.4674533,41.496543 C18.753737,41.9047188 19.1832241,42.0408163 19.6127112,42.0408163 C19.8989949,42.0408163 20.1854017,41.9047188 20.4716854,41.7687381 C25.768611,38.3673515 28.6316943,34.2857109 28.6316943,29.9319921 C28.6316943,24.2177654 23.7642558,18.9115975 14.8884761,15.1021521 Z" id="Shape"></path>
                <path d="M27.2207453,0 C26.3741274,0 25.8097963,0.539279069 25.8097963,1.3480239 L25.8097963,2.6960478 C25.8097963,6.87508407 22.1411593,10.2452597 19.0369746,12.2672955 C18.3315001,12.6717259 18.1903567,13.4805865 18.6136656,14.1545985 C18.8958312,14.5590288 19.3191401,14.6938776 19.742449,14.6938776 C20.0246146,14.6938776 20.3069014,14.5590288 20.5890669,14.4242959 C25.8097963,11.0541203 28.6316943,7.0099328 28.6316943,2.69616365 L28.6316943,1.3480239 C28.6318155,0.539279069 28.0673632,0 27.2207453,0 Z" id="Shape"></path>
            </g>
        </g>
    </g>
</svg>