<?xml version="1.0" encoding="UTF-8"?>
<svg width="33px" height="24px" viewBox="0 0 33 24" version="1.1" xmlns="http://www.w3.org/2000/svg" xmlns:xlink="http://www.w3.org/1999/xlink">
    <!-- Generator: Sketch 49.1 (51147) - http://www.bohemiancoding.com/sketch -->
    <title>Group 19</title>
    <desc>Created with Sketch.</desc>
    <defs></defs>
    <g id="Desktop-Final" stroke="none" stroke-width="1" fill="none" fill-rule="evenodd">
        <g id="05-Wireframes-Patients-&amp;-Family" transform="translate(-240.000000, -652.000000)" fill="#8181D3" fill-rule="nonzero">
            <g id="Group-31" transform="translate(207.000000, 614.000000)">
                <g id="Group-19" transform="translate(33.000000, 38.000000)">
                    <path d="M31.9930652,11.2898752 L29.2773925,11.2898752 C30.40638,8.72676838 30.2843273,6.6518724 29.8571429,5.2482663 C29.1248266,2.74618585 26.6532594,0.0305131761 22.9916782,0.0305131761 C22.0152566,0.0305131761 21.038835,0.213592233 20.0319001,0.579750347 C18.2926491,1.22052705 17.1331484,1.9223301 16.6144244,2.28848821 C16.0957004,1.9223301 14.9667129,1.22052705 13.1969487,0.579750347 C12.1900139,0.213592233 11.1830791,0.0305131761 10.2371706,0.0305131761 C6.57558946,0.0305131761 4.10402219,2.74618585 3.37170596,5.2482663 C2.9445215,6.74341193 2.79195562,9.00138696 4.2260749,11.8391123 L0.930651872,11.8391123 C0.656033287,11.8391123 0.442441054,12.0527046 0.442441054,12.3273232 C0.442441054,12.6019417 0.656033287,12.815534 0.930651872,12.815534 L4.80582524,12.815534 C4.95839112,13.0901526 5.14147018,13.3647712 5.35506241,13.6393897 C8.52843273,18.2163662 15.4244105,23.1900139 16.6754508,23.4951456 L16.6754508,23.5256588 C16.6754508,23.5256588 16.7059639,23.5256588 16.7364771,23.4951456 C16.7669903,23.4951456 16.7975035,23.4951456 16.8280166,23.4951456 L16.8280166,23.4646325 C17.8959778,22.9459085 24.517337,18.6740638 27.9958391,13.6088766 C28.331484,13.1511789 28.6061026,12.6934813 28.850208,12.2357836 L32.0540915,12.2357836 C32.3287101,12.2357836 32.5423024,12.0221914 32.5423024,11.7475728 C32.5423024,11.4729542 32.2676838,11.2898752 31.9930652,11.2898752 Z M27.110957,13.0901526 C23.8765603,17.8196949 17.926491,21.6338419 16.6449376,22.4576976 C15.332871,21.6338419 9.41331484,17.7891817 6.14840499,13.0901526 C6.08737864,12.998613 6.02635229,12.9070735 5.96532594,12.815534 L10.4507628,12.815534 C10.6338419,12.815534 10.8169209,12.7239945 10.9084605,12.5409154 L12.9528433,8.51317614 L16.1567268,16.7212205 C16.2177531,16.9042996 16.4313454,17.0263523 16.6144244,17.0263523 C16.6144244,17.0263523 16.6144244,17.0263523 16.6449376,17.0263523 C16.8585298,17.0263523 17.0416089,16.8737864 17.1026352,16.6601942 L19.9098474,7.04854369 L21.4049931,11.9001387 C21.4660194,12.0832178 21.6185853,12.2052705 21.8016644,12.2357836 C21.9847434,12.2662968 22.1678225,12.1747573 22.2898752,12.0221914 L23.479889,10.2829404 L24.4868239,11.9916782 C24.5783634,12.1442441 24.7309293,12.2357836 24.9140083,12.2357836 L27.6601942,12.2357836 C27.4771151,12.5409154 27.2940361,12.815534 27.110957,13.0901526 Z M28.2094313,11.2898752 L25.2191401,11.2898752 L23.9680999,9.15395284 C23.8765603,9.00138696 23.7239945,8.90984743 23.5409154,8.90984743 C23.3578363,8.90984743 23.2052705,8.97087379 23.1137309,9.12343967 L22.0762829,10.6490985 L20.3980583,5.18723994 C20.3370319,4.97364771 20.1234397,4.85159501 19.9098474,4.82108183 C19.6962552,4.82108183 19.482663,4.97364771 19.4216366,5.18723994 L16.5839112,14.9819695 L13.5020804,7.10957004 C13.4410541,6.92649098 13.257975,6.80443828 13.074896,6.80443828 C12.8613037,6.80443828 12.7087379,6.89597781 12.6171983,7.07905687 L10.2066574,11.8085992 L5.35506241,11.8085992 C4.13453537,9.58113731 3.79889043,7.44521498 4.3481276,5.52288488 C4.9889043,3.35644938 7.09431345,1.03744799 10.2676838,1.03744799 C11.1220527,1.03744799 12.0069348,1.22052705 12.8918169,1.52565881 C15.1192788,2.34951456 16.3092926,3.29542302 16.3398058,3.29542302 C16.5228849,3.4479889 16.7669903,3.4479889 16.9500693,3.29542302 C16.9500693,3.29542302 18.1400832,2.34951456 20.3980583,1.52565881 C21.2829404,1.19001387 22.1678225,1.03744799 23.0221914,1.03744799 C26.1650485,1.03744799 28.3009709,3.35644938 28.9417476,5.52288488 C29.4604716,7.2926491 29.185853,9.24549237 28.2094313,11.2898752 Z" id="Shape"></path>
                </g>
            </g>
        </g>
    </g>
</svg>