<?xml version="1.0" encoding="UTF-8"?>
<svg width="40px" height="40px" viewBox="0 0 40 40" version="1.1" xmlns="http://www.w3.org/2000/svg" xmlns:xlink="http://www.w3.org/1999/xlink">
    <!-- Generator: Sketch 49.1 (51147) - http://www.bohemiancoding.com/sketch -->
    <title>Group 33</title>
    <desc>Created with Sketch.</desc>
    <defs></defs>
    <g id="Desktop-Final" stroke="none" stroke-width="1" fill="none" fill-rule="evenodd">
        <g id="04-Wireframes-Physicians" transform="translate(-594.000000, -2550.000000)" fill="#8181D3" fill-rule="nonzero">
            <g id="Group-33" transform="translate(594.000000, 2550.000000)">
                <path d="M25.7051852,7.4008577 C23.2605068,4.95617934 20.0102144,3.60990253 16.5529825,3.60990253 C13.0957505,3.60990253 9.84545809,4.95617934 7.40077973,7.4008577 C4.63469786,10.1668616 3.27773879,13.9874464 3.67789474,17.882963 C3.711423,18.2099025 4.00405458,18.4471735 4.33068226,18.414191 C4.65762183,18.3806628 4.8954386,18.0883431 4.86191033,17.7614035 C4.49847953,14.2237037 5.73076023,10.754152 8.24241715,8.24241715 C10.4623002,6.02253411 13.4137232,4.8 16.5530604,4.8 C19.6923977,4.8 22.6438986,6.02253411 24.8637037,8.24241715 C27.0835088,10.4623002 28.3061209,13.4137232 28.3061209,16.5530604 C28.3061209,19.6923977 27.0835867,22.6438986 24.8637037,24.8637037 C22.6438207,27.0835867 19.6923977,28.3061209 16.5530604,28.3061209 C13.4137232,28.3061209 10.4622222,27.0835867 8.24241715,24.8637037 C6.83150097,23.4527096 5.79781676,21.6995712 5.25325536,19.7936062 C5.16288499,19.4775828 4.83360624,19.2945029 4.51758285,19.3848733 C4.20155945,19.4751657 4.0185575,19.8046004 4.1088499,20.1205458 C4.70892788,22.2205068 5.84725146,24.1516569 7.40077973,25.7051852 C9.84545809,28.1498635 13.0957505,29.4961404 16.5529825,29.4961404 C20.0102144,29.4961404 23.2605068,28.1498635 25.7051852,25.7051852 C28.1498635,23.2605068 29.4961404,20.0102144 29.4961404,16.5529825 C29.4961404,13.0957505 28.1497856,9.84545809 25.7051852,7.4008577 Z" id="Shape"></path>
                <path d="M38.8339181,33.5802729 L30.585809,25.3320858 C33.7765302,20.2282261 33.9982066,13.6556725 30.897232,8.28389864 C30.7329435,7.99922027 30.3688889,7.90175439 30.0843665,8.06604288 C29.7997661,8.23033138 29.7021442,8.59430799 29.8665107,8.87890838 C33.3330994,14.8840546 32.325614,22.5068226 27.4162183,27.4162183 C24.5145419,30.3178947 20.6566082,31.9158674 16.5530604,31.9158674 C12.4495127,31.9158674 8.59150097,30.3178168 5.68982456,27.4162183 C2.78814815,24.5146199 1.19017544,20.6566082 1.19017544,16.5530604 C1.19017544,12.4495127 2.78814815,8.59157895 5.68982456,5.68990253 C8.59150097,2.78822612 12.4494347,1.19017544 16.5530604,1.19017544 C20.6566082,1.19017544 24.5145419,2.78822612 27.4162183,5.68982456 C27.8460819,6.11976608 28.2537232,6.5780117 28.6274464,7.05177388 C28.8309552,7.30978558 29.2051462,7.35391813 29.4632359,7.15040936 C29.7212476,6.94682261 29.7653801,6.57263158 29.5618713,6.31461988 C29.1593762,5.80436647 28.7206238,5.31111111 28.2577778,4.84834308 C25.131306,1.72187135 20.9745029,0 16.5530604,0 C12.13154,0 7.97473684,1.72187135 4.84826511,4.84826511 C1.72187135,7.97473684 0,12.13154 0,16.5530604 C0,20.9745809 1.72187135,25.131384 4.84818713,28.2578558 C7.97450292,31.3843275 12.131462,33.1061209 16.5529825,33.1061209 C19.7083821,33.1061209 22.728655,32.228616 25.3361404,30.5900975 L33.5801949,38.8339961 C34.2817934,39.5355945 35.2147368,39.9221053 36.2070175,39.9221053 C37.1993762,39.9221053 38.1323197,39.5355945 38.8339181,38.8339961 C39.5355166,38.1323977 39.9220273,37.1994542 39.9220273,36.2071735 C39.9220273,35.2148148 39.5355945,34.2818713 38.8339181,33.5802729 Z M37.9923587,37.9923587 C37.5154776,38.4692398 36.8814815,38.7318519 36.2070175,38.7318519 C35.5326316,38.7318519 34.8985575,38.4692398 34.4216764,37.9923587 L26.3373879,29.9081481 C27.0120078,29.4116959 27.654269,28.8612086 28.2576998,28.2577778 C28.8625341,27.6529435 29.4117739,27.0094347 29.905731,26.3351267 L37.9923587,34.4217544 C38.9768421,35.4061598 38.9768421,37.0079532 37.9923587,37.9923587 Z" id="Shape"></path>
                <path d="M12.7621832,10.9390253 C12.5108772,11.0896686 12.4096686,11.405848 12.5180507,11.6766472 C12.6159064,11.908616 12.8522417,12.0586355 13.1047953,12.0426511 C13.3397271,12.0278363 13.5483821,11.871423 13.6275244,11.6495127 C13.8111501,11.1339571 13.2305653,10.6582456 12.7621832,10.9390253 Z" id="Shape"></path>
                <path d="M19.0197271,9.52335283 C18.8,9.71773879 18.7593762,10.0545029 18.9202339,10.2984795 C19.0654191,10.5112671 19.3366082,10.6130994 19.5850292,10.5382456 C19.8097466,10.4705653 19.9756725,10.2737622 20.0055361,10.0410916 C20.074386,9.50643275 19.4203509,9.16904483 19.0197271,9.52335283 Z" id="Shape"></path>
                <path d="M20.0159844,18.3129825 C19.7316179,17.8707212 19.0407018,18.0259649 18.9376998,18.5263938 C18.8278363,19.060039 19.4654971,19.4419493 19.8896686,19.1100975 C20.1295127,18.9224951 20.1865887,18.565692 20.0159844,18.3129825 Z" id="Shape"></path>
                <path d="M10.0711111,22.1738012 C9.92912281,21.9582846 9.65021442,21.8594932 9.40374269,21.9350487 C9.17489279,22.0053021 9.00951267,22.2084211 8.98471735,22.4460039 C8.96007797,22.6832749 9.08756335,22.9164912 9.29645224,23.028694 C9.53278752,23.1556335 9.83259259,23.1041715 10.0145029,22.9072125 C10.1994542,22.7069786 10.2203509,22.4005458 10.0711111,22.1738012 Z" id="Shape"></path>
                <path d="M17.928577,23.4441326 C17.7721637,23.2091228 17.4671345,23.12 17.2064717,23.2243275 C16.9823782,23.3168031 16.8324366,23.5459649 16.8387524,23.7887719 C16.8449903,24.0326706 17.0050682,24.251306 17.2336842,24.3339571 C17.4619883,24.4164522 17.7262378,24.3465887 17.8842885,24.1626511 C18.0566082,23.9621832 18.0749318,23.6643275 17.928577,23.4441326 Z" id="Shape"></path>
                <path d="M26.3985185,14.3989084 C26.302924,14.0843665 25.9704483,13.9069006 25.6561404,14.0025731 L24.6868616,14.297154 C24.2295517,13.5402729 23.3861988,13.0899805 22.5026901,13.1312281 L22.2081092,12.1618713 C22.1125146,11.8473294 21.780039,11.6700195 21.465731,11.7655361 C21.1512671,11.8611306 20.9738791,12.1935283 21.0693957,12.5079142 L21.3637427,13.4764912 C20.9937622,13.6991033 20.6893567,14.0181676 20.4806238,14.4090448 C20.2720468,14.799922 20.1763743,15.2304094 20.197271,15.6617544 L19.228694,15.9561014 C18.914152,16.05154 18.7367641,16.3839376 18.8323587,16.6984016 C18.9103314,16.9551657 19.1464327,17.1206238 19.4014815,17.1206238 C19.4588694,17.1206238 19.517115,17.1122807 19.5747368,17.0947368 L20.5439376,16.8001559 C20.9820663,17.5251462 21.774425,17.9688889 22.6166862,17.9688889 C22.6535673,17.9688889 22.6906823,17.9664717 22.7277973,17.9648343 L23.022768,18.9354386 C23.1007407,19.1922027 23.3368421,19.3576608 23.5918908,19.3576608 C23.6492788,19.3576608 23.7075244,19.3493177 23.7651462,19.3317739 C24.0796101,19.2361793 24.2569981,18.9037817 24.1614815,18.5893957 L23.8669006,17.620039 C24.6237037,17.1626511 25.0738402,16.3192203 25.0327485,15.4359454 L26.0021053,15.1413645 C26.3166472,15.045692 26.4941131,14.7132943 26.3985185,14.3989084 Z M22.9730214,16.7253021 C22.3240546,16.9224951 21.6358674,16.5550097 21.4386745,15.9062768 C21.3431579,15.5919688 21.3757505,15.2593372 21.5304483,14.9695127 C21.6851462,14.6796881 21.9434698,14.4675244 22.2577778,14.3720078 C22.3765302,14.3359064 22.4966082,14.3187524 22.6147368,14.3187524 C23.1420663,14.3185965 23.6309552,14.6608967 23.7920468,15.1909552 C23.9893177,15.8397661 23.6218324,16.5280312 22.9730214,16.7253021 Z" id="Shape"></path>
                <path d="M16.0417154,12.4132554 C16.0557505,12.414191 16.0696296,12.4147368 16.0835088,12.4147368 C16.3933723,12.4147368 16.6548148,12.1746589 16.6764912,11.8608187 C16.6992593,11.5329435 16.4518519,11.2487329 16.1240546,11.2259649 L15.6042885,11.1898635 C15.5522807,10.257232 14.9567251,9.40592593 14.0430409,9.06066277 L14.0073294,9.04717349 C13.3558674,8.8008577 12.6288499,8.84670565 12.0130214,9.17263158 C11.5823782,9.40062378 11.2360234,9.75126706 11.0125536,10.1727875 L10.6148928,10.077271 C10.2952827,10.0005458 9.97403509,10.1974269 9.89730994,10.5168811 C9.8205848,10.8364912 10.0174659,11.1577388 10.3369201,11.2344639 L10.6720468,11.3149318 C10.5605458,11.8646394 10.4773489,12.419961 10.4212086,12.9780897 L9.79017544,12.9196881 C9.46307992,12.8897466 9.17309942,13.1302144 9.142846,13.4573879 C9.11259259,13.7847173 9.35337232,14.0744639 9.68054581,14.1047173 L10.3420663,14.1659259 C10.3265497,14.677271 10.3339571,15.1893957 10.3644444,15.700039 L9.43953216,15.8322807 C9.11415205,15.8787524 8.88810916,16.1801949 8.93465887,16.505575 C8.97707602,16.8024172 9.23165692,17.0164522 9.52296296,17.0164522 C9.55095517,17.0164522 9.5794152,17.0145029 9.60795322,17.0103704 L10.4784405,16.885848 C10.534425,17.3150097 10.6053801,17.7422222 10.694347,18.165848 L10.2691618,18.3720078 C9.97348928,18.5153996 9.84990253,18.871345 9.99329435,19.1670955 C10.0961404,19.3791813 10.3083041,19.5026901 10.5292008,19.5026901 C10.6162963,19.5026901 10.7047173,19.4835088 10.7883821,19.442963 L11.0739961,19.3044834 C11.2973879,19.6773489 11.620039,19.9876023 12.0129435,20.1955556 C12.3668616,20.3830019 12.7575049,20.4777388 13.1494737,20.4777388 C13.4392982,20.4777388 13.7299805,20.4258869 14.0068616,20.3211696 L14.0414035,20.3081481 C14.0414815,20.3081481 14.0416374,20.3080702 14.0417154,20.3079922 C14.9695127,19.9574269 15.5695127,19.0864717 15.6064717,18.1383236 L16.1112671,18.0687719 C16.4368811,18.0238596 16.6644055,17.7235867 16.6194932,17.3979727 C16.5745809,17.0724366 16.274152,16.8448343 15.948694,16.8897466 L15.4301754,16.9612476 C15.3089279,16.3303704 15.2375828,15.6899025 15.2183236,15.0476413 L15.620039,15.002729 C15.9465887,14.9662378 16.1817544,14.6718908 16.1452632,14.3451852 C16.1087719,14.0185575 15.8145029,13.7830019 15.4877193,13.819961 L15.242729,13.8473294 C15.277037,13.3517349 15.3417544,12.8585575 15.4369591,12.3711501 L16.0417154,12.4132554 Z M14.3848733,17.7649903 C14.5278752,18.3614815 14.1994542,18.9761404 13.6209747,19.1947758 L13.5864327,19.2077973 C13.254269,19.3332554 12.8836647,19.3100195 12.5697466,19.1437817 C12.2566862,18.9780117 12.0389084,18.6984795 11.9568031,18.3566472 C11.3794932,15.9540741 11.3794932,13.414191 11.9568031,11.011462 C12.0389084,10.6696296 12.2566082,10.3900195 12.5697466,10.2243275 C12.7501754,10.1288109 12.9492398,10.0804678 13.1490838,10.0804678 C13.2969981,10.0804678 13.4453801,10.1069786 13.5868226,10.1604678 L13.6209747,10.1734113 C14.1994542,10.3919688 14.5278752,11.0067057 14.3848733,11.6031969 C13.9019103,13.6187135 13.9019103,15.7494737 14.3848733,17.7649903 Z" id="Shape"></path>
                <path d="M17.4337622,20.945653 C15.874152,20.945653 14.6053021,22.2145029 14.6053021,23.7741131 C14.6053021,25.3337232 15.874152,26.6025731 17.4337622,26.6025731 C18.9933723,26.6025731 20.2622222,25.3337232 20.2622222,23.7741131 C20.2622222,22.2145029 18.9933723,20.945653 17.4337622,20.945653 Z M17.4337622,25.4123977 C16.5304483,25.4123977 15.7954776,24.6774269 15.7954776,23.7741131 C15.7954776,22.8707992 16.5304483,22.1358285 17.4337622,22.1358285 C18.337076,22.1358285 19.0720468,22.8707992 19.0720468,23.7741131 C19.0720468,24.6774269 18.337076,25.4123977 17.4337622,25.4123977 Z" id="Shape"></path>
            </g>
        </g>
    </g>
</svg>