<?xml version="1.0" encoding="UTF-8"?>
<svg width="600px" height="600px" viewBox="0 0 600 600" version="1.1" xmlns="http://www.w3.org/2000/svg" xmlns:xlink="http://www.w3.org/1999/xlink">
    <!-- Generator: Sketch 49.3 (51167) - http://www.bohemiancoding.com/sketch -->
    <title>Patients</title>
    <desc>Created with Sketch.</desc>
    <defs>
        <linearGradient x1="43.6892989%" y1="8.40166749%" x2="58.8668333%" y2="100%" id="linearGradient-1">
            <stop stop-color="#FFFCFF" offset="0%"></stop>
            <stop stop-color="#F3E9FF" offset="100%"></stop>
        </linearGradient>
        <rect id="path-2" x="0.2625" y="0" width="98.5900217" height="98.8495016" rx="12"></rect>
        <filter x="-35.5%" y="-25.3%" width="171.0%" height="170.8%" filterUnits="objectBoundingBox" id="filter-3">
            <feOffset dx="0" dy="10" in="SourceAlpha" result="shadowOffsetOuter1"></feOffset>
            <feGaussianBlur stdDeviation="10" in="shadowOffsetOuter1" result="shadowBlurOuter1"></feGaussianBlur>
            <feColorMatrix values="0 0 0 0 0.321568627   0 0 0 0 0.231372549   0 0 0 0 0.521568627  0 0 0 0.251019022 0" type="matrix" in="shadowBlurOuter1"></feColorMatrix>
        </filter>
        <linearGradient x1="47.605684%" y1="32.037545%" x2="58.8668333%" y2="100%" id="linearGradient-4">
            <stop stop-color="#FFFCFF" offset="0%"></stop>
            <stop stop-color="#FBFCFF" offset="100%"></stop>
        </linearGradient>
        <rect id="path-5" x="0" y="0" width="146" height="146" rx="12"></rect>
        <filter x="-24.0%" y="-17.1%" width="147.9%" height="147.9%" filterUnits="objectBoundingBox" id="filter-6">
            <feOffset dx="0" dy="10" in="SourceAlpha" result="shadowOffsetOuter1"></feOffset>
            <feGaussianBlur stdDeviation="10" in="shadowOffsetOuter1" result="shadowBlurOuter1"></feGaussianBlur>
            <feColorMatrix values="0 0 0 0 0.321568627   0 0 0 0 0.231372549   0 0 0 0 0.521568627  0 0 0 0.2674649 0" type="matrix" in="shadowBlurOuter1"></feColorMatrix>
        </filter>
        <path d="M-0.138408549,48.8873171 C-0.138408549,62.8308023 4.66877696,74.3210945 14.2832922,83.3585386 C23.8978074,92.3959827 37.6990819,96.9146369 55.6875298,96.9146369 L102.242903,96.9146369 C120.23135,96.9146369 133.877554,92.3959827 143.181924,83.3585386 C152.486294,74.3210945 157.138409,62.8308023 157.138409,48.8873171 C157.138409,34.9438319 152.486294,23.3244353 143.181924,14.0287785 C133.877554,4.73312172 120.23135,0.0853630529 102.242903,0.0853630529 L55.6875298,0.0853630529 C37.6990819,0.0853630529 23.8978074,4.73312172 14.2832922,14.0287785 C4.66877696,23.3244353 -0.138408549,34.9438319 -0.138408549,48.8873171 Z" id="path-7"></path>
        <filter x="-38.9%" y="-60.8%" width="177.7%" height="225.8%" filterUnits="objectBoundingBox" id="filter-8">
            <feOffset dx="0" dy="2" in="SourceAlpha" result="shadowOffsetOuter1"></feOffset>
            <feGaussianBlur stdDeviation="20" in="shadowOffsetOuter1" result="shadowBlurOuter1"></feGaussianBlur>
            <feColorMatrix values="0 0 0 0 0.321568627   0 0 0 0 0.231372549   0 0 0 0 0.521568627  0 0 0 0.264237998 0" type="matrix" in="shadowBlurOuter1"></feColorMatrix>
        </filter>
        <path d="M97.0350712,48.5 C97.0350712,63.3451953 92.5343703,75.13385 83.5328334,83.8663179 C74.5312965,92.5987857 62.7321615,96.9649541 48.1350747,96.9649541 C33.5379878,96.9649541 21.8604934,92.5987857 13.1022413,83.8663179 C4.34398915,75.13385 -0.0350712272,63.3451953 -0.0350712272,48.5 C-0.0350712272,34.0914281 4.34398915,22.4119276 13.1022413,13.461148 C21.8604934,4.51036852 33.5379878,0.0350458849 48.1350747,0.0350458849 C62.7321615,0.0350458849 74.5312965,4.40121431 83.5328334,13.1336821 C92.5343703,21.86615 97.0350712,33.6548047 97.0350712,48.5 Z" id="path-9"></path>
        <filter x="-62.9%" y="-60.8%" width="225.8%" height="225.8%" filterUnits="objectBoundingBox" id="filter-10">
            <feOffset dx="0" dy="2" in="SourceAlpha" result="shadowOffsetOuter1"></feOffset>
            <feGaussianBlur stdDeviation="20" in="shadowOffsetOuter1" result="shadowBlurOuter1"></feGaussianBlur>
            <feColorMatrix values="0 0 0 0 0.321568627   0 0 0 0 0.231372549   0 0 0 0 0.521568627  0 0 0 0.264237998 0" type="matrix" in="shadowBlurOuter1"></feColorMatrix>
        </filter>
        <path d="M97.0350712,48.5 C97.0350712,63.3451953 92.5343703,75.13385 83.5328334,83.8663179 C74.5312965,92.5987857 62.7321615,96.9649541 48.1350747,96.9649541 C33.5379878,96.9649541 21.8604934,92.5987857 13.1022413,83.8663179 C4.34398915,75.13385 -0.0350712272,63.3451953 -0.0350712272,48.5 C-0.0350712272,34.0914281 4.34398915,22.4119276 13.1022413,13.461148 C21.8604934,4.51036852 33.5379878,0.0350458849 48.1350747,0.0350458849 C62.7321615,0.0350458849 74.5312965,4.40121431 83.5328334,13.1336821 C92.5343703,21.86615 97.0350712,33.6548047 97.0350712,48.5 Z" id="path-11"></path>
        <filter x="-62.9%" y="-60.8%" width="225.8%" height="225.8%" filterUnits="objectBoundingBox" id="filter-12">
            <feOffset dx="0" dy="2" in="SourceAlpha" result="shadowOffsetOuter1"></feOffset>
            <feGaussianBlur stdDeviation="20" in="shadowOffsetOuter1" result="shadowBlurOuter1"></feGaussianBlur>
            <feColorMatrix values="0 0 0 0 0.321568627   0 0 0 0 0.231372549   0 0 0 0 0.521568627  0 0 0 0.264237998 0" type="matrix" in="shadowBlurOuter1"></feColorMatrix>
        </filter>
        <path d="M97.0350712,48.5 C97.0350712,63.3451953 92.5343703,75.13385 83.5328334,83.8663179 C74.5312965,92.5987857 62.7321615,96.9649541 48.1350747,96.9649541 C33.5379878,96.9649541 21.8604934,92.5987857 13.1022413,83.8663179 C4.34398915,75.13385 -0.0350712272,63.3451953 -0.0350712272,48.5 C-0.0350712272,34.0914281 4.34398915,22.4119276 13.1022413,13.461148 C21.8604934,4.51036852 33.5379878,0.0350458849 48.1350747,0.0350458849 C62.7321615,0.0350458849 74.5312965,4.40121431 83.5328334,13.1336821 C92.5343703,21.86615 97.0350712,33.6548047 97.0350712,48.5 Z" id="path-13"></path>
        <filter x="-62.9%" y="-60.8%" width="225.8%" height="225.8%" filterUnits="objectBoundingBox" id="filter-14">
            <feOffset dx="0" dy="2" in="SourceAlpha" result="shadowOffsetOuter1"></feOffset>
            <feGaussianBlur stdDeviation="20" in="shadowOffsetOuter1" result="shadowBlurOuter1"></feGaussianBlur>
            <feColorMatrix values="0 0 0 0 0.321568627   0 0 0 0 0.231372549   0 0 0 0 0.521568627  0 0 0 0.264237998 0" type="matrix" in="shadowBlurOuter1"></feColorMatrix>
        </filter>
    </defs>
    <g id="Patients" stroke="none" stroke-width="1" fill="none" fill-rule="evenodd">
        <path d="M229.475497,120.243263 C223.101136,123.945056 216.964921,128.011708 211.09544,132.414627" id="Path" stroke="#523B85" stroke-width="5" opacity="0.4" stroke-linecap="round"></path>
        <path d="M409.180757,115.677245 C395.080541,108.420714 379.941164,102.899332 364.044765,99.3952396 M291.086746,97.7913863 C274.983549,100.597657 259.58602,105.458407 245.174142,112.093651" id="Path" stroke="#523B85" stroke-width="5" opacity="0.4" stroke-linecap="round"></path>
        <path d="M327.147221,95.0347642 C325.934266,95.011623 324.71849,95 323.5,95 C316.91719,95 310.413612,95.3392323 304.005794,96.0011688" id="Path" stroke="#523B85" stroke-width="5" opacity="0.4" stroke-linecap="round"></path>
        <circle id="Oval-5" fill="#523B85" opacity="0.4" cx="345.5" cy="96.5" r="2.5"></circle>
        <path d="M232.158455,446.285376 C235.135038,447.948947 238.161639,449.533728 241.235437,451.036896" id="Path" stroke="#523B85" stroke-width="5" opacity="0.4" stroke-linecap="round"></path>
        <circle id="Oval-6-Copy-3" fill="#523B85" opacity="0.4" cx="421.5" cy="453.5" r="2.5"></circle>
        <path d="M205.611236,220.940831 L217.030008,227.120252 M225.52353,231.573965 L231.322555,234.701628" id="Path" stroke="#523B85" stroke-width="5" opacity="0.4" stroke-linecap="round"></path>
        <circle id="Oval-5-Copy" fill="#523B85" opacity="0.4" transform="translate(237.500000, 329.500000) scale(-1, 1) translate(-237.500000, -329.500000) " cx="237.5" cy="329.5" r="2.5"></circle>
        <circle id="Oval-5-Copy-4" fill="#523B85" opacity="0.4" transform="translate(136.500000, 303.500000) scale(-1, 1) translate(-136.500000, -303.500000) " cx="136.5" cy="303.5" r="2.5"></circle>
        <circle id="Oval-5-Copy-5" fill="#523B85" opacity="0.4" transform="translate(213.500000, 436.500000) scale(-1, 1) translate(-213.500000, -436.500000) " cx="213.5" cy="436.5" r="2.5"></circle>
        <circle id="Oval-5-Copy-2" fill="#523B85" opacity="0.4" transform="translate(390.500000, 247.500000) scale(-1, 1) translate(-390.500000, -247.500000) " cx="390.5" cy="247.5" r="2.5"></circle>
        <path d="M260.040025,324.376417 L247,317" id="Path-4" stroke="#523B85" stroke-width="5" opacity="0.4" stroke-linecap="round" transform="translate(253.520013, 320.688208) scale(-1, 1) translate(-253.520013, -320.688208) "></path>
        <path d="M227.040025,342.376417 L214,335" id="Path-4-Copy" stroke="#523B85" stroke-width="5" opacity="0.4" stroke-linecap="round" transform="translate(220.520013, 338.688208) scale(-1, 1) translate(-220.520013, -338.688208) "></path>
        <circle id="Oval-5-Copy" fill="#523B85" opacity="0.4" cx="391.5" cy="326.5" r="2.5"></circle>
        <circle id="Oval-5-Copy-3" fill="#523B85" opacity="0.4" cx="449.5" cy="421.5" r="2.5"></circle>
        <g id="Group-2" opacity="0.4" transform="translate(400.000000, 234.000000)" stroke="#523B85" stroke-linecap="round" stroke-width="5">
            <path d="M0,97 L23.9071062,110.123109" id="Path-4"></path>
            <path d="M3.79402757,0.686246028 L14.9890101,6.74455993" id="Path" transform="translate(9.391519, 3.715403) scale(-1, 1) translate(-9.391519, -3.715403) "></path>
        </g>
        <circle id="Oval-7" fill="#523B85" opacity="0.4" cx="240.5" cy="239.5" r="2.5"></circle>
        <path d="M136.760723,265.49506 C136.257212,271.096024 136,276.767974 136,282.5" id="Path" stroke="#523B85" stroke-width="5" opacity="0.4" stroke-linecap="round"></path>
        <path d="M139.925615,244.148388 C139.019299,248.508861 138.424497,251.87411 137.826823,256.339844" id="Path" stroke="#523B85" stroke-width="5" opacity="0.4" stroke-linecap="round"></path>
        <g id="Group-23" transform="translate(108.000000, 124.000000)">
            <g id="Group-26" transform="translate(162.000000, 101.000000)">
                <g id="Rectangle-15">
                    <use fill="black" fill-opacity="1" filter="url(#filter-3)" xlink:href="#path-2"></use>
                    <use fill="url(#linearGradient-1)" fill-rule="evenodd" xlink:href="#path-2"></use>
                </g>
                <g id="Group-16" transform="translate(16.675000, 17.721519)">
                    <g id="Group">
                        <path d="M23.2450155,5.52375067 C23.2450155,6.77233682 23.6671201,7.80124886 24.5113418,8.61051766 C25.3555636,9.41978647 26.5674121,9.8244148 28.1469238,9.8244148 L35.1975019,9.8244148 C36.7770136,9.8244148 37.9752459,9.41978647 38.7922347,8.61051766 C39.6092235,7.80124886 40.0177117,6.77233682 40.0177117,5.52375067 C40.0177117,4.27516452 39.6092235,3.23469167 38.7922347,2.4023009 C37.9752459,1.56991013 36.7770136,1.15372099 35.1975019,1.15372099 L28.1469238,1.15372099 C26.5674121,1.15372099 25.3555636,1.56991013 24.5113418,2.4023009 C23.6671201,3.23469167 23.2450155,4.27516452 23.2450155,5.52375067 Z" id="Path-Copy-8" fill="#D587D0"></path>
                        <path d="M15.8193327,17.6869965 C15.8193327,18.9935887 15.4241397,20.031161 14.6337417,20.7997445 C13.8433437,21.5683281 12.8072971,21.9526142 11.5255706,21.9526142 C10.2438442,21.9526142 9.21847842,21.5683281 8.44944256,20.7997445 C7.68040669,20.031161 7.29589453,18.9935887 7.29589453,17.6869965 C7.29589453,16.4188336 7.68040669,15.3908685 8.44944256,14.6030703 C9.21847842,13.8152721 10.2438442,13.4213789 11.5255706,13.4213789 C12.8072971,13.4213789 13.8433437,13.805665 14.6337417,14.5742486 C15.4241397,15.3428321 15.8193327,16.3804044 15.8193327,17.6869965 Z" id="Path-Copy-4" fill="#DBA1D7"></path>
                        <path d="M59.506311,18.941126 C59.506311,20.1772504 59.0842065,21.1958932 58.2399847,21.9970849 C57.3957629,22.7982766 56.1839144,23.1988665 54.6044027,23.1988665 L24.3923079,23.1988665 C22.8127962,23.1988665 21.614564,22.7982766 20.7975752,21.9970849 C19.9805864,21.1958932 19.5720981,20.1772504 19.5720981,18.941126 C19.5720981,17.7050017 19.9805864,16.6749135 20.7975752,15.8508305 C21.614564,15.0267476 22.8127962,14.6147124 24.3923079,14.6147124 L54.6044027,14.6147124 C56.1839144,14.6147124 57.3957629,15.0267476 58.2399847,15.8508305 C59.0842065,16.6749135 59.506311,17.7050017 59.506311,18.941126 Z" id="Path-Copy-3" fill="#A26AB5"></path>
                        <path d="M25.5555645,31.1388531 C25.5555645,32.3677222 25.1304757,33.3803861 24.2802855,34.1768752 C23.4300953,34.9733644 22.2096792,35.371603 20.6190007,35.371603 L4.84713233,35.371603 C3.25645382,35.371603 2.0497503,34.9733644 1.22698556,34.1768752 C0.404220812,33.3803861 -0.00715538941,32.3677222 -0.00715538941,31.1388531 C-0.00715538941,29.9099841 0.404220812,28.885942 1.22698556,28.066696 C2.0497503,27.24745 3.25645382,26.8378331 4.84713233,26.8378331 L20.6190007,26.8378331 C22.2096792,26.8378331 23.4300953,27.24745 24.2802855,28.066696 C25.1304757,28.885942 25.5555645,29.9099841 25.5555645,31.1388531 Z" id="Path-Copy" fill="#E5D4F9"></path>
                        <path d="M29.3279701,31.1394008 C29.3279701,32.387987 29.7500746,33.416899 30.5942964,34.2261678 C31.4385181,35.0354366 32.6503667,35.440065 34.2298784,35.440065 L41.2804565,35.440065 C42.8599681,35.440065 44.0582004,35.0354366 44.8751892,34.2261678 C45.692178,33.416899 46.1006663,32.387987 46.1006663,31.1394008 C46.1006663,29.8908147 45.692178,28.8503418 44.8751892,28.0179511 C44.0582004,27.1855603 42.8599681,26.7693712 41.2804565,26.7693712 L34.2298784,26.7693712 C32.6503667,26.7693712 31.4385181,27.1855603 30.5942964,28.0179511 C29.7500746,28.8503418 29.3279701,29.8908147 29.3279701,31.1394008 Z" id="Path-Copy-15" fill="#9676CC"></path>
                        <path d="M50.0100155,31.1394008 C50.0100155,32.387987 50.4321201,33.416899 51.2763418,34.2261678 C52.1205636,35.0354366 53.3324121,35.440065 54.9119238,35.440065 L61.9625019,35.440065 C63.5420136,35.440065 64.7402459,35.0354366 65.5572347,34.2261678 C66.3742235,33.416899 66.7827117,32.387987 66.7827117,31.1394008 C66.7827117,29.8908147 66.3742235,28.8503418 65.5572347,28.0179511 C64.7402459,27.1855603 63.5420136,26.7693712 61.9625019,26.7693712 L54.9119238,26.7693712 C53.3324121,26.7693712 52.1205636,27.1855603 51.2763418,28.0179511 C50.4321201,28.8503418 50.0100155,29.8908147 50.0100155,31.1394008 Z" id="Path-Copy-14" fill="#7F6AAE"></path>
                        <path d="M47.3404019,43.3369833 C47.3404019,44.5731077 46.9182974,45.5917505 46.0740756,46.3929422 C45.2298538,47.1941339 44.0180053,47.5947238 42.4384936,47.5947238 L12.2263988,47.5947238 C10.6468871,47.5947238 9.44865487,47.1941339 8.63166607,46.3929422 C7.81467727,45.5917505 7.40618899,44.5731077 7.40618899,43.3369833 C7.40618899,42.100859 7.81467727,41.0707708 8.63166607,40.2466879 C9.44865487,39.4226049 10.6468871,39.0105697 12.2263988,39.0105697 L42.4384936,39.0105697 C44.0180053,39.0105697 45.2298538,39.4226049 46.0740756,40.2466879 C46.9182974,41.0707708 47.3404019,42.100859 47.3404019,43.3369833 Z" id="Path-Copy-6" fill="#D4C0F2"></path>
                        <path d="M59.6166055,44.5224396 C59.6166055,45.8290317 59.2214124,46.866604 58.4310144,47.6351876 C57.6406165,48.4037712 56.6045698,48.7880572 55.3228434,48.7880572 C54.0411169,48.7880572 53.0157511,48.4037712 52.2467153,47.6351876 C51.4776794,46.866604 51.0931673,45.8290317 51.0931673,44.5224396 C51.0931673,43.2542767 51.4776794,42.2263115 52.2467153,41.4385133 C53.0157511,40.6507151 54.0411169,40.256822 55.3228434,40.256822 C56.6045698,40.256822 57.6406165,40.641108 58.4310144,41.4096916 C59.2214124,42.1782752 59.6166055,43.2158475 59.6166055,44.5224396 Z" id="Path-Copy-7" fill="#D587D0"></path>
                        <path d="M35.4109246,56.755051 C35.4109246,58.0036372 35.8330292,59.0325492 36.6772509,59.841818 C37.5214727,60.6510868 38.7333212,61.0557151 40.3128329,61.0557151 L47.363411,61.0557151 C48.9429227,61.0557151 50.141155,60.6510868 50.9581438,59.841818 C51.7751326,59.0325492 52.1836208,58.0036372 52.1836208,56.755051 C52.1836208,55.5064649 51.7751326,54.465992 50.9581438,53.6336012 C50.141155,52.8012105 48.9429227,52.3850213 47.363411,52.3850213 L40.3128329,52.3850213 C38.7333212,52.3850213 37.5214727,52.8012105 36.6772509,53.6336012 C35.8330292,54.465992 35.4109246,55.5064649 35.4109246,56.755051 Z" id="Combined-Shape" fill="#8064BC"></path>
                    </g>
                </g>
            </g>
            <g id="Group-70" transform="translate(325.000000, 194.000000)">
                <g id="Group-65">
                    <path d="M97.0350712,48.5 C97.0350712,63.3451953 92.5343703,75.13385 83.5328334,83.8663179 C74.5312965,92.5987857 62.7321615,96.9649541 48.1350747,96.9649541 C33.5379878,96.9649541 21.8604934,92.5987857 13.1022413,83.8663179 C4.34398915,75.13385 -0.0350712272,63.3451953 -0.0350712272,48.5 C-0.0350712272,34.0914281 4.34398915,22.4119276 13.1022413,13.461148 C21.8604934,4.51036852 33.5379878,0.0350458849 48.1350747,0.0350458849 C62.7321615,0.0350458849 74.5312965,4.40121431 83.5328334,13.1336821 C92.5343703,21.86615 97.0350712,33.6548047 97.0350712,48.5 Z" id="Path-Copy-19" fill="#8181D3" opacity="0.630944293"></path>
                    <rect id="Rectangle-path" fill="#FFFFFF" fill-rule="nonzero" x="20" y="50.5172414" width="55.7909398" height="16.2300894" rx="2"></rect>
                    <path d="M53.5591556,61.9599008 L35.8075366,61.9599008 C35.2473147,61.9599008 34.7931034,61.5056896 34.7931034,60.9454677 C34.7931034,60.3852457 35.2473147,59.9310345 35.8075366,59.9310345 L53.5591556,59.9310345 C54.1193775,59.9310345 54.5735888,60.3852457 54.5735888,60.9454677 C54.5735888,61.5056896 54.1193775,61.9599008 53.5591556,61.9599008 Z" id="Shape" fill="#8181D3" fill-rule="nonzero"></path>
                    <path d="M71.3108948,56.5805905 L35.8075366,56.5805905 C35.2473147,56.5805905 34.7931034,56.1263792 34.7931034,55.5661573 C34.7931034,55.0059354 35.2473147,54.5517241 35.8075366,54.5517241 L71.3108948,54.5517241 C71.8711167,54.5517241 72.3253279,55.0059354 72.3253279,55.5661573 C72.3252077,56.1263792 71.8711167,56.5805905 71.3108948,56.5805905 Z" id="Shape" fill="#8181D3" fill-rule="nonzero"></path>
                    <path d="M75.2455092,31 L75.2455092,43.2300894 C75.2455092,44.3346589 74.3500787,45.2300894 73.2455092,45.2300894 L59.0154198,45.2300894 L56.3103448,37.1149846 L59.0154198,29 L73.2455092,29 C74.3500787,29 75.2455092,29.8954305 75.2455092,31 Z" id="Shape" fill="#6868B5" fill-rule="nonzero"></path>
                    <polygon id="Shape" fill="#8181D3" fill-rule="nonzero" points="59.0384294 29 59.0384294 45.2300894 54.9809371 45.2300894 52.2758621 37.1149846 54.9809371 29"></polygon>
                    <path d="M72.6214071,39.8421902 L69.8483026,37.0689655 L68.4137931,38.5037154 L71.1868976,41.2768199 C71.3848563,41.4747786 71.6445945,41.5739382 71.9040923,41.5739382 C72.16359,41.5739382 72.4233282,41.4748988 72.6212869,41.2768199 C73.0175649,40.8806621 73.0175649,40.2382278 72.6214071,39.8421902 Z" id="Shape" fill="#FFFFFF" fill-rule="nonzero"></path>
                    <path d="M67.1762007,39.9769973 C66.0693387,39.9769973 65.0288235,39.5459834 64.2461234,38.7632833 C62.6306025,37.1477624 62.6306025,34.5190103 64.2461234,32.903249 C65.0288235,32.1205489 66.0693387,31.6896552 67.1762007,31.6896552 C68.2829424,31.6896552 69.3235778,32.1206691 70.1061577,32.903249 C70.8888578,33.6859491 71.3198717,34.7264642 71.3198717,35.8333262 C71.3198717,36.9401882 70.8888578,37.9807034 70.1061577,38.7632833 C69.3235778,39.5458632 68.2829424,39.9769973 67.1762007,39.9769973 Z M67.1762007,33.7185215 C66.6112912,33.7185215 66.0801561,33.9384756 65.6807531,34.3379988 C64.8562256,35.1626465 64.8561055,36.5043665 65.6807531,37.328894 C66.0802763,37.7284172 66.6112912,37.9483713 67.1762007,37.9483713 C67.7411101,37.9483713 68.272125,37.7284172 68.6716482,37.328894 C69.0711714,36.9293708 69.2911256,36.3983559 69.2911256,35.8334464 C69.2911256,35.2685369 69.0711714,34.7374018 68.6716482,34.3379988 C68.272125,33.9384756 67.7409899,33.7185215 67.1762007,33.7185215 Z" id="Shape" fill="#FFFFFF" fill-rule="nonzero"></path>
                    <polygon id="Shape" fill="#8181D3" fill-rule="nonzero" points="32.1341677 54.5517241 32.1341677 62.6667087 29.4290927 62.6667087 26.7241379 58.6092164 29.4290927 54.5517241"></polygon>
                    <rect id="Rectangle-path" fill="#6868B5" fill-rule="nonzero" x="24.0344828" y="54.5517241" width="5.4100298" height="8.11498461"></rect>
                    <path d="M22,29 L55.5033581,29 L55.5033581,45.2300894 L22,45.2300894 C20.8954305,45.2300894 20,44.3346589 20,43.2300894 L20,31 C20,29.8954305 20.8954305,29 22,29 Z" id="Rectangle-path" fill="#FFFFFF" fill-rule="nonzero"></path>
                </g>
            </g>
            <g id="Group-71" transform="translate(315.000000, 174.000000)">
                <rect id="Rectangle-15" fill="#8181D3" opacity="0.630944293" x="7" y="7" width="146" height="146" rx="12"></rect>
                <g id="Group-26">
                    <rect id="Rectangle-15" fill="#8181D3" x="0" y="0" width="146" height="146" rx="12"></rect>
                    <g id="Rectangle-15">
                        <use fill="black" fill-opacity="1" filter="url(#filter-6)" xlink:href="#path-5"></use>
                        <use fill="url(#linearGradient-4)" fill-rule="evenodd" xlink:href="#path-5"></use>
                    </g>
                </g>
                <g id="Group-37" transform="translate(28.000000, 23.000000)" fill-rule="nonzero">
                    <path d="M40.1412587,67.1517672 L33.8666925,67.1517672 C31.954721,67.9130335 29.9222755,68.3142771 27.8415138,68.3142771 C25.7607521,68.3142771 23.7280956,67.9128305 21.8161242,67.1517672 L15.541558,67.1517672 C10.2390125,67.1517672 5.92515593,71.3179186 5.92515593,76.4390543 L5.92515593,78.6568593 C7.02587929,78.7267115 8.05128,79.1671454 8.8382645,79.9235383 L10.2596893,81.2893099 C10.300621,81.3289063 10.3546338,81.348806 10.4086467,81.348806 C10.4626596,81.348806 10.5164615,81.3291093 10.5576041,81.2895129 L11.9794509,79.9237414 C12.8383822,79.0974963 13.9813032,78.6426452 15.1974368,78.6426452 C16.4135705,78.6426452 17.5567024,79.0974963 18.4160558,79.9237414 C19.2756201,80.7495804 19.7488657,81.8477208 19.7488657,83.0161195 C19.7488657,84.1845181 19.2754091,85.2828616 18.4158448,86.1089036 L10.9076329,93.2709804 C10.766904,93.4058112 10.5799688,93.4797245 10.3812183,93.4797245 C10.1814128,93.4797245 9.99342272,93.404999 9.85206089,93.2693559 L5.92515593,89.4955135 L5.92515593,98.4696844 C5.92515593,99.0660672 6.42561899,99.5495495 7.04360226,99.5495495 L48.6394254,99.5495495 C49.2576197,99.5495495 49.7574498,99.0660672 49.7574498,98.4696844 L49.7574498,76.4390543 C49.7574498,71.3179186 45.4435932,67.1517672 40.1412587,67.1517672 Z" id="Shape" fill="#6868B5"></path>
                    <path d="M9.70845132,93.8322938 C9.45310204,93.8322938 9.21269901,93.7364312 9.03187045,93.5625787 L1.59769078,86.4007068 C0.701547421,85.5371308 0.207900208,84.3873887 0.207900208,83.1637186 C0.207900208,81.9402516 0.701547421,80.7905095 1.59769078,79.9269336 C2.49530772,79.0623421 3.68848145,78.5862786 4.95786,78.5862786 C6.22702804,78.5862786 7.42041228,79.0623421 8.31781871,79.9269336 L9.73581769,81.2929759 L11.1544482,79.9269336 C12.0512231,79.0623421 13.2448179,78.5862786 14.5137754,78.5862786 C15.7831539,78.5862786 16.9765382,79.0623421 17.8739446,79.9269336 C18.7715615,80.7913219 19.2654193,81.941064 19.2654193,83.1637186 C19.2654193,84.3865763 18.771351,85.5359122 17.8735236,86.4007068 L10.3818745,93.5646097 C10.2020985,93.7372436 9.96253754,93.8322938 9.70845132,93.8322938 Z" id="Shape" fill="#2CD4D9"></path>
                    <path d="M35.7574327,91.9265419 C35.4138205,91.9265419 35.134022,91.6471168 35.134022,91.3034217 L35.134022,87.4923435 L31.3227011,87.4923435 C30.9788755,87.4923435 30.6999307,87.2129184 30.6999307,86.8692233 L30.6999307,83.64381 C30.6999307,83.3003278 30.9788755,83.0211154 31.3227011,83.0211154 L35.134022,83.0211154 L35.134022,79.209186 C35.134022,78.8659166 35.4138205,78.5862786 35.7574327,78.5862786 L38.9829055,78.5862786 C39.3263042,78.5862786 39.6056759,78.8659166 39.6056759,79.209186 L39.6056759,83.0211154 L43.4172102,83.0211154 C43.7610358,83.0211154 44.040194,83.3003278 44.040194,83.64381 L44.040194,86.8692233 C44.040194,87.2127056 43.7610358,87.4923435 43.4172102,87.4923435 L39.6056759,87.4923435 L39.6056759,91.3034217 C39.6056759,91.6471168 39.3263042,91.9265419 38.9829055,91.9265419 L35.7574327,91.9265419 Z" id="Shape" fill="#FFFFFF"></path>
                    <path d="M78.2562968,59.5287595 L71.9817306,59.5287595 C70.0697591,60.2900259 68.0373136,60.6912695 65.9565519,60.6912695 C63.8757902,60.6912695 61.8431338,60.2898228 59.9311623,59.5287595 L53.6565961,59.5287595 C48.3540506,59.5287595 44.040194,63.694911 44.040194,68.8160467 L44.040194,71.0338517 C44.040194,72.9518454 44.5406571,91.9265419 45.1586404,91.9265419 L86.7544635,91.9265419 C87.3726578,91.9265419 87.8724879,91.4430596 87.8724879,90.8466768 L87.8724879,68.8160467 C87.8724879,63.694911 83.5586313,59.5287595 78.2562968,59.5287595 Z" id="Shape" fill="#6868B5"></path>
                    <path d="M75.7782227,80.4920305 C75.4346105,80.4920305 75.154812,80.2126053 75.154812,79.8689103 L75.154812,76.0578321 L71.3434911,76.0578321 C70.9996655,76.0578321 70.7207207,75.7784069 70.7207207,75.4347119 L70.7207207,72.2092986 C70.7207207,71.8658163 70.9996655,71.586604 71.3434911,71.586604 L75.154812,71.586604 L75.154812,67.7746746 C75.154812,67.4314051 75.4346105,67.1517672 75.7782227,67.1517672 L79.0036955,67.1517672 C79.3470943,67.1517672 79.6264659,67.4314051 79.6264659,67.7746746 L79.6264659,71.586604 L83.4380002,71.586604 C83.7818258,71.586604 84.0609841,71.8658163 84.0609841,72.2092986 L84.0609841,75.4347119 C84.0609841,75.7781941 83.7818258,76.0578321 83.4380002,76.0578321 L79.6264659,76.0578321 L79.6264659,79.8689103 C79.6264659,80.2126053 79.3470943,80.4920305 79.0036955,80.4920305 L75.7782227,80.4920305 Z" id="Shape" fill="#FFFFFF"></path>
                    <path d="M87.8724879,6.6366569 L87.8724879,9.33609244 C87.8724879,10.0116275 87.7849133,10.6754416 87.6175054,11.3182932 C87.0874613,11.6117689 86.5201616,11.8633195 85.9202029,12.070691 L84.9728487,12.3991043 C84.3753092,12.6064757 83.7378531,12.1987203 83.7804308,11.6421984 C83.9178407,9.85114005 82.7629202,8.54898248 82.7629202,8.54898248 C81.815566,10.7033917 79.0980917,11.3230267 77.4557048,11.4999686 C76.8806637,11.5628563 76.3958584,11.1039342 76.528188,10.614808 C77.0507327,8.67453238 76.1507946,6.88820751 76.1507946,6.88820751 C72.6836139,10.5823499 66.0289106,12.3082665 60.936761,13.1095769 C57.8118954,13.5987031 55.2770699,13.745441 54.4245479,13.7803786 C54.2370608,13.7896201 54.0519929,13.7943536 53.8620866,13.7873661 C51.899641,13.7082494 49.7574498,12.8742554 49.7574498,11.0016009 L49.7574498,4.13737991 C49.7574498,3.39444908 49.8600233,2.67000137 50.0499296,1.97598316 C51.7397327,1.01170584 53.7621741,0.45045045 55.9246866,0.45045045 L68.3239945,0.45045045 C72.3412987,0.45045045 75.8510572,2.42318424 77.6335151,5.30452062 C78.2883894,3.50174128 80.2409163,2.18808811 82.5258397,2.18808811 L82.7409056,2.18808811 C85.5626468,2.1878627 87.8724879,4.18877196 87.8724879,6.6366569 Z" id="Shape" fill="#D4C0F2"></path>
                    <path d="M80.1552322,35.0099829 C80.1552322,40.7437833 76.5458253,45.6858765 71.4469288,47.7575299 L71.4469288,57.5621918 C71.4469288,59.9219746 70.0126765,61.9686143 67.9552018,62.8990767 C67.1977283,63.243841 66.3547568,63.4345114 65.4704774,63.4345114 L65.0108058,63.4345114 C61.7222565,63.4345114 59.0343544,60.7910827 59.0343544,57.5621918 L59.0343544,48.0074309 C53.5889029,46.1082777 49.6632017,40.9892007 49.6632017,35.0104548 L49.6632017,11.97921 L80.1552322,11.97921 L80.1552322,35.0099829 Z" id="Shape" fill="#B2C3F7"></path>
                    <path d="M80.1552322,10.97921 L80.1552322,34.252157 C80.1552322,40.0462497 76.5876285,45.0403103 71.547786,47.1337476 L71.547786,57.0415079 C71.547786,59.4261044 70.1301448,61.494265 68.0964992,62.4345114 C66.0628535,61.4966496 64.6430759,59.4263429 64.6430759,57.0415079 L64.6430759,48.9946868 C64.6430759,48.0761402 64.1308071,47.2248392 63.305907,46.8282808 C58.6297327,44.5822293 55.3804574,39.7808441 55.3804574,34.252157 L55.3804574,10.97921 C55.3804574,10.97921 80.1552322,10.97921 80.1552322,10.97921 Z" id="Shape" fill="#FFFFFF"></path>
                    <path d="M87.8724879,7.28669074 L87.8724879,10.2697774 C87.8724879,11.0162963 87.7864891,11.7498627 87.6220936,12.4602637 C86.8953802,15.6132289 84.6197385,18.2799729 81.4579769,19.5129621 L80.5276697,19.8758844 C79.9408824,20.1050461 79.3148969,19.6544445 79.3567084,19.0394445 C79.4942589,17.0601854 78.3575072,15.6211998 78.3575072,15.6211998 C77.4271999,18.0019899 74.7612379,18.6867348 73.1481669,18.8822695 C72.5810976,18.9517652 72.1047784,18.4446206 72.2349644,17.904098 C72.7481063,15.7599422 71.8643619,13.785914 71.8643619,13.785914 C68.4595706,17.8682292 61.9246138,19.7755017 56.9240937,20.6610121 C53.8554578,21.2015347 51.3662446,21.3636914 50.5290631,21.4023002 C50.3449497,21.4125128 50.1632119,21.4177437 49.9767229,21.4100219 C48.0495901,21.3225918 45.9459459,20.4009635 45.9459459,18.3342742 L45.9459459,10.748775 C45.9459459,7.15816095 47.8533608,3.98178142 50.7305188,2.136283 C52.3899151,1.0706814 54.3759642,0.45045045 56.4995638,0.45045045 L68.6757553,0.45045045 C72.6207711,0.45045045 76.067374,2.63047505 77.8177579,5.81457633 C78.4608482,3.82236464 80.3782408,2.3706755 82.6220487,2.3706755 L82.8332446,2.3706755 C85.6042107,2.37042641 87.8724879,4.5815871 87.8724879,7.28669074 Z" id="Shape" fill="#8181D3"></path>
                    <path d="M51.2985043,50.569969 L45.6335288,31.0121199 C45.4618409,30.4196259 45.5880037,29.7742997 45.9907076,29.3060461 C47.4262027,27.6351938 48.2567946,25.5325158 48.2567946,23.3019787 L48.2567946,20.4106758 C48.2567946,17.7917367 45.9454246,15.6490122 43.1204437,15.6490122 L42.907105,15.6490122 C40.6170447,15.6490122 38.6645484,17.0571503 38.0073396,18.9858918 C36.2226568,15.9011116 32.7087448,13.7907138 28.68776,13.7907138 L16.2777976,13.7907138 C10.3612231,13.7907138 5.52030135,18.2783248 5.52030135,23.7632362 L5.52030135,28.1688244 L5.52030135,31.0695358 C5.5086779,31.9088219 5.87142618,32.5551131 6.44000626,33.0308452 C7.0168196,33.5135734 7.22579942,34.3072644 7.01536667,35.0276174 L2.47834951,50.5697277 C1.25159199,54.7726714 3.19948727,59.2556987 7.12264137,61.2266579 C10.88113,63.1151117 16.5659622,64.913823 24.8367682,65.2460152 L29.1318724,65.2380542 C37.2985517,64.8863212 42.9247824,63.1003959 46.6542124,61.2271403 C50.5773665,59.2556987 52.5252618,54.7729126 51.2985043,50.569969 Z" id="Shape" fill="#8181D3"></path>
                    <path d="M40.2286902,40.4712405 L40.2286902,50 C43.3861205,50 45.9459459,47.8670486 45.9459459,45.2356202 C45.9459459,42.6041919 43.3864042,40.4712405 40.2286902,40.4712405 Z" id="Shape" fill="#F9F4FA"></path>
                    <path d="M42.1344421,23.3194733 L42.1344421,46.3502462 C42.1344421,52.0840466 38.5250353,57.0261399 33.4261388,59.0977933 L33.4261388,68.9024551 C33.4261388,71.262238 31.9918865,73.3088777 29.9344118,74.23934 C29.1769383,74.5841043 28.3339668,74.7747748 27.4496874,74.7747748 L26.9900158,74.7747748 C23.7014665,74.7747748 21.0135643,72.131346 21.0135643,68.9024551 L21.0135643,59.3476943 C15.5681129,57.448541 11.6424116,52.329464 11.6424116,46.3507182 L11.6424116,23.3194733 L42.1344421,23.3194733 Z" id="Shape" fill="#B2C3F7"></path>
                    <path d="M42.1344421,22.3194733 L42.1344421,45.5924203 C42.1344421,51.3865131 38.5668385,56.3805736 33.526996,58.474011 L33.526996,68.3817712 C33.526996,70.7663678 32.1093548,72.8345284 30.0757092,73.7747748 C28.0420635,72.8369129 26.6222859,70.7666062 26.6222859,68.3817712 L26.6222859,60.3349501 C26.6222859,59.4164035 26.1100171,58.5651025 25.285117,58.1685441 C20.6089427,55.9224926 17.3596674,51.1211075 17.3596674,45.5924203 L17.3596674,22.3194733 C17.3596674,22.3194733 42.1344421,22.3194733 42.1344421,22.3194733 Z" id="Shape" fill="#FFFFFF"></path>
                    <path d="M47.8516979,20.6269541 L47.8516979,23.6100408 C47.8516979,24.3565597 47.7656991,25.090126 47.6013036,25.8005271 C46.8745902,28.9534923 44.5989485,31.6202362 41.4371869,32.8532255 L40.5068796,33.2161478 C39.9200924,33.4453094 39.2941068,32.9947079 39.3359184,32.3797078 C39.4734689,30.4004487 38.3367171,28.9614631 38.3367171,28.9614631 C37.4064099,31.3422532 34.7404478,32.0269981 33.1273768,32.2225328 C32.5603076,32.2920286 32.0839884,31.7848839 32.2141744,31.2443613 C32.7273162,29.1002055 31.8435719,27.1261773 31.8435719,27.1261773 C28.4387805,31.2084926 21.9038237,33.115765 16.9033037,34.0012754 C13.8346678,34.541798 11.3454545,34.7039548 10.5082731,34.7425635 C10.3241597,34.7527762 10.1424219,34.758007 9.95593286,34.7502853 C8.02880004,34.6628551 5.92515593,33.7412268 5.92515593,31.6745376 L5.92515593,24.0890384 C5.92515593,20.4984243 7.83257079,17.3220448 10.7097288,15.4765463 C12.3691251,14.4109447 14.3551742,13.7907138 16.4787738,13.7907138 L28.6549653,13.7907138 C32.599981,13.7907138 36.046584,15.9707384 37.7969679,19.1548397 C38.4400582,17.162628 40.3574508,15.7109388 42.6012587,15.7109388 L42.8124546,15.7109388 C45.5834207,15.7106897 47.8516979,17.9218504 47.8516979,20.6269541 Z" id="Shape" fill="#8181D3"></path>
                    <path d="M47.8516979,19.9769202 L47.8516979,22.6763558 C47.8516979,23.3518909 47.7641232,24.015705 47.5967154,24.6585565 C47.0666712,24.9520322 46.4993716,25.2035828 45.8994129,25.4109543 L44.9520587,25.7393676 C44.3545192,25.9467391 43.7170631,25.5389837 43.7596408,24.9824617 C43.8970507,23.1914034 42.7421302,21.8892458 42.7421302,21.8892458 C41.794776,24.043655 39.0773017,24.66329 37.4349148,24.840232 C36.8598737,24.9031196 36.3750683,24.4441975 36.507398,23.9550714 C37.0299426,22.0147957 36.1300046,20.2284708 36.1300046,20.2284708 C32.6628238,23.9226132 26.0081205,25.6485299 20.915971,26.4498403 C17.7911054,26.9389665 15.2562799,27.0857043 14.4037579,27.1206419 C14.2162708,27.1298835 14.0312029,27.1346169 13.8412966,27.1276294 C11.878851,27.0485127 9.73665974,26.2145187 9.73665974,24.3418642 L9.73665974,17.4776432 C9.73665974,16.7347124 9.83923332,16.0102647 10.0291396,15.3162465 C11.7189427,14.3519692 13.7413841,13.7907138 15.9038966,13.7907138 L28.3032045,13.7907138 C32.3205087,13.7907138 35.8302671,15.7634476 37.6127251,18.644784 C38.2675994,16.8420046 40.2201263,15.5283514 42.5050497,15.5283514 L42.7201155,15.5283514 C45.5418568,15.528126 47.8516979,17.5290353 47.8516979,19.9769202 Z" id="Shape" fill="#B2C3F7"></path>
                </g>
            </g>
            <g id="Group-72" transform="translate(143.000000, 285.000000)">
                <g id="Path-Copy-11" opacity="0.296535326">
                    <use fill="black" fill-opacity="1" filter="url(#filter-8)" xlink:href="#path-7"></use>
                    <use fill="#4A477E" fill-rule="evenodd" xlink:href="#path-7"></use>
                </g>
                <g id="Group-26" transform="translate(38.000000, 17.000000)" fill-rule="nonzero">
                    <g id="007-ultrasound">
                        <path d="M78.8922035,60.3316552 L2.97305187,60.3316552 C1.33110987,60.3316552 0,59.0005454 0,57.3586034 L0,3.0809797 C0,1.43903769 1.33110987,0.107927827 2.97305187,0.107927827 L78.8922035,0.107927827 C80.5341455,0.107927827 81.8652554,1.43903769 81.8652554,3.0809797 L81.8652554,57.3587633 C81.8652554,59.0005454 80.5341455,60.3316552 78.8922035,60.3316552 Z" id="Shape" fill="#8181D3"></path>
                        <path d="M3.95767344,57.3586034 L3.95767344,3.0809797 C3.95767344,1.43903769 5.28878331,0.107927827 6.93072531,0.107927827 L2.97305187,0.107927827 C1.33110987,0.107927827 0,1.43903769 0,3.0809797 L0,57.3587633 C0,59.0005454 1.33110987,60.3316552 2.97305187,60.3316552 L6.93072531,60.3316552 C5.28878331,60.3316552 3.95767344,59.0005454 3.95767344,57.3586034 Z" id="Shape" fill="#D4C0F2" opacity="0.1"></path>
                        <g id="Group" transform="translate(7.834761, 8.794119)">
                            <path d="M40.7166121,0.60487551 C40.1427559,-0.0163090938 39.2056226,-0.107608041 38.5052909,0.366315039 C36.9621628,1.41073662 35.1014871,2.02120839 33.0978669,2.02120839 C31.0940869,2.02120839 29.233571,1.41073662 27.690443,0.366315039 C26.9901113,-0.107608041 26.0528181,-0.0163090938 25.4791217,0.60487551 L0.861344005,27.2568129 C-0.244476515,28.4540923 -0.116881839,30.3371531 1.14339539,31.3707019 C9.84253814,38.5041716 20.969977,42.7857885 33.0978669,42.7857885 C45.2257568,42.7857885 56.3531957,38.5041716 65.0523385,31.3707019 C66.3126157,30.3371531 66.4402104,28.4540923 65.3343898,27.2568129 L40.7166121,0.60487551 Z" id="Shape" fill="#F4F6FF"></path>
                            <path d="M45.6242104,5.91796256 C40.4206501,6.43825464 36.6398184,9.59038675 34.890748,14.4023689 L34.8936261,14.3860598 C32.7467417,16.3468286 32.4965091,17.7911428 33.9772788,19.7058624 L33.9783981,19.6991469 C34.1555596,21.5286434 34.9695753,23.2585266 35.8809658,24.7752724 L35.8809658,24.7754323 C36.7322366,26.5761481 34.6943993,26.6800786 33.0561348,26.5724706 C32.6319385,26.5275406 32.2008668,26.4890064 31.7640389,26.4576673 C31.7602014,26.4573475 31.7557244,26.4568679 31.751887,26.4565481 L31.751887,26.456708 C30.2293851,26.347501 28.6381292,26.3257555 27.0364803,26.4224909 C26.2982539,26.467101 25.655164,25.9180282 25.5896078,25.1812409 C25.3424131,22.4029388 26.1284475,19.583864 26.7720171,18.6742322 C27.3821691,17.8119289 27.4710697,16.6696527 26.9002514,15.7808071 C25.7726854,14.0251811 23.4582331,14.1089651 22.4043778,15.6065237 C21.1755995,17.352716 20.2963475,20.5764802 20.2167208,23.6285192 C20.1906582,24.623374 20.240225,25.7592544 20.4418502,26.945661 C20.5024497,27.3025423 20.3005047,27.6507895 19.959133,27.7710291 C16.5431773,28.9729453 13.524396,31.0486772 11.5890502,34.3907623 C11.1037747,35.228762 10.6925297,36.3107584 10.5572602,37.4760592 C17.340724,40.8720282 24.9952852,42.7857885 33.0978669,42.7857885 C35.541193,42.7857885 37.9435865,42.6110253 40.2940147,42.27509 C42.9798986,40.3362265 45.2564563,37.7457988 46.8381186,34.4657522 C47.8201819,32.4291941 48.9642168,31.490142 51.9764425,30.2712771 C55.8509716,28.7550111 58.8302593,25.4557773 59.9093776,21.3834605 L45.6242104,5.91796256 Z" id="Shape" fill="#B2C3F7"></path>
                        </g>
                        <path d="M48.9519051,25.9055565 C48.8422184,25.9055565 48.7307729,25.8903667 48.6201269,25.858548 C47.9835926,25.6756303 47.6158385,25.0112746 47.7989161,24.3747402 C47.8718273,24.1206701 47.7245658,23.854608 47.4704957,23.7815369 C47.2162657,23.708146 46.9502036,23.8557273 46.8772924,24.1097974 C46.6943747,24.7461718 46.0298591,25.1142457 45.3934846,24.9310082 C44.7569503,24.7480906 44.3891962,24.0837348 44.5722738,23.4472005 C44.7846118,22.7083346 45.271806,22.0965837 45.9444762,21.7243526 C46.6169865,21.3521215 47.3942267,21.2640204 48.1330926,21.4763584 C49.6581528,21.9147852 50.5422016,23.5121171 50.1039347,25.0371772 C49.9528357,25.5630656 49.4731565,25.9055565 48.9519051,25.9055565 Z" id="Shape" fill="#8181D3"></path>
                        <path d="M75.5080665,10.0588735 L68.4831642,10.0588735 C67.8208871,10.0588735 67.2839661,9.52195252 67.2839661,8.85967539 C67.2839661,8.19739827 67.8208871,7.66047732 68.4831642,7.66047732 L75.5080665,7.66047732 C76.1703437,7.66047732 76.7072646,8.19739827 76.7072646,8.85967539 C76.7072646,9.52195252 76.1703437,10.0588735 75.5080665,10.0588735 Z" id="Shape" fill="#FFFFFF"></path>
                        <path d="M75.5080665,14.7586107 L68.4831642,14.7586107 C67.8208871,14.7586107 67.2839661,14.2216897 67.2839661,13.5594126 C67.2839661,12.8971355 67.8208871,12.3602145 68.4831642,12.3602145 L75.5080665,12.3602145 C76.1703437,12.3602145 76.7072646,12.8971355 76.7072646,13.5594126 C76.7072646,14.2216897 76.1703437,14.7586107 75.5080665,14.7586107 Z" id="Shape" fill="#FFFFFF"></path>
                        <path d="M75.5080665,19.4583479 L71.9956953,19.4583479 C71.3334182,19.4583479 70.7964972,18.9214269 70.7964972,18.2591498 C70.7964972,17.5968727 71.3334182,17.0599517 71.9956953,17.0599517 L75.5080665,17.0599517 C76.1703437,17.0599517 76.7072646,17.5968727 76.7072646,18.2591498 C76.7072646,18.9214269 76.1703437,19.4583479 75.5080665,19.4583479 Z" id="Shape" fill="#FFFFFF"></path>
                    </g>
                </g>
            </g>
            <g id="Group-73" transform="translate(0.000000, 200.000000)">
                <g id="Path-Copy-19" opacity="0.296535326">
                    <use fill="black" fill-opacity="1" filter="url(#filter-10)" xlink:href="#path-9"></use>
                    <use fill="#4A477E" fill-rule="evenodd" xlink:href="#path-9"></use>
                </g>
                <g id="Group-8" transform="translate(17.000000, 28.000000)" fill-rule="nonzero">
                    <g id="001-cardiogram" transform="translate(0.375712, 0.581120)">
                        <path d="M31.7570945,48.8956301 C31.7570945,48.8956301 13.0603979,40.5455578 5.92662319,22.2170505 C-1.20529758,3.88866669 19.2104807,-7.57624447 31.7570945,5.99287006 C44.3011128,-7.57624447 64.7178798,3.88866669 57.5841051,22.2170505 C50.450454,40.5456814 31.7570945,48.8956301 31.7570945,48.8956301 Z" id="Shape" fill="#8181D3"></path>
                        <path d="M31.7570945,48.8956301 C31.7570945,48.8956301 31.7570945,15.6603404 31.7570945,5.99274646 C44.3011128,-7.57624447 64.7178798,3.88866669 57.5841051,22.2170505 C50.450454,40.5456814 31.7570945,48.8956301 31.7570945,48.8956301 Z" id="Shape" fill="#B2C3F7"></path>
                        <polygon id="Shape" fill="#FFFFFF" points="34.4145087 41.1168135 26.0915038 19.0725487 22.2369493 27.7077544 0 27.7077544 0 23.5807967 19.5597599 23.5807967 26.4103786 8.23352221 34.4255086 29.4620606 36.6586215 23.5807967 63.2805946 23.5807967 63.2805946 27.7077544 39.5062482 27.7077544"></polygon>
                        <polygon id="Shape" fill="#FFFFFF" points="36.6586215 23.5807967 34.4255086 29.4620606 31.6402973 22.0851747 31.6402973 33.769096 34.4145087 41.1168135 39.5062482 27.7077544 63.2805946 27.7077544 63.2805946 23.5807967"></polygon>
                    </g>
                </g>
            </g>
            <g id="Group-74" transform="translate(2.000000, 0.000000)">
                <g id="Path-Copy-14" opacity="0.296535326">
                    <use fill="black" fill-opacity="1" filter="url(#filter-12)" xlink:href="#path-11"></use>
                    <use fill="#4A477E" fill-rule="evenodd" xlink:href="#path-11"></use>
                </g>
                <g id="Group-13" transform="translate(23.000000, 16.000000)" fill-rule="nonzero">
                    <g id="003-pills">
                        <path d="M36.7566653,47.508746 L26.7062419,37.4583226 L12.7903629,51.3742016 L22.8407863,61.424625 L22.8472016,61.4182097 C26.7062419,65.0055685 32.7426129,64.9233629 36.4990081,61.1669677 C40.2554032,57.4105726 40.3376089,51.3742016 36.75025,47.5153105 L36.7566653,47.508746 Z" id="Shape" fill="#B2C3F7"></path>
                        <path d="M16.6558185,27.40775 L16.6494032,27.4141653 C12.7903629,23.8268065 6.75399194,23.9090121 2.99759677,27.6654073 C-0.758798387,31.4216532 -0.841004032,37.4581734 2.74635484,41.3172137 L2.73993952,41.323629 L12.7905121,51.3740524 L26.7063911,37.4581734 L16.6558185,27.40775 Z" id="Shape" fill="#FFFFFF"></path>
                        <path d="M28.3764637,2.62327016 L28.3700484,2.62968548 C24.5110081,-0.957673387 18.4746371,-0.875467742 14.7182419,2.88092742 C10.9618468,6.63732258 10.8796411,12.6736935 14.467,16.5327339 L14.4605847,16.5391492 L24.5110081,26.5895726 L38.4268871,12.6735444 L28.3764637,2.62327016 Z" id="Shape" fill="#B2C3F7"></path>
                        <path d="M48.4708952,22.7305323 L48.4774597,22.7239677 L38.4268871,12.6735444 L24.5110081,26.5895726 L34.5614315,36.6401452 L34.5678468,36.6335806 C38.4268871,40.2209395 44.4632581,40.1387339 48.2196532,36.3823387 C51.9760484,32.6259435 52.058254,26.5895726 48.4708952,22.7305323 Z" id="Shape" fill="#FFFFFF"></path>
                    </g>
                </g>
            </g>
            <g id="Group-76" transform="translate(325.000000, 0.000000)">
                <g id="Group-75">
                    <g id="Path-Copy-17" opacity="0.296535326">
                        <use fill="black" fill-opacity="1" filter="url(#filter-14)" xlink:href="#path-13"></use>
                        <use fill="#4A477E" fill-rule="evenodd" xlink:href="#path-13"></use>
                    </g>
                    <path d="M43.582436,31.1029677 C47.899609,29.1697087 52.8355464,29.1697087 57.1527195,31.1029677 C58.0044066,29.7763206 61.4081173,27.2060684 62.1008094,23.8134976 L60.4946549,18.9504751 C53.9940841,16.3498416 46.7410714,16.3498416 40.2405005,18.9504751 L38.8085318,23.8134976 C39.5022366,27.2060684 42.7307488,29.7763206 43.582436,31.1029677 Z" id="Shape" fill="#8181D3" fill-rule="nonzero"></path>
                    <path d="M44.2913314,32.1156755 C44.2913314,32.1156755 39.923523,26.7351593 40.2405005,18.9504751 C40.2405005,18.9504751 32.0122502,32.6858299 35.1769619,38.1919218 L60.0642542,70.4537517 C61.391914,72.1743421 63.8993783,72.410303 65.5237615,70.9661818 L68.9436755,67.9260332 C70.4465337,66.5902717 70.6278084,64.3056031 69.3548348,62.7490714 L44.2913314,32.1156755 Z" id="Shape" fill="#B2C3F7" fill-rule="nonzero"></path>
                    <path d="M50.3675777,39.5418612 L57.6499589,48.4425494 L65.5581935,38.1909091 C68.7229052,32.6838045 60.4946549,18.9494624 60.4946549,18.9494624 C60.8116325,26.7351593 56.443824,32.1146628 56.443824,32.1146628 L50.3675777,39.5418612 Z" id="Shape" fill="#FFFFFF" fill-rule="nonzero"></path>
                    <path d="M43.0851965,48.4425494 L31.3803206,62.7490714 C30.1063343,64.3056031 30.287609,66.5902717 31.79148,67.9260332 L35.2113939,70.9661818 C36.8357771,72.410303 39.3442542,72.1753548 40.6709013,70.4537517 L50.3675777,57.8830108 L43.0851965,48.4425494 Z" id="Shape" fill="#FFFFFF" fill-rule="nonzero"></path>
                </g>
                <g id="002-ribbon" transform="translate(30.000000, 17.000000)">
                    <g id="Group" transform="translate(0.000000, 1.012708)"></g>
                </g>
            </g>
        </g>
        <path d="M510.240565,265.509398 C509.670497,259.16263 508.784171,252.906996 507.597463,246.758374" id="Oval-4" stroke="#523B85" stroke-width="5" opacity="0.4" stroke-linecap="round"></path>
        <circle id="Oval-6-Copy-3" fill="#523B85" opacity="0.4" cx="505.5" cy="236.5" r="2.5"></circle>
        <circle id="Oval-6-Copy-4" fill="#523B85" opacity="0.4" cx="511.5" cy="282.5" r="2.5"></circle>
        <path d="M428.611236,220.940831 L440.030008,227.120252" id="Path" stroke="#523B85" stroke-width="5" fill="#D8D8D8" opacity="0.4" stroke-linecap="round" transform="translate(434.320622, 224.030541) scale(-1, 1) translate(-434.320622, -224.030541) "></path>
    </g>
</svg>