<?xml version="1.0" encoding="UTF-8"?>
<svg width="106px" height="106px" viewBox="0 0 106 106" version="1.1" xmlns="http://www.w3.org/2000/svg" xmlns:xlink="http://www.w3.org/1999/xlink">
    <!-- Generator: Sketch 49.3 (51167) - http://www.bohemiancoding.com/sketch -->
    <title>Group 5</title>
    <desc>Created with Sketch.</desc>
    <defs></defs>
    <g id="Desktop" stroke="none" stroke-width="1" fill="none" fill-rule="evenodd">
        <g id="04-Desktop-Physicians" transform="translate(-408.000000, -2144.000000)" fill-rule="nonzero">
            <g id="Group-5" transform="translate(408.000000, 2144.000000)">
                <path d="M96.2504718,105.433379 L74.8236883,105.433379 L74.8236883,37.4118442 L102.37241,37.4118442 C104.062881,37.4118442 105.433379,38.7920032 105.433379,40.4943911 L105.433379,96.1857383 C105.433379,101.293108 101.322089,105.433379 96.2504718,105.433379 Z" id="Shape" fill="#6868B5"></path>
                <path d="M95.2301488,105.433379 L15.2939211,105.433379 C6.85167666,105.433379 0,98.5143135 0,89.9890364 L0,3.08886853 C0,1.35889623 1.34566114,0 3.05878422,0 L82.9950119,0 C84.708135,0 86.0537961,1.35889623 86.0537961,3.08886853 L86.0537961,96.1667734 C86.0537961,101.294089 90.1523631,105.433379 95.2301488,105.433379 Z" id="Shape" fill="#E4E4FF"></path>
                <path d="M95.2301488,105.433379 L44.2139977,105.433379 L44.2139977,0 L83.2732384,0 C84.9474051,0 86.262466,1.35889623 86.262466,3.08886853 L86.262466,96.1667734 C86.262466,101.294089 90.2678317,105.433379 95.2301488,105.433379 Z" id="Shape" fill="#B2C3F7"></path>
                <path d="M24.7470612,54.4172279 C15.9106598,54.4172279 8.50269186,62.4520733 8.50269186,72.2728808 L8.50269186,75.2488229 C8.50269186,76.9155489 9.6806764,78.2247651 11.1803351,78.2247651 L38.1352776,78.2247651 C39.6349364,78.2247651 40.8129209,76.9155489 40.8129209,75.2488229 L40.8129209,72.2728808 C40.8129209,62.4520733 33.5834625,54.4172279 24.7470612,54.4172279 Z" id="Shape" fill="#B2C3F7"></path>
                <path d="M42.5134593,72.2728808 L42.5134593,75.2488229 C42.5134593,76.9155489 41.2665868,78.2247651 39.6792287,78.2247651 L25.5080756,78.2247651 L25.5080756,54.4172279 C34.8612256,54.4172279 42.5134593,62.4520733 42.5134593,72.2728808 Z" id="Shape" fill="#6868B5"></path>
                <path d="M23.9059155,37.4118442 C17.4131475,37.4118442 11.9037686,42.7687384 11.9037686,49.3156128 C11.9037686,55.8624871 17.4131475,61.2193814 23.9059155,61.2193814 C30.3986834,61.2193814 35.7113058,55.8624871 35.7113058,49.3156128 C35.7113058,42.7687384 30.3986834,37.4118442 23.9059155,37.4118442 Z" id="Shape" fill="#B2C3F7"></path>
                <path d="M39.1123825,49.3156128 C39.1123825,55.8624871 32.9902177,61.2193814 25.5080756,61.2193814 L25.5080756,37.4118442 C32.9902177,37.4118442 39.1123825,42.7687384 39.1123825,49.3156128 Z" id="Shape" fill="#6868B5"></path>
                <path d="M71.7829906,13.604307 L16.6450047,13.604307 C14.9420113,13.604307 13.604307,15.0841117 13.604307,16.9680092 L13.604307,30.6470652 C13.604307,32.5305142 14.9420113,34.0107674 16.6450047,34.0107674 L71.7829906,34.0107674 C73.485984,34.0107674 74.8236883,32.5305142 74.8236883,30.6470652 L74.8236883,16.9680092 C74.8236883,15.0841117 73.485984,13.604307 71.7829906,13.604307 Z" id="Shape" fill="#B2C3F7"></path>
                <path d="M74.8236883,16.9680092 L74.8236883,30.6470652 C74.8236883,32.5305142 73.485984,34.0107674 71.7829906,34.0107674 L44.2139977,34.0107674 L44.2139977,13.604307 L71.7829906,13.604307 C73.485984,13.604307 74.8236883,15.0841117 74.8236883,16.9680092 Z" id="Shape" fill="#6868B5"></path>
                <path d="M75.8276145,55.3454448 L59.5272363,55.3454448 C58.5834768,55.3454448 57.8183046,54.3762268 57.8183046,53.180798 C57.8183046,51.9853692 58.5834768,51.0161511 59.5272363,51.0161511 L75.8276145,51.0161511 C76.771374,51.0161511 77.5365462,51.9853692 77.5365462,53.180798 C77.5365462,54.3762268 76.771374,55.3454448 75.8276145,55.3454448 Z" id="Shape" fill="#FFFFFF" transform="translate(67.677425, 53.180798) scale(-1, 1) translate(-67.677425, -53.180798) "></path>
                <path d="M75.1228114,45.1422146 L52.7250829,45.1422146 C51.7813233,45.1422146 51.0161511,44.1729965 51.0161511,42.9775677 C51.0161511,41.782139 51.7813233,40.8129209 52.7250829,40.8129209 L75.1228114,40.8129209 C76.0665709,40.8129209 76.8317431,41.782139 76.8317431,42.9775677 C76.8317431,44.1729965 76.0665709,45.1422146 75.1228114,45.1422146 Z" id="Shape" fill="#FFFFFF" transform="translate(63.923947, 42.977568) scale(-1, 1) translate(-63.923947, -42.977568) "></path>
                <path d="M75.8276145,75.7519053 L59.5272363,75.7519053 C58.5834768,75.7519053 57.8183046,74.7826872 57.8183046,73.5872584 C57.8183046,72.3918297 58.5834768,71.4226116 59.5272363,71.4226116 L75.8276145,71.4226116 C76.771374,71.4226116 77.5365462,72.3918297 77.5365462,73.5872584 C77.5365462,74.7826872 76.771374,75.7519053 75.8276145,75.7519053 Z" id="Shape-Copy" fill="#FFFFFF" transform="translate(67.677425, 73.587258) scale(-1, 1) translate(-67.677425, -73.587258) "></path>
                <path d="M75.1228114,65.548675 L52.7250829,65.548675 C51.7813233,65.548675 51.0161511,64.579457 51.0161511,63.3840282 C51.0161511,62.1885994 51.7813233,61.2193814 52.7250829,61.2193814 L75.1228114,61.2193814 C76.0665709,61.2193814 76.8317431,62.1885994 76.8317431,63.3840282 C76.8317431,64.579457 76.0665709,65.548675 75.1228114,65.548675 Z" id="Shape-Copy-2" fill="#FFFFFF" transform="translate(63.923947, 63.384028) scale(-1, 1) translate(-63.923947, -63.384028) "></path>
            </g>
        </g>
    </g>
</svg>