<?xml version="1.0" encoding="UTF-8"?>
<svg width="530px" height="440px" viewBox="0 0 530 440" version="1.1" xmlns="http://www.w3.org/2000/svg" xmlns:xlink="http://www.w3.org/1999/xlink">
    <!-- Generator: Sketch 49.3 (51167) - http://www.bohemiancoding.com/sketch -->
    <title>physicians-workflow</title>
    <desc>Created with Sketch.</desc>
    <defs>
        <linearGradient x1="43.6892989%" y1="8.40166749%" x2="58.8668333%" y2="100%" id="linearGradient-1">
            <stop stop-color="#FFFCFF" offset="0%"></stop>
            <stop stop-color="#F3E9FF" offset="100%"></stop>
        </linearGradient>
        <rect id="path-2" x="0.2625" y="0" width="98.5900217" height="98.8495016" rx="12"></rect>
        <filter x="-35.5%" y="-25.3%" width="171.0%" height="170.8%" filterUnits="objectBoundingBox" id="filter-3">
            <feOffset dx="0" dy="10" in="SourceAlpha" result="shadowOffsetOuter1"></feOffset>
            <feGaussianBlur stdDeviation="10" in="shadowOffsetOuter1" result="shadowBlurOuter1"></feGaussianBlur>
            <feColorMatrix values="0 0 0 0 0.321568627   0 0 0 0 0.231372549   0 0 0 0 0.521568627  0 0 0 0.251019022 0" type="matrix" in="shadowBlurOuter1"></feColorMatrix>
        </filter>
        <linearGradient x1="47.605684%" y1="32.037545%" x2="58.8668333%" y2="100%" id="linearGradient-4">
            <stop stop-color="#FFFCFF" offset="0%"></stop>
            <stop stop-color="#FBFCFF" offset="100%"></stop>
        </linearGradient>
        <rect id="path-5" x="0" y="0" width="146" height="146" rx="12"></rect>
        <filter x="-24.0%" y="-17.1%" width="147.9%" height="147.9%" filterUnits="objectBoundingBox" id="filter-6">
            <feOffset dx="0" dy="10" in="SourceAlpha" result="shadowOffsetOuter1"></feOffset>
            <feGaussianBlur stdDeviation="10" in="shadowOffsetOuter1" result="shadowBlurOuter1"></feGaussianBlur>
            <feColorMatrix values="0 0 0 0 0.321568627   0 0 0 0 0.231372549   0 0 0 0 0.521568627  0 0 0 0.2674649 0" type="matrix" in="shadowBlurOuter1"></feColorMatrix>
        </filter>
    </defs>
    <g id="physicians-workflow" stroke="none" stroke-width="1" fill="none" fill-rule="evenodd">
        <g id="Group-45" transform="translate(50.000000, 20.000000)">
            <g id="Group-26" transform="translate(162.000000, 125.000000)">
                <g id="Rectangle-15">
                    <use fill="black" fill-opacity="1" filter="url(#filter-3)" xlink:href="#path-2"></use>
                    <use fill="url(#linearGradient-1)" fill-rule="evenodd" xlink:href="#path-2"></use>
                </g>
                <g id="Group-16" transform="translate(16.675000, 17.721519)">
                    <g id="Group">
                        <path d="M23.2450155,5.52375067 C23.2450155,6.77233682 23.6671201,7.80124886 24.5113418,8.61051766 C25.3555636,9.41978647 26.5674121,9.8244148 28.1469238,9.8244148 L35.1975019,9.8244148 C36.7770136,9.8244148 37.9752459,9.41978647 38.7922347,8.61051766 C39.6092235,7.80124886 40.0177117,6.77233682 40.0177117,5.52375067 C40.0177117,4.27516452 39.6092235,3.23469167 38.7922347,2.4023009 C37.9752459,1.56991013 36.7770136,1.15372099 35.1975019,1.15372099 L28.1469238,1.15372099 C26.5674121,1.15372099 25.3555636,1.56991013 24.5113418,2.4023009 C23.6671201,3.23469167 23.2450155,4.27516452 23.2450155,5.52375067 Z" id="Path-Copy-8" fill="#D587D0"></path>
                        <path d="M15.8193327,17.6869965 C15.8193327,18.9935887 15.4241397,20.031161 14.6337417,20.7997445 C13.8433437,21.5683281 12.8072971,21.9526142 11.5255706,21.9526142 C10.2438442,21.9526142 9.21847842,21.5683281 8.44944256,20.7997445 C7.68040669,20.031161 7.29589453,18.9935887 7.29589453,17.6869965 C7.29589453,16.4188336 7.68040669,15.3908685 8.44944256,14.6030703 C9.21847842,13.8152721 10.2438442,13.4213789 11.5255706,13.4213789 C12.8072971,13.4213789 13.8433437,13.805665 14.6337417,14.5742486 C15.4241397,15.3428321 15.8193327,16.3804044 15.8193327,17.6869965 Z" id="Path-Copy-4" fill="#DBA1D7"></path>
                        <path d="M59.506311,18.941126 C59.506311,20.1772504 59.0842065,21.1958932 58.2399847,21.9970849 C57.3957629,22.7982766 56.1839144,23.1988665 54.6044027,23.1988665 L24.3923079,23.1988665 C22.8127962,23.1988665 21.614564,22.7982766 20.7975752,21.9970849 C19.9805864,21.1958932 19.5720981,20.1772504 19.5720981,18.941126 C19.5720981,17.7050017 19.9805864,16.6749135 20.7975752,15.8508305 C21.614564,15.0267476 22.8127962,14.6147124 24.3923079,14.6147124 L54.6044027,14.6147124 C56.1839144,14.6147124 57.3957629,15.0267476 58.2399847,15.8508305 C59.0842065,16.6749135 59.506311,17.7050017 59.506311,18.941126 Z" id="Path-Copy-3" fill="#A26AB5"></path>
                        <path d="M25.5555645,31.1388531 C25.5555645,32.3677222 25.1304757,33.3803861 24.2802855,34.1768752 C23.4300953,34.9733644 22.2096792,35.371603 20.6190007,35.371603 L4.84713233,35.371603 C3.25645382,35.371603 2.0497503,34.9733644 1.22698556,34.1768752 C0.404220812,33.3803861 -0.00715538941,32.3677222 -0.00715538941,31.1388531 C-0.00715538941,29.9099841 0.404220812,28.885942 1.22698556,28.066696 C2.0497503,27.24745 3.25645382,26.8378331 4.84713233,26.8378331 L20.6190007,26.8378331 C22.2096792,26.8378331 23.4300953,27.24745 24.2802855,28.066696 C25.1304757,28.885942 25.5555645,29.9099841 25.5555645,31.1388531 Z" id="Path-Copy" fill="#E5D4F9"></path>
                        <path d="M29.3279701,31.1394008 C29.3279701,32.387987 29.7500746,33.416899 30.5942964,34.2261678 C31.4385181,35.0354366 32.6503667,35.440065 34.2298784,35.440065 L41.2804565,35.440065 C42.8599681,35.440065 44.0582004,35.0354366 44.8751892,34.2261678 C45.692178,33.416899 46.1006663,32.387987 46.1006663,31.1394008 C46.1006663,29.8908147 45.692178,28.8503418 44.8751892,28.0179511 C44.0582004,27.1855603 42.8599681,26.7693712 41.2804565,26.7693712 L34.2298784,26.7693712 C32.6503667,26.7693712 31.4385181,27.1855603 30.5942964,28.0179511 C29.7500746,28.8503418 29.3279701,29.8908147 29.3279701,31.1394008 Z" id="Path-Copy-15" fill="#9676CC"></path>
                        <path d="M50.0100155,31.1394008 C50.0100155,32.387987 50.4321201,33.416899 51.2763418,34.2261678 C52.1205636,35.0354366 53.3324121,35.440065 54.9119238,35.440065 L61.9625019,35.440065 C63.5420136,35.440065 64.7402459,35.0354366 65.5572347,34.2261678 C66.3742235,33.416899 66.7827117,32.387987 66.7827117,31.1394008 C66.7827117,29.8908147 66.3742235,28.8503418 65.5572347,28.0179511 C64.7402459,27.1855603 63.5420136,26.7693712 61.9625019,26.7693712 L54.9119238,26.7693712 C53.3324121,26.7693712 52.1205636,27.1855603 51.2763418,28.0179511 C50.4321201,28.8503418 50.0100155,29.8908147 50.0100155,31.1394008 Z" id="Path-Copy-14" fill="#7F6AAE"></path>
                        <path d="M47.3404019,43.3369833 C47.3404019,44.5731077 46.9182974,45.5917505 46.0740756,46.3929422 C45.2298538,47.1941339 44.0180053,47.5947238 42.4384936,47.5947238 L12.2263988,47.5947238 C10.6468871,47.5947238 9.44865487,47.1941339 8.63166607,46.3929422 C7.81467727,45.5917505 7.40618899,44.5731077 7.40618899,43.3369833 C7.40618899,42.100859 7.81467727,41.0707708 8.63166607,40.2466879 C9.44865487,39.4226049 10.6468871,39.0105697 12.2263988,39.0105697 L42.4384936,39.0105697 C44.0180053,39.0105697 45.2298538,39.4226049 46.0740756,40.2466879 C46.9182974,41.0707708 47.3404019,42.100859 47.3404019,43.3369833 Z" id="Path-Copy-6" fill="#D4C0F2"></path>
                        <path d="M59.6166055,44.5224396 C59.6166055,45.8290317 59.2214124,46.866604 58.4310144,47.6351876 C57.6406165,48.4037712 56.6045698,48.7880572 55.3228434,48.7880572 C54.0411169,48.7880572 53.0157511,48.4037712 52.2467153,47.6351876 C51.4776794,46.866604 51.0931673,45.8290317 51.0931673,44.5224396 C51.0931673,43.2542767 51.4776794,42.2263115 52.2467153,41.4385133 C53.0157511,40.6507151 54.0411169,40.256822 55.3228434,40.256822 C56.6045698,40.256822 57.6406165,40.641108 58.4310144,41.4096916 C59.2214124,42.1782752 59.6166055,43.2158475 59.6166055,44.5224396 Z" id="Path-Copy-7" fill="#D587D0"></path>
                        <path d="M35.4109246,56.755051 C35.4109246,58.0036372 35.8330292,59.0325492 36.6772509,59.841818 C37.5214727,60.6510868 38.7333212,61.0557151 40.3128329,61.0557151 L47.363411,61.0557151 C48.9429227,61.0557151 50.141155,60.6510868 50.9581438,59.841818 C51.7751326,59.0325492 52.1836208,58.0036372 52.1836208,56.755051 C52.1836208,55.5064649 51.7751326,54.465992 50.9581438,53.6336012 C50.141155,52.8012105 48.9429227,52.3850213 47.363411,52.3850213 L40.3128329,52.3850213 C38.7333212,52.3850213 37.5214727,52.8012105 36.6772509,53.6336012 C35.8330292,54.465992 35.4109246,55.5064649 35.4109246,56.755051 Z" id="Combined-Shape" fill="#8064BC"></path>
                    </g>
                </g>
            </g>
            <g id="Group-67" transform="translate(143.000000, 310.000000)">
                <g id="Group-66">
                    <path d="M-0.138408549,48.8873171 C-0.138408549,62.8308023 4.66877696,74.3210945 14.2832922,83.3585386 C23.8978074,92.3959827 37.6990819,96.9146369 55.6875298,96.9146369 L102.242903,96.9146369 C120.23135,96.9146369 133.877554,92.3959827 143.181924,83.3585386 C152.486294,74.3210945 157.138409,62.8308023 157.138409,48.8873171 C157.138409,34.9438319 152.486294,23.3244353 143.181924,14.0287785 C133.877554,4.73312172 120.23135,0.0853630529 102.242903,0.0853630529 L55.6875298,0.0853630529 C37.6990819,0.0853630529 23.8978074,4.73312172 14.2832922,14.0287785 C4.66877696,23.3244353 -0.138408549,34.9438319 -0.138408549,48.8873171 Z" id="Path-Copy-11" fill="#8181D3" opacity="0.630944293"></path>
                    <path d="M121.113471,77.4525638 L39.0037295,77.4525638 C37.3448199,77.4525638 36,76.1086598 36,74.4508802 L36,28.3376397 C36,26.6798601 37.3448199,25.3359562 39.0037295,25.3359562 L121.113471,25.3359562 C122.77238,25.3359562 124.1172,26.6798601 124.1172,28.3376397 L124.1172,74.4510522 C124.1172,76.1086598 122.77238,77.4525638 121.113471,77.4525638 Z" id="Shape" fill="#6868B5" fill-rule="nonzero"></path>
                    <path d="M80.8580228,25.3361282 C80.1883665,26.6413351 79.8081889,28.1193886 79.8081889,29.6868752 C79.8081889,28.1192166 79.4280114,26.6413351 78.7583551,25.3361282 L39.0037295,25.3361282 C38.9889285,25.3361282 38.9746439,25.338192 38.959843,25.338364 L38.959843,71.6191196 C38.959843,72.7079672 39.8430802,73.5906029 40.9326701,73.5906029 L79.8081889,73.5906029 L118.683708,73.5906029 C119.773298,73.5906029 120.656535,72.7079672 120.656535,71.6191196 L120.656535,25.3361282 L80.8580228,25.3361282 Z" id="Shape" fill="#B2C3F7" fill-rule="nonzero"></path>
                    <path d="M79.8081889,71.1986121 L43.4216368,71.1986121 C42.4019211,71.1986121 41.575134,70.3725601 41.575134,69.353367 L41.575134,23.0094924 C41.575134,21.9904713 42.401749,21.1642473 43.4216368,21.1642473 L70.8603347,21.1642473 C75.8021263,21.1642473 79.8081889,25.1675812 79.8081889,30.1060067 L79.8081889,71.1986121 Z" id="Shape" fill="#F4F6FF" fill-rule="nonzero"></path>
                    <path d="M79.8081889,71.1986121 L116.194741,71.1986121 C117.214457,71.1986121 118.041244,70.3725601 118.041244,69.353367 L118.041244,23.0094924 C118.041244,21.9904713 117.214629,21.1642473 116.194741,21.1642473 L88.7560431,21.1642473 C83.8142516,21.1642473 79.8081889,25.1675812 79.8081889,30.1060067 L79.8081889,71.1986121 Z" id="Shape" fill="#FFFFFF" fill-rule="nonzero"></path>
                    <path d="M104.503723,64.8808534 C93.5811483,64.8808534 84.7267465,56.0324827 84.7267465,45.1173481 L84.7267465,23.7882481 C84.7267465,23.1883585 84.7869828,22.6025719 84.8997109,22.0357038 C81.8884088,23.4752323 79.8081889,26.5477743 79.8081889,30.1061787 L79.8081889,71.1989561 L116.194741,71.1989561 C117.214457,71.1989561 118.041244,70.3729041 118.041244,69.353711 L118.041244,64.8810254 L104.503723,64.8810254 L104.503723,64.8808534 Z" id="Shape" fill="#F4F6FF" fill-rule="nonzero"></path>
                    <path d="M82.4747669,79.7031814 L77.5004476,79.7031814 C74.9237079,79.7031814 72.8348828,77.6157791 72.8348828,75.0407946 L72.8348828,71.1986121 L87.1401596,71.1986121 L87.1401596,75.0407946 C87.1403317,77.6159511 85.0515065,79.7031814 82.4747669,79.7031814 Z" id="Shape" fill="#8181D3" fill-rule="nonzero"></path>
                    <path d="M73.4071283,29.8048581 L47.8056396,29.8048581 C47.0537176,29.8048581 46.4441256,29.1956812 46.4441256,28.4442714 C46.4441256,27.6926897 47.0537176,27.0836848 47.8056396,27.0836848 L73.4071283,27.0836848 C74.1590503,27.0836848 74.7686423,27.6928616 74.7686423,28.4442714 C74.7688144,29.1958532 74.1592224,29.8048581 73.4071283,29.8048581 Z" id="Shape" fill="#8181D3" fill-rule="nonzero"></path>
                    <path d="M73.4071283,57.0460002 L47.8056396,57.0460002 C47.0537176,57.0460002 46.4441256,56.4368234 46.4441256,55.6854136 C46.4441256,54.9340038 47.0537176,54.324827 47.8056396,54.324827 L73.4071283,54.324827 C74.1590503,54.324827 74.7686423,54.9340038 74.7686423,55.6854136 C74.7686423,56.4368234 74.1592224,57.0460002 73.4071283,57.0460002 Z" id="Shape" fill="#8181D3" fill-rule="nonzero"></path>
                    <path d="M73.4071283,63.6379057 L47.8056396,63.6379057 C47.0537176,63.6379057 46.4441256,63.0287289 46.4441256,62.2773191 C46.4441256,61.5257373 47.0537176,60.9167325 47.8056396,60.9167325 L73.4071283,60.9167325 C74.1590503,60.9167325 74.7686423,61.5259093 74.7686423,62.2773191 C74.7688144,63.0289009 74.1592224,63.6379057 73.4071283,63.6379057 Z" id="Shape" fill="#8181D3" fill-rule="nonzero"></path>
                    <path d="M60.0375805,50.4540948 L47.8056396,50.4540948 C47.0537176,50.4540948 46.4441256,49.844918 46.4441256,49.0935082 C46.4441256,48.3419264 47.0537176,47.7329215 47.8056396,47.7329215 L60.0375805,47.7329215 C60.7895025,47.7329215 61.3990945,48.3420984 61.3990945,49.0935082 C61.3990945,49.84509 60.7895025,50.4540948 60.0375805,50.4540948 Z" id="Shape" fill="#8181D3" fill-rule="nonzero"></path>
                    <path d="M55.4317358,36.687937 L47.8056396,36.687937 C47.0537176,36.687937 46.4441256,36.0787602 46.4441256,35.3273503 C46.4441256,34.5759405 47.0537176,33.9667637 47.8056396,33.9667637 L55.4317358,33.9667637 C56.1836578,33.9667637 56.7932498,34.5759405 56.7932498,35.3273503 C56.7932498,36.0787602 56.1836578,36.687937 55.4317358,36.687937 Z" id="Shape" fill="#8181D3" fill-rule="nonzero"></path>
                    <path d="M52.1870608,43.5710159 L47.8056396,43.5710159 C47.0537176,43.5710159 46.4441256,42.9618391 46.4441256,42.2104293 C46.4441256,41.4590195 47.0537176,40.8498426 47.8056396,40.8498426 L52.1870608,40.8498426 C52.9389828,40.8498426 53.5485748,41.4590195 53.5485748,42.2104293 C53.5485748,42.9618391 52.9391549,43.5710159 52.1870608,43.5710159 Z" id="Shape" fill="#8181D3" fill-rule="nonzero"></path>
                    <path d="M63.057832,43.5710159 L57.0175012,43.5710159 C56.2655792,43.5710159 55.6559872,42.9618391 55.6559872,42.2104293 C55.6559872,41.4590195 56.2655792,40.8498426 57.0175012,40.8498426 L63.057832,40.8498426 C63.809754,40.8498426 64.419346,41.4590195 64.419346,42.2104293 C64.419346,42.9618391 63.809754,43.5710159 63.057832,43.5710159 Z" id="Shape" fill="#8181D3" fill-rule="nonzero"></path>
                    <path d="M73.5775112,43.5710159 L68.3145737,43.5710159 C67.5626518,43.5710159 66.9530597,42.9618391 66.9530597,42.2104293 C66.9530597,41.4590195 67.5626518,40.8498426 68.3145737,40.8498426 L73.5775112,40.8498426 C74.3294332,40.8498426 74.9390252,41.4590195 74.9390252,42.2104293 C74.9390252,42.9618391 74.3296053,43.5710159 73.5775112,43.5710159 Z" id="Shape" fill="#8181D3" fill-rule="nonzero"></path>
                    <path d="M73.5775112,50.4540948 L65.7388667,50.4540948 C64.9869447,50.4540948 64.3773527,49.844918 64.3773527,49.0935082 C64.3773527,48.3419264 64.9869447,47.7329215 65.7388667,47.7329215 L73.5775112,47.7329215 C74.3294332,47.7329215 74.9390252,48.3420984 74.9390252,49.0935082 C74.9391973,49.84509 74.3296053,50.4540948 73.5775112,50.4540948 Z" id="Shape" fill="#8181D3" fill-rule="nonzero"></path>
                    <path d="M73.4071283,36.687937 L61.3013395,36.687937 C60.5494176,36.687937 59.9398255,36.0787602 59.9398255,35.3273503 C59.9398255,34.5759405 60.5494176,33.9667637 61.3013395,33.9667637 L73.4071283,33.9667637 C74.1590503,33.9667637 74.7686423,34.5759405 74.7686423,35.3273503 C74.7686423,36.0787602 74.1592224,36.687937 73.4071283,36.687937 Z" id="Shape" fill="#8181D3" fill-rule="nonzero"></path>
                    <path d="M110.346749,35.0311156 L89.4870674,35.0311156 C88.5929141,35.0311156 87.8673916,34.31868 87.8673916,33.4409879 C87.8673916,32.5632958 88.5930659,31.8507111 89.4870674,31.8507111 L110.346901,31.8507111 C111.241055,31.8507111 111.965515,32.5631468 111.965515,33.4409879 C111.965515,34.318829 111.240903,35.0311156 110.346749,35.0311156 Z" id="Shape" fill="#8181D3" fill-rule="nonzero"></path>
                    <path d="M107.333858,41.3873051 L92.4536651,41.3873051 C91.5596636,41.3873051 90.8350518,40.6771047 90.8350518,39.7994126 C90.8350518,38.9215715 91.5595118,38.2092849 92.4536651,38.2092849 L107.333858,38.2092849 C108.22786,38.2092849 108.95232,38.9217205 108.95232,39.7994126 C108.95232,40.6771047 108.22786,41.3873051 107.333858,41.3873051 Z" id="Shape" fill="#8181D3" fill-rule="nonzero"></path>
                    <path d="M107.332644,55.1041545 L92.4536651,55.1041545 C91.5596636,55.1041545 90.8350518,54.3917189 90.8350518,53.5138778 C90.8350518,52.6361857 91.5595118,51.9237501 92.4536651,51.9237501 L107.332644,51.9237501 C108.226645,51.9237501 108.951105,52.6361857 108.951105,53.5138778 C108.951105,54.3917189 108.226645,55.1041545 107.332644,55.1041545 Z" id="Shape" fill="#8181D3" fill-rule="nonzero"></path>
                    <path d="M110.346749,61.4590029 L89.4407736,61.4590029 C88.5466203,61.4590029 87.8221603,60.7511867 87.8221603,59.8714084 C87.8221603,58.9959515 88.5466203,58.2835159 89.4407736,58.2835159 L110.346749,58.2835159 C111.240903,58.2835159 111.965363,58.9959515 111.965363,59.8714084 C111.965363,60.7511867 111.240903,61.4590029 110.346749,61.4590029 Z" id="Shape" fill="#8181D3" fill-rule="nonzero"></path>
                    <path d="M88.6236797,64 C88.5251714,64 88.426511,63.9907527 88.3257224,63.9719597 C87.4456841,63.813562 86.8637552,62.9838384 87.0276317,62.1168272 C87.1322208,61.5667606 89.6926777,48.5876937 99.4012224,45.01062 C101.675427,44.1740354 104.93426,42.0393951 107.539866,36.628219 C109.147924,33.2887418 109.71906,30.331537 109.724988,30.3012595 C109.887649,29.4366347 110.734547,28.8680734 111.614585,29.0264711 C112.495688,29.1872552 113.076552,30.0192161 112.91374,30.8814545 C112.809151,31.4337584 110.248694,44.4140184 100.540149,47.9888549 C98.2659442,48.8278259 95.0071118,50.9624662 92.4015052,56.3736423 C90.7923835,59.7120755 90.2223121,62.6716666 90.2163834,62.6995578 C90.0715092,63.4639535 89.3897038,64 88.6236797,64 Z" id="Shape" fill="#B2C3F7" fill-rule="nonzero"></path>
                    <path d="M111.31773,64 C110.550489,64 109.87005,63.4639536 109.725024,62.6995579 C109.702525,62.5830714 107.386815,50.93219 99.4012419,47.9888565 C89.6926819,44.4141695 87.132069,31.4339107 87.0276318,30.8814577 C86.863755,30.0192194 87.4456848,29.1872586 88.3257245,29.0264745 C89.2057642,28.8680768 90.0512954,29.4366381 90.2163884,30.2988764 C90.2388872,30.4177492 92.5547491,42.0696747 100.54017,45.0106218 C110.24873,48.5876952 112.809343,61.5669099 112.91378,62.1168274 C113.076441,62.9836894 112.495727,63.8134129 111.614624,63.9719597 C111.514747,63.9907527 111.415022,64 111.31773,64 Z" id="Shape" fill="#6868B5" fill-rule="nonzero"></path>
                </g>
                <g id="002-settings-copy" transform="translate(36.000000, 21.000000)"></g>
                <g id="Group-27" transform="translate(87.000000, 29.000000)"></g>
            </g>
            <g id="Group-62" transform="translate(316.000000, 0.000000)">
                <rect id="Rectangle-15" fill="#5F5FAB" x="7" y="7" width="146" height="146" rx="12"></rect>
                <rect id="Rectangle-15" fill="#8181D3" x="0" y="0" width="146" height="146" rx="12"></rect>
                <g id="Rectangle-15">
                    <use fill="black" fill-opacity="1" filter="url(#filter-6)" xlink:href="#path-5"></use>
                    <use fill="url(#linearGradient-4)" fill-rule="evenodd" xlink:href="#path-5"></use>
                </g>
                <g id="Group-41" transform="translate(9.000000, 23.000000)" fill-rule="nonzero">
                    <path d="M48.3246528,99.4357639 C30.2556424,99.4357639 15.5555556,84.7356771 15.5555556,66.6666667 L22.0659722,66.6666667 C22.0659722,81.1458333 33.8454861,92.9253472 48.3246528,92.9253472 C62.8038194,92.9253472 74.5833333,81.1458333 74.5833333,66.6666667 L81.09375,66.6666667 C81.09375,84.7356771 66.3936632,99.4357639 48.3246528,99.4357639 Z" id="Shape" fill="#7F6AAE"></path>
                    <path d="M17.3611111,68.0555556 C7.78819444,68.0555556 0,60.2673611 0,50.6944444 C0,41.1215278 7.78819444,33.3333333 17.3611111,33.3333333 C26.9340278,33.3333333 34.7222222,41.1215278 34.7222222,50.6944444 C34.7222222,60.2673611 26.9340278,68.0555556 17.3611111,68.0555556 Z" id="Shape" fill="#E5D4F9"></path>
                    <path d="M17.7777778,33.3333333 L17.7777778,68.0555556 C27.3506944,68.0555556 35.1388889,60.2673611 35.1388889,50.6944444 C35.1388889,41.1215278 27.3506944,33.3333333 17.7777778,33.3333333 Z" id="Shape" fill="#9676CC"></path>
                    <circle id="Oval" fill="#7F6AAE" cx="17.6736111" cy="51.0069444" r="4.34027778"></circle>
                    <path d="M97.3867188,1.08506944 C96.6221788,0.411675347 95.6215278,0 94.5225694,0 C92.125434,0 90.1822917,1.94314236 90.1822917,4.34027778 C90.1822917,6.73741319 92.125434,8.68055556 94.5225694,8.68055556 C95.6215278,8.68055556 96.6221788,8.26888021 97.3867188,7.59548611 L105.15625,7.59548611 L105.15625,32.5520833 C105.15625,48.1080729 92.500651,60.7638889 76.9444444,60.7638889 C61.3882378,60.7638889 48.7326389,48.1080729 48.7326389,32.5520833 L48.7326389,7.59548611 L56.719184,7.59548611 C57.483724,8.26888021 58.484375,8.68055556 59.5833333,8.68055556 C61.9804688,8.68055556 63.9236111,6.73741319 63.9236111,4.34027778 C63.9236111,1.94314236 61.9804688,0 59.5833333,0 C58.484375,0 57.483724,0.411675347 56.719184,1.08506944 L42.2222222,1.08506944 L42.2222222,32.5520833 C42.2222222,51.6979167 57.7983941,67.2743056 76.9444444,67.2743056 C96.0904948,67.2743056 111.666667,51.6979167 111.666667,32.5520833 L111.666667,1.08506944 L97.3867188,1.08506944 Z" id="Shape" fill="#E5D4F9"></path>
                    <path d="M98.2200521,1.08506944 C97.4555122,0.411675347 96.4548611,0 95.3559028,0 C92.9587674,0 91.015625,1.94314236 91.015625,4.34027778 C91.015625,6.73741319 92.9587674,8.68055556 95.3559028,8.68055556 C96.4548611,8.68055556 97.4555122,8.26888021 98.2200521,7.59548611 L105.989583,7.59548611 L105.989583,32.5520833 C105.989583,48.1080729 93.3339844,60.7638889 77.7777778,60.7638889 L77.7777778,67.2743056 C96.9238281,67.2743056 112.5,51.6979167 112.5,32.5520833 L112.5,1.08506944 L98.2200521,1.08506944 Z" id="Shape" fill="#7F6AAE"></path>
                    <path d="M128.621731,40.6630799 L121.887791,27.118103 C121.460166,26.2576281 120.585817,25.7142794 119.62922,25.7142794 C118.672623,25.7142794 117.798274,26.2577372 117.370649,27.118103 L109.817157,42.3113504 L101.111213,19.7961546 L100.097541,17.17468 C99.730245,16.2250474 98.8343034,15.5878486 97.8214999,15.5567471 C96.8159663,15.5256456 95.8757538,16.1056613 95.4511663,17.0309583 L86.027232,37.5661342 L75.8586148,37.5661342 C74.4639754,37.5662433 73.3333333,38.7033579 73.3333333,40.1058719 C73.3333333,41.5084951 74.4639754,42.6455005 75.8586148,42.6455005 L87.6430085,42.6455005 C88.6280343,42.6455005 89.5231079,42.0695225 89.9357597,41.1700889 L97.5452413,24.5885141 L101.110996,33.8104914 L107.174579,49.4919778 C107.536558,50.4282967 108.413294,51.0618943 109.411124,51.1083829 C109.450403,51.1102381 109.489574,51.1111111 109.528637,51.1111111 C110.481327,51.1111111 111.357738,50.5702724 111.786666,49.7071784 L119.62922,33.9327149 L124.104588,42.9345808 C124.728177,44.1892263 126.244995,44.6977632 127.492391,44.0703858 C128.739895,43.4432268 129.245429,41.9177254 128.621731,40.6630799 Z" id="Shape" fill="#2CD4D9"></path>
                    <path d="M48.3246528,99.4357639 C30.2556424,99.4357639 15.5555556,84.7356771 15.5555556,66.6666667 L22.0659722,66.6666667 C22.0659722,81.1458333 33.8454861,92.9253472 48.3246528,92.9253472 C62.8038194,92.9253472 74.5833333,81.1458333 74.5833333,66.6666667 L81.09375,66.6666667 C81.09375,84.7356771 66.3936632,99.4357639 48.3246528,99.4357639 Z" id="Shape" fill="#8181D3"></path>
                    <path d="M17.3611111,68.0555556 C7.78819444,68.0555556 0,60.2673611 0,50.6944444 C0,41.1215278 7.78819444,33.3333333 17.3611111,33.3333333 C26.9340278,33.3333333 34.7222222,41.1215278 34.7222222,50.6944444 C34.7222222,60.2673611 26.9340278,68.0555556 17.3611111,68.0555556 Z" id="Shape" fill="#D2E2FC"></path>
                    <path d="M17.7777778,33.3333333 L17.7777778,68.0555556 C27.3506944,68.0555556 35.1388889,60.2673611 35.1388889,50.6944444 C35.1388889,41.1215278 27.3506944,33.3333333 17.7777778,33.3333333 Z" id="Shape" fill="#6868B5"></path>
                    <circle id="Oval" fill="#8181D3" cx="17.6736111" cy="51.0069444" r="4.34027778"></circle>
                    <path d="M97.3867188,1.08506944 C96.6221788,0.411675347 95.6215278,0 94.5225694,0 C92.125434,0 90.1822917,1.94314236 90.1822917,4.34027778 C90.1822917,6.73741319 92.125434,8.68055556 94.5225694,8.68055556 C95.6215278,8.68055556 96.6221788,8.26888021 97.3867188,7.59548611 L105.15625,7.59548611 L105.15625,32.5520833 C105.15625,48.1080729 92.500651,60.7638889 76.9444444,60.7638889 C61.3882378,60.7638889 48.7326389,48.1080729 48.7326389,32.5520833 L48.7326389,7.59548611 L56.719184,7.59548611 C57.483724,8.26888021 58.484375,8.68055556 59.5833333,8.68055556 C61.9804688,8.68055556 63.9236111,6.73741319 63.9236111,4.34027778 C63.9236111,1.94314236 61.9804688,0 59.5833333,0 C58.484375,0 57.483724,0.411675347 56.719184,1.08506944 L42.2222222,1.08506944 L42.2222222,32.5520833 C42.2222222,51.6979167 57.7983941,67.2743056 76.9444444,67.2743056 C96.0904948,67.2743056 111.666667,51.6979167 111.666667,32.5520833 L111.666667,1.08506944 L97.3867188,1.08506944 Z" id="Shape" fill="#D2E2FC"></path>
                    <path d="M98.2200521,1.08506944 C97.4555122,0.411675347 96.4548611,0 95.3559028,0 C92.9587674,0 91.015625,1.94314236 91.015625,4.34027778 C91.015625,6.73741319 92.9587674,8.68055556 95.3559028,8.68055556 C96.4548611,8.68055556 97.4555122,8.26888021 98.2200521,7.59548611 L105.989583,7.59548611 L105.989583,32.5520833 C105.989583,48.1080729 93.3339844,60.7638889 77.7777778,60.7638889 L77.7777778,67.2743056 C96.9238281,67.2743056 112.5,51.6979167 112.5,32.5520833 L112.5,1.08506944 L98.2200521,1.08506944 Z" id="Shape" fill="#6868B5"></path>
                    <path d="M128.621731,40.6630799 L121.887791,27.118103 C121.460166,26.2576281 120.585817,25.7142794 119.62922,25.7142794 C118.672623,25.7142794 117.798274,26.2577372 117.370649,27.118103 L109.817157,42.3113504 L101.111213,19.7961546 L100.097541,17.17468 C99.730245,16.2250474 98.8343034,15.5878486 97.8214999,15.5567471 C96.8159663,15.5256456 95.8757538,16.1056613 95.4511663,17.0309583 L86.027232,37.5661342 L75.8586148,37.5661342 C74.4639754,37.5662433 73.3333333,38.7033579 73.3333333,40.1058719 C73.3333333,41.5084951 74.4639754,42.6455005 75.8586148,42.6455005 L87.6430085,42.6455005 C88.6280343,42.6455005 89.5231079,42.0695225 89.9357597,41.1700889 L97.5452413,24.5885141 L101.110996,33.8104914 L107.174579,49.4919778 C107.536558,50.4282967 108.413294,51.0618943 109.411124,51.1083829 C109.450403,51.1102381 109.489574,51.1111111 109.528637,51.1111111 C110.481327,51.1111111 111.357738,50.5702724 111.786666,49.7071784 L119.62922,33.9327149 L124.104588,42.9345808 C124.728177,44.1892263 126.244995,44.6977632 127.492391,44.0703858 C128.739895,43.4432268 129.245429,41.9177254 128.621731,40.6630799 Z" id="Shape" fill="#2CD4D9"></path>
                </g>
            </g>
            <g id="Group-70" transform="translate(325.000000, 218.000000)">
                <g id="Group-65">
                    <path d="M97.0350712,48.5 C97.0350712,63.3451953 92.5343703,75.13385 83.5328334,83.8663179 C74.5312965,92.5987857 62.7321615,96.9649541 48.1350747,96.9649541 C33.5379878,96.9649541 21.8604934,92.5987857 13.1022413,83.8663179 C4.34398915,75.13385 -0.0350712272,63.3451953 -0.0350712272,48.5 C-0.0350712272,34.0914281 4.34398915,22.4119276 13.1022413,13.461148 C21.8604934,4.51036852 33.5379878,0.0350458849 48.1350747,0.0350458849 C62.7321615,0.0350458849 74.5312965,4.40121431 83.5328334,13.1336821 C92.5343703,21.86615 97.0350712,33.6548047 97.0350712,48.5 Z" id="Path-Copy-19" fill="#8181D3" opacity="0.630944293"></path>
                    <rect id="Rectangle-path" fill="#FFFFFF" fill-rule="nonzero" x="20" y="50.5172414" width="55.7909398" height="16.2300894" rx="2"></rect>
                    <path d="M53.5591556,61.9599008 L35.8075366,61.9599008 C35.2473147,61.9599008 34.7931034,61.5056896 34.7931034,60.9454677 C34.7931034,60.3852457 35.2473147,59.9310345 35.8075366,59.9310345 L53.5591556,59.9310345 C54.1193775,59.9310345 54.5735888,60.3852457 54.5735888,60.9454677 C54.5735888,61.5056896 54.1193775,61.9599008 53.5591556,61.9599008 Z" id="Shape" fill="#8181D3" fill-rule="nonzero"></path>
                    <path d="M71.3108948,56.5805905 L35.8075366,56.5805905 C35.2473147,56.5805905 34.7931034,56.1263792 34.7931034,55.5661573 C34.7931034,55.0059354 35.2473147,54.5517241 35.8075366,54.5517241 L71.3108948,54.5517241 C71.8711167,54.5517241 72.3253279,55.0059354 72.3253279,55.5661573 C72.3252077,56.1263792 71.8711167,56.5805905 71.3108948,56.5805905 Z" id="Shape" fill="#8181D3" fill-rule="nonzero"></path>
                    <path d="M75.2455092,31 L75.2455092,43.2300894 C75.2455092,44.3346589 74.3500787,45.2300894 73.2455092,45.2300894 L59.0154198,45.2300894 L56.3103448,37.1149846 L59.0154198,29 L73.2455092,29 C74.3500787,29 75.2455092,29.8954305 75.2455092,31 Z" id="Shape" fill="#6868B5" fill-rule="nonzero"></path>
                    <polygon id="Shape" fill="#8181D3" fill-rule="nonzero" points="59.0384294 29 59.0384294 45.2300894 54.9809371 45.2300894 52.2758621 37.1149846 54.9809371 29"></polygon>
                    <path d="M72.6214071,39.8421902 L69.8483026,37.0689655 L68.4137931,38.5037154 L71.1868976,41.2768199 C71.3848563,41.4747786 71.6445945,41.5739382 71.9040923,41.5739382 C72.16359,41.5739382 72.4233282,41.4748988 72.6212869,41.2768199 C73.0175649,40.8806621 73.0175649,40.2382278 72.6214071,39.8421902 Z" id="Shape" fill="#FFFFFF" fill-rule="nonzero"></path>
                    <path d="M67.1762007,39.9769973 C66.0693387,39.9769973 65.0288235,39.5459834 64.2461234,38.7632833 C62.6306025,37.1477624 62.6306025,34.5190103 64.2461234,32.903249 C65.0288235,32.1205489 66.0693387,31.6896552 67.1762007,31.6896552 C68.2829424,31.6896552 69.3235778,32.1206691 70.1061577,32.903249 C70.8888578,33.6859491 71.3198717,34.7264642 71.3198717,35.8333262 C71.3198717,36.9401882 70.8888578,37.9807034 70.1061577,38.7632833 C69.3235778,39.5458632 68.2829424,39.9769973 67.1762007,39.9769973 Z M67.1762007,33.7185215 C66.6112912,33.7185215 66.0801561,33.9384756 65.6807531,34.3379988 C64.8562256,35.1626465 64.8561055,36.5043665 65.6807531,37.328894 C66.0802763,37.7284172 66.6112912,37.9483713 67.1762007,37.9483713 C67.7411101,37.9483713 68.272125,37.7284172 68.6716482,37.328894 C69.0711714,36.9293708 69.2911256,36.3983559 69.2911256,35.8334464 C69.2911256,35.2685369 69.0711714,34.7374018 68.6716482,34.3379988 C68.272125,33.9384756 67.7409899,33.7185215 67.1762007,33.7185215 Z" id="Shape" fill="#FFFFFF" fill-rule="nonzero"></path>
                    <polygon id="Shape" fill="#8181D3" fill-rule="nonzero" points="32.1341677 54.5517241 32.1341677 62.6667087 29.4290927 62.6667087 26.7241379 58.6092164 29.4290927 54.5517241"></polygon>
                    <rect id="Rectangle-path" fill="#6868B5" fill-rule="nonzero" x="24.0344828" y="54.5517241" width="5.4100298" height="8.11498461"></rect>
                    <path d="M22,29 L55.5033581,29 L55.5033581,45.2300894 L22,45.2300894 C20.8954305,45.2300894 20,44.3346589 20,43.2300894 L20,31 C20,29.8954305 20.8954305,29 22,29 Z" id="Rectangle-path" fill="#FFFFFF" fill-rule="nonzero"></path>
                </g>
            </g>
            <g id="Group-69" transform="translate(2.000000, 24.000000)">
                <g id="Group-64">
                    <path d="M97.0350712,48.5 C97.0350712,63.3451953 92.5343703,75.13385 83.5328334,83.8663179 C74.5312965,92.5987857 62.7321615,96.9649541 48.1350747,96.9649541 C33.5379878,96.9649541 21.8604934,92.5987857 13.1022413,83.8663179 C4.34398915,75.13385 -0.0350712272,63.3451953 -0.0350712272,48.5 C-0.0350712272,34.0914281 4.34398915,22.4119276 13.1022413,13.461148 C21.8604934,4.51036852 33.5379878,0.0350458849 48.1350747,0.0350458849 C62.7321615,0.0350458849 74.5312965,4.40121431 83.5328334,13.1336821 C92.5343703,21.86615 97.0350712,33.6548047 97.0350712,48.5 Z" id="Path-Copy-14" fill="#8181D3" opacity="0.630944293"></path>
                    <path d="M58.6120309,45.0366139 L53.4442655,45.0366139 C52.6574092,45.0366139 52.0194922,44.3971728 52.0194922,43.6084365 L52.0194922,33.0470212 C52.0194922,30.8355451 50.2246071,29.0363717 48.0184021,29.0363717 C45.8121971,29.0363717 44.017312,30.8355451 44.017312,33.0470212 L44.017312,43.6084365 C44.017312,44.3971728 43.379395,45.0366139 42.5925387,45.0366139 L37.4247733,45.0366139 C36.637917,45.0366139 36,44.3971728 36,43.6084365 L36,33.0470212 C36.0000952,26.4041981 41.3914123,21 48.018307,21 C54.6452016,21 60.0366139,26.4041981 60.0366139,33.0470212 L60.0366139,43.6084365 C60.0367091,44.3971728 59.3987921,45.0366139 58.6120309,45.0366139 Z" id="Shape" fill="#FFFFFF" fill-rule="nonzero"></path>
                    <path d="M48,21 L48,29.0363717 C50.2574942,29.0363717 52.0941063,30.8355451 52.0941063,33.0470212 L52.0941063,43.6084365 C52.0941063,44.3971728 52.7468534,45.0366139 53.5520023,45.0366139 L58.8399064,45.0366139 C59.6450553,45.0366139 60.2978025,44.3971728 60.2978025,43.6084365 L60.2978025,33.0470212 C60.2977051,26.4041981 54.7809548,21 48,21 Z" id="Shape" fill="#D2E2FC" fill-rule="nonzero"></path>
                    <path d="M61.8538703,69.6322188 L33.5986241,69.6322188 C31.0629782,69.6322188 29,67.6022144 29,65.1070971 L29,46.7667805 C29,44.2716632 31.0629782,42.2416588 33.5986241,42.2416588 L61.8537743,42.2416588 C64.3894203,42.2416588 66.4523984,44.2716632 66.4523984,46.7667805 L66.4523984,65.1070971 C66.4524944,67.6022144 64.3895163,69.6322188 61.8538703,69.6322188 Z" id="Shape" fill="#D2E2FC" fill-rule="nonzero"></path>
                    <path d="M61.9223292,42.2416588 L48.0056947,42.2416588 L48.0056947,69.6322188 L61.9223292,69.6322188 C64.4201745,69.6322188 66.4523984,67.6022214 66.4523984,65.1071127 L66.4523984,46.7668594 C66.4523984,44.2715617 64.4201745,42.2416588 61.9223292,42.2416588 Z" id="Shape" fill="#B2C3F7" fill-rule="nonzero"></path>
                    <path d="M51.5726195,63.4833176 L43.8813436,63.4833176 C43.4045259,63.4833176 42.9575338,63.2548363 42.6834321,62.8707298 C42.4092327,62.4867196 42.342443,61.9953982 42.5041855,61.5539308 L44.0355563,57.3720688 C43.0161093,56.397703 42.4157845,55.0418292 42.4157845,53.6171416 C42.4157845,50.7352361 44.7980147,48.39056 47.7261992,48.39056 C50.6543837,48.39056 53.0366139,50.7351399 53.0366139,53.6171416 C53.0366139,55.0410593 52.4365825,56.3966443 51.4180155,57.3710102 L52.9497776,61.5539308 C53.11152,61.9953982 53.0445348,62.4867196 52.7705309,62.8707298 C52.4964292,63.2548363 52.0495349,63.4833176 51.5726195,63.4833176 Z" id="Shape" fill="#FFFFFF" fill-rule="nonzero"></path>
                    <path d="M48.0056947,48.39056 L48.0056947,63.4833176 L51.6495696,63.4833176 C52.1013249,63.4833176 52.5248223,63.2548349 52.7845167,62.8707259 C53.0442111,62.4867132 53.1075828,61.9953887 52.9543418,61.5539185 L51.503092,57.3709712 C52.4681212,56.3965991 53.0366139,55.0411017 53.0366139,53.6170787 C53.0366139,50.7353473 50.7797833,48.3907525 48.0056947,48.39056 Z" id="Shape" fill="#FFFFFF" fill-rule="nonzero"></path>
                </g>
            </g>
            <g id="Group-68" transform="translate(0.000000, 224.000000)">
                <g id="Group-63">
                    <path d="M97.0350712,48.5 C97.0350712,63.3451953 92.5343703,75.13385 83.5328334,83.8663179 C74.5312965,92.5987857 62.7321615,96.9649541 48.1350747,96.9649541 C33.5379878,96.9649541 21.8604934,92.5987857 13.1022413,83.8663179 C4.34398915,75.13385 -0.0350712272,63.3451953 -0.0350712272,48.5 C-0.0350712272,34.0914281 4.34398915,22.4119276 13.1022413,13.461148 C21.8604934,4.51036852 33.5379878,0.0350458849 48.1350747,0.0350458849 C62.7321615,0.0350458849 74.5312965,4.40121431 83.5328334,13.1336821 C92.5343703,21.86615 97.0350712,33.6548047 97.0350712,48.5 Z" id="Path-Copy-17" fill="#8181D3" opacity="0.630944293"></path>
                    <path d="M69.8763931,69.2532928 L59.6636272,69.2532928 L59.6636272,36.8318136 L72.7943262,36.8318136 C73.6000648,36.8318136 74.2532928,37.4896464 74.2532928,38.3010649 L74.2532928,64.8455388 C74.2532928,67.2798924 72.2937062,69.2532928 69.8763931,69.2532928 Z" id="Shape" fill="#6868B5" fill-rule="nonzero"></path>
                    <path d="M69.3900709,69.2532928 L31.289626,69.2532928 C27.2657524,69.2532928 24,65.9554205 24,61.8919706 L24,20.4722644 C24,19.6476982 24.6413899,19 25.4579252,19 L63.5583702,19 C64.3749055,19 65.0162954,19.6476982 65.0162954,20.4722644 L65.0162954,64.8364995 C65.0162954,67.2803603 66.9698179,69.2532928 69.3900709,69.2532928 Z" id="Shape" fill="#FFFFFF" fill-rule="nonzero"></path>
                    <path d="M69.3900709,69.2532928 L45.0739615,69.2532928 L45.0739615,19 L63.6909828,19 C64.4889501,19 65.1157548,19.6476982 65.1157548,20.4722644 L65.1157548,64.8364995 C65.1157548,67.2803603 67.0248544,69.2532928 69.3900709,69.2532928 Z" id="Shape" fill="#B2C3F7" fill-rule="nonzero"></path>
                    <path d="M35.7953282,44.9371834 C31.5835855,44.9371834 28.0526849,48.7668761 28.0526849,53.4478217 L28.0526849,54.8662614 C28.0526849,55.6606822 28.6141542,56.2847011 29.3289448,56.2847011 L42.1766277,56.2847011 C42.8914183,56.2847011 43.4528875,55.6606822 43.4528875,54.8662614 L43.4528875,53.4478217 C43.4528875,48.7668761 40.0070709,44.9371834 35.7953282,44.9371834 Z" id="Shape" fill="#B2C3F7" fill-rule="nonzero"></path>
                    <path d="M44.2634245,53.4478217 L44.2634245,54.8662614 C44.2634245,55.6606822 43.6691208,56.2847011 42.9125296,56.2847011 L36.1580547,56.2847011 L36.1580547,44.9371834 C40.6160982,44.9371834 44.2634245,48.7668761 44.2634245,53.4478217 Z" id="Shape" fill="#6868B5" fill-rule="nonzero"></path>
                    <path d="M35.3944083,36.8318136 C32.2997245,36.8318136 29.6737589,39.3850996 29.6737589,42.5055724 C29.6737589,45.6260453 32.2997245,48.1793313 35.3944083,48.1793313 C38.4890921,48.1793313 41.0212766,45.6260453 41.0212766,42.5055724 C41.0212766,39.3850996 38.4890921,36.8318136 35.3944083,36.8318136 Z" id="Shape" fill="#B2C3F7" fill-rule="nonzero"></path>
                    <path d="M42.6423506,42.5055724 C42.6423506,45.6260453 39.7243094,48.1793313 36.1580547,48.1793313 L36.1580547,36.8318136 C39.7243094,36.8318136 42.6423506,39.3850996 42.6423506,42.5055724 Z" id="Shape" fill="#6868B5" fill-rule="nonzero"></path>
                    <path d="M58.2143226,25.4842958 L31.9336004,25.4842958 C31.1218932,25.4842958 30.4842958,26.1896233 30.4842958,27.0875558 L30.4842958,33.6074797 C30.4842958,34.5051983 31.1218932,35.2107396 31.9336004,35.2107396 L58.2143226,35.2107396 C59.0260298,35.2107396 59.6636272,34.5051983 59.6636272,33.6074797 L59.6636272,27.0875558 C59.6636272,26.1896233 59.0260298,25.4842958 58.2143226,25.4842958 Z" id="Shape" fill="#B2C3F7" fill-rule="nonzero"></path>
                    <path d="M59.6636272,27.0875558 L59.6636272,33.6074797 C59.6636272,34.5051983 59.0260298,35.2107396 58.2143226,35.2107396 L45.0739615,35.2107396 L45.0739615,25.4842958 L58.2143226,25.4842958 C59.0260298,25.4842958 59.6636272,26.1896233 59.6636272,27.0875558 Z" id="Shape" fill="#6868B5" fill-rule="nonzero"></path>
                    <path d="M60.142134,45.3796045 L52.3727949,45.3796045 C51.9229656,45.3796045 51.5582573,44.9176408 51.5582573,44.347857 C51.5582573,43.7780732 51.9229656,43.3161094 52.3727949,43.3161094 L60.142134,43.3161094 C60.5919633,43.3161094 60.9566715,43.7780732 60.9566715,44.347857 C60.9566715,44.9176408 60.5919633,45.3796045 60.142134,45.3796045 Z" id="Shape" fill="#FFFFFF" fill-rule="nonzero" transform="translate(56.257464, 44.347857) scale(-1, 1) translate(-56.257464, -44.347857) "></path>
                    <path d="M59.8061998,40.5163827 L49.130647,40.5163827 C48.6808176,40.5163827 48.3161094,40.0544189 48.3161094,39.4846351 C48.3161094,38.9148513 48.6808176,38.4528875 49.130647,38.4528875 L59.8061998,38.4528875 C60.2560291,38.4528875 60.6207374,38.9148513 60.6207374,39.4846351 C60.6207374,40.0544189 60.2560291,40.5163827 59.8061998,40.5163827 Z" id="Shape" fill="#FFFFFF" fill-rule="nonzero" transform="translate(54.468423, 39.484635) scale(-1, 1) translate(-54.468423, -39.484635) "></path>
                    <path d="M60.142134,55.1060483 L52.3727949,55.1060483 C51.9229656,55.1060483 51.5582573,54.6440846 51.5582573,54.0743007 C51.5582573,53.5045169 51.9229656,53.0425532 52.3727949,53.0425532 L60.142134,53.0425532 C60.5919633,53.0425532 60.9566715,53.5045169 60.9566715,54.0743007 C60.9566715,54.6440846 60.5919633,55.1060483 60.142134,55.1060483 Z" id="Shape-Copy" fill="#FFFFFF" fill-rule="nonzero" transform="translate(56.257464, 54.074301) scale(-1, 1) translate(-56.257464, -54.074301) "></path>
                    <path d="M59.8061998,50.2428264 L49.130647,50.2428264 C48.6808176,50.2428264 48.3161094,49.7808627 48.3161094,49.2110789 C48.3161094,48.6412951 48.6808176,48.1793313 49.130647,48.1793313 L59.8061998,48.1793313 C60.2560291,48.1793313 60.6207374,48.6412951 60.6207374,49.2110789 C60.6207374,49.7808627 60.2560291,50.2428264 59.8061998,50.2428264 Z" id="Shape-Copy-2" fill="#FFFFFF" fill-rule="nonzero" transform="translate(54.468423, 49.211079) scale(-1, 1) translate(-54.468423, -49.211079) "></path>
                </g>
            </g>
        </g>
        <g id="Group-3" opacity="0.4" transform="translate(76.000000, 14.000000)">
            <path d="M374.182489,221.062807 C375.549687,213.254946 376.433833,205.280894 376.802986,197.17259" id="Oval-4" stroke="#523B85" stroke-width="5" stroke-linecap="round"></path>
            <path d="M95.4754969,26.2432635 C89.1011364,29.9450564 82.964921,34.0117076 77.0954405,38.4146272" id="Path" stroke="#523B85" stroke-width="5" stroke-linecap="round"></path>
            <path d="M275.180757,21.6772447 C261.080541,14.4207141 245.941164,8.89933208 230.044765,5.39523964 M157.086746,3.79138631 C140.983549,6.59765745 125.58602,11.4584065 111.174142,18.0936507" id="Path" stroke="#523B85" stroke-width="5" stroke-linecap="round"></path>
            <path d="M193.147221,1.0347642 C191.934266,1.01162301 190.71849,1 189.5,1 C182.91719,1 176.413612,1.33923227 170.005794,2.00116877" id="Path" stroke="#523B85" stroke-width="5" stroke-linecap="round"></path>
            <circle id="Oval-5" fill="#523B85" cx="211.5" cy="2.5" r="2.5"></circle>
            <path d="M98.158455,352.285376 C101.135038,353.948947 104.161639,355.533728 107.235437,357.036896" id="Path" stroke="#523B85" stroke-width="5" stroke-linecap="round"></path>
            <path d="M282.033609,351.613418 C284.567855,350.172652 287.065239,348.674531 289.523994,347.120819 M299.838888,340.112988 C302.645964,338.066583 305.394044,335.944116 308.080098,333.748615" id="Path" stroke="#523B85" stroke-width="5" stroke-linecap="round"></path>
            <circle id="Oval-6-Copy-2" fill="#523B85" cx="376.5" cy="185.5" r="2.5"></circle>
            <path d="M71.6112357,126.940831 L83.0300083,133.120252 M91.5235297,137.573965 L97.3225554,140.701628" id="Path" stroke="#523B85" stroke-width="5" stroke-linecap="round"></path>
            <circle id="Oval-5-Copy" fill="#523B85" transform="translate(103.500000, 235.500000) scale(-1, 1) translate(-103.500000, -235.500000) " cx="103.5" cy="235.5" r="2.5"></circle>
            <circle id="Oval-5-Copy-4" fill="#523B85" transform="translate(2.500000, 209.500000) scale(-1, 1) translate(-2.500000, -209.500000) " cx="2.5" cy="209.5" r="2.5"></circle>
            <circle id="Oval-5-Copy-5" fill="#523B85" transform="translate(79.500000, 342.500000) scale(-1, 1) translate(-79.500000, -342.500000) " cx="79.5" cy="342.5" r="2.5"></circle>
            <circle id="Oval-5-Copy-2" fill="#523B85" transform="translate(256.500000, 153.500000) scale(-1, 1) translate(-256.500000, -153.500000) " cx="256.5" cy="153.5" r="2.5"></circle>
            <path d="M126.040025,230.376417 L113,223" id="Path-4" stroke="#523B85" stroke-width="5" stroke-linecap="round" transform="translate(119.520013, 226.688208) scale(-1, 1) translate(-119.520013, -226.688208) "></path>
            <path d="M93.0400251,248.376417 L80,241" id="Path-4-Copy" stroke="#523B85" stroke-width="5" stroke-linecap="round" transform="translate(86.520013, 244.688208) scale(-1, 1) translate(-86.520013, -244.688208) "></path>
            <circle id="Oval-5-Copy" fill="#523B85" cx="257.5" cy="232.5" r="2.5"></circle>
            <circle id="Oval-5-Copy-3" fill="#523B85" cx="315.5" cy="327.5" r="2.5"></circle>
            <g id="Group-2" transform="translate(266.000000, 140.000000)" stroke="#523B85" stroke-linecap="round" stroke-width="5">
                <path d="M0,97 L23.9071062,110.123109" id="Path-4"></path>
                <path d="M3.79402757,0.686246028 L14.9890101,6.74455993" id="Path" transform="translate(9.391519, 3.715403) scale(-1, 1) translate(-9.391519, -3.715403) "></path>
            </g>
            <circle id="Oval-7" fill="#523B85" cx="106.5" cy="145.5" r="2.5"></circle>
        </g>
        <path d="M78.760723,185.49506 C78.2572117,191.096024 78,196.767974 78,202.5" id="Path" stroke="#523B85" stroke-width="5" opacity="0.4" stroke-linecap="round"></path>
        <path d="M81.9256154,164.148388 C81.0192986,168.508861 80.4244975,171.87411 79.8268229,176.339844" id="Path" stroke="#523B85" stroke-width="5" opacity="0.4" stroke-linecap="round"></path>
    </g>
</svg>