<?xml version="1.0" encoding="utf-8"?>
<!-- Generator: Adobe Illustrator 16.0.0, SVG Export Plug-In . SVG Version: 6.00 Build 0)  -->
<!DOCTYPE svg PUBLIC "-//W3C//DTD SVG 1.1//EN" "http://www.w3.org/Graphics/SVG/1.1/DTD/svg11.dtd">
<svg version="1.1" xmlns="http://www.w3.org/2000/svg" xmlns:xlink="http://www.w3.org/1999/xlink" x="0px" y="0px"
	 width="587.166px" height="145.001px" viewBox="0 0 587.166 145.001" enable-background="new 0 0 587.166 145.001"
	 xml:space="preserve">
<g id="Calque_1" display="none">
	
		<image display="inline" overflow="visible" width="968" height="286" xlink:href="../../../../Desktop/Screen Shot 2018-04-11 at 23.55.38.png"  transform="matrix(0.615 0 0 0.5 -9.765625e-04 21.333)">
	</image>
</g>
<g id="Calque_2">
	<path fill="#FFFFFF" d="M78.667,96.667c-13.347,0-24.167,10.819-24.167,24.166C54.5,134.181,65.32,145,78.667,145L563,145.001
		c13.348,0,24.166-10.82,24.166-24.168c0-13.347-10.818-24.166-24.166-24.166H366.58c-13.346,0-24.166-10.82-24.166-24.168
		c0-13.347,10.82-24.166,24.166-24.166l19.686,0c13.348,0,24.168-10.82,24.168-24.167C410.434,10.819,399.613,0,386.266,0h-362.1
		C10.82,0,0,10.819,0,24.166c0,13.348,10.82,24.167,24.166,24.167h74.78c13.347,0,24.167,10.819,24.167,24.166
		c0,13.348-10.82,24.167-24.167,24.167H78.667z"/>
</g>
</svg>
